<svg width="20" height="20" viewBox="0 0 20 20" fill="none" xmlns="http://www.w3.org/2000/svg">
<g clip-path="url(#clip0_742_18606)">
<path d="M5.50586 13.4553V18.9583" stroke="#A5D6A7" stroke-linecap="round" stroke-linejoin="round"/>
<path d="M14.4941 13.4553V18.9583" stroke="#A5D6A7" stroke-linecap="round" stroke-linejoin="round"/>
<path d="M10 1.0415V3.12484" stroke="#A5D6A7" stroke-linecap="round" stroke-linejoin="round"/>
<path d="M10.8336 3.125H9.16699" stroke="#A5D6A7" stroke-linecap="round" stroke-linejoin="round"/>
<path d="M15.1191 1.0415V3.12481" stroke="#A5D6A7" stroke-linecap="round" stroke-linejoin="round"/>
<path d="M15.9524 3.125H14.2856" stroke="#A5D6A7" stroke-linecap="round" stroke-linejoin="round"/>
<path d="M5 1.0415V3.12484" stroke="#A5D6A7" stroke-linecap="round" stroke-linejoin="round"/>
<path d="M4.1665 3.125H5.83316" stroke="#A5D6A7" stroke-linecap="round" stroke-linejoin="round"/>
<path d="M15.8334 9.46436H12.5" stroke="#A5D6A7" stroke-linecap="round" stroke-linejoin="round"/>
<path d="M18.0357 1.0415H1.96429C1.5698 1.0415 1.25 1.3613 1.25 1.75579V12.7415C1.25 13.136 1.5698 13.4558 1.96429 13.4558H18.0357C18.4302 13.4558 18.75 13.136 18.75 12.7415V1.75579C18.75 1.3613 18.4302 1.0415 18.0357 1.0415Z" stroke="#A5D6A7" stroke-linecap="round" stroke-linejoin="round"/>
</g>
<defs>
<clipPath id="clip0_742_18606">
<rect width="20" height="20" fill="white"/>
</clipPath>
</defs>
</svg>
