<svg width="20" height="20" viewBox="0 0 20 20" fill="none" xmlns="http://www.w3.org/2000/svg">
<g clip-path="url(#clip0_587_6160)">
<path d="M7.14293 17.4858L0.714355 19.2858L2.51436 12.8572L14.2858 1.14296C14.4188 1.00689 14.5778 0.898778 14.7531 0.824968C14.9285 0.751156 15.1169 0.713135 15.3072 0.713135C15.4975 0.713135 15.6859 0.751156 15.8614 0.824968C16.0366 0.898778 16.1956 1.00689 16.3286 1.14296L18.8572 3.68581C18.9911 3.81861 19.0974 3.97663 19.1699 4.1507C19.2425 4.32478 19.2798 4.51151 19.2798 4.7001C19.2798 4.88868 19.2425 5.07541 19.1699 5.2495C19.0974 5.42358 18.9911 5.58158 18.8572 5.71438L7.14293 17.4858Z" stroke="#0B9055" stroke-linecap="round" stroke-linejoin="round"/>
</g>
<defs>
<clipPath id="clip0_587_6160">
<rect width="20" height="20" fill="white"/>
</clipPath>
</defs>
</svg>
