<svg width="879" height="826" viewBox="0 0 879 826" fill="none" xmlns="http://www.w3.org/2000/svg">
<path d="M481.254 654.321H279.337V810.058H481.254V654.321Z" fill="#EBEBEB"/>
<path d="M430.673 808.973C430.402 808.973 430.169 774.251 430.169 731.425C430.169 688.598 430.402 653.876 430.673 653.876C430.945 653.876 431.177 688.598 431.177 731.425C431.177 774.251 430.945 808.973 430.673 808.973Z" fill="#E0E0E0"/>
<path d="M464.136 774.619H448.665V792.126H464.136V774.619Z" fill="#FAFAFA"/>
<path d="M363.885 654.729H340.95V687.958H363.885V654.729Z" fill="#E0E0E0"/>
<path d="M363.885 776.363H340.95V809.593H363.885V776.363Z" fill="#E0E0E0"/>
<path d="M847.652 615.276H593.041V811.649H847.652V615.276Z" fill="#EBEBEB"/>
<path d="M783.849 810.253C783.577 810.253 783.345 766.496 783.345 712.503C783.345 658.51 783.577 614.753 783.849 614.753C784.12 614.753 784.353 658.51 784.353 712.503C784.353 766.496 784.14 810.253 783.849 810.253Z" fill="#E0E0E0"/>
<path d="M826.055 766.941H806.532V789.004H826.055V766.941Z" fill="#FAFAFA"/>
<path d="M699.631 615.78H670.705V657.676H699.631V615.78Z" fill="#E0E0E0"/>
<path d="M699.631 769.151H670.705V811.047H699.631V769.151Z" fill="#E0E0E0"/>
<path d="M113.48 621.053C123.794 615.741 135.931 615.043 147.369 616.943C153.515 617.952 159.913 619.793 164.1 624.407C168.288 629.022 169.063 637.145 164.275 641.119C161.405 643.484 157.431 643.833 153.709 643.795C144.752 643.678 134.826 642.108 127.672 647.498C123.581 650.58 120.867 655.679 116.04 657.191C111.212 658.703 105.881 655.853 103.36 651.549C101.029 647.061 100.515 641.847 101.926 636.99C102.497 633.624 103.836 630.435 105.84 627.671C107.844 624.907 110.459 622.642 113.48 621.053Z" fill="#EBEBEB"/>
<path d="M89.8669 575.474C96.1677 584.469 108.42 581.503 114.101 575.997C119.781 570.491 122.185 562.543 124.357 554.962C129.358 537.611 134.38 519.406 130.677 501.745C129.785 496.388 127.43 491.383 123.872 487.282C122.07 485.267 119.774 483.759 117.21 482.905C114.646 482.052 111.903 481.883 109.254 482.416C103.07 484.044 99.2309 490.171 96.4585 495.851C88.2846 512.832 84.0058 531.425 83.9344 550.271C83.9344 559.053 84.9232 568.242 89.8669 575.474Z" fill="#EBEBEB"/>
<path d="M72.5736 588.386C79.4173 580.262 80.7162 568.436 77.6724 558.258C74.6286 548.08 67.7462 539.433 59.8169 532.357C50.4908 524.061 39.6389 517.661 27.8669 513.513C23.3043 511.669 18.3968 510.836 13.4816 511.07C11.0297 511.21 8.64911 511.947 6.54734 513.218C4.44556 514.488 2.68631 516.253 1.42281 518.359C-1.95055 524.776 1.2871 532.551 4.77679 538.91C10.9221 550.098 17.936 560.788 25.7537 570.879C32.0545 578.983 39.3247 586.99 48.8437 590.654C58.3628 594.318 68.4054 593.892 73.4848 587.242" fill="#EBEBEB"/>
<path d="M89.4404 711.223C89.7771 709.89 89.972 708.525 90.022 707.151C90.3128 704.166 90.6618 700.424 91.1077 695.984C91.6634 690.491 92.4982 685.03 93.6087 679.622C95.0654 673.009 97.0559 666.525 99.5605 660.234C102.017 653.985 105.339 648.112 109.429 642.786C112.772 638.455 117.028 634.914 121.894 632.414C125.204 630.783 128.75 629.683 132.402 629.157C133.777 629.103 135.142 628.902 136.474 628.556C135.101 628.405 133.716 628.405 132.344 628.556C128.552 628.842 124.841 629.807 121.39 631.406C116.252 633.83 111.745 637.414 108.227 641.875C103.946 647.271 100.496 653.276 97.9902 659.692C95.4885 666.058 93.5425 672.629 92.174 679.331C91.1193 684.808 90.3878 690.343 89.9833 695.907C89.6343 700.657 89.4986 704.495 89.4404 707.151C89.2975 708.505 89.2975 709.869 89.4404 711.223Z" fill="#E0E0E0"/>
<path d="M90.2159 702.654C90.3309 702.015 90.37 701.364 90.3322 700.716C90.3322 699.281 90.3322 697.478 90.3322 695.287C90.3322 690.576 90.3322 683.752 90.5648 675.338C90.9914 658.51 92.5036 640.441 95.2372 614.869C97.8932 590.849 101.441 562.912 105.202 544.746C105.997 540.617 106.811 536.894 107.587 533.637C108.362 530.38 108.924 527.55 109.525 525.281C110.126 523.013 110.456 521.404 110.805 520.008C110.995 519.378 111.105 518.727 111.135 518.069C110.843 518.635 110.621 519.234 110.475 519.853C110.049 521.229 109.525 522.936 108.886 525.049C108.246 527.162 107.47 530.109 106.656 533.346C105.842 536.584 104.911 540.306 104.039 544.436C99.3816 565.92 95.8804 587.639 93.5505 609.499C90.7587 635.09 89.4986 658.393 89.3822 675.26C89.3822 683.694 89.3822 690.537 89.673 695.248C89.8088 697.439 89.9251 699.242 90.0026 700.657C89.9932 701.329 90.0648 702 90.2159 702.654Z" fill="#E0E0E0"/>
<path d="M90.3322 657.714C90.48 655.824 90.48 653.924 90.3322 652.034C90.119 648.389 89.6149 643.135 88.5874 636.679C87.3193 629.131 85.6235 621.662 83.5079 614.306C81.0629 605.254 77.9326 596.401 74.144 587.824C67.6574 572.019 58.3486 557.527 46.6724 545.056C44.6465 542.914 42.4835 540.907 40.1971 539.046C39.2083 538.193 38.2584 537.359 37.4441 536.7L35.0401 534.974C33.5313 533.823 31.9296 532.798 30.2515 531.911C29.9801 532.279 37.0176 536.428 45.8969 545.87C57.1914 558.458 66.2527 572.882 72.6899 588.522C76.4133 597.043 79.5547 605.806 82.0927 614.752C84.2246 622.04 85.991 629.429 87.3854 636.893C88.5486 643.271 89.3241 648.525 89.6343 652.092C89.7172 653.982 89.9506 655.862 90.3322 657.714Z" fill="#E0E0E0"/>
<path d="M43.8806 730.145L48.3785 791.854H127.652L132.15 730.145H43.8806Z" fill="#EBEBEB"/>
<path d="M141.592 705.834H36.2227V730.145H141.592V705.834Z" fill="#EBEBEB"/>
<path d="M36.2227 789.489V796.217H41.1858H139.866V789.489H36.2227Z" fill="#E0E0E0"/>
<path d="M46.0326 807.344L41.1858 795.479H136.086L130.425 807.344H46.0326Z" fill="#E0E0E0"/>
<path d="M130.677 750.307C130.578 750.515 130.454 750.71 130.308 750.889C129.998 751.296 129.591 751.819 129.126 752.459L124.512 758.275L124.298 758.547L124.105 758.275L112.763 742.591H113.403L102.236 758.391L101.887 758.895L101.499 758.43L88.2578 742.668H89.0139L88.2966 743.599L76.451 758.43L76.0439 758.934L75.6949 758.411L64.5086 742.61H65.1677L51.4028 758.275L51.1702 758.566L50.9763 758.236L46.6724 751.102C46.2071 750.326 45.8581 749.687 45.5673 749.163C45.4212 748.947 45.3038 748.712 45.2184 748.465C45.3998 748.651 45.5562 748.859 45.6836 749.086L46.905 750.927L51.4222 758.042H50.9957L64.5667 742.184L64.8963 741.777L65.2065 742.203L76.4898 757.946H75.7531L87.5598 743.076C87.8119 742.765 88.0639 742.455 88.2772 742.164L88.6649 741.68L89.0527 742.145L102.255 757.946H101.519L112.802 742.223L113.131 741.757L113.442 742.223C117.92 748.601 121.72 754.01 124.55 758.081H124.143L128.951 752.265C129.475 751.664 129.901 751.179 130.231 750.772C130.368 750.606 130.517 750.451 130.677 750.307Z" fill="#F5F5F5"/>
<path d="M133.255 729.738C133.255 730.009 113.384 730.242 88.8976 730.242C64.4116 730.242 44.5398 730.009 44.5398 729.738C44.5398 729.466 64.3922 729.253 88.8976 729.253C113.403 729.253 133.255 729.466 133.255 729.738Z" fill="#F5F5F5"/>
<path d="M689.205 30.1553L672.958 30.2432L673.396 111.086L689.642 110.998L689.205 30.1553Z" fill="#E0E0E0"/>
<path d="M574.281 30.3705L532.211 30.5981L532.453 75.2267L574.522 74.9991L574.281 30.3705Z" fill="#EBEBEB"/>
<path d="M616.155 30.144L574.086 30.3716L574.327 75.0001L616.397 74.7725L616.155 30.144Z" fill="#F5F5F5"/>
<path d="M532.262 42.9487C560.231 43.1813 588.213 43.052 616.208 42.5609C616.326 42.5609 616.44 42.5139 616.524 42.4303C616.607 42.3467 616.654 42.2333 616.654 42.115C616.654 41.9967 616.607 41.8833 616.524 41.7997C616.44 41.7161 616.326 41.6691 616.208 41.6691C588.252 41.514 560.218 41.6691 532.262 42.1925C532.176 42.2121 532.1 42.2601 532.045 42.3288C531.99 42.3975 531.96 42.4827 531.96 42.5706C531.96 42.6585 531.99 42.7437 532.045 42.8124C532.1 42.8811 532.176 42.9291 532.262 42.9487Z" fill="#E0E0E0"/>
<path d="M582.429 74.2573L505.986 74.6709L506.183 111.041L582.626 110.627L582.429 74.2573Z" fill="#EBEBEB"/>
<path d="M658.501 73.8457L582.058 74.2593L582.255 110.629L658.697 110.215L658.501 73.8457Z" fill="#F5F5F5"/>
<path d="M506.031 84.8247C556.806 85.3869 607.755 84.8247 658.55 84.0686C658.668 84.0686 658.781 84.0216 658.865 83.938C658.949 83.8544 658.996 83.7409 658.996 83.6227C658.996 83.5044 658.949 83.391 658.865 83.3074C658.781 83.2238 658.668 83.1768 658.55 83.1768C607.775 82.9054 556.806 82.9247 506.031 84.0492C505.928 84.0492 505.83 84.09 505.757 84.1628C505.684 84.2355 505.643 84.3341 505.643 84.4369C505.643 84.5398 505.684 84.6384 505.757 84.7111C505.83 84.7838 505.928 84.8247 506.031 84.8247Z" fill="#E0E0E0"/>
<path d="M773.593 111.075H477.435V124.103H773.593V111.075Z" fill="#E0E0E0"/>
<path d="M537.942 117.337H525.922V161.792H537.942V117.337Z" fill="#E0E0E0"/>
<path d="M717.409 117.337H705.389V161.792H717.409V117.337Z" fill="#E0E0E0"/>
<path d="M705.055 -1.05783e-05L688.809 0.0878906L689.41 111.271L705.657 111.184L705.055 -1.05783e-05Z" fill="#EBEBEB"/>
<path d="M730.428 20.7038L705.187 20.8403L705.674 110.95L730.916 110.814L730.428 20.7038Z" fill="#F5F5F5"/>
<path d="M730.263 38.102C721.872 38.6946 713.45 38.6946 705.059 38.102C713.451 37.535 721.871 37.535 730.263 38.102Z" fill="#E0E0E0"/>
<path d="M730.263 34.4181C726.07 34.8425 721.853 34.985 717.642 34.8447C713.43 34.9842 709.213 34.8417 705.021 34.4181C713.411 33.8255 721.833 33.8255 730.224 34.4181H730.263Z" fill="#E0E0E0"/>
<path d="M730.263 97.2904C721.872 97.8831 713.45 97.8831 705.059 97.2904C713.451 96.7235 721.871 96.7235 730.263 97.2904Z" fill="#E0E0E0"/>
<path d="M730.263 93.5099C721.871 94.0769 713.451 94.0769 705.059 93.5099C713.45 92.9173 721.872 92.9173 730.263 93.5099Z" fill="#E0E0E0"/>
<path d="M718.049 85.2513C717.816 85.2513 717.622 76.1587 717.622 64.953C717.622 53.7472 717.816 44.6353 718.049 44.6353C718.281 44.6353 718.495 53.7278 718.495 64.953C718.495 76.1781 718.301 85.2513 718.049 85.2513Z" fill="#E0E0E0"/>
<path d="M758.025 42.8711H730.553V110.881H758.025V42.8711Z" fill="#EBEBEB"/>
<path d="M696.684 23.6971C699.265 23.6971 701.357 21.6053 701.357 19.0248C701.357 16.4444 699.265 14.3525 696.684 14.3525C694.104 14.3525 692.012 16.4444 692.012 19.0248C692.012 21.6053 694.104 23.6971 696.684 23.6971Z" fill="#E0E0E0"/>
<path d="M698.138 31.8784H695.25V98.0273H698.138V31.8784Z" fill="#E0E0E0"/>
<path d="M856.395 810.582C856.395 810.873 670.046 811.086 440.251 811.086C210.455 811.086 24.067 810.873 24.067 810.582C24.067 810.291 210.377 810.078 440.251 810.078C670.124 810.078 856.395 810.311 856.395 810.582Z" fill="#263238"/>
<path d="M244.828 99.0742C253.971 110.263 258.921 124.292 258.826 138.74C258.729 146.922 257.217 155.937 261.986 162.586C265.592 167.627 272.184 170.167 275.111 175.634C278.639 182.206 275.634 190.523 277.806 197.658C280.869 207.778 292.734 212.024 299.771 219.914C302.771 223.403 304.87 227.575 305.884 232.063C306.898 236.552 306.796 241.22 305.588 245.66C304.306 250.082 301.987 254.133 298.824 257.478C295.661 260.823 291.745 263.365 287.402 264.892C282.765 266.72 277.593 266.637 273.017 264.66C268.267 262.294 265.262 257.428 262.936 252.678C258.264 243.334 217.221 192.83 214.895 182.633" fill="#263238"/>
<path d="M214.972 87.1707C198.183 84.4565 182.014 95.6041 174.976 111.075C167.939 126.546 167.706 144.033 167.222 161.094C166.737 178.155 165.496 195.836 156.83 210.454C151.324 219.74 142.794 227.902 141.456 238.584C140.254 248.161 145.217 257.816 143.569 267.335C142.135 275.633 135.814 282.845 136.066 291.24C136.377 301.36 146.788 308.979 156.888 309.25C166.989 309.522 176.45 304.229 184.379 297.948C197.298 287.69 207.636 274.551 214.565 259.581" fill="#263238"/>
<path d="M187.345 127.186C186.818 122.962 187.144 118.676 188.305 114.581C189.466 110.487 191.438 106.667 194.103 103.349C196.768 100.031 200.073 97.2818 203.821 95.2653C207.569 93.2489 211.684 92.0059 215.922 91.6103C232.847 89.9818 247.911 102.603 250.451 119.431C252.68 134.184 254.58 149.074 254.522 154.483C254.309 170.787 244.828 177.127 240.951 179.046C239.556 179.547 238.114 179.904 236.647 180.113V180.229L240.253 198.957C241.901 211.229 235.057 222.221 222.805 223.947C210.552 225.672 200.916 216.308 199.036 204.036L187.345 127.186Z" fill="#FFBE9D"/>
<path d="M247.116 126.565C246.845 126.953 244.693 125.809 241.94 126.217C239.187 126.624 237.345 128.291 236.996 128C236.647 127.709 236.996 127.225 237.849 126.449C238.909 125.416 240.264 124.739 241.726 124.51C243.161 124.289 244.629 124.534 245.914 125.208C246.883 125.829 247.252 126.41 247.116 126.565Z" fill="#263238"/>
<path d="M222.572 132.536C222.3 132.924 220.148 131.761 217.376 132.168C214.604 132.575 212.801 134.262 212.452 133.971C212.103 133.68 212.452 133.176 213.305 132.42C214.365 131.387 215.72 130.71 217.182 130.481C218.619 130.277 220.083 130.528 221.37 131.199C222.32 131.8 222.708 132.362 222.572 132.536Z" fill="#263238"/>
<path d="M232.634 147.329C234.021 146.662 235.486 146.173 236.996 145.875C237.694 145.7 238.334 145.468 238.392 144.964C238.329 144.255 238.059 143.581 237.616 143.025L234.728 137.868C230.714 130.656 227.709 124.685 228 124.51C228.291 124.336 231.878 130.094 235.755 137.306C236.744 139.089 237.694 140.795 238.547 142.405C239.11 143.193 239.384 144.152 239.322 145.119C239.258 145.383 239.134 145.629 238.959 145.838C238.784 146.046 238.564 146.212 238.314 146.321C237.936 146.486 237.539 146.603 237.132 146.67C235.668 147.085 234.155 147.306 232.634 147.329Z" fill="#263238"/>
<path d="M236.492 180.132C236.492 180.132 225.965 182.555 211.463 176.487C211.463 176.487 217.725 189.961 237.481 185.172L236.492 180.132Z" fill="#EB996E"/>
<path d="M221.157 125.305C221.002 126.1 218.19 126.139 215.011 127.011C211.831 127.884 209.33 129.125 208.807 128.524C208.574 128.233 208.923 127.457 209.873 126.585C211.152 125.491 212.664 124.702 214.293 124.279C215.922 123.856 217.626 123.809 219.276 124.142C220.556 124.433 221.157 124.937 221.157 125.305Z" fill="#263238"/>
<path d="M244.848 120.458C244.46 121.156 242.463 120.788 240.175 121.079C237.888 121.37 236.007 122.126 235.464 121.525C235.232 121.234 235.464 120.575 236.201 119.857C237.218 118.956 238.493 118.4 239.846 118.268C241.181 118.107 242.534 118.357 243.723 118.985C244.654 119.508 245.022 120.109 244.848 120.458Z" fill="#263238"/>
<path d="M216.581 136.104C216.624 136.404 216.726 136.692 216.881 136.953C217.036 137.213 217.241 137.44 217.485 137.62C217.728 137.801 218.005 137.931 218.299 138.003C218.593 138.076 218.899 138.089 219.199 138.043C219.49 138.009 219.771 137.918 220.027 137.775C220.282 137.631 220.507 137.438 220.687 137.208C220.868 136.977 221 136.712 221.078 136.429C221.155 136.147 221.175 135.852 221.137 135.561C221.046 134.957 220.72 134.414 220.229 134.051C219.739 133.687 219.124 133.533 218.52 133.622C218.228 133.653 217.945 133.743 217.688 133.885C217.431 134.028 217.205 134.221 217.025 134.452C216.844 134.684 216.711 134.949 216.635 135.233C216.559 135.517 216.541 135.813 216.581 136.104Z" fill="#263238"/>
<path d="M241.028 130.811C241.119 131.415 241.446 131.958 241.936 132.321C242.427 132.684 243.042 132.838 243.646 132.75C243.937 132.716 244.218 132.625 244.474 132.482C244.729 132.338 244.954 132.146 245.134 131.915C245.315 131.684 245.448 131.419 245.525 131.136C245.602 130.854 245.622 130.559 245.584 130.268C245.493 129.664 245.167 129.121 244.676 128.758C244.186 128.395 243.571 128.24 242.967 128.329C242.675 128.36 242.392 128.45 242.135 128.592C241.878 128.735 241.653 128.928 241.472 129.159C241.291 129.391 241.158 129.656 241.082 129.94C241.006 130.224 240.988 130.52 241.028 130.811Z" fill="#263238"/>
<path d="M236.977 152.68C236.215 152.443 235.395 152.48 234.659 152.784C233.922 153.089 233.316 153.642 232.944 154.347C232.589 154.994 232.445 155.736 232.532 156.47C232.619 157.203 232.932 157.891 233.429 158.437C233.957 158.957 234.653 159.271 235.391 159.324C236.13 159.377 236.864 159.166 237.461 158.728C238.209 158.047 238.661 157.101 238.721 156.092C238.853 155.166 238.632 154.225 238.101 153.455C237.829 153.079 237.44 152.802 236.995 152.669C236.55 152.536 236.073 152.553 235.639 152.718" fill="#EB996E"/>
<path d="M248.299 106.151C246.777 100.008 242.979 94.6728 237.674 91.2228C233.332 88.0862 228.174 86.2748 222.824 86.0076C217.441 85.7759 212.185 87.6859 208.206 91.3197C205.383 94.1181 203.768 97.9111 203.708 101.886L204.018 99.1715C203.204 101.38 203.204 103.807 204.018 106.015C204.464 107.198 205.007 108.4 205.472 109.582C206.86 113 209.435 115.802 212.723 117.473C214.212 118.272 215.88 118.679 217.57 118.656C218.416 118.639 219.248 118.437 220.008 118.066C220.768 117.694 221.438 117.161 221.971 116.504C223.175 114.402 223.548 111.926 223.018 109.563C224.29 111.898 226.105 113.893 228.31 115.379C229.436 116.099 230.776 116.409 232.103 116.257C233.431 116.105 234.666 115.501 235.6 114.546C237.19 112.607 236.569 109.544 235.6 107.14C237.1 109.407 239.201 111.213 241.668 112.355C242.317 112.727 243.037 112.961 243.781 113.041C244.525 113.121 245.278 113.046 245.991 112.82C246.562 112.537 247.061 112.128 247.45 111.625C247.84 111.121 248.11 110.535 248.24 109.912C248.528 108.677 248.548 107.394 248.299 106.151Z" fill="#263238"/>
<path d="M234.282 111.308C234.107 111.308 234.146 109.001 233.39 105.492C232.518 100.829 230.173 96.5681 226.701 93.3358C224.793 91.6004 222.491 90.356 219.993 89.7104C217.948 89.2084 215.818 89.1555 213.751 89.5553C211.845 90.0007 210.025 90.7537 208.361 91.7848C208.361 91.7848 208.691 91.3001 209.544 90.6797C210.768 89.8234 212.143 89.2051 213.596 88.8573C215.77 88.3483 218.032 88.3483 220.207 88.8573C222.886 89.5261 225.353 90.8597 227.38 92.7348C231.015 96.1004 233.389 100.609 234.107 105.511C234.338 106.96 234.455 108.425 234.456 109.892C234.48 110.371 234.421 110.849 234.282 111.308Z" fill="#455A64"/>
<path d="M412.837 337.342L338.294 307.777C338.294 307.777 300.12 257.7 300.915 256.73L274.103 286.083L313.071 338.796L403.396 359.967L418.905 355.663C415.493 339.203 412.837 337.342 412.837 337.342Z" fill="#FFBE9D"/>
<path d="M250.373 194.479L240.214 190.601L196.36 196.165V203.92L195.1 204.075C185.647 206.085 176.58 209.607 168.249 214.505C160.445 219.269 154.245 226.258 150.444 234.574C146.644 242.89 145.418 252.152 146.923 261.17C148.707 272.26 152.158 285.734 158.827 293.527C171.564 308.436 183.197 290.018 183.197 290.018C183.197 290.018 191.184 308.242 190.719 316.869C190.331 324.101 187.152 339.145 186.124 343.837C186.082 344.024 186.078 344.219 186.114 344.408C186.149 344.596 186.222 344.776 186.329 344.936C186.436 345.096 186.575 345.232 186.736 345.336C186.897 345.44 187.078 345.511 187.268 345.543L279.783 362.662L280.229 340.037L277.282 246.979L273.114 210.841C273.114 210.841 273.25 193.587 250.373 194.479Z" fill="#93C595"/>
<path d="M271.699 204.831L306.983 255.8L278.581 290.386L271.699 204.831Z" fill="#93C595"/>
<path d="M279.318 312.081C279.191 310.987 279.146 309.885 279.182 308.785C279.182 306.497 279.182 303.492 279.066 299.828C278.894 289.994 278.189 280.176 276.953 270.418C275.499 258.979 273.269 248.762 271.582 241.337L269.527 232.613C269.229 231.558 269.009 230.482 268.868 229.395C269.309 230.402 269.66 231.446 269.915 232.516C270.516 234.455 271.33 237.498 272.261 241.182C274.764 250.747 276.668 260.46 277.961 270.263C279.207 280.061 279.816 289.931 279.783 299.809C279.783 303.686 279.686 306.672 279.57 308.785C279.58 309.889 279.496 310.991 279.318 312.081Z" fill="#263238"/>
<path d="M192.464 234.591C192.464 234.746 189.788 234.726 185.504 234.94C179.913 235.243 174.353 235.962 168.869 237.092C163.387 238.242 157.996 239.791 152.739 241.725C148.707 243.218 146.283 244.323 146.206 244.168C146.703 243.778 147.251 243.459 147.834 243.218C148.901 242.636 150.49 241.9 152.487 241.066C162.949 236.746 174.129 234.431 185.446 234.242C187.617 234.242 189.323 234.242 190.583 234.358C191.218 234.338 191.853 234.416 192.464 234.591Z" fill="#FAFAFA"/>
<path d="M274.18 257.913C272.762 258.428 271.283 258.754 269.78 258.882C262.611 259.929 255.348 260.176 248.124 259.619C246.615 259.593 245.117 259.372 243.665 258.96C245.161 258.827 246.667 258.827 248.163 258.96C250.916 258.96 254.735 258.96 258.942 258.96C263.149 258.96 266.949 258.533 269.702 258.281C271.181 258.023 272.68 257.9 274.18 257.913Z" fill="#FAFAFA"/>
<path d="M290.369 234.862C288.232 237.331 285.671 239.399 282.808 240.969C280.104 242.796 277.088 244.111 273.909 244.846C273.793 244.575 277.786 242.908 282.284 240.038C286.782 237.169 290.175 234.629 290.369 234.862Z" fill="#FAFAFA"/>
<path d="M276.119 211.229C270.003 216.731 262.209 220.01 253.998 220.535C253.998 220.224 259.33 219.41 265.456 216.793C271.583 214.176 275.925 210.977 276.119 211.229Z" fill="#FAFAFA"/>
<path d="M278.038 297.386C277.468 297.769 276.857 298.088 276.216 298.336C274.995 298.917 273.23 299.635 270.982 300.468C265.139 302.568 259.107 304.1 252.971 305.044C246.835 305.991 240.621 306.335 234.417 306.071C232.033 305.974 230.113 305.8 228.795 305.625C228.105 305.579 227.422 305.456 226.759 305.257C226.759 305.082 229.706 305.257 234.514 305.373C246.841 305.488 259.104 303.603 270.826 299.79C275.247 298.336 277.98 297.231 278.038 297.386Z" fill="#FAFAFA"/>
<path d="M278.756 323.655C278.756 323.655 278.484 323.849 277.922 324.14L275.441 325.226C273.308 326.234 270.148 327.552 266.193 329.103C262.238 330.654 257.449 332.147 252.06 333.62C240.343 336.776 228.316 338.641 216.194 339.184C210.61 339.398 205.589 339.378 201.362 339.184C197.136 338.99 193.743 338.68 191.397 338.351L188.703 337.982C188.385 337.959 188.072 337.894 187.772 337.788C188.087 337.738 188.407 337.738 188.722 337.788L191.436 337.963C193.782 338.157 197.252 338.351 201.382 338.467C205.511 338.583 210.61 338.467 216.155 338.273C221.699 338.079 227.787 337.381 234.127 336.334C240.466 335.288 246.437 334.027 251.827 332.67C257.217 331.313 261.986 329.782 265.941 328.366C269.896 326.951 273.114 325.768 275.285 324.877L277.806 323.888C278.113 323.777 278.432 323.699 278.756 323.655Z" fill="#FAFAFA"/>
<path d="M108.711 735.807L98.2228 783.169L79.0877 818.241C78.7623 818.84 78.5632 819.499 78.5027 820.178C78.4422 820.856 78.5217 821.54 78.7361 822.187C78.9505 822.834 79.2954 823.43 79.7493 823.939C80.2033 824.447 80.7567 824.857 81.3754 825.143C82.0935 825.472 82.8803 825.625 83.6696 825.588C84.4589 825.551 85.2279 825.325 85.9119 824.929C94.7913 819.811 127.381 800.754 127.943 797.244C128.622 793.193 142.329 748.021 142.329 748.021L108.711 735.807Z" fill="#93C595"/>
<g opacity="0.6">
<path d="M81.3753 825.142L128.738 794.123L128.234 796.062C127.82 797.792 126.802 799.318 125.365 800.366C121.487 803.138 110.689 810.583 86.067 824.968C85.3601 825.382 84.5618 825.615 83.7431 825.645C82.9245 825.676 82.111 825.503 81.3753 825.142Z" fill="white"/>
</g>
<g opacity="0.6">
<path d="M122.786 776.5C122.102 776.785 121.548 777.313 121.229 777.982C120.911 778.651 120.851 779.415 121.061 780.125C121.32 780.817 121.834 781.384 122.497 781.708C123.161 782.033 123.923 782.091 124.628 781.87C125.36 781.567 125.953 781.002 126.29 780.285C126.627 779.567 126.685 778.75 126.45 777.993C126.107 777.306 125.514 776.777 124.793 776.514C124.072 776.251 123.278 776.274 122.573 776.578" fill="white"/>
</g>
<path d="M97.1953 807.19C96.4131 805.446 95.3155 803.862 93.9576 802.518C92.3937 801.428 90.6371 800.645 88.7813 800.21C88.7812 800.075 89.4598 799.862 90.6036 799.978C92.0921 800.17 93.4929 800.789 94.6362 801.761C95.7882 802.696 96.6381 803.951 97.0789 805.367C97.4085 806.473 97.3116 807.19 97.1953 807.19Z" fill="#263238"/>
<path d="M92.2903 812.677C92.0189 812.832 90.8751 810.932 88.6068 809.633C87.1598 808.961 85.6703 808.384 84.1477 807.908C84.9847 807.633 85.8749 807.562 86.7447 807.701C87.6146 807.839 88.4389 808.182 89.1496 808.702C91.7281 810.195 92.5617 812.619 92.2903 812.677Z" fill="#263238"/>
<path d="M105.415 800.637C103.767 798.807 101.978 797.109 100.065 795.557C97.9567 794.272 95.753 793.151 93.4729 792.203C96.095 792.15 98.6508 793.03 100.685 794.685C102.928 796.034 104.607 798.148 105.415 800.637Z" fill="#263238"/>
<path d="M109.816 786.503C109.622 786.755 107.277 785.03 104 784.08C100.724 783.13 97.7575 783.285 97.7381 782.956C99.8959 782.397 102.165 782.431 104.304 783.056C106.444 783.68 108.375 784.872 109.894 786.503H109.816Z" fill="#263238"/>
<path d="M113.248 772.681C111.357 771.512 109.315 770.605 107.18 769.986C104.98 769.687 102.749 769.687 100.549 769.986C100.549 769.87 101.15 769.404 102.391 769.036C104.022 768.593 105.734 768.538 107.39 768.874C109.046 769.211 110.601 769.93 111.93 770.975C112.918 771.905 113.325 772.603 113.248 772.681Z" fill="#263238"/>
<path d="M107.897 767.369C107.898 766.754 108.031 766.146 108.285 765.585C108.834 763.985 109.705 762.514 110.844 761.262C111.589 760.27 112.637 759.549 113.829 759.207C114.235 759.14 114.652 759.197 115.025 759.37C115.399 759.543 115.711 759.824 115.923 760.176C116.28 760.899 116.356 761.728 116.137 762.503C115.639 764.058 114.617 765.391 113.245 766.276C111.873 767.16 110.236 767.539 108.614 767.35C107.015 767.122 105.52 766.426 104.316 765.349C103.112 764.273 102.253 762.864 101.848 761.301C101.755 760.903 101.747 760.491 101.824 760.09C101.9 759.689 102.061 759.309 102.294 758.974C102.562 758.662 102.922 758.442 103.323 758.348C103.724 758.254 104.145 758.29 104.524 758.451C105.619 758.997 106.555 759.819 107.238 760.835C108.265 762.18 109.046 763.697 109.545 765.314C109.781 765.892 109.893 766.512 109.874 767.136C109.093 765.046 108.001 763.086 106.637 761.32C106.001 760.492 105.177 759.827 104.233 759.381C104.025 759.291 103.794 759.271 103.574 759.323C103.353 759.376 103.156 759.498 103.011 759.672C102.876 759.901 102.789 760.154 102.755 760.418C102.722 760.681 102.743 760.949 102.818 761.204C103.222 762.52 103.99 763.694 105.032 764.593C106.075 765.492 107.35 766.077 108.711 766.283C110.083 766.443 111.467 766.132 112.64 765.404C113.812 764.675 114.703 763.57 115.167 762.27C115.355 761.744 115.355 761.168 115.167 760.642C115.057 760.443 114.888 760.284 114.683 760.186C114.477 760.089 114.247 760.058 114.023 760.099C113.013 760.376 112.113 760.959 111.445 761.766C109.958 763.422 108.758 765.316 107.897 767.369Z" fill="#263238"/>
<g opacity="0.3">
<path d="M107.432 740.943L105.163 751.8L139.459 757.5L142.329 748.02L108.653 735.806L107.432 740.943Z" fill="black"/>
</g>
<path d="M261.87 753.332L259.039 791.176C259.039 791.176 296.573 806.686 296.728 813.82L223.057 810.97L224.995 751.801L261.87 753.332Z" fill="#93C595"/>
<g opacity="0.6">
<path d="M236.453 787.104C235.738 787.296 235.118 787.743 234.711 788.362C234.303 788.98 234.137 789.726 234.243 790.458C234.406 791.179 234.838 791.811 235.45 792.225C236.062 792.639 236.809 792.805 237.539 792.688C238.299 792.486 238.958 792.01 239.387 791.351C239.817 790.693 239.987 789.898 239.865 789.121C239.62 788.385 239.1 787.772 238.413 787.41C237.727 787.049 236.927 786.967 236.182 787.182" fill="white"/>
</g>
<g opacity="0.6">
<path d="M223.095 810.97L223.522 804.999L293.994 809.904C293.994 809.904 297.232 811.455 296.766 813.781L223.095 810.97Z" fill="white"/>
</g>
<path d="M260.28 790.846C260.28 791.215 258.457 791.312 256.654 792.397C254.851 793.483 253.843 794.956 253.514 794.801C253.184 794.646 253.805 792.591 256.015 791.312C258.225 790.032 260.377 790.517 260.28 790.846Z" fill="#263238"/>
<path d="M267.88 794.394C267.88 794.763 266.367 795.306 265.088 796.779C263.808 798.252 263.401 799.842 263.033 799.823C262.664 799.803 262.529 797.748 264.157 795.945C265.786 794.142 267.88 794.007 267.88 794.394Z" fill="#263238"/>
<path d="M271.912 803.758C271.583 803.758 271.156 801.994 272.145 800.074C273.134 798.155 274.859 797.418 274.995 797.729C275.13 798.039 274.064 799.047 273.269 800.637C272.474 802.226 272.261 803.739 271.912 803.758Z" fill="#263238"/>
<path d="M259.931 782.161C259.776 782.471 258.147 781.909 256.053 781.967C253.96 782.025 252.409 782.607 252.176 782.297C251.943 781.987 253.572 780.765 256.053 780.727C258.535 780.688 260.163 781.89 259.931 782.161Z" fill="#263238"/>
<g opacity="0.3">
<path d="M261.346 760.835L260.842 767.581L224.685 765.837L224.937 758.043L261.346 760.835Z" fill="black"/>
</g>
<path d="M260.416 774.503C259.197 774.798 257.921 774.744 256.732 774.348C255.388 774.069 254.085 773.619 252.855 773.011C252.137 772.657 251.444 772.255 250.78 771.809C250.375 771.56 250.01 771.253 249.694 770.897C249.481 770.619 249.365 770.279 249.365 769.928C249.365 769.577 249.481 769.237 249.694 768.959C249.883 768.713 250.127 768.517 250.407 768.385C250.687 768.254 250.995 768.191 251.304 768.203C251.77 768.221 252.233 768.3 252.68 768.435C253.456 768.662 254.209 768.96 254.929 769.327C256.153 769.925 257.273 770.717 258.244 771.673C259.892 773.321 260.416 774.697 260.299 774.755C260.183 774.814 259.349 773.708 257.663 772.332C256.672 771.558 255.592 770.907 254.444 770.393C253.76 770.11 253.061 769.864 252.35 769.657C251.575 769.424 250.916 769.405 250.703 769.657C250.489 769.909 250.703 769.85 250.703 770.083C250.935 770.339 251.203 770.561 251.497 770.742C252.119 771.175 252.767 771.57 253.436 771.925C254.554 772.541 255.729 773.048 256.945 773.437C258.126 773.71 259.286 774.066 260.416 774.503Z" fill="#263238"/>
<path d="M259.931 775.008C259.287 773.921 258.995 772.661 259.097 771.402C259.105 770.038 259.327 768.683 259.756 767.388C260.035 766.63 260.378 765.897 260.784 765.198C261.002 764.718 261.339 764.302 261.763 763.99C262.187 763.678 262.685 763.48 263.207 763.414C263.538 763.435 263.856 763.551 264.124 763.747C264.392 763.942 264.599 764.21 264.719 764.519C264.888 764.954 264.992 765.411 265.03 765.876C265.157 766.699 265.157 767.536 265.03 768.358C264.77 769.728 264.178 771.013 263.304 772.1C261.792 774.038 260.28 774.329 260.241 774.213C260.202 774.096 261.404 773.379 262.587 771.576C263.265 770.548 263.709 769.383 263.886 768.164C263.984 767.456 263.984 766.739 263.886 766.031C263.789 765.256 263.517 764.597 263.227 764.674C262.936 764.752 262.219 765.217 261.889 765.837C261.51 766.458 261.18 767.106 260.9 767.776C260.451 768.947 260.164 770.173 260.047 771.421C259.795 773.592 260.125 775.008 259.931 775.008Z" fill="#263238"/>
<path d="M185.717 345.194C185.717 345.194 174.085 345.717 166.33 385.5C158.575 425.282 99.4636 747.632 99.4636 747.632L142.329 748.02L223.095 441.548L217.725 757.558L261.269 760.893C261.269 760.893 293.936 411.362 294.227 391.025C294.614 365.667 280.055 340.018 280.055 340.018L185.717 345.194Z" fill="#263238"/>
<path d="M244.634 341.801C244.906 341.801 240.447 364.581 234.689 392.556C228.931 420.532 224.045 443.176 223.774 443.118C223.502 443.06 227.942 420.338 233.7 392.363C239.458 364.387 244.421 341.743 244.634 341.801Z" fill="#455A64"/>
<path d="M251.304 347.482C251.304 347.365 252.467 347.016 253.804 348.199C254.184 348.544 254.485 348.966 254.686 349.438C254.887 349.91 254.983 350.42 254.968 350.933C254.919 351.581 254.687 352.202 254.3 352.724C253.912 353.245 253.384 353.646 252.777 353.88C252.185 354.148 251.529 354.245 250.885 354.16C250.241 354.074 249.633 353.809 249.132 353.395C248.757 353.043 248.461 352.616 248.264 352.141C248.067 351.667 247.973 351.156 247.988 350.642C247.988 348.858 249.19 348.238 249.21 348.354C248.883 349.066 248.711 349.839 248.706 350.622C248.732 351.016 248.836 351.401 249.012 351.754C249.189 352.106 249.434 352.421 249.733 352.678C250.116 352.941 250.558 353.104 251.02 353.152C251.483 353.2 251.949 353.131 252.378 352.952C252.806 352.772 253.183 352.488 253.473 352.125C253.763 351.762 253.957 351.332 254.037 350.874C254.066 350.482 254.015 350.087 253.889 349.714C253.762 349.341 253.562 348.997 253.3 348.703C252.35 347.598 251.284 347.637 251.304 347.482Z" fill="#455A64"/>
<path d="M249.462 363.224C249.462 363.107 250.664 363.224 251.401 364.833C251.588 365.292 251.673 365.787 251.649 366.282C251.626 366.778 251.495 367.262 251.265 367.702C250.931 368.225 250.462 368.647 249.907 368.922C249.352 369.198 248.732 369.318 248.114 369.268C247.496 369.218 246.903 369.001 246.4 368.64C245.896 368.278 245.5 367.787 245.255 367.217C245.1 366.75 245.049 366.255 245.106 365.766C245.163 365.277 245.326 364.806 245.584 364.387C246.496 362.933 247.736 362.972 247.698 363.088C247.659 363.204 246.767 363.476 246.205 364.716C245.92 365.412 245.92 366.192 246.205 366.888C246.407 367.273 246.704 367.6 247.066 367.839C247.429 368.079 247.847 368.222 248.28 368.257C248.713 368.292 249.149 368.217 249.545 368.038C249.941 367.86 250.286 367.584 250.547 367.237C250.913 366.574 251.003 365.794 250.799 365.065C250.237 363.747 249.365 363.359 249.462 363.224Z" fill="#455A64"/>
<path d="M208.38 347.869C208.301 348.535 208.131 349.187 207.876 349.808C207.271 351.583 206.512 353.302 205.608 354.945C202.65 360.43 198.378 365.095 193.174 368.522C187.97 371.95 181.997 374.033 175.791 374.585C173.927 374.747 172.052 374.747 170.188 374.585C169.531 374.564 168.88 374.459 168.249 374.274C168.249 374.08 171.177 374.41 175.81 373.828C181.849 373.096 187.636 370.972 192.715 367.625C197.795 364.278 202.029 359.798 205.085 354.538C207.353 350.622 208.206 347.811 208.38 347.869Z" fill="#455A64"/>
<path d="M291.784 376.156C291.784 376.156 291.28 375.923 290.485 375.38C289.374 374.581 288.336 373.686 287.383 372.705C284.195 369.477 281.707 365.626 280.076 361.393C278.444 357.159 277.705 352.635 277.903 348.102C277.947 346.738 278.122 345.381 278.426 344.05C278.639 343.1 278.775 342.596 278.853 342.616C278.93 342.635 278.62 344.729 278.62 348.122C278.623 357.028 281.932 365.615 287.906 372.22C290.175 374.721 291.881 376 291.784 376.156Z" fill="#455A64"/>
<path d="M442.17 377.28C442.81 375.729 442.635 376.349 432.36 369.525C432.36 369.525 447.094 379.219 445.563 374.605C444.238 372.857 442.617 371.354 440.774 370.165C444.651 372.453 446.9 372.705 447.579 371.774C448.742 370.165 440.309 364.019 436.296 361.247C439.964 363.872 443.812 366.236 447.812 368.323C450.196 369.06 449.052 366.268 447.443 364.233C445.834 362.197 433.349 350.177 429.995 346.59C429.676 346.317 429.419 345.978 429.244 345.597C429.068 345.215 428.977 344.8 428.977 344.38C428.977 343.96 429.068 343.545 429.244 343.163C429.419 342.782 429.676 342.443 429.995 342.17C436.005 338.293 438.641 332.108 438.564 330.072C438.497 329.614 438.287 329.189 437.963 328.857C437.64 328.526 437.219 328.306 436.763 328.228C436.306 328.151 435.837 328.22 435.422 328.426C435.007 328.632 434.668 328.964 434.454 329.374C432.937 331.26 431.169 332.93 429.2 334.338C427.673 335.529 425.956 336.453 424.121 337.071C421.988 337.769 411.5 337.187 409.251 336.044L402.097 360.297C402.097 360.297 428.056 372.433 432.98 374.799C439.029 377.668 441.724 378.463 442.17 377.28Z" fill="#FFBE9D"/>
<path d="M427.688 365.939C427.474 366.229 430.848 368.692 435.21 371.464C439.572 374.236 443.236 376.233 443.411 375.942C443.585 375.652 440.212 373.17 435.869 370.417C431.526 367.664 427.882 365.57 427.688 365.939Z" fill="#EB996E"/>
<path d="M430.13 361.188C429.937 361.479 433.388 364.309 437.885 367.528C442.383 370.746 446.105 373.131 446.299 372.859C446.493 372.588 443.062 369.738 438.545 366.52C434.027 363.301 430.344 360.917 430.13 361.188Z" fill="#EB996E"/>
<path d="M432.709 356.38C432.515 356.652 435.733 359.405 439.902 362.507C444.07 365.609 447.656 367.896 447.812 367.625C447.967 367.353 444.807 364.6 440.638 361.498C436.47 358.397 432.922 356.109 432.709 356.38Z" fill="#EB996E"/>
<path d="M168.676 268.537L187.714 269.584C189.062 274.899 190.865 280.088 193.103 285.094C208.439 258.495 220.245 222.842 223.27 208.515C222.843 207.106 222.32 205.516 221.699 203.746C221.235 201.069 221.314 198.326 221.932 195.681C222.456 192.501 223.347 188.197 223.599 186.22C224.433 180.171 225.402 179.201 227.477 179.899C230.346 180.83 226.294 196.902 228.64 197.251C229.92 197.425 231.451 191.919 231.916 187.402C232.382 182.885 234.398 169.004 235.891 168.015C238.082 166.658 239.981 168.81 239.439 173.308C238.896 177.806 238.178 191.435 240.563 191.609C242.948 191.784 244.886 168.752 244.886 168.752C244.886 168.752 244.518 163.75 247.271 163.866C252.254 164.08 248.376 188.372 247.95 190.679C247.639 192.268 250.237 192.617 250.47 190.834C250.703 189.05 251.905 167.782 256.965 167.957C260.842 168.093 253.96 187.964 256.15 192.579C258.341 197.193 259.853 176.933 263.576 177.205C264.952 177.321 265.98 177.592 263.44 189.05C260.961 198.161 257.991 207.131 254.541 215.921C248.725 247.716 222.766 349.421 182.208 330.809C159.525 320.398 148.92 268.77 148.92 268.77L168.676 268.537Z" fill="#FFBE9D"/>
<path d="M254.58 216.095C254.613 215.855 254.679 215.62 254.774 215.397C254.948 214.893 255.162 214.234 255.452 213.459C256.092 211.617 256.965 209.058 258.108 205.704C259.252 202.35 260.629 198.278 261.986 193.47C262.684 191.086 263.265 188.488 263.789 185.716C264.06 184.32 264.312 182.885 264.487 181.412C264.535 180.682 264.535 179.95 264.487 179.221C264.487 178.465 264.312 177.844 263.711 177.825C263.11 177.806 262.684 178.174 262.257 178.814C261.871 179.498 261.553 180.219 261.307 180.966C260.765 182.497 260.338 184.126 259.911 185.774C259.485 187.422 259.097 189.147 258.593 190.892C258.373 191.848 257.979 192.755 257.43 193.567C257.292 193.726 257.11 193.841 256.906 193.897C256.778 193.925 256.646 193.924 256.518 193.894C256.391 193.864 256.272 193.805 256.17 193.722C255.947 193.518 255.763 193.275 255.627 193.005C255.422 192.529 255.285 192.026 255.22 191.512C255.131 187.602 255.522 183.695 256.383 179.88C256.713 177.941 257.062 176.003 257.314 174.064C257.43 173.075 257.546 172.125 257.566 171.078C257.585 170.031 257.43 168.926 257.023 168.752C256.616 168.577 255.627 169.12 255.084 169.934C254.548 170.794 254.125 171.72 253.824 172.687C253.163 174.713 252.664 176.787 252.331 178.891C251.963 181.024 251.672 183.195 251.42 185.405C251.323 186.51 251.207 187.615 251.11 188.74L250.955 190.427C250.975 190.787 250.917 191.147 250.783 191.482C250.649 191.817 250.443 192.119 250.179 192.365C249.847 192.608 249.447 192.739 249.035 192.739C248.624 192.739 248.223 192.608 247.891 192.365C247.703 192.241 247.544 192.078 247.424 191.888C247.303 191.697 247.225 191.483 247.194 191.26C247.164 191.054 247.164 190.846 247.194 190.64V190.233L247.717 186.84C248.047 184.552 248.318 182.265 248.531 179.938C248.744 177.612 248.919 175.266 248.958 172.92C249.071 170.597 248.836 168.271 248.26 166.018C248.126 165.447 247.779 164.947 247.29 164.622C247.057 164.547 246.805 164.548 246.572 164.625C246.338 164.701 246.135 164.85 245.992 165.049C245.364 166.197 245.106 167.51 245.255 168.81C244.828 173.366 244.344 177.844 243.684 182.245C243.355 184.436 242.987 186.627 242.444 188.779C242.289 189.302 242.133 189.845 241.94 190.388C241.755 191.046 241.369 191.629 240.835 192.055C240.598 192.171 240.33 192.204 240.073 192.147C239.816 192.091 239.585 191.949 239.419 191.745C239.183 191.496 239.004 191.198 238.896 190.873C238.687 190.335 238.537 189.776 238.45 189.205C237.996 184.986 237.957 180.733 238.334 176.507C238.62 174.536 238.73 172.545 238.663 170.555C238.6 169.705 238.211 168.913 237.578 168.345C237.429 168.252 237.263 168.191 237.089 168.164C236.916 168.137 236.739 168.146 236.569 168.19C236.388 168.251 236.213 168.329 236.046 168.422C235.871 168.577 235.891 168.422 235.774 168.752C235.073 170.495 234.56 172.309 234.243 174.161C233.855 176.1 233.526 177.864 233.235 179.686C232.944 181.509 232.673 183.292 232.44 185.076C232.207 186.859 232.091 188.604 231.742 190.349C231.441 192.054 230.986 193.728 230.385 195.351C230.225 195.764 230.037 196.166 229.823 196.553C229.551 196.921 229.396 197.387 228.659 197.619C228.471 197.654 228.276 197.632 228.1 197.556C227.924 197.48 227.775 197.354 227.671 197.193C227.535 196.969 227.431 196.728 227.36 196.475C227.273 196.054 227.221 195.626 227.205 195.196C227.205 191.881 227.651 188.856 227.826 185.929C227.952 184.529 227.952 183.121 227.826 181.722C227.826 181.101 227.535 180.365 227.186 180.229C226.942 180.109 226.673 180.047 226.401 180.047C226.129 180.047 225.86 180.109 225.616 180.229C224.802 181.103 224.298 182.22 224.181 183.408C223.89 184.591 223.774 185.793 223.561 186.937C222.746 191.512 221.893 195.467 221.486 198.686C221.295 200.101 221.295 201.535 221.486 202.951C221.758 204.114 222.165 205.161 222.378 205.975C222.591 206.789 222.805 207.371 222.94 207.914C223.012 208.122 223.064 208.336 223.095 208.554C222.979 208.366 222.888 208.164 222.824 207.953L222.165 206.014C221.893 205.18 221.486 204.25 221.157 202.97C220.949 201.517 220.949 200.042 221.157 198.589C221.525 195.312 222.3 191.396 223.095 186.801C223.309 185.657 223.425 184.455 223.677 183.215C223.816 182.559 223.991 181.912 224.2 181.276C224.394 180.571 224.817 179.95 225.402 179.512C225.755 179.325 226.147 179.227 226.546 179.227C226.945 179.227 227.338 179.325 227.69 179.512C228.069 179.751 228.381 180.083 228.594 180.477C228.808 180.87 228.917 181.312 228.911 181.761C229.047 183.218 229.047 184.685 228.911 186.142C228.776 189.089 228.31 192.171 228.388 195.312C228.402 195.684 228.448 196.053 228.524 196.417C228.524 196.786 228.795 196.941 228.756 196.863C228.718 196.786 229.125 196.553 229.28 196.243C229.471 195.899 229.639 195.543 229.784 195.176C230.358 193.605 230.78 191.982 231.044 190.33C231.374 188.643 231.49 186.898 231.723 185.095C231.955 183.292 232.188 181.509 232.479 179.667C232.769 177.825 233.099 175.983 233.467 174.103C233.783 172.139 234.329 170.219 235.096 168.383C235.251 168.076 235.485 167.815 235.774 167.627C236.032 167.486 236.305 167.375 236.589 167.298C236.914 167.205 237.255 167.183 237.59 167.233C237.924 167.283 238.244 167.404 238.527 167.589C238.977 167.946 239.349 168.392 239.619 168.899C239.889 169.406 240.052 169.963 240.098 170.535C240.243 171.59 240.243 172.66 240.098 173.715C240.001 174.704 239.904 175.654 239.846 176.739C239.468 180.869 239.507 185.026 239.962 189.147C240.045 189.637 240.175 190.117 240.35 190.582C240.408 190.769 240.507 190.941 240.641 191.086C240.641 191.086 240.641 191.086 240.738 191.086C240.738 191.532 240.738 191.086 240.738 191.26C240.738 191.435 240.738 191.26 240.738 191.105C240.979 190.781 241.169 190.421 241.3 190.039C241.481 189.561 241.636 189.057 241.765 188.527C242.289 186.472 242.638 184.3 242.967 182.129C243.626 177.767 244.111 173.288 244.518 168.752V168.849C244.346 167.251 244.692 165.64 245.507 164.254C245.818 163.858 246.244 163.569 246.727 163.426C247.21 163.284 247.726 163.295 248.202 163.459C248.608 163.685 248.965 163.99 249.252 164.356C249.538 164.722 249.748 165.143 249.869 165.592C250.49 167.976 250.745 170.44 250.625 172.901C250.625 175.305 250.412 177.67 250.199 180.016C249.985 182.362 249.694 184.669 249.365 186.956C249.19 188.12 249.016 189.244 248.841 190.388C248.686 191.105 248.725 191.125 248.841 191.338C248.976 191.429 249.135 191.477 249.297 191.477C249.459 191.477 249.618 191.429 249.753 191.338C249.985 191.163 250.024 190.834 250.082 190.194L250.218 188.507L250.567 185.153C250.8 182.943 251.11 180.733 251.478 178.581C251.837 176.42 252.355 174.288 253.029 172.203C253.381 171.149 253.856 170.14 254.444 169.198C254.765 168.69 255.187 168.254 255.685 167.918C255.961 167.718 256.282 167.587 256.619 167.537C256.956 167.486 257.301 167.517 257.624 167.627C257.921 167.811 258.171 168.06 258.356 168.356C258.541 168.652 258.656 168.986 258.69 169.333C258.77 169.879 258.803 170.43 258.787 170.981C258.787 172.048 258.651 173.075 258.535 174.103C258.264 176.041 257.895 178.096 257.546 180.054C256.714 183.737 256.31 187.504 256.344 191.28C256.399 191.685 256.503 192.082 256.654 192.462C256.725 192.6 256.809 192.73 256.906 192.85C256.906 192.85 256.906 192.85 256.906 192.714C257.342 192.014 257.662 191.248 257.856 190.446C258.36 188.759 258.768 187.053 259.214 185.386C259.613 183.727 260.099 182.09 260.668 180.481C260.936 179.684 261.287 178.917 261.714 178.193C261.946 177.799 262.248 177.45 262.606 177.166C262.801 176.997 263.034 176.877 263.285 176.817C263.535 176.778 263.79 176.778 264.041 176.817C264.305 176.843 264.558 176.94 264.773 177.097C264.988 177.253 265.157 177.465 265.262 177.709C265.424 178.116 265.51 178.55 265.514 178.988C265.529 179.772 265.484 180.557 265.379 181.334C265.204 182.846 264.913 184.281 264.642 185.696C264.08 188.468 263.459 191.105 262.703 193.451C261.249 198.259 259.795 202.33 258.613 205.646C257.43 208.961 256.422 211.462 255.743 213.245C255.414 214.06 255.142 214.699 254.948 215.184C254.862 215.501 254.738 215.807 254.58 216.095Z" fill="#EB996E"/>
<path d="M148.746 270.728C152.429 283.737 159.641 303.802 167.377 325.012C167.621 325.695 168.062 326.291 168.644 326.723C169.227 327.155 169.925 327.405 170.649 327.44C171.374 327.476 172.093 327.295 172.715 326.921C173.337 326.548 173.834 325.998 174.143 325.341L193.103 285.229C193.103 285.229 188.528 252.271 188.916 253.454C189.304 254.637 149.793 257.719 149.793 257.719L148.746 270.728Z" fill="#93C595"/>
<path d="M191.475 264.272C191.475 264.427 189.11 265.125 185.368 266.56C180.478 268.416 175.767 270.713 171.293 273.423C166.825 276.145 162.608 279.26 158.691 282.729C155.686 285.385 153.961 287.207 153.844 287.091C153.728 286.975 154.174 286.548 154.911 285.676C155.949 284.463 157.049 283.305 158.207 282.205C162.028 278.526 166.241 275.275 170.769 272.512C175.299 269.782 180.109 267.546 185.116 265.843C186.629 265.321 188.17 264.881 189.73 264.524C190.295 264.348 190.884 264.263 191.475 264.272Z" fill="#FAFAFA"/>
<path d="M198.997 274.276C197.765 273.034 196.697 271.64 195.818 270.127C193.554 266.597 191.607 262.873 190.002 258.999C188.395 255.113 187.142 251.09 186.26 246.979C185.808 245.297 185.58 243.563 185.581 241.822C186.159 243.447 186.619 245.112 186.958 246.804C187.996 250.819 189.291 254.762 190.835 258.611C192.448 262.439 194.3 266.163 196.38 269.759C197.348 271.207 198.222 272.716 198.997 274.276Z" fill="#263238"/>
<path d="M211.638 96.6511C208.348 102.072 206.309 108.158 205.669 114.467C205.028 120.775 205.802 127.147 207.935 133.118C209.873 138.45 212.975 143.704 212.413 149.365C211.851 155.026 207.431 160.629 208.981 166.212C209.912 169.527 212.743 172.028 213.848 175.247C215.108 179.124 213.848 183.215 213.169 187.189C211.618 197.348 214.875 207.565 215.67 217.801C216.465 228.038 213.731 240.038 204.581 244.497C201.808 245.854 198.183 246.242 195.876 244.168C192.929 241.551 193.743 236.82 194.557 232.943C202.584 194.168 177.788 156.325 183.449 117.085C184.36 110.804 187.869 100.141 192.386 95.7593C196.903 91.3778 209.447 91.8819 213.712 96.5348" fill="#263238"/>
<path d="M173.445 209.135C173.445 209.135 174.627 207.739 176.372 204.986C178.821 201.098 180.536 196.794 181.432 192.288C182.017 189.183 182.219 186.019 182.033 182.865C181.694 179.199 181.558 175.516 181.626 171.834C181.742 169.818 182.113 167.824 182.731 165.902C183.44 163.921 184.336 162.012 185.407 160.202C187.578 156.538 190.312 153.126 192.832 149.481C195.42 146.036 197.22 142.065 198.105 137.849C198.535 133.877 198.306 129.861 197.427 125.964C196.693 122.342 196.407 118.644 196.574 114.952C196.804 111.728 197.456 108.547 198.512 105.491C199.993 101.058 202.325 96.955 205.375 93.4132C206.186 92.4504 207.067 91.5496 208.012 90.7184C208.312 90.3992 208.65 90.1191 209.02 89.8848C209.02 89.8848 207.721 91.1449 205.666 93.7622C200.772 99.8377 197.91 107.298 197.485 115.088C197.355 118.719 197.674 122.353 198.435 125.906C199.36 129.908 199.609 134.036 199.172 138.12C198.253 142.454 196.4 146.536 193.743 150.082C191.203 153.785 188.47 157.178 186.337 160.745C185.288 162.488 184.418 164.333 183.739 166.251C183.126 168.095 182.755 170.011 182.634 171.951C182.549 175.592 182.652 179.235 182.945 182.865C183.098 186.083 182.851 189.306 182.208 192.462C181.236 197.03 179.393 201.368 176.779 205.238C176.072 206.284 175.295 207.282 174.453 208.224C174.151 208.564 173.813 208.869 173.445 209.135Z" fill="#455A64"/>
<path d="M155.066 212.024C155.222 211.572 155.423 211.137 155.667 210.725C156.152 209.814 156.772 208.612 157.606 207.1C159.234 203.94 161.657 199.345 164.042 193.529C166.959 186.736 168.577 179.456 168.811 172.067C168.812 169.938 168.65 167.812 168.327 165.708C167.997 163.537 167.493 161.346 167.163 159.058C166.76 156.692 166.813 154.27 167.319 151.924C167.974 149.515 169.322 147.351 171.196 145.701C174.841 142.385 179.242 140.214 181.529 136.317C183.511 132.453 184.679 128.224 184.961 123.89C185.371 119.917 186.27 116.011 187.636 112.258C190.709 104.201 196.185 97.2844 203.32 92.4441C204.458 91.6784 205.643 90.9855 206.868 90.3697C207.282 90.1219 207.725 89.9266 208.187 89.7881C208.187 89.7881 206.442 90.7187 203.553 92.7737C199.482 95.6791 195.957 99.2826 193.142 103.417C191.19 106.251 189.601 109.319 188.412 112.549C187.105 116.31 186.259 120.216 185.891 124.181C185.31 128.31 184.844 132.924 182.363 137.015C179.881 141.106 175.345 143.432 171.874 146.709C170.106 148.243 168.831 150.267 168.21 152.525C167.739 154.745 167.693 157.034 168.075 159.272C168.385 161.501 168.869 163.711 169.199 165.902C169.534 168.057 169.69 170.236 169.664 172.416C169.401 179.94 167.696 187.344 164.643 194.227C162.66 198.878 160.407 203.409 157.896 207.798L155.841 210.841C155.625 211.262 155.365 211.658 155.066 212.024Z" fill="#455A64"/>
<path d="M796.509 759.845C796.598 759.563 796.715 759.291 796.858 759.031C797.129 758.45 797.497 757.674 797.943 756.685C799.292 753.657 800.375 750.518 801.181 747.302C803.313 738.965 804.07 726.228 800.91 711.106C799.193 702.86 796.946 694.732 794.182 686.775C791.352 678.148 788.036 668.997 785.342 659.09C782.299 648.758 780.829 638.027 780.98 627.257C781.387 615.993 784.721 604.768 788.385 593.562C792.05 582.356 795.83 571.441 796.955 560.391C798.205 549.794 796.074 539.073 790.867 529.759C786.02 520.821 779.913 513.163 775.357 505.254C771.092 497.904 767.949 489.958 766.032 481.679C763.281 469.693 763.076 457.263 765.431 445.192C766.289 440.776 767.588 436.457 769.308 432.3C769.256 432.59 769.178 432.876 769.076 433.153L768.3 435.615C767.641 437.786 766.769 441.043 765.935 445.309C763.768 457.324 764.091 469.657 766.885 481.543C768.83 489.721 771.986 497.563 776.249 504.808C780.805 512.563 786.931 520.317 791.895 529.294C797.229 538.796 799.42 549.742 798.157 560.565C797.013 571.771 793.213 582.802 789.549 593.988C785.884 605.175 782.589 616.284 782.182 627.354C782.008 638.016 783.446 648.644 786.447 658.877C789.103 668.726 792.36 677.877 795.171 686.543C797.909 694.543 800.111 702.716 801.763 711.009C804.845 726.247 803.973 739.121 801.763 747.476C800.898 750.698 799.736 753.833 798.292 756.84L797.09 759.147C796.924 759.402 796.728 759.636 796.509 759.845Z" fill="#263238"/>
<path d="M781.561 513.067C781.561 513.067 772.294 483.385 788.928 466.014C789.057 465.874 789.222 465.773 789.406 465.722C789.589 465.67 789.783 465.671 789.965 465.723C790.148 465.775 790.313 465.877 790.441 466.018C790.57 466.158 790.657 466.331 790.692 466.518C791.584 471.423 792.689 486.351 781.561 513.067Z" fill="#93C595"/>
<path d="M787.125 475.901C787.096 477.74 786.888 479.571 786.505 481.369C785.884 485.149 785.167 489.569 784.392 494.455C783.616 499.34 782.899 503.78 782.298 507.541C782.128 509.375 781.804 511.191 781.328 512.97C781.147 511.136 781.186 509.288 781.445 507.464C781.755 504.071 782.356 499.418 783.19 494.3C784.023 489.182 784.935 484.606 785.652 481.252C785.935 479.418 786.429 477.622 787.125 475.901Z" fill="#263238"/>
<path d="M792.457 583.074C792.457 583.074 798.137 552.5 820.975 544.939C821.155 544.876 821.349 544.865 821.535 544.906C821.721 544.947 821.892 545.039 822.029 545.172C822.166 545.305 822.263 545.473 822.31 545.658C822.357 545.843 822.351 546.037 822.293 546.219C820.781 550.93 814.791 564.637 792.457 583.074Z" fill="#93C595"/>
<path d="M814.752 552.791C813.866 554.406 812.828 555.931 811.65 557.347L803.643 567.913L795.694 578.518C794.694 580.056 793.558 581.503 792.302 582.841C793.01 581.135 793.921 579.521 795.016 578.033C796.955 575.183 799.591 571.345 802.771 567.215C805.95 563.086 808.839 559.46 811.03 556.824C812.118 555.347 813.367 553.994 814.752 552.791Z" fill="#263238"/>
<path d="M786.291 659.71C786.291 659.71 782.841 628.807 802.499 614.946C802.651 614.827 802.833 614.754 803.024 614.736C803.216 614.718 803.408 614.755 803.58 614.842C803.751 614.93 803.893 615.065 803.991 615.231C804.088 615.397 804.135 615.587 804.128 615.779C804.07 620.762 802.305 635.612 786.291 659.71Z" fill="#93C595"/>
<path d="M798.893 624.29C798.533 626.095 797.98 627.856 797.245 629.544L792.67 641.991C790.964 646.643 789.432 650.85 788.133 654.437C787.636 656.202 786.987 657.921 786.195 659.575C786.374 657.736 786.778 655.926 787.397 654.185C788.347 650.928 789.82 646.43 791.623 641.583C793.426 636.737 795.19 632.374 796.528 629.253C797.145 627.523 797.938 625.86 798.893 624.29Z" fill="#263238"/>
<path d="M803.488 736.833C803.488 736.833 801.161 705.814 821.285 692.669C821.443 692.561 821.627 692.499 821.818 692.489C822.009 692.48 822.199 692.524 822.366 692.617C822.533 692.71 822.671 692.847 822.765 693.014C822.858 693.181 822.903 693.37 822.894 693.561C822.662 698.544 820.374 713.336 803.488 736.833Z" fill="#93C595"/>
<path d="M817.292 701.897C816.858 703.688 816.24 705.429 815.45 707.093C814.015 710.622 812.309 714.848 810.429 719.365C808.548 723.882 806.9 728.089 805.466 731.637C804.891 733.387 804.158 735.081 803.275 736.697C803.532 734.864 804.007 733.067 804.69 731.347C805.756 728.128 807.385 723.708 809.362 718.919C811.34 714.131 813.24 709.827 814.694 706.764C815.384 705.054 816.255 703.422 817.292 701.897Z" fill="#263238"/>
<path d="M768.223 486.991C768.223 486.991 740.732 472.566 740.131 448.546C740.129 448.357 740.178 448.172 740.273 448.01C740.368 447.847 740.505 447.713 740.67 447.621C740.835 447.53 741.021 447.485 741.21 447.491C741.398 447.496 741.581 447.553 741.74 447.654C745.831 450.485 757.191 460.256 768.223 486.991Z" fill="#93C595"/>
<path d="M745.85 456.805C747.14 458.123 748.29 459.572 749.281 461.128C751.53 464.211 754.148 467.855 757.036 471.869L764.791 482.57C765.973 483.978 767.024 485.49 767.932 487.087C766.514 485.908 765.245 484.56 764.151 483.074C761.961 480.476 759.091 476.754 756.067 472.547C753.043 468.34 750.387 464.443 748.564 461.593C747.496 460.096 746.586 458.491 745.85 456.805Z" fill="#263238"/>
<path d="M797.827 550.716C797.827 550.716 769.444 538.018 767.447 514.036C767.431 513.847 767.467 513.658 767.552 513.489C767.636 513.32 767.766 513.177 767.926 513.077C768.087 512.977 768.272 512.923 768.461 512.921C768.65 512.919 768.836 512.969 768.998 513.066C773.244 515.645 785.167 524.679 797.827 550.716Z" fill="#93C595"/>
<path d="M773.69 521.945C775.057 523.176 776.292 524.547 777.373 526.036L785.787 536.292L794.221 546.509C795.484 547.846 796.626 549.293 797.633 550.832C796.146 549.734 794.792 548.465 793.601 547.052C791.274 544.57 788.172 541.042 784.896 537.029C781.619 533.015 778.75 529.274 776.734 526.54C775.552 525.126 774.531 523.585 773.69 521.945Z" fill="#263238"/>
<path d="M781.445 621.848C781.445 621.848 762.058 597.614 771.111 575.319C771.183 575.144 771.302 574.992 771.454 574.88C771.606 574.768 771.787 574.7 771.975 574.684C772.164 574.668 772.353 574.705 772.522 574.789C772.691 574.874 772.834 575.003 772.934 575.164C775.629 579.371 782.085 592.864 781.445 621.848Z" fill="#93C595"/>
<path d="M773.07 585.167C773.733 586.889 774.213 588.676 774.504 590.498C775.318 594.221 776.268 598.602 777.315 603.449C778.362 608.296 779.351 612.658 780.165 616.38C780.684 618.147 781.041 619.958 781.232 621.789C780.38 620.141 779.73 618.397 779.293 616.594C778.343 613.317 777.18 608.839 776.094 603.682C775.008 598.525 774.155 593.988 773.612 590.654C773.231 588.85 773.049 587.01 773.07 585.167Z" fill="#263238"/>
<path d="M800.832 705.425C800.832 705.425 772.662 692.262 771.073 668.26C771.054 668.069 771.089 667.876 771.175 667.704C771.26 667.532 771.392 667.387 771.556 667.286C771.719 667.185 771.908 667.132 772.1 667.133C772.292 667.134 772.48 667.189 772.643 667.291C776.811 669.947 788.579 679.195 800.832 705.425Z" fill="#93C595"/>
<path d="M777.121 676.248C778.454 677.519 779.661 678.915 780.727 680.416L788.967 690.788L797.226 701.161C798.468 702.517 799.584 703.984 800.56 705.542C799.117 704.41 797.815 703.108 796.683 701.665C794.376 699.144 791.352 695.558 788.133 691.486C784.915 687.415 782.123 683.635 780.146 680.862C778.962 679.447 777.947 677.899 777.121 676.248Z" fill="#263238"/>
<path d="M856.88 583.209C856.88 583.209 856.88 583.442 856.88 583.888C856.88 584.333 856.88 585.07 856.88 585.826C856.88 587.765 856.686 590.227 856.551 593.368C856.202 599.998 855.678 609.246 855.077 620.297C853.138 631.541 847.322 644.007 839.567 656.124C833.926 665.042 827.935 673.146 822.894 680.687C818.294 687.306 814.161 694.238 810.525 701.432C808.119 706.293 806.171 711.369 804.709 716.592C804.225 718.434 803.837 719.888 803.624 720.877C803.532 721.392 803.396 721.898 803.217 722.389C803.223 721.867 803.288 721.346 803.41 720.838C803.546 719.83 803.837 718.357 804.283 716.476C805.587 711.162 807.439 705.996 809.808 701.063C813.412 693.812 817.539 686.834 822.158 680.183C827.237 672.584 833.111 664.46 838.734 655.601C846.392 643.542 852.091 631.27 854.243 620.2C855.019 609.168 855.659 599.94 856.182 593.31C856.434 590.169 856.647 587.668 856.803 585.787C856.803 585.012 856.938 584.353 856.996 583.849C856.931 583.641 856.892 583.426 856.88 583.209Z" fill="#263238"/>
<path d="M840.11 653.895C840.11 653.895 852.033 625.202 837.047 606.377C836.931 606.226 836.775 606.11 836.597 606.043C836.418 605.976 836.225 605.959 836.038 605.995C835.851 606.031 835.678 606.119 835.537 606.248C835.397 606.377 835.296 606.542 835.244 606.726C833.906 611.534 831.444 626.287 840.11 653.895Z" fill="#93C595"/>
<path d="M837.939 616.4C838.453 618.17 838.772 619.99 838.889 621.829C839.315 625.202 839.781 629.874 840.149 635.051C840.517 640.227 840.692 644.919 840.692 648.331C840.808 650.173 840.698 652.022 840.362 653.837C840.027 652.028 839.865 650.19 839.878 648.35C839.626 644.473 839.315 640.072 838.986 635.128C838.656 630.185 838.346 625.706 838.075 621.906C837.849 620.08 837.803 618.236 837.939 616.4Z" fill="#263238"/>
<g opacity="0.3">
<path d="M840.11 653.895C840.11 653.895 852.033 625.202 837.047 606.377C836.931 606.226 836.775 606.11 836.597 606.043C836.418 605.976 836.225 605.959 836.038 605.995C835.851 606.031 835.678 606.119 835.537 606.248C835.397 606.377 835.296 606.542 835.244 606.726C833.906 611.534 831.444 626.287 840.11 653.895Z" fill="black"/>
</g>
<path d="M803.178 723.087C803.178 723.087 812.736 693.503 796.257 675.977C796.129 675.837 795.965 675.735 795.783 675.683C795.601 675.63 795.409 675.629 795.226 675.679C795.044 675.729 794.879 675.829 794.749 675.967C794.62 676.105 794.531 676.276 794.492 676.461C793.562 681.347 792.302 696.275 803.178 723.087Z" fill="#93C595"/>
<path d="M797.963 685.825C798.634 687.548 799.103 689.344 799.359 691.176C800.056 694.491 800.89 699.125 801.685 704.243C802.48 709.361 803.023 714.033 803.314 717.426C803.565 719.258 803.598 721.112 803.41 722.952C802.95 721.171 802.639 719.355 802.48 717.523C801.918 713.743 801.258 709.322 800.541 704.417C799.824 699.513 799.126 695.092 798.602 691.312C798.209 689.508 797.995 687.671 797.963 685.825Z" fill="#263238"/>
<g opacity="0.3">
<path d="M803.178 723.087C803.178 723.087 812.736 693.503 796.257 675.977C796.129 675.837 795.965 675.735 795.783 675.683C795.601 675.63 795.409 675.629 795.226 675.679C795.044 675.729 794.879 675.829 794.749 675.967C794.62 676.105 794.531 676.276 794.492 676.461C793.562 681.347 792.302 696.275 803.178 723.087Z" fill="black"/>
</g>
<path d="M855.31 618.824C855.31 618.824 880.765 600.987 878.206 577.064C878.186 576.876 878.115 576.697 878 576.546C877.885 576.396 877.731 576.281 877.554 576.213C877.378 576.144 877.186 576.126 877 576.16C876.814 576.194 876.641 576.279 876.5 576.404C872.797 579.739 862.871 590.828 855.31 618.824Z" fill="#93C595"/>
<g opacity="0.3">
<path d="M855.31 618.824C855.31 618.824 880.765 600.987 878.206 577.064C878.186 576.876 878.115 576.697 878 576.546C877.885 576.396 877.731 576.281 877.554 576.213C877.378 576.144 877.186 576.126 877 576.16C876.814 576.194 876.641 576.279 876.5 576.404C872.797 579.739 862.871 590.828 855.31 618.824Z" fill="black"/>
</g>
<path d="M873.592 586.001C873.087 587.776 872.377 589.487 871.479 591.1C870.025 594.163 867.911 598.351 865.449 602.926C862.987 607.501 860.622 611.553 858.799 614.423C857.903 616.033 856.816 617.53 855.562 618.882C856.243 617.176 857.087 615.54 858.082 613.996C859.904 610.642 862.056 606.726 864.422 602.364L870.742 590.731C871.535 589.066 872.49 587.481 873.592 586.001Z" fill="#263238"/>
<path d="M813.453 693.754C813.453 693.754 844.162 688.966 852.382 666.36C852.449 666.184 852.466 665.993 852.431 665.807C852.396 665.622 852.311 665.45 852.185 665.31C852.059 665.17 851.897 665.067 851.716 665.013C851.535 664.959 851.343 664.955 851.161 665.003C846.372 666.438 832.491 671.963 813.453 693.754Z" fill="#93C595"/>
<g opacity="0.3">
<path d="M813.453 693.754C813.453 693.754 844.162 688.966 852.382 666.36C852.449 666.184 852.466 665.993 852.431 665.807C852.396 665.622 852.311 665.45 852.185 665.31C852.059 665.17 851.897 665.067 851.716 665.013C851.535 664.959 851.343 664.955 851.161 665.003C846.372 666.438 832.491 671.963 813.453 693.754Z" fill="black"/>
</g>
<path d="M844.317 672.352C843.073 673.71 841.681 674.926 840.168 675.977C837.512 678.11 833.771 680.94 829.564 683.964C825.357 686.989 821.421 689.567 818.513 691.351C816.997 692.409 815.356 693.275 813.627 693.929C815.003 692.703 816.49 691.606 818.067 690.653L828.885 683.014L839.684 675.26C841.121 674.129 842.674 673.154 844.317 672.352Z" fill="#263238"/>
<path d="M784.14 750.287L775.183 810.581H831.018L823.786 750.287H784.14Z" fill="#455A64"/>
<path d="M826.035 768.957C826.035 769.287 815.954 769.539 803.527 769.539C791.1 769.539 780.999 769.287 780.999 768.957C788.493 768.383 796.012 768.188 803.527 768.375C811.035 768.189 818.547 768.383 826.035 768.957Z" fill="#263238"/>
<path d="M827.121 773.765C827.121 774.095 816.71 774.347 803.856 774.347C791.003 774.347 780.592 774.095 780.592 773.765C780.592 773.436 791.003 773.184 803.856 773.184C816.71 773.184 827.121 773.436 827.121 773.765Z" fill="#263238"/>
<path d="M610.004 165.359C610.004 165.359 609.481 165.359 608.473 165.359C607.001 165.272 605.525 165.272 604.052 165.359C598.358 165.692 592.764 167.004 587.515 169.236C579.195 172.724 571.955 178.365 566.538 185.58C563.199 190.085 560.715 195.164 559.21 200.566C555.817 213.434 557.65 227.121 564.309 238.642C566.124 241.832 568.339 244.777 570.9 247.405C573.484 250.19 576.495 252.546 579.818 254.385C583.229 256.304 587.092 257.275 591.005 257.196C595.039 257.147 598.908 255.583 601.842 252.814C603.261 251.328 604.373 249.577 605.115 247.661C605.856 245.745 606.214 243.701 606.166 241.647C606.136 237.38 604.781 233.227 602.288 229.763C597.267 222.687 589.124 217.937 580.458 215.378C571.472 212.854 561.982 212.72 552.929 214.99C548.307 216.192 543.853 217.964 539.668 220.263C535.443 222.648 531.605 225.661 528.288 229.201C527.493 230.112 526.581 230.946 525.864 231.954L523.673 234.901C522.341 236.977 521.15 239.14 520.106 241.376C518.032 245.915 516.616 250.726 515.899 255.664C514.492 265.53 515.834 275.593 519.777 284.745C523.545 293.688 530.109 301.17 538.485 306.071C542.546 308.391 547.08 309.763 551.746 310.084C556.321 310.34 560.871 309.248 564.832 306.943C568.764 304.77 571.87 301.364 573.673 297.25C575.373 293.195 575.491 288.65 574.002 284.512C572.47 280.52 569.964 276.975 566.713 274.198C563.559 271.473 559.923 269.362 555.992 267.975C548.326 265.558 540.123 265.416 532.378 267.568C525.131 269.532 518.475 273.239 512.991 278.367C507.996 283.152 504.191 289.042 501.882 295.563C497.844 306.878 498.03 319.271 502.406 330.46C505.819 338.813 511.311 346.154 518.361 351.786C522.802 355.347 527.748 358.229 533.037 360.335C534.86 361.014 536.275 361.518 537.244 361.789L538.679 362.255C538.679 362.255 538.175 362.158 537.206 361.886C535.773 361.503 534.363 361.043 532.979 360.51C527.621 358.496 522.61 355.657 518.129 352.096C510.959 346.468 505.358 339.091 501.863 330.673C497.41 319.379 497.182 306.856 501.223 295.408C503.536 288.788 507.383 282.809 512.448 277.959C518.01 272.729 524.765 268.936 532.126 266.909C540.034 264.703 548.411 264.837 556.244 267.296C560.29 268.708 564.033 270.872 567.275 273.675C570.654 276.542 573.255 280.217 574.836 284.357C576.43 288.68 576.361 293.44 574.642 297.715C572.73 301.991 569.486 305.534 565.394 307.816C561.287 310.209 556.571 311.355 551.823 311.111C547.043 310.778 542.402 309.359 538.252 306.963C529.685 301.993 522.958 294.382 519.079 285.268C515.051 275.948 513.669 265.699 515.085 255.645C515.825 250.607 517.274 245.698 519.389 241.066C520.454 238.783 521.672 236.574 523.034 234.455L525.282 231.45C526 230.422 526.93 229.511 527.745 228.619C531.14 225.013 535.062 221.94 539.377 219.507C543.659 217.164 548.218 215.366 552.948 214.156C562.175 211.844 571.845 211.984 581.001 214.563C589.842 217.2 598.12 222.028 603.335 229.356C605.956 232.964 607.38 237.304 607.406 241.764C607.501 246.153 605.848 250.4 602.812 253.57C599.71 256.482 595.627 258.122 591.373 258.165C587.303 258.258 583.283 257.246 579.741 255.238C576.338 253.36 573.261 250.944 570.629 248.084C568.034 245.397 565.787 242.394 563.94 239.146C557.163 227.411 555.322 213.464 558.822 200.372C560.374 194.908 562.917 189.775 566.325 185.231C571.841 177.961 579.205 172.304 587.651 168.849C592.943 166.659 598.582 165.425 604.304 165.204C605.789 165.106 607.279 165.106 608.763 165.204L610.004 165.359Z" fill="#263238"/>
<path d="M674.738 359.347H402.911V568.999H674.738V359.347Z" fill="#93C595"/>
<path d="M402.911 359.347L453.124 406.186H720.336L674.738 359.347H402.911Z" fill="#93C595"/>
<path d="M402.911 359.346L674.815 358.861H675.029L675.184 358.997L720.317 405.352L720.782 405.836L721.616 406.689H720.414L453.201 406.476H453.085L402.911 359.346L453.317 405.875H453.104L720.317 405.681L719.968 406.534L719.483 406.05L674.37 359.695L674.719 359.85L402.911 359.346Z" fill="#263238"/>
<path d="M484.57 456.03C483.097 456.084 481.704 456.713 480.691 457.783C479.678 458.853 479.125 460.277 479.152 461.751C479.178 463.224 479.782 464.628 480.834 465.66C481.885 466.693 483.3 467.271 484.773 467.271C486.247 467.271 487.661 466.693 488.712 465.66C489.764 464.628 490.368 463.224 490.394 461.751C490.421 460.277 489.868 458.853 488.855 457.783C487.842 456.713 486.449 456.084 484.977 456.03" fill="#263238"/>
<path d="M548.799 456.03C547.333 456.086 545.947 456.715 544.939 457.782C543.931 458.849 543.383 460.268 543.411 461.736C543.438 463.203 544.041 464.601 545.088 465.628C546.136 466.656 547.545 467.232 549.012 467.232C550.48 467.232 551.889 466.656 552.936 465.628C553.984 464.601 554.586 463.203 554.614 461.736C554.642 460.268 554.093 458.849 553.086 457.782C552.078 456.715 550.692 456.086 549.226 456.03" fill="#263238"/>
<path d="M549.167 506.204C548.047 501.922 546.226 497.854 543.778 494.165C541.055 490.22 537.559 486.869 533.503 484.316C528.608 481.068 522.9 479.261 517.028 479.1C511.156 478.938 505.358 480.43 500.293 483.405C496.109 485.74 492.437 488.892 489.494 492.672C486.843 496.225 484.805 500.196 483.464 504.421C483.479 504.105 483.532 503.793 483.62 503.49C483.805 502.617 484.045 501.755 484.337 500.912C485.399 497.797 486.95 494.872 488.932 492.246C491.854 488.288 495.572 484.986 499.847 482.552C505.042 479.45 511.013 477.891 517.062 478.056C523.111 478.221 528.988 480.103 534.007 483.483C538.134 486.135 541.66 489.622 544.359 493.719C546.201 496.453 547.595 499.464 548.489 502.637C548.728 503.498 548.915 504.372 549.051 505.254C549.118 505.567 549.157 505.885 549.167 506.204Z" fill="#263238"/>
<path opacity="0.5" d="M403.531 361.653L451.611 422.606H674.738V406.186H453.124L403.531 361.653Z" fill="black"/>
<path d="M621.133 568.534C620.861 568.534 620.628 532.066 620.628 487.108C620.628 442.149 620.861 405.682 621.133 405.682C621.404 405.682 621.656 442.129 621.656 487.108C621.656 532.086 621.423 568.534 621.133 568.534Z" fill="#263238"/>
<path d="M663.823 520.996H639.86V548.08H663.823V520.996Z" fill="#F5F5F5"/>
<path d="M402.911 359.347L347.115 406.186H402.911V359.347Z" fill="#93C595"/>
<g opacity="0.4">
<path d="M402.911 359.347L347.115 406.186H402.911V359.347Z" fill="black"/>
</g>
<path d="M682.764 568.999H370.224V810.059H682.764V568.999Z" fill="#93C595"/>
<path opacity="0.3" d="M682.764 568.999H370.224V810.059H682.764V568.999Z" fill="black"/>
<path d="M604.46 808.353C604.188 808.353 603.956 754.631 603.956 688.366C603.956 622.1 604.188 568.359 604.46 568.359C604.731 568.359 604.964 622.081 604.964 688.366C604.964 754.65 604.731 808.353 604.46 808.353Z" fill="#263238"/>
<path d="M656.262 755.193H632.3V782.277H656.262V755.193Z" fill="#F5F5F5"/>
<path d="M501.068 569.639H465.57V621.073H501.068V569.639Z" fill="#263238"/>
<path d="M501.068 757.907H465.57V809.341H501.068V757.907Z" fill="#263238"/>
<path d="M680.05 568.999H679.236H676.89L667.875 569.096L634.665 569.251L525.147 569.503L415.59 569.367L382.399 569.212L373.384 569.115L382.399 569.018L415.59 568.863L525.147 568.708L634.665 568.863L667.875 569.018L676.89 569.115H679.236L680.05 568.999Z" fill="#263238"/>
<path d="M144.422 151.652L110.379 143.277H110.631C101.84 148.868 91.6754 151.921 81.259 152.098C75.0923 152.126 68.9561 151.231 63.0545 149.442C52.6788 146.11 43.4737 139.878 36.5271 131.482C29.5805 123.085 25.1828 112.876 23.8537 102.06C22.8099 93.8797 23.5783 85.57 26.1045 77.72C28.6307 69.87 32.8529 62.6718 38.4716 56.6358C41.4252 53.3915 44.7355 50.491 48.3397 47.9891C50.1621 46.8453 51.9845 45.6627 53.8844 44.6739L56.7731 43.278L58.2077 42.5801L59.7199 42.0373C67.5047 39.0197 75.8556 37.7426 84.1865 38.2955C95.3514 39.0205 106.052 43.0342 114.939 49.8309C123.827 56.6276 130.503 65.903 134.128 76.4882C136.141 82.4096 137.201 88.6132 137.268 94.8672C137.317 105.261 134.492 115.466 129.106 124.355V124.045C138.567 141.125 143.337 149.752 144.403 151.652C143.298 149.713 138.354 141.241 128.564 124.336V124.181V124.025C133.756 115.222 136.438 105.165 136.318 94.9447C136.229 88.7908 135.155 82.6909 133.139 76.8759C129.554 66.5073 122.99 57.4266 114.269 50.7709C105.547 44.1151 95.0561 40.1802 84.1089 39.4588C75.9422 38.9265 67.7576 40.1836 60.127 43.1423L58.6536 43.6658L57.2384 44.3637L54.4079 45.7208C52.4691 46.7096 50.7631 47.8534 48.9601 48.9779C45.4255 51.4126 42.1741 54.2348 39.2665 57.3919C33.7505 63.3174 29.6045 70.383 27.1219 78.0886C24.6394 85.7941 23.8811 93.9512 24.9006 101.982C26.698 116.696 34.2467 130.099 45.8969 139.264C51.1054 143.391 57.0164 146.543 63.3453 148.57C69.141 150.361 75.1734 151.27 81.2396 151.264C91.5312 151.154 101.593 148.209 110.32 142.753H110.437H110.65L144.422 151.652Z" fill="#263238"/>
<path d="M75.7531 69.8966L77.4785 98.3957C77.5474 99.5198 78.025 100.58 78.8213 101.376C79.6177 102.173 80.6778 102.65 81.8019 102.719C82.9846 102.786 84.1481 102.397 85.0532 101.633C85.9582 100.868 86.5361 99.7863 86.668 98.609L89.8281 70.0517C89.8832 69.5408 89.8289 69.024 89.6691 68.5357C89.5092 68.0473 89.2474 67.5985 88.9009 67.219C88.5544 66.8395 88.1312 66.538 87.6593 66.3345C87.1875 66.131 86.6778 66.0301 86.164 66.0386H79.2428C78.7571 66.053 78.2794 66.1655 77.8383 66.3692C77.3972 66.5729 77.0018 66.8637 76.6758 67.224C76.3499 67.5844 76.1002 68.0068 75.9416 68.4661C75.783 68.9254 75.7189 69.412 75.7531 69.8966Z" fill="#93C595"/>
<path d="M89.3241 118.636C88.8903 119.938 88.0802 121.082 86.9964 121.923C85.9126 122.765 84.6036 123.267 83.2348 123.364C81.8661 123.462 80.499 123.152 79.3064 122.474C78.1138 121.795 77.1491 120.778 76.5344 119.551C75.9196 118.324 75.6823 116.943 75.8525 115.581C76.0226 114.219 76.5926 112.939 77.4904 111.901C78.3881 110.863 79.5734 110.115 80.8964 109.75C82.2194 109.386 83.6207 109.422 84.9232 109.853C85.7893 110.141 86.5902 110.596 87.2802 111.192C87.9703 111.789 88.5358 112.516 88.9446 113.332C89.3533 114.148 89.5973 115.036 89.6624 115.946C89.7275 116.856 89.6125 117.77 89.3241 118.636Z" fill="#93C595"/>
</svg>
