<svg width="20" height="20" viewBox="0 0 20 20" fill="none" xmlns="http://www.w3.org/2000/svg">
<path d="M17.1429 15V17.8572C17.1429 18.236 16.9923 18.5995 16.7244 18.8673C16.4566 19.1352 16.0932 19.2857 15.7143 19.2857H2.14287C1.76398 19.2857 1.40062 19.1352 1.13271 18.8673C0.864804 18.5995 0.714294 18.236 0.714294 17.8572V7.14289C0.714294 4.77596 2.63308 2.85718 5.00001 2.85718H14.2857V6.42861" stroke="#A5D6A7" stroke-linecap="round" stroke-linejoin="round"/>
<path d="M18.5715 10.7144H13.5715C13.177 10.7144 12.8572 11.0342 12.8572 11.4286V14.2858C12.8572 14.6802 13.177 15.0001 13.5715 15.0001H18.5715C18.9659 15.0001 19.2858 14.6802 19.2858 14.2858V11.4286C19.2858 11.0342 18.9659 10.7144 18.5715 10.7144Z" stroke="#A5D6A7" stroke-linecap="round" stroke-linejoin="round"/>
<path d="M17.1429 10.7144V7.85728C17.1429 7.4784 16.9923 7.11504 16.7244 6.84713C16.4566 6.57923 16.0931 6.42871 15.7143 6.42871H14.2857H5" stroke="#A5D6A7" stroke-linecap="round" stroke-linejoin="round"/>
</svg>
