<svg width="41" height="40" viewBox="0 0 41 40" fill="none" xmlns="http://www.w3.org/2000/svg">
<path d="M29.5 20C29.5 21.3807 28.3808 22.5 27 22.5C25.6193 22.5 24.5 21.3807 24.5 20C24.5 18.6193 25.6193 17.5 27 17.5C28.3808 17.5 29.5 18.6193 29.5 20Z" fill="#783EC3"/>
<path fill-rule="evenodd" clip-rule="evenodd" d="M35.3334 8.33333V12.1333C36.3167 12.7167 37 13.7667 37 15V25C37 26.2333 36.3167 27.2833 35.3334 27.8667V31.6667C35.3334 33.5 33.8334 35 32 35H8.66671C6.81671 35 5.33337 33.5 5.33337 31.6667V8.33333C5.33337 6.5 6.81671 5 8.66671 5H32C33.8334 5 35.3334 6.5 35.3334 8.33333ZM22 25H33.6667V15H22V25ZM8.66671 8.33333V31.6667H32V28.3333H22C20.1667 28.3333 18.6667 26.8333 18.6667 25V15C18.6667 13.1667 20.1667 11.6667 22 11.6667H32V8.33333H8.66671Z" fill="#783EC3"/>
</svg>
