<svg width="24" height="25" viewBox="0 0 24 25" fill="none" xmlns="http://www.w3.org/2000/svg">
<path d="M16.5 6.78809H13.5C12.9477 6.78809 12.5 7.23581 12.5 7.78809V10.7881H16.5C16.6137 10.7856 16.7216 10.8385 16.7892 10.93C16.8568 11.0215 16.8758 11.1401 16.84 11.2481L16.1 13.4481C16.0318 13.65 15.8431 13.7865 15.63 13.7881H12.5V21.2881C12.5 21.5642 12.2761 21.7881 12 21.7881H9.5C9.22386 21.7881 9 21.5642 9 21.2881V13.7881H7.5C7.22386 13.7881 7 13.5642 7 13.2881V11.2881C7 11.012 7.22386 10.7881 7.5 10.7881H9V7.78809C9 5.57895 10.7909 3.78809 13 3.78809H16.5C16.7761 3.78809 17 4.01195 17 4.28809V6.28809C17 6.56423 16.7761 6.78809 16.5 6.78809Z" fill="#151AA5"/>
</svg>
