<svg width="24" height="25" viewBox="0 0 24 25" fill="none" xmlns="http://www.w3.org/2000/svg">
<path fill-rule="evenodd" clip-rule="evenodd" d="M16 3.78809H8C5.23858 3.78809 3 6.02667 3 8.78809V16.7881C3 19.5495 5.23858 21.7881 8 21.7881H16C18.7614 21.7881 21 19.5495 21 16.7881V8.78809C21 6.02667 18.7614 3.78809 16 3.78809ZM19.25 16.7881C19.2445 18.5807 17.7926 20.0326 16 20.0381H8C6.20735 20.0326 4.75549 18.5807 4.75 16.7881V8.78809C4.75549 6.99544 6.20735 5.54358 8 5.53809H16C17.7926 5.54358 19.2445 6.99544 19.25 8.78809V16.7881ZM16.75 9.03809C17.3023 9.03809 17.75 8.59037 17.75 8.03809C17.75 7.48581 17.3023 7.03809 16.75 7.03809C16.1977 7.03809 15.75 7.48581 15.75 8.03809C15.75 8.59037 16.1977 9.03809 16.75 9.03809ZM12 8.28809C9.51472 8.28809 7.5 10.3028 7.5 12.7881C7.5 15.2734 9.51472 17.2881 12 17.2881C14.4853 17.2881 16.5 15.2734 16.5 12.7881C16.5027 11.5938 16.0294 10.4477 15.1849 9.60317C14.3404 8.75868 13.1943 8.28543 12 8.28809ZM9.25 12.7881C9.25 14.3069 10.4812 15.5381 12 15.5381C13.5188 15.5381 14.75 14.3069 14.75 12.7881C14.75 11.2693 13.5188 10.0381 12 10.0381C10.4812 10.0381 9.25 11.2693 9.25 12.7881Z" fill="#151AA5"/>
</svg>
