<svg width="24" height="25" viewBox="0 0 24 25" fill="none" xmlns="http://www.w3.org/2000/svg">
<path fill-rule="evenodd" clip-rule="evenodd" d="M5 3.78809H19C20.1046 3.78809 21 4.68352 21 5.78809V19.7881C21 20.8927 20.1046 21.7881 19 21.7881H5C3.89543 21.7881 3 20.8927 3 19.7881V5.78809C3 4.68352 3.89543 3.78809 5 3.78809ZM8 18.7881C8.27614 18.7881 8.5 18.5642 8.5 18.2881V11.2881C8.5 11.012 8.27614 10.7881 8 10.7881H6.5C6.22386 10.7881 6 11.012 6 11.2881V18.2881C6 18.5642 6.22386 18.7881 6.5 18.7881H8ZM7.25 9.78809C6.42157 9.78809 5.75 9.11652 5.75 8.28809C5.75 7.45966 6.42157 6.78809 7.25 6.78809C8.07843 6.78809 8.75 7.45966 8.75 8.28809C8.75 9.11652 8.07843 9.78809 7.25 9.78809ZM17.5 18.7881C17.7761 18.7881 18 18.5642 18 18.2881V13.6881C18.0325 12.0989 16.8576 10.7426 15.28 10.5481C14.177 10.4473 13.1083 10.9625 12.5 11.8881V11.2881C12.5 11.012 12.2761 10.7881 12 10.7881H10.5C10.2239 10.7881 10 11.012 10 11.2881V18.2881C10 18.5642 10.2239 18.7881 10.5 18.7881H12C12.2761 18.7881 12.5 18.5642 12.5 18.2881V14.5381C12.5 13.7097 13.1716 13.0381 14 13.0381C14.8284 13.0381 15.5 13.7097 15.5 14.5381V18.2881C15.5 18.5642 15.7239 18.7881 16 18.7881H17.5Z" fill="#151AA5"/>
</svg>
