<svg width="20" height="20" viewBox="0 0 20 20" fill="none" xmlns="http://www.w3.org/2000/svg">
<g clip-path="url(#clip0_562_14157)">
<mask id="mask0_562_14157" style="mask-type:luminance" maskUnits="userSpaceOnUse" x="0" y="0" width="10" height="20">
<path d="M0.00231934 0H9.50004V20H0.00231934V0Z" fill="white"/>
</mask>
<g mask="url(#mask0_562_14157)">
<path d="M0.946097 2.30599C0.324807 3.98828 -0.360981 4.53418 0.337935 7.5C1.03656 10.4658 3.93411 10.8057 3.93411 10.8057L4.65557 10.8587C5.67298 10.9336 6.62932 11.4661 7.28457 12.3571C7.61676 12.8089 7.89045 13.375 7.98377 14.0667V18.0954H3.96008C3.96008 18.0954 1.41128 17.3724 1.60563 14.0225C1.60563 14.0225 2.23948 11.6908 3.05426 11.4404C3.05426 11.4404 1.81225 11.0417 1.50175 10.4811C1.50175 10.4811 -0.186038 11.8239 0.0434141 15.1439C0.272581 18.4645 3.18354 19.8216 3.74005 19.8066L9.49404 19.9987V13.5648C9.49404 13.5648 9.05768 11.3896 7.61305 10.096C7.04484 9.58724 6.35506 9.28744 5.63588 9.21517L3.84393 9.03451C3.84393 9.03451 0.73919 8.03092 1.91642 3.78158C1.91642 3.78158 2.76202 1.71549 4.75831 1.78906C6.75489 1.86296 7.90643 1.80404 7.90643 1.80404V5.26953C7.90643 6.19824 7.64359 7.10579 7.14102 7.83626C6.92526 8.15007 6.67127 8.4235 6.38931 8.55501C6.38931 8.55501 7.61162 8.98633 7.84478 9.46257C7.84478 9.46257 9.14301 8.93164 9.46008 6.34928C9.48348 6.16048 9.49404 5.9694 9.49404 5.77865V0H3.96008C3.96008 0 1.5671 0.623372 0.946097 2.30599Z" fill="#A5D6A7"/>
</g>
<mask id="mask1_562_14157" style="mask-type:luminance" maskUnits="userSpaceOnUse" x="10" y="0" width="10" height="20">
<path d="M10.5 0H19.9977V20H10.5V0Z" fill="white"/>
</mask>
<g mask="url(#mask1_562_14157)">
<path d="M18.5032 10.4811C18.1927 11.0417 16.9507 11.4404 16.9507 11.4404C17.7655 11.6914 18.3993 14.0225 18.3993 14.0225C18.5937 17.3721 16.0449 18.0954 16.0449 18.0954H12.0212V14.0667C12.1841 12.8561 12.8999 12.0296 13.5152 11.5296C13.9938 11.14 14.5608 10.9167 15.1473 10.8737L16.0703 10.806C16.0703 10.806 18.9684 10.4668 19.6667 7.50033C20.3654 4.53451 19.6796 3.98828 19.0589 2.30599C18.4384 0.623372 16.0449 0 16.0449 0H10.5109V5.77865C10.5109 5.9694 10.5218 6.16048 10.5449 6.34928C10.8622 8.93164 12.1602 9.46257 12.1602 9.46257C12.3933 8.98698 13.6156 8.55501 13.6156 8.55501C13.3337 8.42383 13.0797 8.15039 12.8639 7.83626C12.3614 7.10579 12.0985 6.19824 12.0985 5.26953V1.80404C12.0985 1.80404 13.2501 1.86296 15.2466 1.78906C17.2429 1.71517 18.0885 3.78158 18.0885 3.78158C19.2658 8.03158 16.161 9.03451 16.161 9.03451L14.895 9.16211C13.153 9.33724 11.6176 10.556 10.8879 12.3688C10.6142 13.0485 10.5106 13.5654 10.5106 13.5654V19.999L16.2643 19.8073C16.8208 19.8219 19.7315 18.4645 19.9612 15.1445C20.191 11.8239 18.5032 10.4811 18.5032 10.4811Z" fill="#A5D6A7"/>
</g>
</g>
<defs>
<clipPath id="clip0_562_14157">
<rect width="19.9954" height="20" fill="white" transform="translate(0.00231934)"/>
</clipPath>
</defs>
</svg>
