<svg width="85" height="50" viewBox="0 0 85 50" fill="none" xmlns="http://www.w3.org/2000/svg">
<g clip-path="url(#clip0_627_19565)">
<mask id="mask0_627_19565" style="mask-type:luminance" maskUnits="userSpaceOnUse" x="-1" y="0" width="86" height="51">
<path d="M-0.010376 0.0922852H84.9476V50.0682H-0.010376V0.0922852Z" fill="white"/>
</mask>
<g mask="url(#mask0_627_19565)">
<path d="M84.1339 25.0831L83.485 24.2178V21.0076C83.485 20.4517 83.4043 19.9189 83.256 19.4351C82.8871 18.2312 82.1044 17.3398 81.1508 17.1655L74.035 15.8694L70.9823 10.5259C69.5279 7.97978 67.4923 6.27806 65.2457 5.73619C62.7811 5.14424 59.0174 4.50522 53.7966 4.30891V2.63423C53.7966 1.48639 53.2719 0.514836 52.5492 0.203338C52.3913 0.135229 52.2223 0.097168 52.0485 0.097168H44.8011C43.8364 0.097168 43.053 1.23299 43.053 2.63323V4.58635C35.4904 5.31151 32.1198 6.95414 32.1198 6.95414C32.1198 6.95414 31.6874 7.3027 30.9792 7.91868C28.6705 9.91688 23.4325 14.7186 20.6756 19.374C20.6756 19.374 19.204 19.8027 17.1146 20.4678C12.4717 21.9461 4.78564 24.5884 3.46923 26.262C3.07135 26.7708 2.76587 27.3037 2.5321 27.8295C2.05767 28.8972 1.88045 29.9369 1.81839 30.6691C1.76529 31.2801 1.62668 31.869 1.39292 32.3808C1.37637 32.4189 1.35913 32.4559 1.3412 32.494C0.844015 33.5046 0.104789 35.4988 0.00204172 38.5517C-0.0138184 39.0204 -0.0151977 39.5152 0.00204172 40.0361V40.1192C0.00204172 42.1605 1.14467 43.8171 2.55141 43.8171H7.82529C8.68381 47.5351 10.6043 50.0681 12.8895 50.0681H15.13C17.4159 50.0681 19.3364 47.5351 20.1963 43.8171H32.9362C33.7948 47.5351 35.7152 50.0681 38.0005 50.0681H40.2409C41.6911 50.0681 42.9944 49.0485 43.9736 47.3548C44.9521 49.0485 46.2554 50.0681 47.7056 50.0681H49.946C52.2313 50.0681 54.1524 47.5351 55.0117 43.8171H67.7523C68.6108 47.5351 70.5313 50.0681 72.8165 50.0681H75.057C77.3422 50.0681 79.2634 47.5351 80.1233 43.8171H80.5646C81.9727 43.8171 83.1133 42.1605 83.1133 40.1192V36.6206C84.0394 36.0126 84.6897 34.6855 84.7352 33.137L84.891 27.8426C84.9407 26.8059 84.6614 25.7903 84.1339 25.0831Z" fill="black"/>
</g>
<mask id="mask1_627_19565" style="mask-type:luminance" maskUnits="userSpaceOnUse" x="-1" y="4" width="86" height="37">
<path d="M-0.010376 4.10254H84.9476V40.2564H-0.010376V4.10254Z" fill="white"/>
</mask>
<g mask="url(#mask1_627_19565)">
<path d="M84.134 25.0834L83.4851 24.218L83.1134 24.214L83.0141 24.211C82.6873 24.206 82.4259 23.8223 82.4259 23.3506V20.2987C82.4259 19.8219 82.6928 19.4353 83.019 19.4353H83.2562C82.8872 18.2314 82.1046 17.34 81.1509 17.1657L74.0351 15.8696L70.9824 10.5261C69.5281 7.97999 67.4924 6.27827 65.2458 5.7364C62.7813 5.14446 59.0175 4.50543 53.7968 4.30912C52.9989 4.27907 52.1666 4.26004 51.2998 4.25203C51.0405 4.25003 50.7792 4.24902 50.5137 4.24902C48.2029 4.24902 46.13 4.33616 44.2813 4.48039C43.8606 4.51244 43.451 4.5485 43.0532 4.58656C35.4899 5.31172 32.1192 6.95435 32.1192 6.95435C32.1192 6.95435 31.6875 7.30391 30.9787 7.9189C28.6706 9.91809 23.4326 14.7188 20.6757 19.3742C20.6757 19.3742 19.2035 19.8039 17.1147 20.468C12.4711 21.9463 4.78509 24.5886 3.46938 26.2622C3.07149 26.7711 2.76601 27.3039 2.53155 27.8298H3.93898C4.51891 27.8298 5.04851 28.3015 5.31331 29.0477L6.0346 31.082C6.24423 31.6759 5.94703 32.381 5.48708 32.381H1.39306C1.37651 32.4191 1.35858 32.4562 1.34065 32.4942C0.844158 33.5048 0.104242 35.499 0.0021847 38.5519C-0.0136754 39.0207 -0.0157442 39.5154 0.0021847 40.0363H34.4721C34.4721 40.0363 34.4721 27.353 40.2879 27.353C46.1059 27.353 45.5115 39.851 45.5115 39.851H70.1356C70.1356 39.851 69.7122 24.6467 75.4336 24.6467C79.6821 24.6467 78.9091 37.3921 78.9091 37.3921L82.2135 36.9654C82.5314 36.9233 82.8355 36.8051 83.1134 36.6208C84.0395 36.0128 84.6891 34.6857 84.7346 33.1372L84.8905 27.8428C84.9408 26.8061 84.6615 25.7905 84.134 25.0834ZM74.2627 16.5848C74.533 16.6268 80.9095 17.6435 82.248 18.4437C82.3218 18.4878 82.357 18.61 82.3266 18.7172C82.3039 18.7973 82.2501 18.8464 82.1935 18.8464C82.1749 18.8464 82.1563 18.8414 82.1384 18.8304C80.8371 18.0531 74.2972 17.0114 74.231 17.0004C74.1517 16.9874 74.0945 16.8842 74.1034 16.7701C74.1117 16.6549 74.1827 16.5717 74.2627 16.5848ZM66.8298 7.87583C68.8213 9.47438 72.2547 18.6971 72.2547 18.6971L68.1 18.8744C67.8421 13.3065 66.3084 8.95756 65.6375 7.29089C66.1457 7.46116 66.5553 7.65447 66.8298 7.87583ZM64.6969 7.03448C65.2996 8.47278 67.0001 13.01 67.2683 18.9095L60.9256 19.1809C60.6532 11.9493 58.1997 6.69494 58.1328 6.55571C60.396 6.45756 62.893 6.62683 64.6969 7.03448ZM59.5609 19.24L54.3001 19.4644C54.3408 19.3292 54.3629 19.1789 54.3532 19.0207L54.2084 16.6208C54.1802 16.1451 53.9036 15.7825 53.5747 15.7875L51.1771 15.8285C50.833 15.8346 50.5557 16.2412 50.5557 16.741V17.2017C50.5557 17.7056 50.2737 18.1142 49.9262 18.1142H49.4069C49.931 15.0864 51.2591 8.63003 53.2251 7.50824C53.9836 7.07454 55.2993 6.78909 56.8281 6.64386C56.8288 6.64386 59.2851 11.9093 59.5609 19.24ZM54.0643 19.8991C54.0898 20.0092 54.0491 20.1274 53.9733 20.1645C53.8981 20.2015 53.8188 20.2206 53.7388 20.2226L49.1594 20.3277C49.1587 20.3277 49.1573 20.3277 49.1566 20.3277C49.078 20.3277 49.0139 20.2356 49.0125 20.1214C49.0111 20.0052 49.0745 19.9101 49.1545 19.9081L53.734 19.8039C53.7843 19.8029 53.834 19.7909 53.8816 19.7679C53.9567 19.7308 54.0388 19.7889 54.0643 19.8991ZM31.7965 7.74862C31.9868 7.70355 39.3701 5.96176 48.3981 7.56733C49.2966 7.72759 49.8682 9.0457 49.5779 10.2877L47.734 18.1553C47.5244 19.0517 46.9231 19.6266 46.2735 19.5515C41.7809 19.0277 26.0068 17.8688 21.757 19.1809C24.5139 14.5255 29.4885 9.74682 31.7965 7.74862ZM72.8229 21.7731C72.8229 21.8892 72.7581 21.9824 72.6788 21.9824H70.39C70.3101 21.9824 70.2459 21.8892 70.2459 21.7731C70.2459 21.6579 70.3101 21.5637 70.39 21.5637H72.6788C72.7581 21.5637 72.8229 21.6579 72.8229 21.7731ZM33.0701 32.381H20.5798C20.1199 32.381 19.8241 31.6759 20.0337 31.082L20.7536 29.0477C21.0184 28.3005 21.5494 27.8298 22.1279 27.8298H31.9179C32.4006 27.8298 32.8391 28.2424 33.0357 28.8834L33.6873 30.9998C33.8873 31.6479 33.5591 32.381 33.0701 32.381ZM8.68809 25.3187C13.7282 22.2608 19.5724 20.5391 19.631 20.5231C19.7089 20.5 19.7855 20.5731 19.8006 20.6863C19.8165 20.8005 19.7661 20.9107 19.6875 20.9327C19.6296 20.9497 13.8123 22.6635 8.79981 25.7044C8.78188 25.7154 8.76257 25.7204 8.74395 25.7204C8.6874 25.7204 8.63431 25.6723 8.61086 25.5922C8.57983 25.486 8.615 25.3628 8.68809 25.3187ZM7.59442 27.0926H18.8594C19.6296 27.0926 20.1268 28.2735 19.7751 29.2671L18.6987 32.3069C18.5228 32.8057 18.1691 33.1182 17.7836 33.1182H7.84267C7.32135 33.1182 6.88209 32.5523 6.82072 31.8011L6.57247 28.7612C6.50007 27.8728 6.97794 27.0926 7.59442 27.0926ZM33.2639 38.2624H1.19102C1.11171 38.2624 1.04689 38.1683 1.04689 38.0531C1.04689 37.9369 1.11171 37.8438 1.19102 37.8438H33.2639C33.3432 37.8438 33.408 37.9369 33.408 38.0531C33.408 38.1683 33.3432 38.2624 33.2639 38.2624ZM33.2639 36.3484H1.19102C1.11171 36.3484 1.04689 36.2542 1.04689 36.139C1.04689 36.0239 1.11171 35.9297 1.19102 35.9297H33.2639C33.3432 35.9297 33.408 36.0239 33.408 36.139C33.408 36.2542 33.3432 36.3484 33.2639 36.3484ZM33.2639 34.4343H1.19102C1.11171 34.4343 1.04689 34.3412 1.04689 34.225C1.04689 34.1098 1.11171 34.0156 1.19102 34.0156H33.2639C33.3432 34.0156 33.408 34.1098 33.408 34.225C33.408 34.3412 33.3432 34.4343 33.2639 34.4343ZM28.1831 27.0134C28.1673 27.0215 28.1514 27.0245 28.1355 27.0245C28.0762 27.0245 28.0204 26.9714 27.9997 26.8842C27.9728 26.7761 28.0128 26.6559 28.088 26.6178C38.2261 21.4556 46.4307 20.8776 46.5121 20.8726C46.5914 20.8676 46.6596 20.9568 46.6631 21.0719C46.6665 21.1881 46.6045 21.2853 46.5252 21.2913C46.4438 21.2963 38.2785 21.8732 28.1831 27.0134ZM47.894 38.1252C47.8719 38.2104 47.8167 38.2624 47.7581 38.2624C47.7416 38.2624 47.7243 38.2584 47.7085 38.2494C47.6333 38.2094 47.5954 38.0892 47.623 37.981C49.4924 30.6132 47.8064 21.7961 47.7892 21.708C47.7671 21.5968 47.8119 21.4806 47.8885 21.4495C47.9657 21.4175 48.045 21.4826 48.0671 21.5928C48.0843 21.6829 49.7951 30.6302 47.894 38.1252ZM51.5632 29.9121V33.3706H51.0295V29.9121H50.4964V29.1889H52.1011V29.9121H51.5632ZM54.0836 32.2909H53.0513L52.7438 33.3706H52.1556L53.3547 29.1889H53.7719L54.9794 33.3706H54.3912L54.0836 32.2909ZM57.9349 33.3706H57.3198L56.6261 31.9243L55.9524 33.3706H55.318L56.311 31.2853L55.318 29.1889H55.9524L56.6261 30.6473L57.3198 29.1889H57.9349L56.9378 31.2853L57.9349 33.3706ZM59.0569 33.3706H58.5231V29.1889H59.0569V33.3706ZM59.7416 25.7414H52.0363C51.957 25.7414 51.8921 25.6473 51.8921 25.5321C51.8921 25.4159 51.957 25.3227 52.0363 25.3227H59.7416C59.8209 25.3227 59.8857 25.4159 59.8857 25.5321C59.8857 25.6473 59.8209 25.7414 59.7416 25.7414ZM59.8795 21.9824H57.5908C57.5108 21.9824 57.4467 21.8892 57.4467 21.7731C57.4467 21.6579 57.5108 21.5637 57.5908 21.5637H59.8795C59.9588 21.5637 60.0236 21.6579 60.0236 21.7731C60.0236 21.8892 59.9588 21.9824 59.8795 21.9824ZM60.9435 38.1252C60.9222 38.2104 60.867 38.2624 60.8084 38.2624C60.7918 38.2624 60.7746 38.2584 60.7587 38.2494C60.6836 38.2094 60.6456 38.0892 60.6732 37.981C62.5413 30.6162 60.8566 21.7961 60.8394 21.708C60.8173 21.5968 60.8622 21.4806 60.9387 21.4495C61.0159 21.4175 61.0952 21.4826 61.1166 21.5928C61.1345 21.6829 62.8454 30.6302 60.9435 38.1252ZM62.5565 25.5321C62.5565 25.4159 62.6213 25.3227 62.7006 25.3227H70.39C70.4693 25.3227 70.5342 25.4159 70.5342 25.5321C70.5342 25.6473 70.4693 25.7414 70.39 25.7414H62.7006C62.6213 25.7414 62.5565 25.6473 62.5565 25.5321ZM72.9394 25.0713C68.8675 29.8921 68.7551 37.974 68.7544 38.0551C68.753 38.1703 68.6889 38.2624 68.6102 38.2624H68.6082C68.5289 38.2614 68.4647 38.1663 68.4654 38.0511C68.4661 37.968 68.5785 29.6937 72.7567 24.7468C74.2089 23.0281 73.7062 21.113 73.0284 19.8089C72.9801 19.7158 72.9932 19.5846 73.0566 19.5154C73.1201 19.4453 73.2104 19.4644 73.2587 19.5565C74.3248 21.6068 74.211 23.5659 72.9394 25.0713ZM83.7244 34.7568H79.5442C79.4649 34.7568 79.4001 34.6637 79.4001 34.5475C79.4001 34.4323 79.4649 34.3382 79.5442 34.3382H83.7244C83.8037 34.3382 83.8685 34.4323 83.8685 34.5475C83.8685 34.6637 83.8037 34.7568 83.7244 34.7568ZM83.8671 25.7414H78.4795C78.4002 25.7414 78.3353 25.6473 78.3353 25.5321C78.3353 25.4159 78.4002 25.3227 78.4795 25.3227H83.8671C83.9471 25.3227 84.0119 25.4159 84.0119 25.5321C84.0119 25.6473 83.9471 25.7414 83.8671 25.7414ZM53.2299 31.5627L53.5575 30.2797H53.5651L53.8926 31.5627H53.2299ZM14.1709 30.1975C14.1709 30.7234 13.3689 31.1501 12.3801 31.1501C11.3912 31.1501 10.5893 30.7234 10.5893 30.1975C10.5893 29.6707 11.3912 29.244 12.3801 29.244C13.3689 29.244 14.1709 29.6707 14.1709 30.1975Z" fill="#FEC901"/>
</g>
<path d="M40.2403 46.297C38.6108 46.297 37.2903 43.2041 37.2903 39.388C37.2903 35.5709 38.6108 32.4779 40.2403 32.4779C41.8691 32.4779 43.1896 35.5709 43.1896 39.388C43.1896 43.2041 41.8691 46.297 40.2403 46.297ZM75.0556 32.4779C73.4262 32.4779 72.1056 35.5709 72.1056 39.388C72.1056 43.2041 73.4262 46.297 75.0556 46.297C76.6851 46.297 78.0057 43.2041 78.0057 39.388C78.0057 35.5709 76.6851 32.4779 75.0556 32.4779ZM40.9568 9.24374C42.7207 9.9068 45.8459 11.5775 46.5706 15.2303C46.6134 15.4467 46.8209 15.4587 46.8713 15.2443L47.8946 10.8764C48.0408 10.2524 47.7512 9.58929 47.3002 9.52018C45.6507 9.26878 42.3166 9.11754 40.974 9.06746C40.9009 9.06545 40.8857 9.2167 40.9568 9.24374ZM53.1774 10.7161C54.438 11.28 56.0592 12.2776 57.1349 13.9443C57.2521 14.1266 57.459 13.9563 57.4094 13.7179C57.0673 12.0622 56.6591 10.68 56.3185 9.67343C56.1509 9.17864 55.7833 8.89819 55.4061 8.9703C54.4201 9.1576 53.947 9.37495 53.7608 9.48312C53.5491 9.60432 53.3243 9.9068 53.0947 10.3505C53.0271 10.4797 53.0699 10.668 53.1774 10.7161ZM61.8696 11.1047C62.8019 11.6135 63.8176 12.3457 64.6299 13.3753C64.7968 13.5867 65.0506 13.3463 64.9809 13.0408C64.7272 11.932 64.4486 10.9655 64.192 10.1742C63.9521 9.43204 63.4576 8.93124 62.8943 8.85912C62.2792 8.781 61.6179 8.72291 60.9352 8.68785C60.7745 8.67984 60.6635 8.91722 60.7276 9.12956C60.789 9.33388 60.851 9.54522 60.9124 9.76457C61.0883 10.3856 61.4358 10.8683 61.8696 11.1047ZM68.9536 14.2828C69.0549 14.4571 69.1487 14.6404 69.237 14.8297C69.5583 15.5298 69.7859 16.3281 69.87 17.2365C69.8769 17.3106 69.8831 17.3858 69.888 17.4619C69.8935 17.549 69.9438 17.6161 70.0038 17.6131L70.6996 17.5841C70.7858 17.5801 70.8382 17.4459 70.7954 17.3377C69.9741 15.2984 68.9474 12.9597 68.024 11.2379C67.9454 11.0907 67.7854 11.2189 67.8282 11.3942C67.8875 11.6336 67.9454 11.879 68.002 12.1314C68.1523 12.7974 68.4019 13.4104 68.7336 13.9202C68.8095 14.0374 68.8832 14.1586 68.9536 14.2828ZM27.901 27.8295H22.1272C21.5486 27.8295 21.0176 28.3002 20.7528 29.0474L20.0329 31.0817C19.8233 31.6756 20.1191 32.3808 20.5791 32.3808H27.5631C26.9687 30.1372 27.901 27.8295 27.901 27.8295ZM6.03382 31.0817L5.31252 29.0474C5.04772 28.3002 4.51813 27.8295 3.9375 27.8295H2.53076C2.05634 28.8972 1.87911 29.9368 1.81774 30.669C1.76396 31.28 1.62604 31.8689 1.39227 32.3808H5.48629C5.94555 32.3808 6.24345 31.6756 6.03382 31.0817ZM45.9651 3.29923H46.2265V1.60652H46.4899V1.25295H45.7045V1.60652H45.9658L45.9651 3.29923ZM46.8044 3.29923H46.5161L47.1036 1.25295H47.3078L47.8987 3.29923H47.6105L47.4602 2.77138H46.9547L46.8044 3.29923ZM47.043 2.41381H47.3671L47.2064 1.78681H47.2029L47.043 2.41381ZM48.3752 3.29923L48.7048 2.5911L49.0441 3.29923H49.3455L48.8579 2.2786L49.3455 1.25195H49.0441L48.7048 1.9661L48.3752 1.25195H48.0642L48.5511 2.2786L48.0642 3.29923H48.3752ZM49.895 1.25295H49.6337V3.29923H49.895V1.25295Z" fill="#EFEFEF"/>
<mask id="mask2_627_19565" style="mask-type:luminance" maskUnits="userSpaceOnUse" x="27" y="0" width="57" height="33">
<path d="M27.3183 0.0922852H83.6319V32.5642H27.3183V0.0922852Z" fill="white"/>
</mask>
<g mask="url(#mask2_627_19565)">
<path d="M44.2805 4.47918C43.8599 4.51223 43.4503 4.54829 43.0524 4.58635V2.63323C43.0524 1.23299 43.8357 0.097168 44.8004 0.097168H46.0306C45.0639 0.097168 44.2805 1.23299 44.2805 2.63323V4.47918ZM51.299 2.63323V4.25182C52.1658 4.25983 52.9981 4.27886 53.796 4.30891V2.63323C53.796 1.48539 53.2712 0.514836 52.5485 0.203338C51.8252 0.514836 51.299 1.48539 51.299 2.63323ZM33.0349 28.8822C32.8384 28.2412 32.3998 27.8285 31.9171 27.8285H27.901C27.901 27.8285 26.9687 30.1362 27.5631 32.3808H33.0694C33.5583 32.3808 33.8865 31.6476 33.6865 30.9996L33.0349 28.8822ZM82.4251 20.2985V23.3504C82.4251 23.8221 82.6872 24.2067 83.0133 24.2107L83.1126 24.2138L83.485 24.2178V21.0076C83.485 20.4517 83.4036 19.9189 83.2554 19.4351H83.0182C82.692 19.4351 82.4251 19.8217 82.4251 20.2985Z" fill="#FE6539"/>
</g>
<mask id="mask3_627_19565" style="mask-type:luminance" maskUnits="userSpaceOnUse" x="-1" y="0" width="86" height="51">
<path d="M-0.010376 0.0922852H84.1621V50.0682H-0.010376V0.0922852Z" fill="white"/>
</mask>
<g mask="url(#mask3_627_19565)">
<path d="M44.2804 2.63323V4.47918C46.1291 4.33595 48.202 4.24881 50.5128 4.24881C50.7783 4.24881 51.0396 4.24981 51.2989 4.25182V2.63323C51.2989 1.48539 51.8257 0.514836 52.5484 0.203338C52.3905 0.135229 52.2216 0.097168 52.0478 0.097168H46.0305C45.0638 0.097168 44.2804 1.23299 44.2804 2.63323ZM49.6336 1.25302H49.8949V3.29929H49.6336V1.25302ZM48.0641 1.25302H48.3751L48.7047 1.96616L49.044 1.25302H49.3453L48.8571 2.27866L49.3453 3.29929H49.044L48.7047 2.59216L48.3751 3.29929H48.0641L48.5503 2.27866L48.0641 1.25302ZM47.1035 1.25302H47.3076L47.8986 3.29929H47.6104L47.46 2.77145H46.9546L46.8042 3.29929H46.516L47.1035 1.25302ZM45.7044 1.25302H46.4898V1.60658H46.2264V3.29929H45.965V1.60658H45.7044V1.25302ZM47.3663 2.41387H47.0421L47.2021 1.78687H47.2063L47.3663 2.41387ZM78.9082 37.3918C78.9082 37.3918 79.6812 24.6474 75.4327 24.6474C69.7106 24.6474 70.1347 39.8508 70.1347 39.8508H45.5106C45.5106 39.8508 46.105 27.3528 40.2871 27.3528C34.4712 27.3528 34.4712 40.0371 34.4712 40.0371H0.00128174V40.1192C0.00128174 42.1605 1.14322 43.8181 2.55065 43.8181H7.82384C8.68306 47.5361 10.6028 50.0691 12.8888 50.0691H15.1292C17.4145 50.0691 19.3356 47.5361 20.1949 43.8181H32.9348C33.794 47.5361 35.7145 50.0691 37.9997 50.0691H40.2402C41.6903 50.0691 42.9936 49.0495 43.9728 47.3548C44.9514 49.0495 46.2547 50.0691 47.7041 50.0691H49.9446C52.2305 50.0691 54.1517 47.5361 55.0109 43.8181H67.7508C68.61 47.5361 70.5298 50.0691 72.8158 50.0691H75.0562C77.3415 50.0691 79.2626 47.5361 80.1218 43.8181H80.5632C81.972 43.8181 83.1125 42.1605 83.1125 40.1192V36.6216C82.8346 36.8049 82.5305 36.9231 82.2126 36.9652L78.9082 37.3918ZM40.2402 46.2971C38.6107 46.2971 37.2902 43.2041 37.2902 39.388C37.2902 35.5709 38.6107 32.478 40.2402 32.478C41.8689 32.478 43.1895 35.5709 43.1895 39.388C43.1895 43.2041 41.8689 46.2971 40.2402 46.2971ZM75.0555 46.2971C73.4261 46.2971 72.1055 43.2041 72.1055 39.388C72.1055 35.5709 73.4261 32.478 75.0555 32.478C76.685 32.478 78.0055 35.5709 78.0055 39.388C78.0055 43.2041 76.685 46.2971 75.0555 46.2971ZM46.2726 19.5503C46.9222 19.6264 47.5235 19.0515 47.7331 18.1551L49.577 10.2875C49.8673 9.04448 49.2957 7.72738 48.3972 7.56712C39.3692 5.96155 31.9859 7.70334 31.7956 7.74841C29.4876 9.74661 24.513 14.5253 21.7561 19.1807C26.0059 17.8686 41.78 19.0275 46.2726 19.5503ZM40.9739 9.06752C42.3165 9.1176 45.6506 9.26884 47.2994 9.52025C47.751 9.58936 48.0407 10.2524 47.8945 10.8764L46.8711 15.2444C46.8208 15.4587 46.6132 15.4467 46.5705 15.2304C45.8457 11.5775 42.7206 9.90686 40.9566 9.2438C40.8856 9.21676 40.9008 9.06552 40.9739 9.06752ZM49.406 18.114H49.9253C50.2728 18.114 50.5549 17.7053 50.5549 17.2015V16.7408C50.5549 16.241 50.8321 15.8343 51.1762 15.8283L53.5738 15.7873C53.9027 15.7823 54.1793 16.1448 54.2075 16.6206L54.3524 19.0204C54.362 19.1787 54.3406 19.3289 54.2993 19.4642L59.56 19.2398C59.2842 11.9091 56.8272 6.64264 56.8272 6.64264C55.2985 6.78887 53.9827 7.07433 53.2242 7.50803C51.2582 8.62982 49.9301 15.0862 49.406 18.114ZM53.76 9.48319C53.9469 9.37501 54.4199 9.15767 55.406 8.97037C55.7832 8.89825 56.1508 9.1787 56.3183 9.67349C56.659 10.6801 57.0672 12.0623 57.4092 13.718C57.4589 13.9563 57.252 14.1266 57.1348 13.9443C56.0591 12.2777 54.4379 11.2801 53.1773 10.7162C53.0697 10.6681 53.027 10.4798 53.0946 10.3506C53.3242 9.90686 53.549 9.60438 53.76 9.48319ZM67.2674 18.9093C66.9992 13.0098 65.2987 8.47257 64.696 7.03427C62.8921 6.62662 60.3951 6.45734 58.1319 6.5555C58.1988 6.69472 60.6523 11.9491 60.9247 19.1807L67.2674 18.9093ZM60.7275 9.12962C60.6634 8.91628 60.7744 8.6799 60.9351 8.68791C61.6177 8.72297 62.279 8.78106 62.8941 8.85919C63.4575 8.9313 63.952 9.4321 64.1919 10.1743C64.4484 10.9646 64.727 11.9321 64.9808 13.0409C65.0505 13.3464 64.7974 13.5868 64.6298 13.3754C63.8175 12.3458 62.8017 11.6136 61.8694 11.1048C61.4357 10.8684 61.0881 10.3856 60.9123 9.76363C60.8509 9.54529 60.7889 9.33395 60.7275 9.12962ZM72.2538 18.6979C72.2538 18.6979 68.8204 9.47417 66.8289 7.87561C66.5544 7.65426 66.1448 7.46095 65.6366 7.29168C66.3075 8.95835 67.8412 13.3063 68.0991 18.8742L72.2538 18.6979ZM67.8281 11.3932C67.7846 11.218 67.9446 11.0908 68.0239 11.237C68.9472 12.9587 69.974 15.2985 70.7946 17.3378C70.8381 17.4459 70.7857 17.5801 70.6995 17.5841L70.0037 17.6132C69.9437 17.6162 69.8933 17.5491 69.8878 17.462C69.883 17.3858 69.8768 17.3107 69.8699 17.2356C69.7858 16.3281 69.5582 15.5289 69.2362 14.8297C69.1486 14.6404 69.0541 14.4571 68.9535 14.2829C68.8831 14.1587 68.8093 14.0375 68.7328 13.9203C68.4018 13.4095 68.1522 12.7975 68.0018 12.1314C67.9453 11.879 67.8874 11.6326 67.8281 11.3932ZM6.81982 31.8009C6.88188 32.5521 7.32045 33.118 7.84177 33.118H17.7827C18.1682 33.118 18.5219 32.8055 18.6985 32.3067L19.7742 29.2668C20.1259 28.2733 19.6287 27.0924 18.8591 27.0924H7.59352C6.97704 27.0924 6.49916 27.8726 6.57157 28.76L6.81982 31.8009ZM12.3792 31.1499C11.3903 31.1499 10.5884 30.7232 10.5884 30.1973C10.5884 29.6705 11.3903 29.2438 12.3792 29.2438C13.368 29.2438 14.17 29.6705 14.17 30.1973C14.17 30.7232 13.368 31.1499 12.3792 31.1499ZM52.1002 29.9119H51.5623V33.3704H51.0286V29.9119H50.4956V29.1887H52.1002V29.9119ZM54.9778 33.3704L53.771 29.1887H53.3538L52.1547 33.3704H52.7422L53.0504 32.2907H54.082L54.3903 33.3704H54.9778ZM53.5566 30.2795H53.5642L53.8917 31.5625H53.2297L53.5566 30.2795ZM57.934 29.1887L56.9369 31.2851L57.934 33.3704H57.3189L56.6252 31.9241L55.9515 33.3704H55.3171L56.3101 31.2851L55.3171 29.1887H55.9515L56.6252 30.647L57.3189 29.1887H57.934ZM58.5222 29.1887H59.056V33.3704H58.5222V29.1887ZM46.5243 21.2911C46.4429 21.2961 38.2776 21.873 28.1822 27.0132C28.1664 27.0212 28.1505 27.0253 28.1346 27.0253C28.0753 27.0253 28.0195 26.9712 27.9988 26.885C27.9719 26.7759 28.0119 26.6557 28.0871 26.6176C38.2252 21.4563 46.4298 20.8774 46.5112 20.8724C46.5905 20.8674 46.6587 20.9565 46.6622 21.0727C46.6656 21.1879 46.6036 21.2851 46.5243 21.2911ZM8.60996 25.592C8.57893 25.4858 8.6141 25.3626 8.68719 25.3185C13.7273 22.2606 19.5715 20.5389 19.6301 20.5229C19.708 20.4998 19.7846 20.5729 19.7997 20.6861C19.8156 20.8003 19.7652 20.9105 19.6866 20.9325C19.6287 20.9495 13.8114 22.6633 8.7989 25.7041C8.78097 25.7152 8.76167 25.7202 8.74305 25.7202C8.6865 25.7212 8.63341 25.6721 8.60996 25.592ZM33.4071 34.2248C33.4071 34.341 33.3423 34.4341 33.263 34.4341H1.19011C1.11081 34.4341 1.04599 34.341 1.04599 34.2248C1.04599 34.1096 1.11081 34.0154 1.19011 34.0154H33.263C33.3423 34.0154 33.4071 34.1096 33.4071 34.2248ZM33.4071 38.0529C33.4071 38.1681 33.3423 38.2622 33.263 38.2622H1.19011C1.11081 38.2622 1.04599 38.1681 1.04599 38.0529C1.04599 37.9367 1.11081 37.8436 1.19011 37.8436H33.263C33.3423 37.8436 33.4071 37.9367 33.4071 38.0529ZM33.4071 36.1388C33.4071 36.254 33.3423 36.3482 33.263 36.3482H1.19011C1.11081 36.3482 1.04599 36.254 1.04599 36.1388C1.04599 36.0237 1.11081 35.9295 1.19011 35.9295H33.263C33.3423 35.9295 33.4071 36.0237 33.4071 36.1388ZM47.8931 38.125C47.871 38.2102 47.8159 38.2622 47.7572 38.2622C47.7407 38.2622 47.7235 38.2582 47.7076 38.2492C47.6324 38.2091 47.5945 38.089 47.6221 37.9808C49.4915 30.613 47.8055 21.7959 47.7883 21.7077C47.7662 21.5966 47.811 21.4804 47.8876 21.4493C47.9648 21.4173 48.0441 21.4824 48.0662 21.5926C48.0834 21.6827 49.7943 30.63 47.8931 38.125ZM61.1157 21.5926C61.1337 21.6827 62.8445 30.631 60.9426 38.125C60.9213 38.2102 60.8661 38.2622 60.8075 38.2622C60.7909 38.2622 60.7737 38.2582 60.7578 38.2492C60.6827 38.2091 60.6447 38.089 60.6723 37.9808C62.5404 30.616 60.8558 21.7959 60.8385 21.7077C60.8164 21.5966 60.8613 21.4804 60.9378 21.4493C61.0144 21.4173 61.0943 21.4814 61.1157 21.5926ZM72.9385 25.0711C68.8666 29.8918 68.7542 37.9738 68.7535 38.0549C68.7521 38.1701 68.688 38.2622 68.6094 38.2622H68.6073C68.528 38.2612 68.4639 38.1661 68.4645 38.0509C68.4652 37.9678 68.5776 29.6935 72.7558 24.7466C74.208 23.0279 73.7053 21.1128 73.0275 19.8087C72.9792 19.7156 72.9923 19.5843 73.0557 19.5152C73.1192 19.4451 73.2095 19.4642 73.2578 19.5563C74.3239 21.6066 74.2101 23.5657 72.9385 25.0711ZM72.6779 21.5635C72.7572 21.5635 72.822 21.6577 72.822 21.7729C72.822 21.889 72.7572 21.9822 72.6779 21.9822H70.3892C70.3092 21.9822 70.245 21.889 70.245 21.7729C70.245 21.6577 70.3092 21.5635 70.3892 21.5635H72.6779ZM60.0227 21.7729C60.0227 21.889 59.9579 21.9822 59.8786 21.9822H57.5899C57.5099 21.9822 57.4458 21.889 57.4458 21.7729C57.4458 21.6577 57.5099 21.5635 57.5899 21.5635H59.8786C59.9579 21.5635 60.0227 21.6577 60.0227 21.7729ZM84.0111 25.5319C84.0111 25.647 83.9462 25.7412 83.8662 25.7412H78.4786C78.3993 25.7412 78.3345 25.647 78.3345 25.5319C78.3345 25.4157 78.3993 25.3225 78.4786 25.3225H83.8662C83.9462 25.3225 84.0111 25.4157 84.0111 25.5319ZM70.3892 25.7412H62.6997C62.6204 25.7412 62.5556 25.647 62.5556 25.5319C62.5556 25.4157 62.6204 25.3225 62.6997 25.3225H70.3892C70.4685 25.3225 70.5333 25.4157 70.5333 25.5319C70.5333 25.647 70.4685 25.7412 70.3892 25.7412ZM59.8848 25.5319C59.8848 25.647 59.82 25.7412 59.7407 25.7412H52.0354C51.9561 25.7412 51.8913 25.647 51.8913 25.5319C51.8913 25.4157 51.9561 25.3225 52.0354 25.3225H59.7407C59.82 25.3225 59.8848 25.4157 59.8848 25.5319ZM83.8676 34.5483C83.8676 34.6635 83.8028 34.7576 83.7235 34.7576H79.5433C79.464 34.7576 79.3992 34.6635 79.3992 34.5483C79.3992 34.4321 79.464 34.339 79.5433 34.339H83.7235C83.8028 34.339 83.8676 34.4321 83.8676 34.5483ZM54.0634 19.8989C54.0889 20.009 54.0483 20.1272 53.9724 20.1643C53.8972 20.2013 53.8179 20.2204 53.7379 20.2224L49.1585 20.3275C49.1578 20.3275 49.1564 20.3275 49.1557 20.3275C49.0771 20.3275 49.013 20.2354 49.0116 20.1212C49.0102 20.005 49.0736 19.9099 49.1536 19.9079L53.7331 19.8037C53.7835 19.8027 53.8331 19.7907 53.8807 19.7676C53.9558 19.7306 54.0379 19.7887 54.0634 19.8989ZM74.1025 16.7698C74.1108 16.6547 74.1818 16.5715 74.2618 16.5845C74.5321 16.6266 80.9087 17.6432 82.2471 18.4435C82.3209 18.4876 82.3561 18.6098 82.3257 18.717C82.303 18.7971 82.2492 18.8462 82.1926 18.8462C82.174 18.8462 82.1554 18.8412 82.1375 18.8301C80.8362 18.0529 74.2963 17.0112 74.2301 17.0002C74.1508 16.9882 74.0936 16.885 74.1025 16.7698Z" fill="black"/>
</g>
</g>
<defs>
<clipPath id="clip0_627_19565">
<rect width="85" height="50" fill="white"/>
</clipPath>
</defs>
</svg>
