<svg width="46" height="46" viewBox="0 0 46 46" fill="none" xmlns="http://www.w3.org/2000/svg">
<path d="M0 8C0 3.58172 3.58172 0 8 0H38C42.4183 0 46 3.58172 46 8V38C46 42.4183 42.4183 46 38 46H8C3.58172 46 0 42.4183 0 38V8Z" fill="#DCFAE6"/>
<path d="M24 18H22V22H18V24H22V28H24V24H28V22H24V18ZM23 13C17.48 13 13 17.48 13 23C13 28.52 17.48 33 23 33C28.52 33 33 28.52 33 23C33 17.48 28.52 13 23 13ZM23 31C18.59 31 15 27.41 15 23C15 18.59 18.59 15 23 15C27.41 15 31 18.59 31 23C31 27.41 27.41 31 23 31Z" fill="#0B9055"/>
</svg>
