<svg width="20" height="20" viewBox="0 0 20 20" fill="none" xmlns="http://www.w3.org/2000/svg">
<g clip-path="url(#clip0_311_7322)">
<mask id="mask0_311_7322" style="mask-type:luminance" maskUnits="userSpaceOnUse" x="0" y="0" width="10" height="20">
<path d="M0 0H9.49772V20H0V0Z" fill="white"/>
</mask>
<g mask="url(#mask0_311_7322)">
<path d="M0.943655 2.30599C0.322365 3.98828 -0.363422 4.53418 0.335493 7.5C1.03412 10.4658 3.93167 10.8057 3.93167 10.8057L4.65313 10.8587C5.67054 10.9336 6.62687 11.4661 7.28213 12.3571C7.61432 12.8089 7.88801 13.375 7.98133 14.0667V18.0954H3.95764C3.95764 18.0954 1.40884 17.3724 1.60319 14.0225C1.60319 14.0225 2.23703 11.6908 3.05182 11.4404C3.05182 11.4404 1.80981 11.0417 1.49931 10.4811C1.49931 10.4811 -0.188479 11.8239 0.0409727 15.1439C0.270139 18.4645 3.1811 19.8216 3.73761 19.8066L9.4916 19.9987V13.5648C9.4916 13.5648 9.05524 11.3896 7.61061 10.096C7.0424 9.58724 6.35262 9.28744 5.63344 9.21517L3.84149 9.03451C3.84149 9.03451 0.736749 8.03092 1.91398 3.78158C1.91398 3.78158 2.75958 1.71549 4.75587 1.78906C6.75245 1.86296 7.90399 1.80404 7.90399 1.80404V5.26953C7.90399 6.19824 7.64114 7.10579 7.13858 7.83626C6.92282 8.15007 6.66883 8.4235 6.38686 8.55501C6.38686 8.55501 7.60918 8.98633 7.84234 9.46257C7.84234 9.46257 9.14057 8.93164 9.45764 6.34928C9.48104 6.16048 9.4916 5.9694 9.4916 5.77865V0H3.95764C3.95764 0 1.56466 0.623372 0.943655 2.30599Z" fill="#A5D6A7"/>
</g>
<mask id="mask1_311_7322" style="mask-type:luminance" maskUnits="userSpaceOnUse" x="10" y="0" width="10" height="20">
<path d="M10.4976 0H19.9953V20H10.4976V0Z" fill="white"/>
</mask>
<g mask="url(#mask1_311_7322)">
<path d="M18.5009 10.4811C18.1904 11.0417 16.9484 11.4404 16.9484 11.4404C17.7632 11.6914 18.397 14.0225 18.397 14.0225C18.5913 17.3721 16.0425 18.0954 16.0425 18.0954H12.0189V14.0667C12.1818 12.8561 12.8976 12.0296 13.5129 11.5296C13.9915 11.14 14.5585 10.9167 15.145 10.8737L16.0679 10.806C16.0679 10.806 18.9661 10.4668 19.6644 7.50033C20.363 4.53451 19.6773 3.98828 19.0565 2.30599C18.4361 0.623372 16.0425 0 16.0425 0H10.5086V5.77865C10.5086 5.9694 10.5194 6.16048 10.5425 6.34928C10.8599 8.93164 12.1578 9.46257 12.1578 9.46257C12.391 8.98698 13.6133 8.55501 13.6133 8.55501C13.3314 8.42383 13.0774 8.15039 12.8616 7.83626C12.359 7.10579 12.0962 6.19824 12.0962 5.26953V1.80404C12.0962 1.80404 13.2477 1.86296 15.2443 1.78906C17.2406 1.71517 18.0862 3.78158 18.0862 3.78158C19.2634 8.03158 16.1587 9.03451 16.1587 9.03451L14.8927 9.16211C13.1507 9.33724 11.6153 10.556 10.8856 12.3688C10.6119 13.0485 10.5083 13.5654 10.5083 13.5654V19.999L16.262 19.8073C16.8185 19.8219 19.7292 18.4645 19.9589 15.1445C20.1887 11.8239 18.5009 10.4811 18.5009 10.4811Z" fill="#A5D6A7"/>
</g>
</g>
<defs>
<clipPath id="clip0_311_7322">
<rect width="19.9954" height="20" fill="white"/>
</clipPath>
</defs>
</svg>
