<svg width="20" height="20" viewBox="0 0 20 20" fill="none" xmlns="http://www.w3.org/2000/svg">
<g clip-path="url(#clip0_627_17758)">
<path d="M19.2565 10.7368C19.1155 12.509 18.4688 14.2034 17.3931 15.6188C16.3174 17.0342 14.8581 18.1111 13.1883 18.7214C11.5186 19.3318 9.70883 19.4501 7.97391 19.0622C6.239 18.6742 4.6519 17.7965 3.40117 16.5331C2.15044 15.2698 1.28866 13.6739 0.918204 11.9352C0.547751 10.1965 0.684199 8.38792 1.31134 6.72447C1.93848 5.06101 3.02996 3.61254 4.45608 2.55114C5.88221 1.48974 7.58304 0.860024 9.35653 0.736816" fill="white"/>
<path d="M19.2565 10.7368C19.1155 12.509 18.4688 14.2034 17.3931 15.6188C16.3174 17.0342 14.8581 18.1111 13.1883 18.7214C11.5186 19.3318 9.70883 19.4501 7.97391 19.0622C6.239 18.6742 4.6519 17.7965 3.40117 16.5331C2.15044 15.2698 1.28866 13.6739 0.918204 11.9352C0.547751 10.1965 0.684199 8.38792 1.31134 6.72447C1.93848 5.06101 3.02996 3.61254 4.45608 2.55114C5.88221 1.48974 7.58304 0.860024 9.35653 0.736816" stroke="black" stroke-linecap="round" stroke-linejoin="round"/>
<path d="M13.9856 11.557C13.7276 12.221 13.3082 12.8102 12.7653 13.2714C12.2223 13.7325 11.573 14.0511 10.876 14.1982C10.1791 14.3454 9.45639 14.3165 8.77339 14.1141C8.09039 13.9118 7.46859 13.5424 6.96424 13.0393C6.45989 12.5363 6.08888 11.9154 5.88478 11.2329C5.68066 10.5505 5.64989 9.82786 5.79523 9.1305C5.94059 8.43313 6.25748 7.783 6.71723 7.23889C7.17699 6.69477 7.76514 6.27385 8.42845 6.01416" stroke="black" stroke-linecap="round" stroke-linejoin="round"/>
<path d="M10 10.0001L13.5714 6.42871" stroke="black" stroke-linecap="round" stroke-linejoin="round"/>
<path d="M16.4289 7.14293L13.5717 6.42864L12.8574 3.5715L15.7146 0.714355L16.4289 3.5715L19.286 4.28578L16.4289 7.14293Z" stroke="black" stroke-linecap="round" stroke-linejoin="round"/>
</g>
<defs>
<clipPath id="clip0_627_17758">
<rect width="20" height="20" fill="white"/>
</clipPath>
</defs>
</svg>
