<svg width="50" height="50" viewBox="0 0 50 50" fill="none" xmlns="http://www.w3.org/2000/svg">
<g clip-path="url(#clip0_627_19555)">
<path d="M45.8699 22.852C45.8656 22.8453 45.8635 22.8405 45.8606 22.8365L29.4938 6.64057C27.2447 4.55115 26.942 3.78613 25.1126 3.78613C23.69 3.78613 22.7014 4.66614 20.2831 6.88611L4.46007 22.8317C3.97726 23.2876 3.67236 23.9289 3.67236 24.6452V47.507C3.67236 48.8822 4.78792 49.9989 6.16318 49.9989H44.1431C45.5191 49.9989 46.6339 48.8822 46.6339 47.507V24.6452C46.6339 23.9397 46.3412 23.3052 45.8699 22.852Z" fill="#F7E3B5"/>
<path d="M26.2863 43.5803C25.6865 43.5803 25.1987 42.9965 25.1987 42.2714V32.5183C25.1987 31.7952 25.6865 31.2095 26.2863 31.2095H41.6688C42.2685 31.2095 42.7535 31.7952 42.7535 32.5183V42.2714C42.7535 42.9965 42.2685 43.5803 41.6688 43.5803H26.2863Z" fill="#EA8342"/>
<path d="M49.3895 22.4428L26.2511 0.609027C25.6772 0.0679019 25.0653 -0.231746 24.5688 0.236327C24.5688 0.236327 23.1699 1.24756 22.8722 1.53097L0.668618 22.4827C0.117654 23.0022 -0.18222 23.5615 0.314939 24.0283L1.69952 25.3371C2.19668 25.8059 2.78926 25.5231 3.3395 25.003L25.0488 4.51798L46.7165 24.9658C47.2904 25.5049 47.9016 25.8059 48.3988 25.3371L49.7855 24.0283C50.2798 23.5615 49.9634 22.9846 49.3895 22.4428Z" fill="#E0464C"/>
<path d="M22.4389 49.9656V32.4656C22.4389 31.7709 21.8434 31.2095 21.1081 31.2095H11.1965C10.4633 31.2095 9.86569 31.7709 9.86569 32.4656V49.9656H22.4389Z" fill="#EA8342"/>
<path d="M27.2584 42.404C26.734 42.404 26.3071 41.9305 26.3071 41.3448V33.445C26.3071 32.8613 26.734 32.3857 27.2584 32.3857H40.6967C41.2212 32.3857 41.6459 32.8613 41.6459 33.445V41.3448C41.6459 41.9305 41.2212 42.404 40.6967 42.404H27.2584Z" fill="#A6D1EE"/>
<path d="M41.6459 35.4593V33.445C41.6459 32.8613 41.2212 32.3857 40.6967 32.3857H27.2584C26.734 32.3857 26.3071 32.8613 26.3071 33.445V35.4593H41.6459Z" fill="#F8A64B"/>
<path d="M29.077 20.1717C29.077 22.2719 27.2727 23.9744 25.0466 23.9744C22.8184 23.9744 21.0141 22.2719 21.0141 20.1717C21.0141 18.0714 22.8184 16.3662 25.0466 16.3662C27.2727 16.3662 29.077 18.0714 29.077 20.1717Z" fill="#EA8342"/>
<path d="M28.1114 20.1716C28.1114 21.7679 26.7383 23.0639 25.0466 23.0639C23.355 23.0639 21.9819 21.7679 21.9819 20.1716C21.9819 18.5733 23.355 17.2793 25.0466 17.2793C26.7383 17.2793 28.1114 18.5733 28.1114 20.1716Z" fill="#A6D1EE"/>
<path d="M46.7746 45.6074C46.2781 45.6074 45.8211 45.7555 45.4459 46.0078C45.4789 45.8793 45.4997 45.7467 45.4997 45.6074C45.4997 44.6767 44.7013 43.9231 43.7148 43.9231C43.0864 43.9231 42.5333 44.2302 42.2176 44.6922C41.8984 44.2302 41.3481 43.9231 40.7175 43.9231C40.3847 43.9231 40.0733 44.0111 39.8064 44.1619C39.5719 43.2001 38.66 42.479 37.571 42.479C36.4512 42.479 35.5185 43.2373 35.3169 44.237C35.0235 44.0402 34.6677 43.9231 34.2789 43.9231C33.7681 43.9231 33.3089 44.1288 32.9804 44.4534C32.575 43.8453 31.8605 43.4429 31.0427 43.4429C29.775 43.4429 28.7463 44.4115 28.7463 45.6074C28.7463 45.6649 28.7513 45.7251 28.7556 45.7799C28.4794 45.6696 28.1745 45.6074 27.856 45.6074C26.5883 45.6074 25.5596 46.578 25.5596 47.7746C25.5596 48.9705 26.5883 49.9391 27.856 49.9391H46.7746C48.0422 49.9391 49.0688 48.9705 49.0688 47.7746C49.0688 46.578 48.0422 45.6074 46.7746 45.6074Z" fill="#53C285"/>
</g>
<defs>
<clipPath id="clip0_627_19555">
<rect width="50" height="50" fill="white"/>
</clipPath>
</defs>
</svg>
