<svg width="41" height="40" viewBox="0 0 41 40" fill="none" xmlns="http://www.w3.org/2000/svg">
<path d="M27.3333 3.3335C22.7333 3.3335 19 7.06683 19 11.6668C19 16.2668 22.7333 20.0002 27.3333 20.0002C31.9333 20.0002 35.6666 16.2668 35.6666 11.6668C35.6666 7.06683 31.9333 3.3335 27.3333 3.3335ZM27.3333 16.6668C24.5666 16.6668 22.3333 14.4335 22.3333 11.6668C22.3333 8.90016 24.5666 6.66683 27.3333 6.66683C30.1 6.66683 32.3333 8.90016 32.3333 11.6668C32.3333 14.4335 30.1 16.6668 27.3333 16.6668ZM32.3333 26.6668H29C29 24.6668 27.75 22.8668 25.8833 22.1668L15.6166 18.3335H2.33331V36.6668H12.3333V34.2668L24 37.5002L37.3333 33.3335V31.6668C37.3333 28.9002 35.1 26.6668 32.3333 26.6668ZM8.99998 33.3335H5.66665V21.6668H8.99998V33.3335ZM23.95 34.0168L12.3333 30.8335V21.6668H15.0166L24.7166 25.2835C25.2833 25.5002 25.6666 26.0502 25.6666 26.6668C25.6666 26.6668 22.3333 26.5835 21.8333 26.4168L17.8666 25.1002L16.8166 28.2668L20.7833 29.5835C21.6333 29.8668 22.5166 30.0002 23.4166 30.0002H32.3333C32.9833 30.0002 33.5666 30.4002 33.8333 30.9502L23.95 34.0168Z" fill="#783EC3"/>
</svg>
