<svg width="50" height="50" viewBox="0 0 50 50" fill="none" xmlns="http://www.w3.org/2000/svg">
<g clip-path="url(#clip0_627_19587)">
<path d="M13.9954 13.772C13.9954 13.772 11.7689 12.3906 10.4853 10.4567C9.2009 8.52287 9.79034 4.96487 9.79034 4.96487C9.79034 4.96487 10.0021 2.28597 13.7165 0.64873C17.431 -0.988505 21.3025 0.746579 22.3678 1.3799C23.4331 2.01245 24.7189 4.33694 25.0716 6.03658C25.4249 7.737 24.5647 9.90431 24.5647 9.90431L17.7703 11.7203L13.9954 13.772Z" fill="#F2C94F"/>
<mask id="mask0_627_19587" style="mask-type:luminance" maskUnits="userSpaceOnUse" x="0" y="-1" width="51" height="52">
<path d="M0.064209 -0.345215H50.0391V50.0208H0.064209V-0.345215Z" fill="white"/>
</mask>
<g mask="url(#mask0_627_19587)">
<path d="M16.4307 6.77405V4.93803C16.7877 4.97964 17.1315 5.07594 17.4613 5.22695C17.5122 5.25007 17.5653 5.2624 17.6213 5.2624C17.6767 5.26317 17.7305 5.25238 17.7822 5.23081C17.8331 5.20846 17.8788 5.17687 17.9179 5.13604C17.957 5.09443 17.9873 5.04667 18.0086 4.99273L18.0492 4.88795C18.0706 4.83402 18.0817 4.77777 18.0817 4.71922C18.0824 4.66143 18.0728 4.60442 18.0529 4.55049C18.0323 4.49578 18.0035 4.44725 17.9651 4.40487C17.9275 4.36249 17.8832 4.32859 17.8323 4.30394C17.386 4.09745 16.9183 3.98111 16.4307 3.95569V3.20218C16.4307 3.16828 16.424 3.13515 16.4122 3.10433C16.3997 3.07274 16.382 3.045 16.3591 3.02112C16.3362 2.99723 16.3097 2.97874 16.2794 2.96564C16.2492 2.95255 16.2182 2.94638 16.1857 2.94638H15.9629C15.9305 2.94638 15.8995 2.95255 15.8692 2.96564C15.839 2.97797 15.8124 2.99646 15.7896 3.02112C15.7667 3.045 15.749 3.07274 15.7365 3.10356C15.7239 3.13515 15.7173 3.16828 15.7173 3.20218V3.97341C14.3606 4.10901 13.7173 4.91877 13.7173 5.84718C13.7173 7.10997 14.7516 7.43741 15.7173 7.68319V9.50149C15.2267 9.45449 14.7649 9.30733 14.3326 9.06001C14.2854 9.03227 14.2345 9.01532 14.1806 9.00993C14.1267 9.00454 14.0744 9.0107 14.0227 9.02842C13.9711 9.04691 13.9253 9.07465 13.8855 9.11317C13.8449 9.15093 13.8147 9.19638 13.7926 9.248L13.7616 9.31966C13.735 9.38052 13.7203 9.44447 13.7166 9.5115C13.7129 9.57776 13.721 9.64325 13.7417 9.70643C13.7616 9.77038 13.7918 9.82739 13.8331 9.87901C13.8737 9.93063 13.9224 9.97224 13.9785 10.0046C14.5259 10.292 15.105 10.4515 15.7173 10.4838V11.2358C15.7173 11.2697 15.7232 11.3028 15.7357 11.3336C15.7483 11.3652 15.766 11.393 15.7896 11.4176C15.8124 11.4415 15.839 11.46 15.8692 11.4731C15.8995 11.4862 15.9305 11.4924 15.9629 11.4931H16.1857C16.2182 11.4924 16.2492 11.4862 16.2794 11.4731C16.3097 11.46 16.3362 11.4415 16.3591 11.4169C16.382 11.393 16.3997 11.3652 16.4122 11.3336C16.424 11.3021 16.4307 11.2697 16.4307 11.2358V10.4738C17.7954 10.329 18.4483 9.52768 18.4483 8.60081C18.4483 7.33725 17.3956 7.01982 16.4307 6.77405ZM15.7173 6.5822C15.2127 6.42811 14.8394 6.22856 14.8394 5.7917C14.8394 5.39183 15.0998 5.06362 15.7173 4.965V6.5822ZM16.4307 9.483V7.8735C16.9522 8.02913 17.3358 8.23716 17.3358 8.68325C17.3358 9.07465 17.0651 9.38283 16.4307 9.483ZM50.0355 23.4238C50.0355 20.4243 47.6157 17.9851 44.6412 17.9851C44.1853 17.9851 43.736 18.0421 43.2934 18.1569L42.479 18.0336C41.9662 17.2254 41.3945 16.4649 40.7645 15.7523C40.9511 14.5442 41.7198 8.84351 39.6328 8.27722C37.7391 7.76409 35.7863 10.5886 35.2316 11.4685C34.1744 10.9292 33.0804 10.4908 31.9494 10.1518C31.1969 8.85584 30.2143 7.59151 29.121 7.25327C28.7152 7.12769 28.0734 7.11998 27.3143 7.7926C26.8503 8.23022 26.4622 8.73179 26.1502 9.29808C25.8071 9.29808 25.4663 9.3081 25.1284 9.32505C25.169 9.18868 25.2059 9.05154 25.2391 8.91362C25.2723 8.77494 25.3018 8.63549 25.3276 8.49526C25.3527 8.35504 25.3741 8.21404 25.3918 8.07305C25.4088 7.93128 25.4228 7.78952 25.4324 7.64698C25.442 7.50444 25.4471 7.36191 25.4486 7.21937C25.4501 7.07684 25.4479 6.9343 25.4412 6.79177C25.4346 6.64923 25.4243 6.50669 25.4102 6.36493C25.3955 6.22316 25.377 6.08217 25.3549 5.94117C25.3328 5.80018 25.3062 5.66073 25.276 5.52127C25.2457 5.38182 25.2118 5.2439 25.1742 5.10676C25.1358 4.96962 25.0945 4.83402 25.0488 4.69996C25.003 4.56513 24.9536 4.43184 24.9005 4.30086C24.8481 4.16911 24.7913 4.03967 24.7308 3.91177C24.6703 3.78388 24.6069 3.65752 24.539 3.53348C24.4719 3.40943 24.401 3.2877 24.3273 3.16751C24.2527 3.04808 24.1753 2.9302 24.0949 2.8154C24.0137 2.7006 23.9296 2.58812 23.8426 2.47794C23.7555 2.36853 23.6655 2.26144 23.5726 2.15666C23.4796 2.05264 23.3837 1.95094 23.2849 1.85232C23.186 1.75447 23.0849 1.65894 22.9802 1.56648C22.8762 1.47403 22.7699 1.38542 22.6607 1.2999C22.5516 1.21361 22.4402 1.13194 22.3265 1.05258C22.2129 0.973995 22.0971 0.89849 21.9791 0.826837C21.861 0.755184 21.7408 0.686612 21.6191 0.622664C21.4973 0.557945 21.3741 0.497078 21.2487 0.440835C21.1241 0.38382 20.9972 0.330658 20.8688 0.281349C20.7412 0.23281 20.6113 0.187352 20.4808 0.146517C20.3502 0.104912 20.2181 0.0679302 20.0853 0.0348002C19.9533 0.00167025 19.819 -0.0276073 19.6848 -0.0522621C19.5505 -0.076917 19.4155 -0.0977196 19.2805 -0.11467C19.1447 -0.130849 19.009 -0.143947 18.8725 -0.151652C18.736 -0.160127 18.5996 -0.16475 18.4631 -0.163979C18.0994 -0.16475 17.7372 -0.134702 17.3772 -0.0746056C17.0179 -0.134702 16.6557 -0.16475 16.2912 -0.163979C16.0928 -0.16475 15.8936 -0.155504 15.6959 -0.137784C15.4974 -0.120063 15.3005 -0.0938671 15.1042 -0.0584258C14.908 -0.0229846 14.714 0.0209319 14.5214 0.0733234C14.3289 0.125715 14.1393 0.187352 13.9512 0.256694C13.7638 0.326806 13.5794 0.404623 13.3986 0.490144C13.2171 0.576436 13.0401 0.670433 12.8667 0.772134C12.6933 0.874606 12.5244 0.984011 12.3599 1.10112C12.1954 1.21823 12.036 1.34228 11.8818 1.47326C11.7269 1.605 11.5786 1.74292 11.4355 1.88699C11.2924 2.03184 11.1552 2.18208 11.0246 2.33926C10.894 2.49566 10.7701 2.65823 10.6528 2.82619C10.5348 2.99415 10.4248 3.16673 10.3216 3.34471C10.2175 3.52269 10.1216 3.70452 10.0331 3.89097C9.94532 4.07742 9.86417 4.26696 9.79114 4.46034C9.7181 4.6545 9.65318 4.85097 9.59638 5.04975C9.53957 5.2493 9.49088 5.45116 9.45105 5.65456C9.41047 5.85796 9.37801 6.06368 9.3544 6.27016C9.3308 6.47665 9.31604 6.6839 9.3094 6.89193C9.30203 7.09918 9.30424 7.30721 9.31457 7.51523C9.3249 7.72249 9.34334 7.92974 9.37063 8.13545C9.39793 8.34194 9.43334 8.54611 9.4776 8.74951C9.52113 8.95215 9.57351 9.15247 9.634 9.35125C9.69376 9.54925 9.76237 9.74418 9.83835 9.9368C9.91507 10.1286 9.99844 10.3166 10.0907 10.5015C10.1821 10.6865 10.281 10.8667 10.3872 11.0424C10.4942 11.2181 10.6071 11.3891 10.7273 11.5548C10.8476 11.7204 10.9744 11.8799 11.108 12.034C11.2415 12.1889 11.3809 12.3368 11.5263 12.4786C11.6723 12.6203 11.8236 12.7559 11.98 12.8838C12.1364 13.0125 12.2979 13.1335 12.4646 13.2475C12.6306 13.3615 12.8018 13.4678 12.9766 13.5665C13.1522 13.6651 13.3307 13.7552 13.5137 13.8384C9.6222 17.106 7.17 21.8543 7.17 27.1312C7.17074 27.9926 7.2364 28.8486 7.36697 29.6992C7.06303 29.9403 6.72515 30.1083 6.35482 30.2023C5.98374 30.2963 5.61045 30.3086 5.23421 30.2393C4.81961 28.5782 4.21468 27.5897 3.43269 27.3015C3.21728 27.2252 2.9967 27.2021 2.77095 27.2314C2.54521 27.2614 2.33717 27.3408 2.1461 27.4702C1.80306 27.585 1.55076 27.8948 1.45116 28.337C1.26673 29.1514 1.58764 30.5475 3.02178 31.9358C2.9244 32.0622 2.66251 32.3619 2.32463 32.3889C2.0561 32.412 1.77207 32.2548 1.47846 31.9274C1.11181 31.5159 0.776146 31.3803 0.479581 31.5244C0.194819 31.6646 0.0642419 32.0275 0.121784 32.5199C0.224328 33.4005 0.858771 34.399 1.87167 34.6055C3.22318 34.8806 4.28034 34.0369 4.81592 33.4698C4.9074 33.3735 4.98339 33.2865 5.04388 33.2133C6.03981 33.5099 7.06893 33.3443 8.12093 32.7179C8.70594 34.3782 9.51818 35.9068 10.5584 37.3029L8.06191 42.5374C8.01986 42.626 7.98593 42.7177 7.96011 42.8125C7.93355 42.9072 7.91584 43.0036 7.90625 43.1022C7.89592 43.2 7.89445 43.2979 7.90183 43.3965C7.90846 43.4951 7.92396 43.5922 7.94756 43.6877C7.97043 43.7833 8.00216 43.8757 8.04125 43.9651C8.08035 44.0552 8.12683 44.1408 8.18068 44.2217C8.23454 44.3026 8.29429 44.3781 8.36143 44.4482C8.42782 44.5175 8.49938 44.5807 8.57684 44.6377L10.4536 45.9953C10.596 46.0977 10.7502 46.174 10.9162 46.2241C11.0829 46.2742 11.2526 46.295 11.4252 46.2865C11.5978 46.2788 11.7653 46.2418 11.9261 46.1763C12.0877 46.1116 12.2352 46.0207 12.368 45.9051L16.3702 42.4172C16.6498 42.5736 16.9323 42.7216 17.2171 42.8656L18.8209 48.0301C18.8651 48.1734 18.9301 48.3067 19.0149 48.4284C19.099 48.5509 19.2001 48.6564 19.3166 48.745C19.4339 48.8337 19.5608 48.9015 19.698 48.9477C19.836 48.9947 19.9762 49.0178 20.1208 49.017H22.0565C22.1465 49.017 22.2351 49.0078 22.3229 48.9893C22.4106 48.9708 22.4962 48.9438 22.5796 48.9084C22.6622 48.8722 22.7411 48.8283 22.8157 48.7759C22.8902 48.7242 22.9588 48.6649 23.0222 48.5987C23.0857 48.5324 23.1425 48.46 23.1926 48.3822C23.2421 48.3043 23.2841 48.2219 23.3188 48.1348C23.3535 48.0485 23.3793 47.9592 23.397 47.8675C23.414 47.775 23.4228 47.6826 23.4235 47.5886V44.7779C24.3287 44.9012 25.2383 44.9628 26.1524 44.9628H26.3021L27.3239 48.8136C27.3704 48.9877 27.4419 49.1503 27.5393 49.2998C27.6367 49.4493 27.754 49.5787 27.8912 49.6881C28.0292 49.7975 28.1797 49.8815 28.3434 49.9393C28.5072 49.9971 28.6761 50.0263 28.8488 50.0263H31.1313C31.2257 50.0263 31.3194 50.0171 31.4124 49.9994C31.5046 49.9816 31.5953 49.9554 31.6838 49.9208C31.7724 49.8861 31.8565 49.843 31.9376 49.7929C32.0188 49.742 32.0955 49.685 32.1663 49.6203C32.2379 49.5556 32.3028 49.4847 32.3625 49.4084C32.4216 49.3314 32.4739 49.2497 32.5189 49.1634C32.5647 49.0771 32.6023 48.987 32.6326 48.893C32.6628 48.7998 32.6842 48.7042 32.6982 48.6064L33.3821 43.623C33.8675 43.435 34.3426 43.2293 34.7963 43.0105C34.8605 42.9912 34.9202 42.9712 34.9829 42.9504L43.9692 45.4151C44.0651 45.4421 44.1625 45.4552 44.2606 45.4552C44.4575 45.4552 44.642 45.4043 44.8131 45.3034C44.985 45.2025 45.1215 45.0638 45.224 44.8881L46.3181 43.0182C46.3542 42.9566 46.3852 42.8918 46.4096 42.8248C46.4346 42.757 46.4531 42.6877 46.4656 42.6168C46.4782 42.5451 46.4848 42.4735 46.4848 42.4011C46.4848 42.3286 46.4789 42.257 46.4664 42.1861C46.4538 42.1152 46.4354 42.0459 46.4103 41.9781C46.386 41.9103 46.3557 41.8455 46.3196 41.7839C46.2834 41.7223 46.2428 41.6645 46.1964 41.6098C46.1506 41.5559 46.0997 41.5073 46.0451 41.4626L42.7962 38.8307C47.7316 34.6379 47.6689 29.6368 47.4999 28.035C47.691 27.9163 47.8739 27.7861 48.048 27.6428C48.2229 27.4995 48.3881 27.3454 48.5438 27.1805C48.6995 27.0157 48.8448 26.8408 48.9791 26.6559C49.1133 26.4709 49.2358 26.2783 49.3464 26.0772C49.4571 25.8761 49.5545 25.6681 49.6393 25.4539C49.7249 25.2397 49.7965 25.0209 49.8547 24.7975C49.9123 24.5733 49.9565 24.3468 49.9868 24.1164C50.017 23.8868 50.0333 23.6557 50.0355 23.4238ZM15.839 12.1665C15.6597 12.1573 15.4819 12.138 15.3049 12.108C15.1278 12.0779 14.953 12.0379 14.7804 11.987C14.6077 11.9369 14.4388 11.8768 14.2721 11.8067C14.1061 11.7366 13.9438 11.6565 13.7867 11.5679C13.6288 11.4785 13.4761 11.3806 13.3285 11.2743C13.1817 11.1672 13.0401 11.0524 12.9051 10.9292C12.7701 10.8059 12.6424 10.6749 12.5215 10.537C12.4005 10.3983 12.2869 10.2535 12.1814 10.1024C12.0759 9.95067 11.9785 9.79349 11.89 9.63092C11.8007 9.46836 11.721 9.3004 11.6502 9.12858C11.5786 8.95677 11.5174 8.7811 11.465 8.60158C11.4127 8.42207 11.3699 8.24024 11.3374 8.0561C11.3042 7.87196 11.2813 7.68627 11.2688 7.49982C11.2555 7.3126 11.2526 7.12538 11.2592 6.93815C11.2658 6.75093 11.2828 6.56448 11.3101 6.37957C11.3367 6.19389 11.3728 6.01052 11.4193 5.82946C11.4658 5.64917 11.5218 5.47119 11.5868 5.2963C11.6524 5.12217 11.7269 4.9519 11.8103 4.78625C11.8937 4.61983 11.9859 4.45957 12.0862 4.30471C12.1865 4.14908 12.295 4.00038 12.4115 3.85784C12.5281 3.7153 12.652 3.58047 12.7826 3.45181C12.9132 3.32391 13.0511 3.20372 13.1943 3.092C13.3381 2.98028 13.4871 2.87704 13.6421 2.78227C13.797 2.68751 13.9563 2.60198 14.1201 2.52571C14.2839 2.4502 14.4513 2.38394 14.6218 2.32693C14.7929 2.27069 14.9663 2.22446 15.1419 2.18748C15.3182 2.15126 15.4952 2.12584 15.6738 2.10966C15.8523 2.09425 16.0315 2.08886 16.2108 2.09425C16.3901 2.09964 16.5679 2.11505 16.7457 2.14125C16.9235 2.16667 17.099 2.20366 17.2724 2.24988C17.4458 2.29611 17.6169 2.35235 17.7844 2.41938C17.9518 2.48564 18.1156 2.56115 18.275 2.64667C18.4343 2.73219 18.5892 2.82696 18.7383 2.9302C18.888 3.03344 19.0311 3.14593 19.1691 3.26612C19.3063 3.38632 19.4369 3.51421 19.5608 3.64982C19.6848 3.78465 19.8013 3.92718 19.9098 4.07588C20.0182 4.22535 20.1185 4.38021 20.2108 4.54047C20.303 4.7015 20.3863 4.86715 20.4608 5.03742C20.5354 5.20769 20.601 5.38259 20.6563 5.56056C20.7124 5.73854 20.7589 5.91883 20.7958 6.10297C20.8319 6.28634 20.8585 6.47125 20.8754 6.65771C20.8924 6.84416 20.8998 7.03138 20.8961 7.2186C20.8932 7.40583 20.8806 7.59305 20.8577 7.77873C20.8341 7.96441 20.8017 8.14855 20.7589 8.33038C20.7161 8.51221 20.6645 8.69173 20.6025 8.86739C20.5405 9.04306 20.4697 9.21487 20.39 9.38283C20.3096 9.5508 20.2211 9.71336 20.1237 9.87054C20.0263 10.0277 19.9208 10.1787 19.8072 10.3243C18.4203 10.7858 17.0976 11.3999 15.839 12.1665ZM24.8341 7.13925C24.8341 7.90509 24.7109 8.64858 24.4637 9.36974C23.9311 9.41365 23.4044 9.47837 22.8843 9.56389C22.9735 9.29731 23.0473 9.02611 23.1056 8.74951C23.155 8.75105 23.2118 8.75105 23.2745 8.75105C23.4737 8.75105 23.7452 8.74566 24.1177 8.7395C24.1686 8.73873 24.2114 8.71947 24.2468 8.68094C24.2823 8.64242 24.3 8.59696 24.2992 8.5438C24.297 8.49141 24.2786 8.44672 24.2424 8.40974C24.2055 8.37276 24.1627 8.35427 24.1118 8.3535C23.7747 8.36043 23.4162 8.36428 23.1771 8.36428C23.2428 7.95902 23.2767 7.5499 23.2767 7.13925C23.2767 7.06143 23.2745 6.98592 23.2723 6.91042H24.8282C24.8304 6.98592 24.8341 7.0622 24.8341 7.13925ZM22.8046 2.27069C23.079 2.53958 23.3299 2.83081 23.5563 3.14516C23.9304 3.666 24.2255 4.23229 24.4416 4.84403H23.7127C23.6618 4.84403 23.6183 4.86252 23.5822 4.90028C23.546 4.93803 23.5283 4.98349 23.5283 5.03665C23.5283 5.08981 23.546 5.13527 23.5822 5.17302C23.6183 5.21077 23.6618 5.22927 23.7127 5.22927H24.5663C24.688 5.65225 24.7677 6.08371 24.8053 6.52364H23.2509C23.2487 6.4882 23.245 6.45199 23.2421 6.41578C23.2347 6.34644 23.2273 6.27864 23.2207 6.21007C23.2155 6.17694 23.2133 6.14458 23.2081 6.11222C23.1956 6.02361 23.183 5.93501 23.1683 5.84795C23.1661 5.83716 23.1646 5.82637 23.1639 5.81559C23.1462 5.71774 23.127 5.62143 23.1056 5.52281C23.0997 5.49508 23.0938 5.46503 23.0857 5.43729C23.0709 5.36872 23.0554 5.30092 23.0377 5.23389C23.0296 5.19922 23.0207 5.16609 23.0112 5.13219C22.9935 5.06824 22.975 5.00352 22.9566 4.94111C22.947 4.90875 22.9381 4.87793 22.9285 4.84557C22.9042 4.77007 22.8791 4.69379 22.8525 4.61906C22.8474 4.60211 22.8415 4.58439 22.8363 4.56744C22.8031 4.47806 22.7684 4.38792 22.733 4.29778C22.7227 4.27235 22.7124 4.24615 22.7013 4.22073C22.674 4.15601 22.6482 4.0936 22.6202 4.03042C22.6054 3.99806 22.5914 3.96802 22.5766 3.93643C22.5501 3.8771 22.5213 3.82086 22.4933 3.76307C22.4785 3.73303 22.463 3.70221 22.4475 3.67293C22.4232 3.62285 22.3959 3.57277 22.3693 3.52346H23.2996C23.3512 3.52346 23.394 3.50497 23.4302 3.46722C23.4663 3.42946 23.4848 3.38401 23.484 3.33084C23.4848 3.29155 23.4737 3.25534 23.4523 3.22298C23.4162 3.16596 23.3653 3.13746 23.2996 3.13746H22.1451C22.1392 3.12744 22.1333 3.11665 22.1266 3.10818C22.0897 3.05039 22.0529 2.99261 22.0152 2.93483C21.9953 2.90632 21.9754 2.87704 21.9562 2.84853L21.8492 2.69829L21.7865 2.61354C21.746 2.56115 21.7054 2.50799 21.6633 2.45637C21.6464 2.43325 21.6287 2.41168 21.6117 2.38934C21.58 2.35081 21.5475 2.31383 21.5158 2.27685C22.0374 2.26991 22.5265 2.26683 22.8046 2.27069ZM21.2332 1.14196C21.636 1.3469 22.0145 1.59422 22.3679 1.8816C22.0824 1.88314 21.6951 1.88699 21.1668 1.89624L21.1654 1.8947C21.1248 1.85232 21.0827 1.81149 21.04 1.76988C21.0127 1.74446 20.9868 1.71826 20.9603 1.69438C20.9145 1.652 20.8688 1.6104 20.8223 1.56879C20.798 1.54722 20.7744 1.52488 20.75 1.5033C20.6807 1.44398 20.6106 1.38619 20.539 1.32995C20.5191 1.313 20.4992 1.29759 20.4778 1.28218C20.4247 1.23981 20.3708 1.19897 20.317 1.15891C20.3081 1.15351 20.3022 1.14735 20.2949 1.14196H21.2332ZM20.2801 0.755954H19.7607C19.7445 0.755954 19.729 0.759036 19.7135 0.763659C19.6471 0.725135 19.5807 0.686612 19.5136 0.651171C19.4922 0.639614 19.4701 0.628828 19.4494 0.618812C19.3956 0.590305 19.341 0.561027 19.2856 0.534061C19.6228 0.580288 19.954 0.654253 20.2801 0.755954ZM9.92024 7.13925C9.92024 6.9212 9.93057 6.70316 9.95122 6.48666C9.97188 6.26939 10.0029 6.05366 10.0434 5.84024C10.0848 5.62605 10.1349 5.41495 10.1961 5.20615C10.2566 4.99736 10.3267 4.79241 10.4071 4.59132C10.4868 4.38946 10.5761 4.19299 10.6742 4.00038C10.773 3.80853 10.88 3.62131 10.9958 3.44025C11.1124 3.25919 11.2363 3.0843 11.3684 2.91556C11.5012 2.74683 11.6406 2.58503 11.7882 2.43094C11.9357 2.27685 12.0906 2.13046 12.2514 1.99255C12.413 1.85386 12.5797 1.72443 12.7538 1.60269C12.9272 1.48173 13.1057 1.37001 13.2894 1.26677C13.4731 1.1643 13.662 1.07107 13.8545 0.987093C14.0471 0.903883 14.2433 0.829919 14.4432 0.766741C14.6424 0.703562 14.8445 0.650401 15.0489 0.607255C15.254 0.564879 15.4598 0.53252 15.6671 0.510947C15.8751 0.489374 16.0832 0.478587 16.2912 0.478587C16.6387 0.477817 16.9839 0.507094 17.327 0.567191C17.5114 0.598009 17.6951 0.637303 17.8759 0.685842C18.0573 0.733611 18.2366 0.789855 18.4129 0.854573C18.59 0.919292 18.7633 0.991716 18.9338 1.07184C19.1042 1.15274 19.2709 1.24135 19.4339 1.33688C19.597 1.43319 19.7556 1.53643 19.9098 1.64738C20.0639 1.75833 20.2137 1.87544 20.3576 2.00025C20.5022 2.12507 20.6408 2.25605 20.7736 2.39319C20.9072 2.53033 21.0341 2.67364 21.155 2.82311C21.276 2.97181 21.3911 3.12667 21.4988 3.28616C21.6065 3.44564 21.7076 3.61052 21.802 3.77925C21.8957 3.94876 21.9828 4.12134 22.0624 4.29855C22.1414 4.47575 22.2137 4.65604 22.2779 4.84018C22.342 5.02355 22.3981 5.21 22.4461 5.39954C22.4947 5.5883 22.5353 5.77861 22.567 5.97199C22.5995 6.16461 22.6239 6.358 22.6393 6.55292C22.6548 6.74785 22.663 6.94355 22.6622 7.13925C22.6622 7.27639 22.657 7.41276 22.6497 7.54913C22.6408 7.70245 22.6261 7.85346 22.6069 8.00448C22.5353 8.58695 22.3922 9.14938 22.1775 9.69256C21.5726 9.81506 20.9795 9.96299 20.3981 10.1371C20.5007 9.97609 20.5944 9.8089 20.6799 9.63709C20.7655 9.4645 20.8422 9.28807 20.9094 9.10778C20.9765 8.92672 21.0348 8.74258 21.0835 8.55536C21.1314 8.36813 21.1705 8.1786 21.1993 7.98753C21.2288 7.79568 21.248 7.60306 21.2568 7.40891C21.2664 7.21552 21.2657 7.02136 21.2546 6.82798C21.2443 6.63459 21.2237 6.44198 21.1934 6.25013C21.1624 6.05906 21.1226 5.87029 21.0724 5.68307C21.023 5.49662 20.9632 5.31248 20.8946 5.13219C20.826 4.95267 20.7486 4.77623 20.6615 4.60519C20.5745 4.43338 20.4793 4.26773 20.3753 4.1067C20.272 3.94567 20.1599 3.79158 20.0403 3.64288C19.9208 3.49495 19.7939 3.35396 19.6597 3.2199C19.5254 3.08584 19.3845 2.96025 19.2377 2.8416C19.0902 2.72372 18.9374 2.61431 18.7788 2.51338C18.6202 2.41245 18.4572 2.32 18.2897 2.23756C18.1215 2.15512 17.9504 2.08192 17.7748 2.01874C17.5992 1.9548 17.4214 1.90163 17.2407 1.85849C17.0599 1.81457 16.877 1.78144 16.6925 1.7591C16.5089 1.73598 16.3237 1.72366 16.1385 1.72134C15.9526 1.71903 15.7674 1.72751 15.583 1.746C15.3986 1.76449 15.2149 1.79377 15.0334 1.83306C14.8519 1.87236 14.6727 1.92167 14.4956 1.98099C14.3193 2.04032 14.1459 2.10889 13.9762 2.18748C13.8066 2.26683 13.6421 2.35467 13.4812 2.45174C13.3211 2.54959 13.1655 2.65515 13.0165 2.76995C12.8667 2.88474 12.7236 3.00725 12.5864 3.13823C12.4492 3.26921 12.3193 3.40712 12.1969 3.55274C12.0737 3.69835 11.9586 3.85014 11.8516 4.00808C11.7439 4.1668 11.6458 4.33013 11.555 4.49964C11.465 4.66914 11.3831 4.84326 11.3108 5.02201C11.2386 5.20076 11.1751 5.38259 11.1213 5.56827C11.0674 5.75395 11.0231 5.94194 10.9892 6.13225C10.9545 6.32332 10.9294 6.51517 10.9147 6.70856C10.8999 6.90194 10.8955 7.09533 10.9007 7.28949C10.9058 7.48364 10.9206 7.67626 10.9457 7.86887C10.9708 8.06072 11.0054 8.25102 11.0497 8.43979C11.0947 8.62778 11.1485 8.81346 11.212 8.99529C11.2754 9.17789 11.3485 9.35587 11.4304 9.52999C11.5122 9.70412 11.603 9.87285 11.7018 10.037C11.8014 10.2011 11.9084 10.359 12.0242 10.5108C12.1393 10.6626 12.2625 10.8074 12.3924 10.9453C12.5229 11.084 12.6601 11.2142 12.804 11.3367C12.9471 11.4592 13.0969 11.574 13.2525 11.6796C13.4082 11.7851 13.5683 11.8822 13.7335 11.9701C13.8995 12.0579 14.0685 12.1365 14.2418 12.205C14.4159 12.2744 14.5922 12.3329 14.7715 12.3822C14.9508 12.4308 15.133 12.4701 15.316 12.4986C14.8895 12.7775 14.4757 13.0726 14.0751 13.3831C13.7726 13.2652 13.4798 13.1242 13.1972 12.9601C12.9147 12.7952 12.6461 12.6095 12.3909 12.4031C12.1349 12.1958 11.8966 11.9693 11.6738 11.7243C11.451 11.4793 11.2474 11.2181 11.063 10.9407C10.8785 10.6633 10.7148 10.3737 10.5724 10.0701C10.43 9.76653 10.3105 9.45372 10.2139 9.13166C10.1165 8.80884 10.0434 8.48062 9.99401 8.14701C9.94532 7.81263 9.92024 7.47671 9.92024 7.13925Z" fill="#F9A59A"/>
<path d="M50.0355 23.4238C50.0355 20.4243 47.6157 17.9851 44.6412 17.9851C44.1853 17.9851 43.736 18.0421 43.2934 18.1569L42.479 18.0336C41.9662 17.2254 41.3945 16.4649 40.7645 15.7523C40.9511 14.5442 41.7198 8.84351 39.6328 8.27722C37.7391 7.76409 35.7863 10.5886 35.2316 11.4685C34.1744 10.9292 33.0804 10.4908 31.9494 10.1518C31.1969 8.85584 30.2143 7.59151 29.121 7.25327C28.7152 7.12769 28.0734 7.11998 27.3143 7.7926C26.8503 8.23022 26.4622 8.73179 26.1502 9.29808C25.8071 9.29808 25.4663 9.3081 25.1284 9.32505C25.169 9.18868 25.2059 9.05154 25.2391 8.91362C25.2723 8.77494 25.3018 8.63549 25.3276 8.49526C25.3527 8.35504 25.3741 8.21404 25.3918 8.07305C25.4088 7.93128 25.4228 7.78952 25.4324 7.64698C25.442 7.50444 25.4471 7.36191 25.4486 7.21937C25.4501 7.07684 25.4479 6.9343 25.4412 6.79177C25.4346 6.64923 25.4243 6.50669 25.4102 6.36493C25.3955 6.22316 25.377 6.08217 25.3549 5.94117C25.3328 5.80018 25.3062 5.66073 25.276 5.52127C25.2457 5.38182 25.2118 5.2439 25.1742 5.10676C25.1358 4.96962 25.0945 4.83402 25.0488 4.69996C25.003 4.56513 24.9536 4.43184 24.9005 4.30086C24.8481 4.16911 24.7913 4.03967 24.7308 3.91177C24.6703 3.78388 24.6069 3.65752 24.539 3.53348C24.4719 3.40943 24.401 3.2877 24.3273 3.16751C24.2527 3.04808 24.1753 2.9302 24.0949 2.8154C24.0137 2.7006 23.9296 2.58812 23.8426 2.47794C23.7555 2.36853 23.6655 2.26144 23.5726 2.15666C23.4796 2.05264 23.3837 1.95094 23.2849 1.85232C23.186 1.75447 23.0849 1.65894 22.9802 1.56648C22.8762 1.47403 22.7699 1.38542 22.6607 1.2999C22.5516 1.21361 22.4402 1.13194 22.3265 1.05258C22.2129 0.973995 22.0971 0.89849 21.9791 0.826837C21.861 0.755184 21.7408 0.686612 21.6191 0.622664C21.4973 0.557945 21.3741 0.497078 21.2487 0.440835C21.1241 0.38382 20.9972 0.330658 20.8688 0.281349C20.7412 0.23281 20.6113 0.187352 20.4808 0.146517C20.3502 0.104912 20.2181 0.0679302 20.0853 0.0348002C19.9533 0.00167025 19.819 -0.0276073 19.6848 -0.0522621C19.5505 -0.076917 19.4155 -0.0977196 19.2805 -0.11467C19.1447 -0.130849 19.009 -0.143947 18.8725 -0.151652C18.736 -0.160127 18.5996 -0.16475 18.4631 -0.163979C18.0994 -0.16475 17.7372 -0.134702 17.3772 -0.0746056C17.0179 -0.134702 16.6557 -0.16475 16.2912 -0.163979C16.0928 -0.16475 15.8936 -0.155504 15.6959 -0.137784C15.4974 -0.120063 15.3005 -0.0938671 15.1042 -0.0584258C14.908 -0.0229846 14.714 0.0209319 14.5214 0.0733234C14.3289 0.125715 14.1393 0.187352 13.9512 0.256694C13.7638 0.326806 13.5794 0.404623 13.3986 0.490144C13.2171 0.576436 13.0401 0.670433 12.8667 0.772134C12.6933 0.874606 12.5244 0.984011 12.3599 1.10112C12.1954 1.21823 12.036 1.34228 11.8818 1.47326C11.7269 1.605 11.5786 1.74292 11.4355 1.88699C11.2924 2.03184 11.1552 2.18208 11.0246 2.33926C10.894 2.49566 10.7701 2.65823 10.6528 2.82619C10.5348 2.99415 10.4248 3.16673 10.3216 3.34471C10.2175 3.52269 10.1216 3.70452 10.0331 3.89097C9.94532 4.07742 9.86417 4.26696 9.79114 4.46034C9.7181 4.6545 9.65318 4.85097 9.59638 5.04975C9.53957 5.2493 9.49088 5.45116 9.45105 5.65456C9.41047 5.85796 9.37801 6.06368 9.3544 6.27016C9.3308 6.47665 9.31604 6.6839 9.3094 6.89193C9.30203 7.09918 9.30424 7.30721 9.31457 7.51523C9.3249 7.72249 9.34334 7.92974 9.37063 8.13545C9.39793 8.34194 9.43334 8.54611 9.4776 8.74951C9.52113 8.95215 9.57351 9.15247 9.634 9.35125C9.69376 9.54925 9.76237 9.74418 9.83835 9.9368C9.91507 10.1286 9.99844 10.3166 10.0907 10.5015C10.1821 10.6865 10.281 10.8667 10.3872 11.0424C10.4942 11.2181 10.6071 11.3891 10.7273 11.5548C10.8476 11.7204 10.9744 11.8799 11.108 12.034C11.2415 12.1889 11.3809 12.3368 11.5263 12.4786C11.6723 12.6203 11.8236 12.7559 11.98 12.8838C12.1364 13.0125 12.2979 13.1335 12.4646 13.2475C12.6306 13.3615 12.8018 13.4678 12.9766 13.5665C13.1522 13.6651 13.3307 13.7552 13.5137 13.8384C9.6222 17.106 7.17 21.8543 7.17 27.1312C7.17074 27.9926 7.2364 28.8486 7.36697 29.6992C7.06303 29.9403 6.72515 30.1083 6.35482 30.2023C5.98374 30.2963 5.61045 30.3086 5.23421 30.2393C4.81961 28.5782 4.21468 27.5897 3.43269 27.3015C3.21728 27.2252 2.9967 27.2021 2.77095 27.2314C2.54521 27.2614 2.33717 27.3408 2.1461 27.4702C1.80306 27.585 1.55076 27.8948 1.45116 28.337C1.26673 29.1514 1.58764 30.5475 3.02178 31.9358C2.9244 32.0622 2.66251 32.3619 2.32463 32.3889C2.0561 32.412 1.77207 32.2548 1.47846 31.9274C1.11181 31.5159 0.776146 31.3803 0.479581 31.5244C0.194819 31.6646 0.0642419 32.0275 0.121784 32.5199C0.224328 33.4005 0.858771 34.399 1.87167 34.6055C3.22318 34.8806 4.28034 34.0369 4.81592 33.4698C4.9074 33.3735 4.98339 33.2865 5.04388 33.2133C6.03981 33.5099 7.06893 33.3443 8.12093 32.7179C8.70594 34.3782 9.51818 35.9068 10.5584 37.3029L8.06191 42.5374C8.01986 42.626 7.98593 42.7177 7.96011 42.8125C7.93355 42.9072 7.91584 43.0036 7.90625 43.1022C7.89592 43.2 7.89445 43.2979 7.90183 43.3965C7.90846 43.4951 7.92396 43.5922 7.94756 43.6877C7.97043 43.7833 8.00216 43.8757 8.04125 43.9651C8.08035 44.0552 8.12683 44.1408 8.18068 44.2217C8.23454 44.3026 8.29429 44.3781 8.36143 44.4482C8.42782 44.5175 8.49938 44.5807 8.57684 44.6377L10.4536 45.9953C10.596 46.0977 10.7502 46.174 10.9162 46.2241C11.0829 46.2742 11.2526 46.295 11.4252 46.2865C11.5978 46.2788 11.7653 46.2418 11.9261 46.1763C12.0877 46.1116 12.2352 46.0207 12.368 45.9051L16.3702 42.4172C16.6498 42.5736 16.9323 42.7216 17.2171 42.8656L18.8209 48.0301C18.8651 48.1734 18.9301 48.3067 19.0149 48.4284C19.099 48.5509 19.2001 48.6564 19.3166 48.745C19.4339 48.8337 19.5608 48.9015 19.698 48.9477C19.836 48.9947 19.9762 49.0178 20.1208 49.017H22.0565C22.1465 49.017 22.2351 49.0078 22.3229 48.9893C22.4106 48.9708 22.4962 48.9438 22.5796 48.9084C22.6622 48.8722 22.7411 48.8283 22.8157 48.7759C22.8902 48.7242 22.9588 48.6649 23.0222 48.5987C23.0857 48.5324 23.1425 48.46 23.1926 48.3822C23.2421 48.3043 23.2841 48.2219 23.3188 48.1348C23.3535 48.0485 23.3793 47.9592 23.397 47.8675C23.414 47.775 23.4228 47.6826 23.4235 47.5886V44.7779C24.3287 44.9012 25.2383 44.9628 26.1524 44.9628H26.3021L27.3239 48.8136C27.3704 48.9877 27.4419 49.1503 27.5393 49.2998C27.6367 49.4493 27.754 49.5787 27.8912 49.6881C28.0292 49.7975 28.1797 49.8815 28.3434 49.9393C28.5072 49.9971 28.6761 50.0263 28.8488 50.0263H31.1313C31.2257 50.0263 31.3194 50.0171 31.4124 49.9994C31.5046 49.9816 31.5953 49.9554 31.6838 49.9208C31.7724 49.8861 31.8565 49.843 31.9376 49.7929C32.0188 49.742 32.0955 49.685 32.1663 49.6203C32.2379 49.5556 32.3028 49.4847 32.3625 49.4084C32.4216 49.3314 32.4739 49.2497 32.5189 49.1634C32.5647 49.0771 32.6023 48.987 32.6326 48.893C32.6628 48.7998 32.6842 48.7042 32.6982 48.6064L33.3821 43.623C33.8675 43.435 34.3426 43.2293 34.7963 43.0105C34.8605 42.9912 34.9202 42.9712 34.9829 42.9504L43.9692 45.4151C44.0651 45.4421 44.1625 45.4552 44.2606 45.4552C44.4575 45.4552 44.642 45.4043 44.8131 45.3034C44.985 45.2025 45.1215 45.0638 45.224 44.8881L46.3181 43.0182C46.3542 42.9566 46.3852 42.8918 46.4096 42.8248C46.4346 42.757 46.4531 42.6877 46.4656 42.6168C46.4782 42.5451 46.4848 42.4735 46.4848 42.4011C46.4848 42.3286 46.4789 42.257 46.4664 42.1861C46.4538 42.1152 46.4354 42.0459 46.4103 41.9781C46.386 41.9103 46.3557 41.8455 46.3196 41.7839C46.2834 41.7223 46.2428 41.6645 46.1964 41.6098C46.1506 41.5559 46.0997 41.5073 46.0451 41.4626L42.7962 38.8307C47.7316 34.6379 47.6689 29.6368 47.4999 28.035C47.691 27.9163 47.8739 27.7861 48.048 27.6428C48.2229 27.4995 48.3881 27.3454 48.5438 27.1805C48.6995 27.0157 48.8448 26.8408 48.9791 26.6559C49.1133 26.4709 49.2358 26.2783 49.3464 26.0772C49.4571 25.8761 49.5545 25.6681 49.6393 25.4539C49.7249 25.2397 49.7965 25.0209 49.8547 24.7975C49.9123 24.5733 49.9565 24.3468 49.9868 24.1164C50.017 23.8868 50.0333 23.6557 50.0355 23.4238ZM39.4786 8.89975C40.6295 9.21179 40.5646 12.6812 40.2274 15.1729C38.9069 13.8061 37.4248 12.6696 35.7819 11.7628C36.5019 10.631 38.15 8.54072 39.4786 8.89975ZM24.8341 7.13925C24.8341 7.90509 24.7109 8.64858 24.4637 9.36974C23.9311 9.41365 23.4044 9.47837 22.8843 9.56389C22.9735 9.29731 23.0473 9.02611 23.1056 8.74951C23.155 8.75105 23.2118 8.75105 23.2745 8.75105C23.4737 8.75105 23.7452 8.74566 24.1177 8.7395C24.1686 8.73873 24.2114 8.71947 24.2468 8.68094C24.2823 8.64242 24.3 8.59696 24.2992 8.5438C24.297 8.49141 24.2786 8.44672 24.2424 8.40974C24.2055 8.37276 24.1627 8.35427 24.1118 8.3535C23.7747 8.36043 23.4162 8.36428 23.1771 8.36428C23.2428 7.95902 23.2767 7.5499 23.2767 7.13925C23.2767 7.06143 23.2745 6.98592 23.2723 6.91042H24.8282C24.8304 6.98592 24.8341 7.0622 24.8341 7.13925ZM22.8046 2.27069C23.079 2.53958 23.3299 2.83081 23.5563 3.14516C23.9304 3.666 24.2255 4.23229 24.4416 4.84403H23.7127C23.6618 4.84403 23.6183 4.86252 23.5822 4.90028C23.546 4.93803 23.5283 4.98349 23.5283 5.03665C23.5283 5.08981 23.546 5.13527 23.5822 5.17302C23.6183 5.21077 23.6618 5.22927 23.7127 5.22927H24.5663C24.688 5.65225 24.7677 6.08371 24.8053 6.52364H23.2509C23.2487 6.4882 23.245 6.45199 23.2421 6.41578C23.2347 6.34644 23.2273 6.27864 23.2207 6.21007C23.2155 6.17694 23.2133 6.14458 23.2081 6.11222C23.1956 6.02361 23.183 5.93501 23.1683 5.84795C23.1661 5.83716 23.1646 5.82637 23.1639 5.81559C23.1462 5.71774 23.127 5.62143 23.1056 5.52281C23.0997 5.49508 23.0938 5.46503 23.0857 5.43729C23.0709 5.36872 23.0554 5.30092 23.0377 5.23389C23.0296 5.19922 23.0207 5.16609 23.0112 5.13219C22.9935 5.06824 22.975 5.00352 22.9566 4.94111C22.947 4.90875 22.9381 4.87793 22.9285 4.84557C22.9042 4.77007 22.8791 4.69379 22.8525 4.61906C22.8474 4.60211 22.8415 4.58439 22.8363 4.56744C22.8031 4.47806 22.7684 4.38792 22.733 4.29778C22.7227 4.27235 22.7124 4.24615 22.7013 4.22073C22.674 4.15601 22.6482 4.0936 22.6202 4.03042C22.6054 3.99806 22.5914 3.96802 22.5766 3.93643C22.5501 3.8771 22.5213 3.82086 22.4933 3.76307C22.4785 3.73303 22.463 3.70221 22.4475 3.67293C22.4232 3.62285 22.3959 3.57277 22.3693 3.52346H23.2996C23.3512 3.52346 23.394 3.50497 23.4302 3.46722C23.4663 3.42946 23.4848 3.38401 23.484 3.33084C23.4848 3.29155 23.4737 3.25534 23.4523 3.22298C23.4162 3.16596 23.3653 3.13746 23.2996 3.13746H22.1451C22.1392 3.12744 22.1333 3.11665 22.1266 3.10818C22.0897 3.05039 22.0529 2.99261 22.0152 2.93483C21.9953 2.90632 21.9754 2.87704 21.9562 2.84853L21.8492 2.69829L21.7865 2.61354C21.746 2.56115 21.7054 2.50799 21.6633 2.45637C21.6464 2.43325 21.6287 2.41168 21.6117 2.38934C21.58 2.35081 21.5475 2.31383 21.5158 2.27685C22.0374 2.26991 22.5265 2.26683 22.8046 2.27069ZM21.2332 1.14196C21.636 1.3469 22.0145 1.59422 22.3679 1.8816C22.0824 1.88314 21.6951 1.88699 21.1668 1.89624L21.1654 1.8947C21.1248 1.85232 21.0827 1.81149 21.04 1.76988C21.0127 1.74446 20.9868 1.71826 20.9603 1.69438C20.9145 1.652 20.8688 1.6104 20.8223 1.56879C20.798 1.54722 20.7744 1.52488 20.75 1.5033C20.6807 1.44398 20.6106 1.38619 20.539 1.32995C20.5191 1.313 20.4992 1.29759 20.4778 1.28218C20.4247 1.23981 20.3708 1.19897 20.317 1.15891C20.3081 1.15351 20.3022 1.14735 20.2949 1.14196H21.2332ZM20.2801 0.755954H19.7607C19.7445 0.755954 19.729 0.759036 19.7135 0.763659C19.6471 0.725135 19.5807 0.686612 19.5136 0.651171C19.4922 0.639614 19.4701 0.628828 19.4494 0.618812C19.3956 0.590305 19.341 0.561027 19.2856 0.534061C19.6228 0.580288 19.954 0.654253 20.2801 0.755954ZM9.92024 7.13925C9.92024 6.9212 9.93057 6.70316 9.95122 6.48666C9.97188 6.26939 10.0029 6.05366 10.0434 5.84024C10.0848 5.62605 10.1349 5.41495 10.1961 5.20615C10.2566 4.99736 10.3267 4.79241 10.4071 4.59132C10.4868 4.38946 10.5761 4.19299 10.6742 4.00038C10.773 3.80853 10.88 3.62131 10.9958 3.44025C11.1124 3.25919 11.2363 3.0843 11.3684 2.91556C11.5012 2.74683 11.6406 2.58503 11.7882 2.43094C11.9357 2.27685 12.0906 2.13046 12.2514 1.99255C12.413 1.85386 12.5797 1.72443 12.7538 1.60269C12.9272 1.48173 13.1057 1.37001 13.2894 1.26677C13.4731 1.1643 13.662 1.07107 13.8545 0.987093C14.0471 0.903883 14.2433 0.829919 14.4432 0.766741C14.6424 0.703562 14.8445 0.650401 15.0489 0.607255C15.254 0.564879 15.4598 0.53252 15.6671 0.510947C15.8751 0.489374 16.0832 0.478587 16.2912 0.478587C16.6387 0.477817 16.9839 0.507094 17.327 0.567191C17.5114 0.598009 17.6951 0.637303 17.8759 0.685842C18.0573 0.733611 18.2366 0.789855 18.4129 0.854573C18.59 0.919292 18.7633 0.991716 18.9338 1.07184C19.1042 1.15274 19.2709 1.24135 19.4339 1.33688C19.597 1.43319 19.7556 1.53643 19.9098 1.64738C20.0639 1.75833 20.2137 1.87544 20.3576 2.00025C20.5022 2.12507 20.6408 2.25605 20.7736 2.39319C20.9072 2.53033 21.0341 2.67364 21.155 2.82311C21.276 2.97181 21.3911 3.12667 21.4988 3.28616C21.6065 3.44564 21.7076 3.61052 21.802 3.77925C21.8957 3.94876 21.9828 4.12134 22.0624 4.29855C22.1414 4.47575 22.2137 4.65604 22.2779 4.84018C22.342 5.02355 22.3981 5.21 22.4461 5.39954C22.4947 5.5883 22.5353 5.77861 22.567 5.97199C22.5995 6.16461 22.6239 6.358 22.6393 6.55292C22.6548 6.74785 22.663 6.94355 22.6622 7.13925C22.6622 7.27639 22.657 7.41276 22.6497 7.54913C22.6408 7.70245 22.6261 7.85346 22.6069 8.00448C22.5353 8.58695 22.3922 9.14938 22.1775 9.69256C21.5726 9.81506 20.9795 9.96299 20.3981 10.1371C20.5007 9.97609 20.5944 9.8089 20.6799 9.63709C20.7655 9.4645 20.8422 9.28807 20.9094 9.10778C20.9765 8.92672 21.0348 8.74258 21.0835 8.55536C21.1314 8.36813 21.1705 8.1786 21.1993 7.98753C21.2288 7.79568 21.248 7.60306 21.2568 7.40891C21.2664 7.21552 21.2657 7.02136 21.2546 6.82798C21.2443 6.63459 21.2237 6.44198 21.1934 6.25013C21.1624 6.05906 21.1226 5.87029 21.0724 5.68307C21.023 5.49662 20.9632 5.31248 20.8946 5.13219C20.826 4.95267 20.7486 4.77623 20.6615 4.60519C20.5745 4.43338 20.4793 4.26773 20.3753 4.1067C20.272 3.94567 20.1599 3.79158 20.0403 3.64288C19.9208 3.49495 19.7939 3.35396 19.6597 3.2199C19.5254 3.08584 19.3845 2.96025 19.2377 2.8416C19.0902 2.72372 18.9374 2.61431 18.7788 2.51338C18.6202 2.41245 18.4572 2.32 18.2897 2.23756C18.1215 2.15512 17.9504 2.08192 17.7748 2.01874C17.5992 1.9548 17.4214 1.90163 17.2407 1.85849C17.0599 1.81457 16.877 1.78144 16.6925 1.7591C16.5089 1.73598 16.3237 1.72366 16.1385 1.72134C15.9526 1.71903 15.7674 1.72751 15.583 1.746C15.3986 1.76449 15.2149 1.79377 15.0334 1.83306C14.8519 1.87236 14.6727 1.92167 14.4956 1.98099C14.3193 2.04032 14.1459 2.10889 13.9762 2.18748C13.8066 2.26683 13.6421 2.35467 13.4812 2.45174C13.3211 2.54959 13.1655 2.65515 13.0165 2.76995C12.8667 2.88474 12.7236 3.00725 12.5864 3.13823C12.4492 3.26921 12.3193 3.40712 12.1969 3.55274C12.0737 3.69835 11.9586 3.85014 11.8516 4.00808C11.7439 4.1668 11.6458 4.33013 11.555 4.49964C11.465 4.66914 11.3831 4.84326 11.3108 5.02201C11.2386 5.20076 11.1751 5.38259 11.1213 5.56827C11.0674 5.75395 11.0231 5.94194 10.9892 6.13225C10.9545 6.32332 10.9294 6.51517 10.9147 6.70856C10.8999 6.90194 10.8955 7.09533 10.9007 7.28949C10.9058 7.48364 10.9206 7.67626 10.9457 7.86887C10.9708 8.06072 11.0054 8.25102 11.0497 8.43979C11.0947 8.62778 11.1485 8.81346 11.212 8.99529C11.2754 9.17789 11.3485 9.35587 11.4304 9.52999C11.5122 9.70412 11.603 9.87285 11.7018 10.037C11.8014 10.2011 11.9084 10.359 12.0242 10.5108C12.1393 10.6626 12.2625 10.8074 12.3924 10.9453C12.5229 11.084 12.6601 11.2142 12.804 11.3367C12.9471 11.4592 13.0969 11.574 13.2525 11.6796C13.4082 11.7851 13.5683 11.8822 13.7335 11.9701C13.8995 12.0579 14.0685 12.1365 14.2418 12.205C14.4159 12.2744 14.5922 12.3329 14.7715 12.3822C14.9508 12.4308 15.133 12.4701 15.316 12.4986C14.8895 12.7775 14.4757 13.0726 14.0751 13.3831C13.7726 13.2652 13.4798 13.1242 13.1972 12.9601C12.9147 12.7952 12.6461 12.6095 12.3909 12.4031C12.1349 12.1958 11.8966 11.9693 11.6738 11.7243C11.451 11.4793 11.2474 11.2181 11.063 10.9407C10.8785 10.6633 10.7148 10.3737 10.5724 10.0701C10.43 9.76653 10.3105 9.45372 10.2139 9.13166C10.1165 8.80884 10.0434 8.48062 9.99401 8.14701C9.94532 7.81263 9.92024 7.47671 9.92024 7.13925ZM19.8072 10.3243C18.4203 10.7858 17.0976 11.3999 15.839 12.1665C15.6597 12.1573 15.4819 12.138 15.3049 12.108C15.1278 12.0779 14.953 12.0379 14.7804 11.987C14.6077 11.9369 14.4388 11.8768 14.2721 11.8067C14.1061 11.7366 13.9438 11.6565 13.7867 11.5679C13.6288 11.4785 13.4761 11.3806 13.3285 11.2743C13.1817 11.1672 13.0401 11.0524 12.9051 10.9292C12.7701 10.8059 12.6424 10.6749 12.5215 10.537C12.4005 10.3983 12.2869 10.2535 12.1814 10.1024C12.0759 9.95067 11.9785 9.79349 11.89 9.63092C11.8007 9.46836 11.721 9.3004 11.6502 9.12858C11.5786 8.95677 11.5174 8.7811 11.465 8.60158C11.4127 8.42207 11.3699 8.24024 11.3374 8.0561C11.3042 7.87196 11.2813 7.68627 11.2688 7.49982C11.2555 7.3126 11.2526 7.12538 11.2592 6.93815C11.2658 6.75093 11.2828 6.56448 11.3101 6.37957C11.3367 6.19389 11.3728 6.01052 11.4193 5.82946C11.4658 5.64917 11.5218 5.47119 11.5868 5.2963C11.6524 5.12217 11.7269 4.9519 11.8103 4.78625C11.8937 4.61983 11.9859 4.45957 12.0862 4.30471C12.1865 4.14908 12.295 4.00038 12.4115 3.85784C12.5281 3.7153 12.652 3.58047 12.7826 3.45181C12.9132 3.32391 13.0511 3.20372 13.1943 3.092C13.3381 2.98028 13.4871 2.87704 13.6421 2.78227C13.797 2.68751 13.9563 2.60198 14.1201 2.52571C14.2839 2.4502 14.4513 2.38394 14.6218 2.32693C14.7929 2.27069 14.9663 2.22446 15.1419 2.18748C15.3182 2.15126 15.4952 2.12584 15.6738 2.10966C15.8523 2.09425 16.0315 2.08886 16.2108 2.09425C16.3901 2.09964 16.5679 2.11505 16.7457 2.14125C16.9235 2.16667 17.099 2.20366 17.2724 2.24988C17.4458 2.29611 17.6169 2.35235 17.7844 2.41938C17.9518 2.48564 18.1156 2.56115 18.275 2.64667C18.4343 2.73219 18.5892 2.82696 18.7383 2.9302C18.888 3.03344 19.0311 3.14593 19.1691 3.26612C19.3063 3.38632 19.4369 3.51421 19.5608 3.64982C19.6848 3.78465 19.8013 3.92718 19.9098 4.07588C20.0182 4.22535 20.1185 4.38021 20.2108 4.54047C20.303 4.7015 20.3863 4.86715 20.4608 5.03742C20.5354 5.20769 20.601 5.38259 20.6563 5.56056C20.7124 5.73854 20.7589 5.91883 20.7958 6.10297C20.8319 6.28634 20.8585 6.47125 20.8754 6.65771C20.8924 6.84416 20.8998 7.03138 20.8961 7.2186C20.8932 7.40583 20.8806 7.59305 20.8577 7.77873C20.8341 7.96441 20.8017 8.14855 20.7589 8.33038C20.7161 8.51221 20.6645 8.69173 20.6025 8.86739C20.5405 9.04306 20.4697 9.21487 20.39 9.38283C20.3096 9.5508 20.2211 9.71336 20.1237 9.87054C20.0263 10.0277 19.9208 10.1787 19.8072 10.3243ZM2.00224 33.9036C1.36559 33.7734 1.05205 33.1963 0.945822 32.9544C0.840328 32.7287 0.789425 32.4898 0.793113 32.2386C0.860246 32.291 0.922215 32.3496 0.978282 32.4143C1.42313 32.9136 1.89675 33.1455 2.38512 33.1008C2.72595 33.0623 3.02399 32.922 3.27851 32.6809C3.50499 32.8581 3.7927 33.1177 3.89893 33.3573C3.42679 33.7264 2.76357 34.0585 2.00224 33.9036ZM3.80967 31.7086C2.41906 30.5143 1.9565 29.2092 2.11585 28.5019C2.14315 28.3848 2.21102 28.1814 2.37332 28.1429C2.37996 28.1413 2.38734 28.1405 2.39398 28.1405C2.45594 28.1806 2.5725 28.4772 2.64997 28.6752C2.94284 29.4157 3.38253 30.5375 4.87937 30.8949L4.89929 30.8988H4.9015C5.34561 31.0097 5.79267 31.0275 6.24268 30.9504C6.69343 30.8734 7.11172 30.7085 7.49903 30.455C7.60526 30.9866 7.73805 31.5105 7.89592 32.0275C6.45515 32.9328 5.11101 32.8265 3.81041 31.7086H3.80967ZM22.8083 47.5886C22.8083 47.6402 22.8031 47.6911 22.7935 47.7419C22.7839 47.7928 22.7699 47.8413 22.7507 47.8891C22.7323 47.9368 22.7087 47.9823 22.6814 48.0247C22.6541 48.0678 22.6231 48.1079 22.5877 48.1441C22.553 48.1803 22.5154 48.2127 22.4741 48.2419C22.4335 48.2704 22.39 48.2943 22.3443 48.3144C22.2985 48.3344 22.252 48.349 22.2033 48.359C22.1554 48.3691 22.106 48.3745 22.0565 48.3745H20.1215C20.0499 48.3737 19.9798 48.3637 19.9112 48.3421C19.8382 47.7789 19.7401 46.6486 20.0057 46.0253C20.2956 45.3396 22.106 44.9605 22.8083 44.838V47.5886ZM45.6681 41.9711C45.719 42.012 45.7604 42.0605 45.7943 42.1175C45.8275 42.1745 45.8496 42.2362 45.8614 42.3017C45.8732 42.3679 45.8725 42.4334 45.8614 42.4989C45.8496 42.5652 45.8268 42.626 45.7936 42.683L44.7003 44.553C44.6169 44.6947 44.4959 44.7779 44.3388 44.8034C43.7597 44.3496 42.5299 43.2617 42.2554 42.0251C42.1588 41.5936 42.1411 41.1598 42.2008 40.7214C42.2606 40.2838 42.3941 39.8716 42.6022 39.4864L45.6681 41.9711ZM34.5986 42.4026C34.5846 42.4064 34.572 42.4118 34.5595 42.418C34.0601 42.6584 33.5363 42.8826 33.0014 43.0845C32.9476 43.1045 32.9033 43.1376 32.8672 43.1838C32.831 43.2301 32.8089 43.2825 32.8008 43.3418L32.0903 48.5154C32.0734 48.6356 32.0365 48.7497 31.9811 48.856C31.9251 48.9623 31.8528 49.0555 31.765 49.1357C31.6772 49.215 31.5791 49.2759 31.4699 49.319C31.3607 49.3614 31.2486 49.383 31.132 49.3838H28.8495C28.7433 49.383 28.6407 49.3653 28.5404 49.3298C28.4401 49.2944 28.3486 49.2435 28.2645 49.1765C28.1804 49.1102 28.1081 49.0309 28.0491 48.9392C27.9893 48.8483 27.9458 48.7489 27.917 48.6426L26.8311 44.5506C26.8126 44.4805 26.7758 44.4243 26.7204 44.3804C26.6658 44.3372 26.6039 44.3149 26.5345 44.3149H26.5294L26.463 44.3164C26.3597 44.3187 26.2557 44.3203 26.1524 44.3203C24.463 44.3264 22.7994 44.1123 21.1617 43.6769C19.5247 43.2409 17.9659 42.5983 16.4845 41.7485C16.4292 41.7161 16.3694 41.703 16.306 41.7092C16.2425 41.7153 16.1865 41.7392 16.1378 41.7816L11.9748 45.412C11.8937 45.4821 11.8036 45.5376 11.7048 45.5777C11.6059 45.6177 11.5041 45.6401 11.3979 45.6455C11.2924 45.6501 11.1891 45.6378 11.0873 45.6069C10.9855 45.5761 10.8911 45.5299 10.804 45.4667L8.92726 44.1092C8.8321 44.0398 8.75168 43.9551 8.68529 43.8549C8.61889 43.7548 8.57094 43.6461 8.54217 43.529C8.5134 43.4111 8.50455 43.2917 8.51635 43.1707C8.52815 43.0498 8.55988 42.935 8.61152 42.8256L11.195 37.4084C11.2216 37.353 11.2319 37.2936 11.226 37.232C11.2194 37.1696 11.198 37.1141 11.1611 37.0656C8.95234 34.1517 7.78526 30.7162 7.78526 27.1312C7.78526 22.3066 9.92024 17.9411 13.3521 14.8154C13.4008 14.8601 13.4554 14.8955 13.5159 14.9202C13.5764 14.9448 13.6391 14.9579 13.704 14.9594C13.7689 14.961 13.8324 14.9502 13.8936 14.9286C13.9556 14.9071 14.0109 14.8747 14.0618 14.8323C19.4229 10.3459 25.6102 10.3667 25.6102 10.3667C24.8341 12.1195 24.3273 14.3177 24.3273 16.1914C24.3265 16.5374 24.345 16.8818 24.3841 17.2246C24.3885 17.2639 24.3996 17.3009 24.4173 17.3356C24.4342 17.3702 24.4571 17.4003 24.4851 17.4265C24.5132 17.4527 24.5449 17.4727 24.5796 17.4866C24.615 17.5004 24.6511 17.5074 24.6887 17.5081C24.7013 17.5074 24.7138 17.5066 24.7271 17.5051C24.7669 17.4997 24.8053 17.4866 24.8407 17.4658C24.8761 17.4442 24.9064 17.4172 24.9315 17.3833C24.9565 17.3502 24.9742 17.3124 24.9853 17.2716C24.9964 17.2308 24.9993 17.1892 24.9949 17.1468C24.6533 14.2522 26.024 9.77885 27.7127 8.28261C28.1531 7.89199 28.5684 7.7533 28.9461 7.86887C31.0479 8.51837 32.8642 13.5703 32.8826 13.6204C32.8967 13.6604 32.9173 13.6967 32.9454 13.7282C32.9726 13.7606 33.0051 13.7853 33.0427 13.803C33.0796 13.8215 33.1187 13.8315 33.16 13.833C33.2006 13.8346 33.2404 13.8284 33.2788 13.813C33.3179 13.7984 33.3518 13.776 33.3821 13.7467C33.4116 13.7175 33.4352 13.6836 33.4522 13.6443C33.4691 13.605 33.478 13.5641 33.4787 13.521C33.4802 13.4778 33.4736 13.437 33.4588 13.3969C33.1534 12.5672 32.8008 11.7605 32.4002 10.9769C36.2127 12.2744 39.5281 14.7352 41.7309 18.0267C41.1356 18.0567 40.5491 18.1492 39.9722 18.3033C40.0777 18.002 40.1005 17.6938 40.0408 17.3787C39.9154 16.6614 39.4447 16.1506 38.9866 16.2369C38.5292 16.3232 38.2614 16.9765 38.3853 17.6923C38.4628 18.1376 38.6753 18.5028 38.9312 18.6954C38.7335 18.7887 38.5484 18.905 38.3772 19.0437C38.3462 19.0714 38.3219 19.1045 38.3042 19.1423C38.2857 19.18 38.2754 19.2201 38.2725 19.2617C38.2695 19.3041 38.2739 19.3449 38.2865 19.3858C38.299 19.4258 38.3182 19.462 38.344 19.4944C38.3698 19.526 38.4008 19.5522 38.437 19.5714C38.4731 19.5915 38.5107 19.603 38.5513 19.6069C38.5912 19.6107 38.631 19.6061 38.6694 19.5938C38.7077 19.5815 38.7431 19.5622 38.7741 19.5352C38.7844 19.526 39.7184 18.7247 42.043 18.6569C41.9729 18.6954 41.9043 18.7355 41.8364 18.7779C41.8276 18.7833 41.8194 18.7879 41.8121 18.7917C41.7198 18.8495 41.6298 18.9104 41.5421 18.9728C41.5236 18.9851 41.5066 18.9974 41.4882 19.0105C41.4034 19.073 41.3193 19.1377 41.2381 19.2047C41.2234 19.2163 41.2101 19.2294 41.1953 19.2409C41.1164 19.3079 41.0389 19.3757 40.9629 19.4466C40.9578 19.4528 40.9519 19.4582 40.946 19.4628C40.8685 19.5375 40.7933 19.6146 40.7195 19.6932C40.7047 19.7086 40.6892 19.724 40.6752 19.7402C40.6051 19.8172 40.5365 19.8974 40.4701 19.9782C40.4576 19.9937 40.4465 20.0098 40.434 20.0237C40.3691 20.1054 40.3064 20.1894 40.2459 20.2741L40.2348 20.2895C40.1736 20.3781 40.1146 20.4683 40.0578 20.5607L40.0246 20.6147C39.9707 20.7063 39.9191 20.7973 39.8711 20.8912C39.8608 20.9082 39.8527 20.9259 39.8438 20.9429C39.7959 21.0376 39.7494 21.1339 39.7073 21.2318C39.7051 21.2356 39.7036 21.2395 39.7014 21.2434C39.6579 21.3435 39.6173 21.4452 39.5804 21.5485C39.5731 21.5693 39.5657 21.5885 39.5583 21.6085C39.5236 21.7087 39.4912 21.8104 39.4609 21.9137C39.4565 21.9329 39.4499 21.9522 39.4454 21.9714C39.4152 22.077 39.3901 22.1833 39.3665 22.2912C39.3665 22.2943 39.3658 22.295 39.3658 22.2981C39.3422 22.4075 39.3237 22.5177 39.3075 22.6286C39.3038 22.6494 39.3016 22.6695 39.2979 22.6911C39.2839 22.7974 39.2721 22.9068 39.2647 23.0162C39.2617 23.037 39.2617 23.0578 39.261 23.0778C39.2536 23.1926 39.2485 23.3067 39.2485 23.4222C39.2485 26.2013 41.3229 28.498 43.9913 28.8232C43.3473 29.5174 42.0112 30.7039 40.5594 30.5267C39.2809 30.371 38.1537 29.1868 37.2064 27.0072C37.4683 26.86 37.7472 26.8022 38.043 26.8338C38.0836 26.8392 38.1227 26.8361 38.1625 26.8246C38.2016 26.813 38.237 26.7945 38.2695 26.7683C38.3012 26.7421 38.3278 26.7106 38.3477 26.6736C38.3676 26.6374 38.3802 26.5973 38.3853 26.5549C38.3905 26.5133 38.3875 26.4717 38.3772 26.4301C38.3662 26.3893 38.3484 26.3523 38.3241 26.3184C38.299 26.2845 38.2688 26.2575 38.2334 26.236C38.1987 26.2152 38.1603 26.2013 38.1205 26.1959C38.0873 26.192 37.3075 26.0942 36.6827 26.6035C36.2806 26.9309 36.0394 27.4232 35.9656 28.0681C35.9604 28.1105 35.9634 28.1521 35.9744 28.1929C35.9855 28.2338 36.004 28.2715 36.029 28.3046C36.0541 28.3386 36.0851 28.3655 36.1205 28.3863C36.1559 28.4071 36.1943 28.4202 36.2349 28.4248C36.2474 28.4264 36.2592 28.4279 36.2703 28.4279C36.3079 28.4279 36.3448 28.421 36.3795 28.4064C36.4149 28.3925 36.4466 28.3725 36.4746 28.3463C36.5027 28.3201 36.5255 28.2892 36.5425 28.2546C36.5602 28.2199 36.5713 28.1829 36.5757 28.1436C36.5978 27.9202 36.6568 27.7083 36.7527 27.5064C37.776 29.7554 39.0316 30.9874 40.4871 31.1654C40.6096 31.18 40.732 31.187 40.8552 31.187C42.7969 31.187 44.3919 29.3571 44.7903 28.8594C44.8493 28.8571 44.9083 28.8555 44.9673 28.8517C45.0027 28.8509 45.0374 28.8471 45.0721 28.844C45.1458 28.8378 45.2196 28.8309 45.2934 28.8224C45.334 28.817 45.3731 28.8108 45.4136 28.8055C45.483 28.7954 45.5516 28.7839 45.6195 28.7708C45.66 28.7646 45.6991 28.7569 45.7397 28.7477C45.8113 28.7338 45.8813 28.7161 45.9514 28.6991C45.9868 28.6899 46.0215 28.6822 46.0569 28.6722C46.1506 28.646 46.2436 28.6175 46.3365 28.5866C46.3469 28.5843 46.3572 28.5812 46.3675 28.5782C46.4693 28.5435 46.5704 28.505 46.6685 28.4649C46.701 28.4503 46.7327 28.4364 46.7637 28.4233C46.8124 28.4017 46.8633 28.3809 46.9112 28.3578C47.0949 30.7932 46.6729 38.5849 34.5986 42.4026ZM47.0211 27.5866C46.2797 28.0119 45.4867 28.2245 44.6412 28.223C42.0068 28.223 39.863 26.0703 39.863 23.4245C39.863 23.1572 39.8851 22.8914 39.9301 22.6286C39.9508 22.4992 39.9773 22.3705 40.0113 22.2442C40.1168 21.8435 40.268 21.4629 40.4665 21.1031C40.6649 20.7433 40.9032 20.4143 41.1813 20.1177C41.4594 19.8218 41.7685 19.5661 42.1094 19.3519C42.4495 19.1377 42.8102 18.9713 43.1909 18.8534C43.2536 18.8326 43.3178 18.8133 43.3834 18.7956C43.7958 18.6839 44.2148 18.6276 44.6412 18.6284C47.2771 18.6284 49.4202 20.7788 49.4202 23.4245C49.4187 23.6372 49.4032 23.8491 49.3737 24.0594C49.345 24.2697 49.3029 24.4778 49.2476 24.6819C49.1923 24.8869 49.1236 25.0864 49.0425 25.2821C48.9621 25.477 48.8691 25.6658 48.7636 25.8476C48.6589 26.0302 48.5431 26.2044 48.4154 26.37C48.2885 26.5357 48.1513 26.6921 48.0038 26.8392C47.8562 26.9856 47.7006 27.122 47.5361 27.2468C47.3716 27.3724 47.1997 27.4849 47.0211 27.5866ZM48.3269 23.4253C48.3269 24.3999 47.8437 25.1897 47.2469 25.1897C46.6508 25.1897 46.1661 24.3999 46.1661 23.4253C46.1661 22.4507 46.6493 21.6602 47.2469 21.6602C47.8452 21.6602 48.3269 22.4491 48.3269 23.4253ZM44.6412 23.5309C44.6412 24.5055 44.158 25.296 43.5612 25.296C42.9651 25.296 42.4804 24.5055 42.4804 23.5309C42.4804 22.5562 42.9636 21.7657 43.5612 21.7657C44.1588 21.7657 44.6412 22.5562 44.6412 23.5309ZM34.4791 18.4358C34.6185 19.2386 34.274 19.9767 33.7082 20.0846C33.1423 20.1924 32.5721 19.6277 32.4319 18.8256C32.2917 18.0236 32.637 17.2839 33.2028 17.1776C33.7687 17.0705 34.3389 17.6337 34.4791 18.4366V18.4358ZM16.4307 6.77405V4.93803C16.7877 4.97964 17.1315 5.07594 17.4613 5.22695C17.5122 5.25007 17.5653 5.2624 17.6213 5.2624C17.6767 5.26317 17.7305 5.25238 17.7822 5.23081C17.8331 5.20846 17.8788 5.17687 17.9179 5.13604C17.957 5.09443 17.9873 5.04667 18.0086 4.99273L18.0492 4.88795C18.0706 4.83402 18.0817 4.77777 18.0817 4.71922C18.0824 4.66143 18.0728 4.60442 18.0529 4.55049C18.0323 4.49578 18.0035 4.44725 17.9651 4.40487C17.9275 4.36249 17.8832 4.32859 17.8323 4.30394C17.386 4.09745 16.9183 3.98111 16.4307 3.95569V3.20218C16.4307 3.16828 16.424 3.13515 16.4122 3.10433C16.3997 3.07274 16.382 3.045 16.3591 3.02112C16.3362 2.99723 16.3097 2.97874 16.2794 2.96564C16.2492 2.95255 16.2182 2.94638 16.1857 2.94638H15.9629C15.9305 2.94638 15.8995 2.95255 15.8692 2.96564C15.839 2.97797 15.8124 2.99646 15.7896 3.02112C15.7667 3.045 15.749 3.07274 15.7365 3.10356C15.7239 3.13515 15.7173 3.16828 15.7173 3.20218V3.97341C14.3606 4.10901 13.7173 4.91877 13.7173 5.84718C13.7173 7.10997 14.7516 7.43741 15.7173 7.68319V9.50149C15.2267 9.45449 14.7649 9.30733 14.3326 9.06001C14.2854 9.03227 14.2345 9.01532 14.1806 9.00993C14.1267 9.00454 14.0744 9.0107 14.0227 9.02842C13.9711 9.04691 13.9253 9.07465 13.8855 9.11317C13.8449 9.15093 13.8147 9.19638 13.7926 9.248L13.7616 9.31966C13.735 9.38052 13.7203 9.44447 13.7166 9.5115C13.7129 9.57776 13.721 9.64325 13.7417 9.70643C13.7616 9.77038 13.7918 9.82739 13.8331 9.87901C13.8737 9.93063 13.9224 9.97224 13.9785 10.0046C14.5259 10.292 15.105 10.4515 15.7173 10.4838V11.2358C15.7173 11.2697 15.7232 11.3028 15.7357 11.3336C15.7483 11.3652 15.766 11.393 15.7896 11.4176C15.8124 11.4415 15.839 11.46 15.8692 11.4731C15.8995 11.4862 15.9305 11.4924 15.9629 11.4931H16.1857C16.2182 11.4924 16.2492 11.4862 16.2794 11.4731C16.3097 11.46 16.3362 11.4415 16.3591 11.4169C16.382 11.393 16.3997 11.3652 16.4122 11.3336C16.424 11.3021 16.4307 11.2697 16.4307 11.2358V10.4738C17.7954 10.329 18.4483 9.52768 18.4483 8.60081C18.4483 7.33725 17.3956 7.01982 16.4307 6.77405ZM15.7173 6.5822C15.2127 6.42811 14.8394 6.22856 14.8394 5.7917C14.8394 5.39183 15.0998 5.06362 15.7173 4.965V6.5822ZM16.4307 9.483V7.8735C16.9522 8.02913 17.3358 8.23716 17.3358 8.68325C17.3358 9.07465 17.0651 9.38283 16.4307 9.483Z" fill="#7C1D21"/>
</g>
<path d="M15.0916 16.48C14.3672 17.3876 13.7541 18.3699 13.2525 19.4285C12.7501 20.4872 12.3724 21.592 12.1201 22.7431C12.832 22.334 13.8626 22.5705 13.5623 26.1978C13.31 29.2581 12.3148 28.9599 11.6634 28.3983C11.7756 30.7883 12.2071 33.1135 12.9589 35.3733C4.74726 23.3232 15.0916 16.48 15.0916 16.48ZM28.7565 46.4217C28.1346 44.9694 27.2855 42.6495 27.2855 42.6495C27.2855 42.6495 27.869 47.8194 28.8376 48.5305C29.8063 49.2416 31.3975 48.7971 31.3975 48.7971C31.3975 48.7971 29.3784 47.8733 28.7565 46.4217ZM9.8501 42.8976C10.154 44.0942 11.6465 44.8246 11.6465 44.8246C11.6465 44.8246 10.669 42.759 11.0865 41.2288C11.5041 39.6987 12.2816 37.3518 12.2816 37.3518C12.2816 37.3518 9.54615 41.7019 9.8501 42.8976Z" fill="#FFC9C5"/>
<path d="M44.6412 18.6277C44.2147 18.6277 43.7957 18.6832 43.3826 18.7949C43.3177 18.8134 43.2535 18.8326 43.1908 18.8527C42.8101 18.9713 42.4494 19.137 42.1093 19.3512C41.7685 19.5654 41.4593 19.8211 41.1812 20.1178C40.9031 20.4144 40.6648 20.7426 40.4664 21.1024C40.2679 21.463 40.1167 21.8428 40.0105 22.2435C39.9773 22.3698 39.9507 22.4985 39.9293 22.6279C39.885 22.8914 39.8629 23.1565 39.8629 23.4238C39.8629 26.0704 42.0067 28.2223 44.6412 28.2223C45.4866 28.2238 46.2796 28.0112 47.0211 27.5859C47.1996 27.4849 47.3715 27.3717 47.536 27.2469C47.7005 27.1213 47.8562 26.9857 48.0037 26.8385C48.1512 26.6921 48.2885 26.5357 48.4154 26.3693C48.5422 26.2037 48.6588 26.0295 48.7636 25.8469C48.8691 25.6651 48.962 25.4764 49.0424 25.2814C49.1236 25.0857 49.1922 24.8862 49.2475 24.6812C49.3028 24.4771 49.3449 24.269 49.3737 24.0587C49.4024 23.8484 49.4179 23.6365 49.4201 23.4238C49.4201 20.7788 47.2763 18.6277 44.6412 18.6277ZM43.5611 25.2961C42.9636 25.2961 42.4804 24.5056 42.4804 23.5309C42.4804 22.5563 42.9636 21.765 43.5611 21.765C44.1587 21.765 44.6412 22.5563 44.6412 23.5309C44.6412 24.5056 44.1579 25.2961 43.5611 25.2961ZM47.2468 25.1897C46.6492 25.1897 46.166 24.4 46.166 23.4254C46.166 22.45 46.6492 21.6595 47.2468 21.6595C47.8451 21.6595 48.3268 22.4492 48.3268 23.4254C48.3268 24.4008 47.8436 25.1897 47.2468 25.1897ZM42.6021 39.4872L45.6673 41.9712C45.7182 42.012 45.7603 42.0613 45.7935 42.1184C45.8267 42.1754 45.8495 42.237 45.8606 42.3025C45.8724 42.368 45.8724 42.4343 45.8606 42.4997C45.8488 42.5652 45.8267 42.6269 45.7927 42.6839L44.6994 44.553C44.6161 44.6956 44.4958 44.7788 44.3379 44.8042C43.7588 44.3504 42.529 43.2625 42.2546 42.0251C42.1587 41.5944 42.1403 41.1599 42.2008 40.7223C42.2605 40.2839 42.394 39.8725 42.6021 39.4872ZM40.2273 15.1729C38.9068 13.8061 37.4247 12.6697 35.7818 11.7629C36.5018 10.6303 38.1499 8.54079 39.4786 8.89983C40.6294 9.21187 40.5645 12.6813 40.2273 15.1729ZM22.8082 44.8381V47.5887C22.8082 47.6403 22.803 47.6911 22.7934 47.742C22.7839 47.7928 22.7698 47.8414 22.7507 47.8891C22.7322 47.9369 22.7086 47.9824 22.6813 48.0247C22.654 48.0679 22.623 48.1079 22.5876 48.1442C22.553 48.1804 22.5153 48.2127 22.474 48.242C22.4334 48.2705 22.3899 48.2944 22.3442 48.3144C22.2984 48.3345 22.252 48.3491 22.2033 48.3591C22.1553 48.3691 22.1059 48.3745 22.0565 48.3745H20.1214C20.0499 48.3738 19.9798 48.3637 19.9112 48.3422C19.8381 47.779 19.74 46.6487 20.0056 46.0254C20.2955 45.3397 22.1059 44.9606 22.8082 44.8381ZM7.49821 30.4551C7.60518 30.9867 7.73723 31.5106 7.89584 32.0276C6.45507 32.9329 5.11093 32.8266 3.81033 31.7086C2.41898 30.5144 1.95642 29.2092 2.11651 28.502C2.14381 28.3848 2.21168 28.1814 2.37398 28.1429C2.38062 28.1414 2.38726 28.1406 2.39463 28.1406C2.45586 28.1807 2.57316 28.4773 2.65062 28.6753C2.94276 29.4157 3.38318 30.5375 4.88003 30.895L4.89994 30.8989H4.90142C5.34479 31.0098 5.79185 31.0275 6.2426 30.9505C6.69261 30.8734 7.11164 30.7086 7.49821 30.4551ZM3.89885 33.3574C3.42671 33.7265 2.7635 34.0585 2.00216 33.9037C1.36551 33.7742 1.05197 33.1964 0.945743 32.9552C0.840248 32.7287 0.789345 32.4899 0.793034 32.2387C0.860167 32.2911 0.922135 32.3497 0.978202 32.4151C1.42305 32.9136 1.89667 33.1455 2.38504 33.1016C2.72587 33.0623 3.02391 32.9221 3.27843 32.681C3.50491 32.8582 3.79336 33.1178 3.89885 33.3574ZM33.4897 28.0851C33.4897 30.4482 31.4698 32.3643 28.9778 32.3643C26.4858 32.3643 24.4651 30.4482 24.4651 28.0851C24.4651 25.7221 26.4858 23.806 28.9778 23.806C31.4698 23.806 33.4897 25.7221 33.4897 28.0851ZM26.8421 15.4703C27.0641 13.4864 27.6565 9.68339 28.9306 9.68339C30.2784 9.68339 31.1902 12.5326 31.5237 13.7761C31.5443 13.8547 31.5517 13.934 31.5451 14.0157C31.5392 14.0966 31.5193 14.1737 31.4861 14.2476C31.4529 14.3216 31.4086 14.3863 31.3525 14.4433C31.2972 14.5003 31.2338 14.5458 31.1629 14.5789L27.7517 16.1684C27.6455 16.2185 27.5341 16.237 27.4182 16.2239C27.3017 16.2108 27.1969 16.1684 27.1025 16.096C27.0088 16.0235 26.9387 15.9318 26.8915 15.8201C26.845 15.7084 26.8288 15.5913 26.8421 15.4703Z" fill="#F86C5F"/>
</g>
<defs>
<clipPath id="clip0_627_19587">
<rect width="50" height="50" fill="white"/>
</clipPath>
</defs>
</svg>
