<svg width="50" height="50" viewBox="0 0 50 50" fill="none" xmlns="http://www.w3.org/2000/svg">
<g clip-path="url(#clip0_627_19124)">
<path d="M27.4547 3.86797L27.9643 0.493164L44.7046 3.06195L44.1943 6.43675L27.4547 3.86797Z" fill="#2F8474"/>
<path d="M42.775 17.7295L47.3572 24.0128L49.5585 21.933L45.4311 15.2549L42.775 17.7295Z" fill="#2F8474"/>
<path d="M39.5903 5.72441L40.0999 2.34961L40.9366 2.4784L40.427 5.8532L39.5903 5.72441Z" fill="#349381"/>
<path d="M45.4311 15.255L38.0545 22.1143L38.9333 18.5725L40.5737 16.9513C43.3464 14.2098 44.6793 10.3156 44.1929 6.43272L27.4504 3.86182L24.5402 34.4884L34.5835 36.0353L49.5585 21.9332L45.4311 15.255Z" fill="#349381"/>
<path d="M41.7691 8.65186L40.055 14.4334L36.4464 15.6067L33.3558 13.4094L33.3979 7.38232L41.7691 8.65186Z" fill="#54AA9A"/>
<path d="M33.3874 9.0998L41.2827 10.3049L41.7692 8.65186L33.3979 7.38232L33.3874 9.0998Z" fill="#41A08E"/>
<path d="M37.7057 10.9663L34.7955 7.90503C32.6258 5.61153 29.9163 3.89405 26.9212 2.92315L24.4027 2.10156L12.9521 2.6139L10.5178 3.65911C7.61808 4.90741 5.07779 6.84851 3.10957 9.33449L0.485046 12.6414L5.81903 18.3804L8.26315 16.14L9.25849 38.734L31.25 37.7525L30.2547 15.1585L32.8904 17.1746L37.7057 10.9663Z" fill="#FC8860"/>
<path d="M9.15948 36.1659L31.1503 35.1802L31.2633 37.7376L9.2725 38.7234L9.15948 36.1659Z" fill="#F2C34E"/>
<path d="M37.7057 10.9667L35.197 8.3208L30.4667 15.2976L32.8904 17.1644L37.7057 10.9667Z" fill="#F2C34E"/>
<path d="M0.485046 12.6309L5.82955 18.3806L8.08346 16.3001L2.76001 9.77197L0.485046 12.6309Z" fill="#F2C34E"/>
<path d="M13.5339 0.949771L18.8679 6.68884L23.6832 0.491211L13.5339 0.949771Z" fill="#FCA98C"/>
<path d="M13.5339 0.949771L16.1374 3.745L16.2006 3.71245C17.7568 2.82718 19.64 2.74226 21.2699 3.48883L21.3338 3.52068L23.6832 0.491211L13.5339 0.949771Z" fill="#F2C34E"/>
<path d="M18.444 6.70059L19.2898 6.66309L19.6288 14.3355L18.783 14.3737L18.444 6.70059Z" fill="#F2C34E"/>
<path d="M25.0484 3.52068L23.6832 0.491211L18.8679 6.68884L20.4234 7.63852C21.0586 8.02206 21.8624 7.94776 22.4127 7.45665L24.6139 5.51555C25.1755 5.01383 25.3552 4.21418 25.0484 3.52068Z" fill="#E37A56"/>
<path d="M15.6531 10.6744L17.3447 10.5986L17.3826 11.4506L15.691 11.5271L15.6531 10.6744Z" fill="#F2C34E"/>
<path d="M15.7696 13.2346L17.4612 13.1582L17.4992 14.0109L15.8075 14.0866L15.7696 13.2346Z" fill="#F2C34E"/>
<path d="M33.1122 41.7425C33.0912 41.7743 30.5193 45.113 25.4183 48.2925C22.6036 50.0524 20.0212 49.6045 18.9206 48.2493C18.074 47.2148 18.2748 45.8384 19.4498 44.5908C20.349 43.6305 22.7096 41.9342 28.4451 41.3901L28.3608 40.5366C26.54 40.7079 24.3711 41.0702 22.4344 41.7849C21.3338 42.7558 19.9685 43.6836 18.4018 44.5051C17.132 46.2014 17.4598 47.8014 18.2642 48.7935C19.0055 49.7 20.2648 50.2874 21.7992 50.2874C23.0269 50.2874 24.4237 49.9137 25.8634 49.0179C28.6037 47.311 30.6042 45.5723 31.8108 44.4089C33.1122 43.1401 33.7685 42.2973 33.7896 42.2541L33.1122 41.7425Z" fill="#DFDFDF"/>
<path d="M25.2597 35.7474C24.5613 33.8806 21.9894 32.9635 18.6138 33.0802L4.73945 38.3395C2.12545 40.4943 0.781255 42.8841 1.47968 44.7615C2.63295 47.844 8.88786 48.3351 15.4495 45.8498C22.0217 43.3532 26.4137 38.8306 25.2597 35.7474Z" fill="#E2AC40"/>
<path d="M16.2216 29.2932C15.3646 27.9275 13.6715 27.362 12.1792 27.9275L6.22119 30.1785C4.71836 30.7439 3.81848 32.2909 4.06205 33.8909L5.50101 43.4173C7.93531 43.5022 10.9094 42.9906 13.9572 41.8385C17.005 40.6858 19.5768 39.0964 21.3548 37.4114L16.2216 29.2932Z" fill="#F2C34E"/>
<path d="M7.98657 15.8166L10.4272 13.5747L10.9972 14.2059L8.55724 16.4478L7.98657 15.8166Z" fill="#E37A56"/>
<path d="M27.3718 13.4704L27.8842 12.791L30.5123 14.8057L29.9999 15.4851L27.3718 13.4704Z" fill="#E37A56"/>
<path d="M31.2142 4.43974L31.7238 1.06494L32.5612 1.19373L32.0516 4.56854L31.2142 4.43974Z" fill="#349381"/>
<path d="M35.4069 5.08796L35.9165 1.71387L36.7532 1.84195L36.2436 5.21675L35.4069 5.08796Z" fill="#349381"/>
<path d="M13.5339 0.949707L12.4438 4.09664C12.2003 4.81137 12.4438 5.58979 13.0468 6.03845L15.4067 7.77715C15.9998 8.21448 16.8148 8.21448 17.4072 7.77715L18.8679 6.68878L13.5339 0.949707Z" fill="#E37A56"/>
<path d="M21.3654 37.4223L20.0738 35.3843C18.3281 36.9312 15.9044 38.3819 13.0784 39.449C10.2531 40.5155 7.48047 41.0384 5.15216 41.0384L5.51155 43.4282C7.94585 43.5131 10.9199 43.0015 13.9677 41.8494C17.0155 40.686 19.5874 39.0966 21.3654 37.4223Z" fill="#CC993E"/>
<path d="M34.3062 35.409L37.5056 22.5693L38.3262 22.7774L35.1275 35.6171L34.3062 35.409Z" fill="#2F8474"/>
<path d="M49.5163 36.5371C49.2307 35.5018 47.4948 35.1713 46.9445 34.3178C46.3731 33.4326 46.7325 31.6507 45.9498 31.011C45.1665 30.3599 43.6005 31.1391 42.6585 30.776C41.727 30.4031 41.0181 28.7175 40.0122 28.6644C39.0386 28.6106 38.2454 30.2212 37.2606 30.4986C36.2765 30.776 34.7631 29.8377 33.97 30.3925C33.1445 30.9685 33.4084 32.7921 32.8055 33.5925C32.2025 34.4035 30.4561 34.5634 30.1283 35.5343C29.7998 36.4939 31.0275 37.8278 30.9959 38.8836C30.9748 39.897 29.6622 41.0915 29.9584 42.1268C30.2441 43.1614 31.98 43.4919 32.5303 44.3453C33.1017 45.2306 32.7423 47.0125 33.5249 47.6522C34.3083 48.3032 35.8743 47.5241 36.8163 47.8871C37.7478 48.26 38.4567 49.9457 39.4619 49.9995C40.4362 50.0525 41.2293 48.4419 42.2142 48.1645C43.1983 47.8871 44.7116 48.8255 45.5048 48.2707C46.3303 47.6946 46.0664 45.871 46.6693 45.0707C47.2723 44.2597 49.0187 44.0998 49.3465 43.1296C49.675 42.1693 48.4473 40.8361 48.4789 39.7795C48.5 38.7768 49.802 37.5716 49.5163 36.5371Z" fill="#FC8860"/>
<path d="M43.1239 35.7049L38.1289 33.5713L34.9752 38.0196L36.8163 44.5909L44.9658 42.2655L43.1239 35.7049Z" fill="#F2C34E"/>
<path d="M37.8818 38.9634L41.1409 38.0356L42.5216 42.963L39.2625 43.8915L37.8818 38.9634Z" fill="#CC993E"/>
<path d="M15.6531 10.6744L17.3447 10.5986L17.3826 11.4506L15.691 11.5271L15.6531 10.6744Z" fill="#1D3F39"/>
<path d="M15.7696 13.2346L17.4612 13.1582L17.4992 14.0109L15.8075 14.0866L15.7696 13.2346Z" fill="#1D3F39"/>
<path d="M36.8163 45.0176C36.8592 45.0176 36.8907 45.0176 36.9329 44.9964L45.0816 42.6809C45.1876 42.6491 45.283 42.5748 45.3357 42.4786C45.389 42.3823 45.3996 42.2655 45.3785 42.1587L43.5261 35.5874C43.4945 35.4593 43.3991 35.3631 43.2825 35.31L38.2876 33.1871C38.1079 33.1128 37.8959 33.1658 37.7794 33.3364L34.6256 37.7847C34.5519 37.8915 34.5308 38.0196 34.5624 38.1477L36.4036 44.719C36.4569 44.8895 36.6261 45.0176 36.8163 45.0176ZM39.5574 43.3638L38.4041 39.2573L40.8489 38.5638L42.0022 42.6703L39.5574 43.3638ZM38.2771 34.1049L42.775 36.0141L44.447 41.9775L42.8171 42.4361L41.5474 37.9234C41.4835 37.6998 41.2504 37.5611 41.0286 37.6248L37.7689 38.5532C37.6629 38.585 37.5681 38.6593 37.5148 38.7556C37.4621 38.8518 37.4516 38.9686 37.4726 39.0754L38.7424 43.5882L37.1125 44.0467L35.4405 38.0833L38.2771 34.1049Z" fill="#1D3F39"/>
<mask id="mask0_627_19124" style="mask-type:luminance" maskUnits="userSpaceOnUse" x="0" y="0" width="51" height="51">
<path d="M0.0245361 0.0454102H50.0449V50.4261H0.0245361V0.0454102Z" fill="white"/>
</mask>
<g mask="url(#mask0_627_19124)">
<path d="M48.9021 39.8005C48.9127 39.4594 49.1457 39.0115 49.3787 38.5741C49.7276 37.9125 50.1298 37.1659 49.9185 36.4193C49.7065 35.6721 48.9765 35.2453 48.3413 34.8724C47.918 34.6269 47.4842 34.3707 47.2933 34.0827C47.0925 33.7734 47.0294 33.2399 46.9655 32.7176C46.87 31.9385 46.7753 31.1388 46.2144 30.6697C45.6424 30.1892 44.8281 30.2854 44.1079 30.3703C43.6215 30.4241 43.1238 30.4878 42.8065 30.3597C42.5419 30.2536 42.2562 29.9549 41.9705 29.6344L49.8336 22.2316C49.9817 22.0929 50.0133 21.8686 49.908 21.698L45.7799 15.0199C45.7168 14.9137 45.6002 14.8387 45.4732 14.8281C45.3461 14.8069 45.2191 14.8493 45.1349 14.935L38.7957 20.8234L39.3032 18.786L40.8594 17.2391C43.6952 14.4332 45.092 10.401 44.6056 6.4325L45.1033 3.11502C45.1349 2.88008 44.9762 2.66708 44.7432 2.62462L28.0218 0.0643257C27.9052 0.043096 27.7999 0.0749405 27.7045 0.138629C27.609 0.203026 27.5564 0.309882 27.5353 0.41603L27.2068 2.56022C27.1542 2.53899 27.1015 2.51776 27.0376 2.50715L24.6988 1.74996L24.053 0.309882C24.053 0.298559 24.053 0.298559 24.0425 0.287944C23.9688 0.138629 23.8102 0.0537109 23.6508 0.0537109L13.5023 0.512271C13.3324 0.522886 13.1949 0.619127 13.1317 0.779056C13.1317 0.789671 13.1317 0.789671 13.1212 0.800286L12.6235 2.29344L10.3591 3.26434C7.40602 4.53387 4.79203 6.52874 2.7817 9.05719L0.156473 12.3641C0.030125 12.5346 0.030125 12.7695 0.178233 12.9189L5.51151 18.6579C5.59644 18.7429 5.71296 18.7966 5.81896 18.7966C5.92425 18.7966 6.01971 18.7641 6.10464 18.6898L7.88263 17.0572L8.40066 28.909L6.06182 29.7943C4.38982 30.4347 3.3636 32.184 3.63876 33.9659L4.2733 38.158C1.52173 40.494 0.357927 42.9474 1.08794 44.8999C1.70213 46.5529 3.59594 47.5882 6.41139 47.8119C6.78201 47.8437 7.16245 47.855 7.55413 47.855C10.0095 47.855 12.8144 47.2896 15.6081 46.2331C16.423 45.9238 17.2169 45.5828 17.9785 45.2091C17.2485 46.6386 17.5868 47.9399 18.2747 48.7934C19.016 49.6999 20.2752 50.2872 21.8097 50.2872C23.0373 50.2872 24.4342 49.9136 25.8738 49.0177C28.6149 47.3108 30.6147 45.5721 31.8213 44.4088C33.1227 43.1399 33.779 42.2971 33.8001 42.2539L33.1227 41.7317C33.1016 41.7635 30.5298 45.1023 25.4288 48.2817C22.6141 50.0417 20.0317 49.5937 18.931 48.2386C18.0845 47.204 18.2853 45.8276 19.4603 44.58C19.5873 44.4413 19.7565 44.2814 19.9467 44.1207C20.4233 43.8327 20.8677 43.5341 21.3015 43.2249C22.7201 42.4677 24.9634 41.7105 28.4556 41.3687L28.3713 40.5152C26.8474 40.6646 25.08 40.9313 23.4185 41.4437C23.4711 41.3899 23.5245 41.3474 23.5666 41.2944C24.5191 40.3129 25.186 39.342 25.5453 38.4036L30.4561 38.1793C30.541 38.4142 30.5936 38.6378 30.5936 38.8303C30.5831 39.1714 30.3501 39.6194 30.117 40.0567C29.7682 40.7183 29.366 41.4649 29.5779 42.2115C29.6516 42.457 29.7787 42.6913 29.9689 42.905L30.5936 42.329C30.4876 42.2115 30.4245 42.1046 30.3922 41.9879C30.2764 41.5718 30.5726 41.017 30.8688 40.4728C31.1439 39.9498 31.4402 39.417 31.4507 38.8728C31.4612 38.3074 31.1966 37.7207 30.9425 37.1659C30.6891 36.6111 30.4245 36.0245 30.5515 35.6614C30.6786 35.2991 31.2177 35.043 31.7469 34.7974C32.2867 34.5526 32.837 34.2858 33.1655 33.8378C33.4933 33.4005 33.5993 32.7813 33.7053 32.184C33.8106 31.5762 33.9166 30.9463 34.2339 30.7333C34.5202 30.531 35.1021 30.6697 35.6525 30.7864C36.2449 30.9145 36.8591 31.0532 37.3982 30.9039C37.9485 30.744 38.3935 30.3066 38.8273 29.8905C39.24 29.485 39.6633 29.0689 40.0122 29.0909C40.3933 29.1121 40.806 29.5919 41.2188 30.0505C41.621 30.509 42.0232 30.9789 42.5314 31.1813C43.0501 31.3844 43.6531 31.32 44.235 31.2457C44.8063 31.1813 45.41 31.107 45.7062 31.3518C46.0024 31.5974 46.0874 32.2265 46.1611 32.8457C46.2355 33.4536 46.3092 34.0933 46.6166 34.5738C46.9128 35.0323 47.4421 35.3416 47.9391 35.6402C48.4683 35.9495 49.0081 36.27 49.1246 36.6748C49.2412 37.0909 48.9442 37.6457 48.648 38.1899C48.3729 38.7128 48.0767 39.2457 48.0661 39.7899C48.0556 40.3553 48.3202 40.942 48.5743 41.4968C48.8284 42.0516 49.093 42.6382 48.966 43.0012C48.8389 43.3636 48.2992 43.6197 47.7699 43.8653C47.2301 44.1101 46.6798 44.3769 46.352 44.8249C46.0235 45.2622 45.9175 45.8814 45.8122 46.4786C45.7062 47.0865 45.6002 47.7163 45.283 47.9293C44.9973 48.1317 44.4154 47.9937 43.8651 47.8763C43.2719 47.7482 42.6584 47.6095 42.1187 47.7588C41.5683 47.9187 41.124 48.356 40.6895 48.7721C40.2768 49.1776 39.8535 49.5937 39.5047 49.5725C39.1235 49.5506 38.7108 49.0708 38.298 48.6122C37.8958 48.1537 37.4936 47.6838 36.9854 47.4814C36.4674 47.279 35.8637 47.3427 35.2818 47.417C34.7105 47.4814 34.1075 47.5557 33.8106 47.3108C33.5144 47.0653 33.4301 46.4362 33.3557 45.817C33.3347 45.6571 33.3136 45.5077 33.2926 45.3584L32.4566 45.4865C32.4776 45.6358 32.4987 45.7851 32.5092 45.9238C32.6047 46.703 32.6994 47.5026 33.2603 47.9718C33.8323 48.4523 34.6466 48.356 35.3668 48.2704C35.8532 48.2173 36.3509 48.1537 36.6682 48.2817C36.9854 48.4091 37.3245 48.804 37.6523 49.1776C38.171 49.7749 38.7108 50.3828 39.4408 50.4259C39.4618 50.4259 39.4836 50.4259 39.5152 50.4259C40.1926 50.4259 40.7429 49.903 41.2616 49.3906C41.621 49.0389 41.9916 48.6759 42.3299 48.5804C42.669 48.4841 43.1772 48.6016 43.6636 48.7085C44.3936 48.8684 45.1559 49.0389 45.7483 48.6334C46.352 48.2067 46.5001 47.4064 46.6272 46.628C46.7114 46.1262 46.7963 45.6146 47.0076 45.3372C47.2091 45.0598 47.6639 44.8468 48.1082 44.6437C48.7645 44.3345 49.5058 43.9934 49.7487 43.2786C49.9817 42.5851 49.6539 41.8492 49.3254 41.1344C49.1141 40.6539 48.8916 40.1635 48.9021 39.8005ZM45.3356 15.9165L49.0081 21.8579L47.4098 23.3624L43.3358 17.772L45.3356 15.9165ZM43.8328 5.95271L40.4888 5.44037L40.8699 2.91263L44.2139 3.42427L43.8328 5.95271ZM32.1175 4.14961L32.4987 1.62187L35.8427 2.13351L35.4615 4.66195L32.1175 4.14961ZM36.6892 2.26159L40.0339 2.77393L39.6528 5.30167L36.3088 4.79004L36.6892 2.26159ZM28.318 0.981445L31.6627 1.49379L31.2815 4.02153L30.1704 3.85098C29.4719 3.47805 28.763 3.14687 28.0218 2.85885L28.318 0.981445ZM12.846 4.22462L13.7031 1.74996L18.2326 6.62499L17.153 7.42463C16.7087 7.75582 16.1058 7.75582 15.6502 7.42463L13.2903 5.68593C12.8355 5.35545 12.6551 4.76881 12.846 4.22462ZM18.8461 6.02702L16.8358 3.8616C18.0424 3.31812 19.4077 3.26434 20.6564 3.69105L18.8461 6.02702ZM23.5877 1.31263L24.6567 3.70167C24.889 4.22462 24.7627 4.82188 24.3387 5.19552L22.1375 7.13662C21.7142 7.51026 21.1218 7.56334 20.6459 7.26471L19.5024 6.5712L23.5877 1.31263ZM22.7832 0.960216L21.2067 2.99755C19.5979 2.35783 17.7778 2.43214 16.2321 3.22188L14.4759 1.33386L22.7832 0.960216ZM5.85054 17.772L1.04582 12.6089L2.75994 10.4435L7.50149 16.2576L5.85054 17.772ZM6.36927 30.5946L12.3273 28.3436C13.6286 27.8532 15.121 28.3542 15.8727 29.5388L19.5235 35.3097C17.7778 36.7817 15.46 38.1043 12.9302 39.0646C10.4012 40.0248 7.78717 40.569 5.52204 40.6221L4.49581 33.859C4.2733 32.4508 5.06719 31.085 6.36927 30.5946ZM20.815 37.3471C19.037 38.9577 16.5606 40.4091 13.8196 41.4437C11.0785 42.4783 8.27431 43.0331 5.88213 43.0012L5.63856 41.4543C7.99916 41.3899 10.6131 40.8358 13.2159 39.8437C15.8306 38.8515 18.1477 37.5396 19.9685 36.0245L20.815 37.3471ZM22.9524 40.7183C21.1428 42.5851 18.4334 44.2594 15.3119 45.4441C12.1897 46.628 9.05697 47.1615 6.47456 46.969C4.00867 46.7773 2.37949 45.9345 1.88182 44.6119C1.33151 43.118 2.28403 41.1238 4.44317 39.1714L5.09877 43.5023C5.13106 43.7053 5.30023 43.8547 5.50098 43.8653C5.68138 43.8759 5.8716 43.8759 6.06182 43.8759C8.51718 43.8759 11.3537 43.3105 14.1263 42.2539C17.1109 41.1238 19.7881 39.5231 21.6616 37.7419C21.8097 37.6032 21.8412 37.3789 21.7247 37.1978L19.3859 33.5066C22.2856 33.5392 24.3071 34.4139 24.868 35.907C25.3551 37.219 24.6778 38.9365 22.9524 40.7183ZM29.726 35.3734C29.5035 36.0139 29.7787 36.6967 30.0749 37.3577L25.7784 37.5502C25.916 36.8567 25.8738 36.195 25.6408 35.5871C24.9108 33.6241 22.4344 32.5577 18.825 32.6426L16.5606 29.0689C15.5976 27.5439 13.682 26.9035 12.01 27.5439L9.22613 28.5998L8.70811 16.3106L11.0041 14.199L10.4328 13.5692L8.1255 15.6815L3.29972 9.77192L3.4373 9.59006C5.35287 7.17979 7.86158 5.25921 10.6763 4.04346L12.2318 3.37119L12.0311 3.93661C11.7243 4.8325 12.0205 5.8034 12.7821 6.36882L15.1638 8.11814C15.5337 8.39554 15.9787 8.53424 16.4125 8.53424C16.8463 8.53424 17.2906 8.39554 17.6612 8.11814L18.4867 7.51026L18.7935 14.3908L19.64 14.3483L19.3332 7.4678L20.2114 8.00067C20.5504 8.20376 20.9315 8.30991 21.312 8.30991C21.8097 8.30991 22.3073 8.12875 22.7095 7.77705L24.9003 5.83524C25.6092 5.21675 25.8205 4.21401 25.4288 3.34996L25.186 2.80578L26.7941 3.32873C29.7155 4.28831 32.3716 5.97394 34.4985 8.20376L34.6578 8.37431L30.3711 14.7L27.8947 12.8014L27.3872 13.4843L29.8636 15.3829L30.6996 34.3707C30.2658 34.6056 29.8847 34.9149 29.726 35.3734ZM37.1448 10.9983L32.816 16.5668L31.038 15.2018L35.2503 8.9928L37.1448 10.9983ZM38.0334 11.2332C38.1605 11.0627 38.1499 10.8277 38.0018 10.6784L37.5252 10.1661L39.7798 10.5079L39.9069 9.66507L36.5727 9.15273L35.6096 8.13937L41.2188 8.9928L39.6949 14.0815L36.5095 15.1267L35.5359 14.4332L38.0334 11.2332ZM33.7264 30.0186C33.1227 30.4453 32.9746 31.2457 32.8475 32.0241C32.7633 32.5251 32.6784 33.0375 32.4671 33.3149C32.2867 33.5604 31.9055 33.7522 31.5146 33.944L30.7207 16.0332L32.6363 17.4953C32.71 17.5589 32.8054 17.5802 32.8904 17.5802C33.0174 17.5802 33.1445 17.5271 33.2287 17.4202L35.0172 15.1161L36.2028 15.9589C36.2765 16.012 36.3614 16.0332 36.4463 16.0332C36.4885 16.0332 36.5306 16.0226 36.5727 16.012L40.1715 14.8387C40.2985 14.7963 40.4038 14.6894 40.4467 14.5507L42.1713 8.76918C42.2029 8.65171 42.1924 8.52362 42.1187 8.41677C42.0548 8.30991 41.9495 8.24622 41.8224 8.22499L34.6255 7.126C33.8323 6.34759 32.9641 5.63285 32.0431 4.99243L43.7907 6.79553C44.1507 10.4223 42.8487 14.0709 40.2663 16.6312L38.6258 18.2524C38.5732 18.3055 38.5311 18.3805 38.51 18.4548L35.663 29.9011C34.9856 29.7624 34.2767 29.645 33.7264 30.0186ZM40.0339 28.2261C39.3243 28.1837 38.7634 28.7385 38.2131 29.2614C37.8537 29.6131 37.4831 29.9762 37.1448 30.0717C36.9644 30.1255 36.7426 30.1149 36.499 30.0823L38.4251 22.3377L42.7006 18.3593L46.7858 23.9491L41.4097 29.0159C41.018 28.5998 40.5842 28.2587 40.0339 28.2261Z" fill="#1D3F39"/>
</g>
</g>
<defs>
<clipPath id="clip0_627_19124">
<rect width="50" height="50" fill="white"/>
</clipPath>
</defs>
</svg>
