<svg width="50" height="50" viewBox="0 0 50 50" fill="none" xmlns="http://www.w3.org/2000/svg">
<g clip-path="url(#clip0_627_19505)">
<path d="M49.3532 6.11685V11.8245H0.609619V6.11685C0.609619 5.20338 1.54222 4.4624 2.69211 4.4624H7.43118V6.61285C7.43118 7.25316 8.08307 7.7713 8.88969 7.7713C9.69546 7.7713 10.3482 7.25316 10.3482 6.61285V4.4624H18.159V6.61285C18.159 7.25316 18.8117 7.7713 19.6175 7.7713C20.4241 7.7713 21.076 7.25316 21.076 6.61285V4.4624H28.8877V6.61285C28.8877 7.25316 29.5395 7.7713 30.3453 7.7713C31.1519 7.7713 31.8038 7.25316 31.8038 6.61285V4.4624H39.6155V6.61285C39.6155 7.25316 40.2674 7.7713 41.0731 7.7713C41.8797 7.7713 42.5316 7.25316 42.5316 6.61285V4.4624H47.2707C48.4206 4.4624 49.3532 5.20338 49.3532 6.11685Z" fill="#72C2E9"/>
<path d="M49.354 11.8257V39.4339C49.354 40.348 48.4197 41.0883 47.2707 41.0883H34.4426C34.917 40.1487 35.1782 39.1211 35.1782 38.0466C35.1782 33.5228 30.5618 29.8569 24.8656 29.8569C19.1694 29.8569 14.5512 33.5228 14.5512 38.0466C14.5512 39.1211 14.8116 40.1487 15.2859 41.0883H2.69125C1.54305 41.0883 0.608765 40.348 0.608765 39.4339V11.8257H49.354Z" fill="#EFEFEF"/>
<path d="M10.3473 2.31159V6.61316C10.3473 7.25347 9.69542 7.77161 8.88965 7.77161C8.08304 7.77161 7.43115 7.25347 7.43115 6.61316V2.31159C7.43115 1.67129 8.08304 1.15381 8.88965 1.15381C9.69542 1.15381 10.3473 1.67061 10.3473 2.31159Z" fill="#7D7B7A"/>
<path d="M21.0752 2.31159V6.61316C21.0752 7.25347 20.4233 7.77161 19.6175 7.77161C18.8109 7.77161 18.159 7.25347 18.159 6.61316V2.31159C18.159 1.67129 18.8109 1.15381 19.6175 1.15381C20.4233 1.15381 21.0752 1.67061 21.0752 2.31159Z" fill="#7D7B7A"/>
<path d="M31.8038 2.31159V6.61316C31.8038 7.25347 31.1511 7.77161 30.3453 7.77161C29.5387 7.77161 28.8868 7.25347 28.8868 6.61316V2.31159C28.8868 1.67129 29.5387 1.15381 30.3453 1.15381C31.1511 1.15381 31.8038 1.67061 31.8038 2.31159Z" fill="#7D7B7A"/>
<path d="M42.5316 2.31159V6.61316C42.5316 7.25347 41.8789 7.77161 41.0731 7.77161C40.2665 7.77161 39.6146 7.25347 39.6146 6.61316V2.31159C39.6146 1.67129 40.2665 1.15381 41.0731 1.15381C41.8789 1.15381 42.5316 1.67061 42.5316 2.31159Z" fill="#7D7B7A"/>
<path d="M6.90102 31.6305C6.61862 30.6647 6.43176 30.0264 4.78809 29.5955C4.19032 29.4385 4.19201 28.7653 4.78809 28.6089C5.77734 28.3492 6.43176 28.1773 6.90102 26.5726C7.05659 26.0396 8.01878 26.0383 8.1752 26.5726C8.6546 28.2136 9.37075 28.3686 10.2881 28.6082C10.8851 28.7653 10.8842 29.4385 10.2881 29.5949C9.33354 29.8452 8.64361 30.0264 8.1752 31.6305C8.01878 32.1661 7.05744 32.1668 6.90102 31.6305Z" fill="black"/>
<path d="M8.51765 29.106C8.15662 29.3094 7.83195 29.5792 7.55124 29.9739C7.32041 29.6631 6.99827 29.3698 6.52563 29.1141C6.90696 28.9074 7.24854 28.6241 7.5394 28.208C7.83448 28.6295 8.17099 28.9087 8.51765 29.106Z" fill="#F0C020"/>
<path d="M41.7876 31.6305C41.5052 30.6647 41.3191 30.0264 39.6746 29.5955C39.0769 29.4385 39.0785 28.7653 39.6746 28.6089C40.6647 28.3492 41.3183 28.1773 41.7876 26.5726C41.9431 26.0396 42.9053 26.0383 43.0617 26.5726C43.5411 28.2136 44.2573 28.3686 45.1747 28.6082C45.7724 28.7653 45.7707 29.4385 45.1747 29.5949C44.2201 29.8452 43.5301 30.0264 43.0617 31.6305C42.9053 32.1661 41.944 32.1668 41.7876 31.6305Z" fill="black"/>
<path d="M43.4051 29.106C43.0432 29.3094 42.7186 29.5792 42.4387 29.9739C42.207 29.6631 41.8849 29.3698 41.4131 29.1141C41.7944 28.9074 42.136 28.6241 42.426 28.208C42.7211 28.6295 43.0584 28.9087 43.4051 29.106Z" fill="#F0C020"/>
<path d="M35.1782 38.0468C35.1782 39.1207 34.917 40.1483 34.4426 41.0879C32.925 44.1055 29.2089 46.2385 24.8656 46.2385C20.5222 46.2385 16.8062 44.1055 15.286 41.0879C14.8116 40.1483 14.5512 39.1207 14.5512 38.0468C14.5512 33.5231 19.1694 29.8564 24.8656 29.8564C30.5618 29.8564 35.1782 33.5224 35.1782 38.0468Z" fill="#EFBF27"/>
<path d="M47.2698 39.9222C46.9308 39.9222 46.6551 39.7034 46.6551 39.4336V13.9678H5.88979C5.5499 13.9678 5.27511 13.7496 5.27511 13.4798C5.27511 13.21 5.5499 12.9912 5.88979 12.9912H47.2698C47.6097 12.9912 47.8854 13.21 47.8854 13.4798V39.4336C47.8854 39.7034 47.6097 39.9222 47.2698 39.9222ZM3.43021 13.9678H2.69208C2.35303 13.9678 2.07739 13.7496 2.07739 13.4798C2.07739 13.21 2.35303 12.9912 2.69208 12.9912H3.43021C3.7701 12.9912 4.04489 13.21 4.04489 13.4798C4.04489 13.7496 3.7701 13.9678 3.43021 13.9678Z" fill="white"/>
<path d="M47.2698 10.6582H5.88979C5.5499 10.6582 5.27511 10.4401 5.27511 10.1703C5.27511 9.90046 5.5499 9.68166 5.88979 9.68166H46.6551V6.11703C46.6551 5.84722 46.9308 5.62842 47.2698 5.62842C47.6097 5.62842 47.8854 5.84722 47.8854 6.11703V10.1703C47.8854 10.4401 47.6097 10.6582 47.2698 10.6582ZM3.43021 10.6582H2.69208C2.35303 10.6582 2.07739 10.4401 2.07739 10.1703C2.07739 9.90046 2.35303 9.68166 2.69208 9.68166H3.43021C3.7701 9.68166 4.04489 9.90046 4.04489 10.1703C4.04489 10.4401 3.7701 10.6582 3.43021 10.6582Z" fill="#C4E4FD"/>
<path d="M24.8647 44.8776C23.7495 44.8776 22.6622 44.7105 21.6323 44.3803C21.3178 44.2789 21.1656 43.9943 21.2933 43.744C21.4201 43.4943 21.7778 43.3728 22.0931 43.4742C22.975 43.7574 23.9076 43.901 24.8647 43.901C28.9451 43.901 32.2359 41.2888 32.2359 38.047C32.2359 36.4812 31.4698 35.01 30.0798 33.9059C29.8397 33.7146 29.8397 33.4058 30.0798 33.2152C30.3199 33.0246 30.7089 33.0246 30.949 33.2152C32.5715 34.5039 33.4652 36.2201 33.4652 38.047C33.4652 41.8278 29.6258 44.8776 24.8647 44.8776ZM19.3672 43.3044C19.1643 43.1701 18.9673 43.0272 18.7813 42.8788C18.5412 42.6882 18.5412 42.3788 18.7813 42.1882C19.0214 41.9976 19.4103 41.9976 19.6505 42.1889C19.8103 42.3157 19.9802 42.4385 20.1544 42.5533C20.4148 42.7258 20.4503 43.0339 20.233 43.2413C20.0166 43.4487 19.6285 43.4769 19.3672 43.3044Z" fill="#F8E5B0"/>
<mask id="mask0_627_19505" style="mask-type:luminance" maskUnits="userSpaceOnUse" x="-1" y="7" width="3" height="3">
<path d="M-0.0067749 7.98975H1.40692V9.02067H-0.0067749V7.98975Z" fill="white"/>
</mask>
<g mask="url(#mask0_627_19505)">
<path d="M1.22344 8.50473C1.22344 8.56916 1.20738 8.63158 1.17694 8.69132C1.14565 8.75105 1.10084 8.80408 1.04335 8.84972C0.985852 8.89536 0.919057 8.93093 0.843807 8.95576C0.768556 8.98059 0.689924 8.99268 0.608755 8.99268C0.526741 8.99268 0.448109 8.98059 0.372858 8.95576C0.297608 8.93093 0.231658 8.89536 0.173318 8.84972C0.115824 8.80408 0.0718573 8.75105 0.0405736 8.69132C0.00928982 8.63158 -0.0067749 8.56916 -0.0067749 8.50473C-0.0067749 8.43963 0.00928982 8.37721 0.0405736 8.31747C0.0718573 8.25774 0.115824 8.20471 0.173318 8.15907C0.231658 8.11343 0.297608 8.07786 0.372858 8.05303C0.448109 8.02819 0.526741 8.01611 0.608755 8.01611C0.689924 8.01611 0.768556 8.02819 0.843807 8.05303C0.919057 8.07786 0.985852 8.11343 1.04335 8.15907C1.10084 8.20471 1.14565 8.25774 1.17694 8.31747C1.20738 8.37721 1.22344 8.43963 1.22344 8.50473Z" fill="black"/>
</g>
<mask id="mask1_627_19505" style="mask-type:luminance" maskUnits="userSpaceOnUse" x="-1" y="0" width="51" height="42">
<path d="M-0.0067749 0.60791H49.9687V41.6665H-0.0067749V0.60791Z" fill="white"/>
</mask>
<g mask="url(#mask1_627_19505)">
<path d="M49.9679 6.11701C49.9679 4.93507 48.7579 3.97394 47.2698 3.97394H43.1463V2.31144C43.1463 1.404 42.2162 0.665039 41.0731 0.665039C39.93 0.665039 38.9999 1.40333 38.9999 2.31144V3.97394H32.4185V2.31144C32.4185 1.404 31.4884 0.665039 30.3453 0.665039C29.2022 0.665039 28.2721 1.40333 28.2721 2.31144V3.97394H21.6898V2.31144C21.6898 1.404 20.7606 0.665039 19.6175 0.665039C18.4744 0.665039 17.5443 1.40333 17.5443 2.31144V3.97394H10.9629V2.31144C10.9629 1.404 10.0328 0.665039 8.88967 0.665039C7.74654 0.665039 6.81648 1.40333 6.81648 2.31144V3.97461H2.69124C1.20653 3.97461 -0.00423832 4.93574 -0.0067749 6.11768V6.55126C-0.0067749 6.82107 0.268861 7.03921 0.608755 7.03921C0.947804 7.03921 1.22344 6.82107 1.22344 6.55126V6.11768C1.22598 5.47469 1.88463 4.95118 2.69124 4.95118H6.81648V6.61301C6.81648 7.52111 7.74654 8.25941 8.88967 8.25941C10.0328 8.25941 10.9629 7.52111 10.9629 6.61301V4.9505H17.5443V6.61301C17.5443 7.52111 18.4744 8.25941 19.6175 8.25941C20.7606 8.25941 21.6907 7.52111 21.6907 6.61301V4.9505H28.2721V6.61301C28.2721 7.52111 29.2022 8.25941 30.3453 8.25941C31.4884 8.25941 32.4185 7.52111 32.4185 6.61301V4.9505H38.9999V6.61301C38.9999 7.52111 39.93 8.25941 41.0731 8.25941C42.2162 8.25941 43.1463 7.52111 43.1463 6.61301V4.9505H47.2698C48.0798 4.9505 48.7385 5.47402 48.7385 6.11701V11.3368H1.22344V10.4575C1.22344 10.1884 0.947804 9.96957 0.608755 9.96957C0.268861 9.96957 -0.0067749 10.1884 -0.0067749 10.4575C-0.0067749 11.4133 -0.0067749 37.1972 -0.0067749 39.4329C-0.0067749 40.6148 1.20399 41.576 2.69124 41.576H7.62479C7.96468 41.576 8.24032 41.3572 8.24032 41.0873C8.24032 40.8202 7.96468 40.5994 7.62479 40.5994H2.69124C1.88209 40.5994 1.22598 40.0759 1.22344 39.4329V12.3133H48.7393V22.5112C48.7393 22.781 49.015 22.9998 49.354 22.9998C49.6939 22.9998 49.9687 22.781 49.9687 22.5112C49.9687 15.8504 49.9679 7.51037 49.9679 6.11701ZM9.73264 6.61301C9.73264 6.98216 9.3547 7.28284 8.88967 7.28284C8.42464 7.28284 8.04585 6.98216 8.04585 6.61301V2.31144C8.04585 1.94229 8.42464 1.6416 8.88967 1.6416C9.3547 1.6416 9.73264 1.94229 9.73264 2.31144V6.61301ZM20.4605 6.61301C20.4605 6.98216 20.0825 7.28284 19.6175 7.28284C19.1525 7.28284 18.7737 6.98216 18.7737 6.61301V2.31144C18.7737 1.94229 19.1525 1.6416 19.6175 1.6416C20.0825 1.6416 20.4605 1.94229 20.4605 2.31144V6.61301ZM31.1883 6.61301C31.1883 6.98216 30.8103 7.28284 30.3453 7.28284C29.8803 7.28284 29.5023 6.98216 29.5023 6.61301V2.31144C29.5023 1.94229 29.8803 1.6416 30.3453 1.6416C30.8103 1.6416 31.1883 1.94229 31.1883 2.31144V6.61301ZM41.9161 6.61301C41.9161 6.98216 41.5381 7.28284 41.0731 7.28284C40.6081 7.28284 40.2293 6.98216 40.2293 6.61301V2.31144C40.2293 1.94229 40.6081 1.6416 41.0731 1.6416C41.5381 1.6416 41.9161 1.94229 41.9161 2.31144V6.61301Z" fill="black"/>
</g>
<mask id="mask2_627_19505" style="mask-type:luminance" maskUnits="userSpaceOnUse" x="48" y="23" width="2" height="2">
<path d="M48.593 23.9692H49.9687V25.0002H48.593V23.9692Z" fill="white"/>
</mask>
<g mask="url(#mask2_627_19505)">
<path d="M49.9686 24.4645C49.9686 24.5296 49.9534 24.592 49.9221 24.6518C49.8908 24.7115 49.846 24.7645 49.7885 24.8102C49.731 24.8558 49.6642 24.8914 49.589 24.9162C49.5137 24.941 49.436 24.9531 49.3539 24.9531C49.2728 24.9531 49.1941 24.941 49.1189 24.9162C49.0436 24.8914 48.9768 24.8558 48.9194 24.8102C48.8619 24.7645 48.817 24.7115 48.7858 24.6518C48.7545 24.592 48.7393 24.5296 48.7393 24.4645C48.7393 24.4001 48.7545 24.3377 48.7858 24.2779C48.817 24.2182 48.8619 24.1652 48.9194 24.1195C48.9768 24.0739 49.0436 24.0383 49.1189 24.0135C49.1941 23.9886 49.2728 23.9766 49.3539 23.9766C49.436 23.9766 49.5137 23.9886 49.589 24.0135C49.6642 24.0383 49.731 24.0739 49.7885 24.1195C49.846 24.1652 49.8908 24.2182 49.9221 24.2779C49.9534 24.3377 49.9686 24.4001 49.9686 24.4645Z" fill="black"/>
</g>
<mask id="mask3_627_19505" style="mask-type:luminance" maskUnits="userSpaceOnUse" x="41" y="25" width="9" height="17">
<path d="M41.6666 25.8594H49.9687V41.6669H41.6666V25.8594Z" fill="white"/>
</mask>
<g mask="url(#mask3_627_19505)">
<path d="M49.354 25.9297C49.0149 25.9297 48.7393 26.1485 48.7393 26.4183V39.4331C48.7393 40.0761 48.0798 40.5996 47.2706 40.5996H42.3371C41.998 40.5996 41.7224 40.8184 41.7224 41.0875C41.7224 41.3574 41.998 41.5762 42.3371 41.5762H47.2706C48.7587 41.5762 49.9687 40.615 49.9687 39.4331V26.4183C49.9687 26.1485 49.6939 25.9297 49.354 25.9297Z" fill="black"/>
</g>
<path d="M24.8648 40.7776C24.0869 40.7776 23.4536 40.2749 23.4536 39.6567C23.4536 39.3869 23.178 39.1688 22.8389 39.1688C22.499 39.1688 22.2242 39.3869 22.2242 39.6567C22.2242 40.6554 23.1078 41.4924 24.2864 41.7025V42.4542C24.2864 42.724 24.5621 42.9421 24.9011 42.9421C25.241 42.9421 25.5167 42.724 25.5167 42.4542V41.6877C26.6581 41.4561 27.5061 40.6346 27.5061 39.6567C27.5061 38.5003 26.3216 37.5593 24.8648 37.5593C24.0869 37.5593 23.4536 37.0566 23.4536 36.4384C23.4536 35.8196 24.0869 35.3169 24.8648 35.3169C25.6435 35.3169 26.2768 35.8196 26.2768 36.4384C26.2768 36.7076 26.5516 36.9264 26.8915 36.9264C27.2313 36.9264 27.5061 36.7076 27.5061 36.4384C27.5061 35.4599 26.6581 34.639 25.5167 34.4074V33.641C25.5167 33.3711 25.241 33.1523 24.9011 33.1523C24.5621 33.1523 24.2864 33.3711 24.2864 33.641V34.3927C23.1078 34.6028 22.2242 35.439 22.2242 36.4384C22.2242 37.5949 23.4088 38.5359 24.8648 38.5359C25.6435 38.5359 26.2768 39.0386 26.2768 39.6567C26.2768 40.2749 25.6435 40.7776 24.8648 40.7776Z" fill="black"/>
<mask id="mask4_627_19505" style="mask-type:luminance" maskUnits="userSpaceOnUse" x="8" y="36" width="33" height="15">
<path d="M8.33331 36.3403H40.3679V50.0679H8.33331V36.3403Z" fill="white"/>
</mask>
<g mask="url(#mask4_627_19505)">
<path d="M39.7169 39.1923C39.3812 39.1514 39.0684 39.336 39.0185 39.6031C38.0056 44.9799 32.0752 49.0345 25.224 49.0345C17.546 49.0345 11.2976 44.0805 11.2774 37.9862L12.122 38.5487C12.3824 38.7225 12.7705 38.695 12.9887 38.489C13.2068 38.2822 13.173 37.9742 12.9126 37.801L11.0592 36.5654C10.7988 36.3922 10.4107 36.419 10.1926 36.6251L8.63683 38.0977C8.41869 38.3037 8.45251 38.6118 8.71208 38.7856C8.97334 38.9588 9.36143 38.9313 9.57872 38.7252L10.0564 38.2728C10.2687 44.7739 16.9888 50.011 25.224 50.011C32.6789 50.011 39.1318 45.5987 40.2335 39.7474C40.2842 39.4803 40.0534 39.2319 39.7169 39.1923Z" fill="black"/>
</g>
<path d="M40.384 36.1712L39.8302 36.6947C39.0329 30.6393 32.5681 25.9028 24.7362 25.9028C17.6669 25.9028 11.5927 29.7185 9.96598 35.1812C9.88734 35.4436 10.092 35.7067 10.4226 35.7691C10.7531 35.8309 11.0837 35.6685 11.1624 35.406C12.6572 30.3863 18.2393 26.8801 24.7362 26.8801C31.9627 26.8801 37.9219 31.2669 38.6152 36.8638L37.8407 36.347C37.5803 36.1739 37.1922 36.2014 36.9741 36.4074C36.7559 36.6141 36.7897 36.9222 37.0502 37.0954L38.9035 38.331C39.1741 38.5109 39.563 38.4686 39.7702 38.2713L41.3259 36.7987C41.544 36.592 41.5102 36.2839 41.2498 36.1108C40.9894 35.9376 40.6021 35.9644 40.384 36.1712Z" fill="black"/>
<path d="M17.3473 32.4166C17.0962 32.2509 16.6903 32.2804 16.4815 32.4777C14.8387 34.0362 13.9357 36.0128 13.9357 38.0465C13.9357 42.8186 18.8007 46.7268 24.8656 46.7268C30.9033 46.7268 35.7929 42.842 35.7929 38.0465C35.7929 33.269 30.9219 29.3682 24.8656 29.3682C23.3978 29.3682 21.9731 29.5964 20.6329 30.0434C20.3125 30.1501 20.1764 30.4353 20.3032 30.6823C20.4317 30.9246 20.8029 31.0454 21.1098 30.9441C22.3003 30.5461 23.5626 30.3447 24.8656 30.3447C30.2126 30.3447 34.5635 33.7812 34.5635 38.0465C34.5635 42.2481 30.3182 45.7503 24.8681 45.7503H24.863C19.401 45.7503 15.1659 42.2366 15.1659 38.0465C15.1659 36.2417 15.9674 34.4879 17.4234 33.1066C17.6534 32.8858 17.5976 32.5811 17.3473 32.4166Z" fill="black"/>
<path d="M19.106 31.8486C19.3791 31.6881 19.4357 31.3834 19.2336 31.1666C19.0392 30.9572 18.6384 30.9089 18.3754 31.0633C18.104 31.2223 18.0415 31.523 18.2452 31.7465C18.4456 31.9606 18.832 32.0096 19.106 31.8486Z" fill="black"/>
<path d="M18.8565 22.5898C19.1964 22.5898 19.472 22.371 19.472 22.1012V17.6338C19.472 17.1546 18.6891 16.962 18.3492 17.3586L16.4586 19.5594L14.5681 17.358C14.229 16.9633 13.4453 17.1539 13.4453 17.6331V22.1012C13.4453 22.371 13.7209 22.5898 14.0599 22.5898C14.3998 22.5898 14.6755 22.371 14.6755 22.1012V19.2158L15.9505 20.7011C16.1948 20.985 16.7233 20.985 16.9668 20.7011L18.2427 19.2158V22.1012C18.2418 22.371 18.5175 22.5898 18.8565 22.5898Z" fill="black"/>
<path d="M27.9069 22.1011V19.1915L30.697 22.3796C31.0395 22.7702 31.8165 22.5803 31.8165 22.1011V17.6337C31.8165 17.3639 31.5417 17.1451 31.2018 17.1451C30.8619 17.1451 30.5871 17.3639 30.5871 17.6337V20.5433L27.7969 17.3545C27.4545 16.9632 26.6775 17.1565 26.6775 17.6337V22.1011C26.6775 22.3709 26.9531 22.5897 27.2922 22.5897C27.6321 22.5897 27.9069 22.3709 27.9069 22.1011Z" fill="black"/>
<path d="M35.4201 22.5896C35.7591 22.5896 36.0348 22.3708 36.0348 22.101V18.1216H37.3749C37.714 18.1216 37.9896 17.9034 37.9896 17.6336C37.9896 17.3638 37.714 17.145 37.3749 17.145H33.4653C33.1254 17.145 32.8506 17.3638 32.8506 17.6336C32.8506 17.9034 33.1254 18.1216 33.4653 18.1216H34.8054V22.101C34.8054 22.3708 35.0802 22.5896 35.4201 22.5896Z" fill="black"/>
<path d="M39.6374 17.145C39.2983 17.145 39.0227 17.3638 39.0227 17.6336V22.101C39.0227 22.3708 39.2983 22.5896 39.6374 22.5896C39.9773 22.5896 40.2529 22.3708 40.2529 22.101V20.4559H42.5544V22.101C42.5544 22.3708 42.83 22.5896 43.1691 22.5896C43.509 22.5896 43.7846 22.3708 43.7846 22.101V17.6336C43.7846 17.3638 43.509 17.145 43.1691 17.145C42.83 17.145 42.5544 17.3638 42.5544 17.6336V19.4794H40.2529V17.6336C40.2529 17.3638 39.9773 17.145 39.6374 17.145Z" fill="black"/>
<path d="M25.6443 20.5486V19.1854C25.6443 18.0605 24.4918 17.145 23.0747 17.145C21.6577 17.145 20.5052 18.0605 20.5052 19.1854V20.5486C20.5052 21.6741 21.6577 22.5896 23.0747 22.5896C24.4918 22.5896 25.6443 21.6741 25.6443 20.5486ZM21.7346 20.5486V19.1854C21.7346 18.5988 22.3358 18.1216 23.0747 18.1216C23.8137 18.1216 24.4149 18.5988 24.4149 19.1854V20.5486C24.4149 21.1352 23.8137 21.6124 23.0747 21.6124C22.3358 21.613 21.7346 21.1352 21.7346 20.5486Z" fill="black"/>
<path d="M6.79365 21.6134C6.4546 21.6134 6.17897 21.8322 6.17897 22.1014C6.17897 22.3712 6.4546 22.59 6.79365 22.59H9.79183C10.1292 22.59 10.4065 22.3712 10.4065 22.1014C10.4065 21.8322 10.1292 21.6134 9.79183 21.6134H8.90658V17.634C8.90658 17.236 8.34262 17.0071 7.93509 17.236L6.43769 18.0817C6.1536 18.2421 6.0978 18.5461 6.29227 18.7636C6.48166 18.9743 6.88243 19.0287 7.15046 18.8784L7.67721 18.5797V21.6134H6.79365Z" fill="black"/>
</g>
<defs>
<clipPath id="clip0_627_19505">
<rect width="50" height="50" fill="white"/>
</clipPath>
</defs>
</svg>
