<svg width="24" height="25" viewBox="0 0 24 25" fill="none" xmlns="http://www.w3.org/2000/svg">
<path d="M20.9727 7.50549C20.5083 8.12501 19.9469 8.66542 19.3102 9.10585C19.3102 9.26768 19.3102 9.42951 19.3102 9.60034C19.3153 12.5392 18.1414 15.3572 16.0517 17.4226C13.9619 19.488 11.1311 20.628 8.19393 20.587C6.49587 20.5927 4.81955 20.205 3.2963 19.4542C3.21416 19.4183 3.16119 19.3371 3.1615 19.2474V19.1485C3.1615 19.0194 3.26611 18.9148 3.39515 18.9148C5.0643 18.8597 6.6739 18.281 7.99622 17.2605C6.48541 17.23 5.12607 16.335 4.50048 14.9588C4.46889 14.8837 4.47872 14.7974 4.52645 14.7313C4.57417 14.6652 4.65288 14.6288 4.73413 14.6352C5.1933 14.6813 5.65706 14.6386 6.10008 14.5093C4.43227 14.1631 3.17909 12.7785 2.99974 11.0838C2.99337 11.0025 3.0298 10.9238 3.09588 10.876C3.16195 10.8283 3.24812 10.8184 3.32326 10.8501C3.77082 11.0476 4.25397 11.1516 4.74312 11.1557C3.28172 10.1965 2.65049 8.37214 3.20643 6.71431C3.26382 6.55322 3.40169 6.43421 3.56938 6.40103C3.73706 6.36784 3.90984 6.42537 4.0242 6.55248C5.99627 8.65134 8.70592 9.90205 11.5818 10.0409C11.5082 9.74694 11.472 9.44485 11.474 9.14181C11.5009 7.55281 12.4841 6.1373 13.9633 5.55796C15.4424 4.97863 17.1248 5.35012 18.2229 6.49853C18.9713 6.35594 19.6949 6.10454 20.3706 5.7523C20.4201 5.7214 20.4829 5.7214 20.5324 5.7523C20.5633 5.80182 20.5633 5.86461 20.5324 5.91413C20.2051 6.66361 19.6522 7.29221 18.9508 7.71228C19.565 7.64105 20.1684 7.49616 20.7481 7.28073C20.7969 7.24751 20.861 7.24751 20.9098 7.28073C20.9507 7.29943 20.9813 7.3352 20.9934 7.37851C21.0055 7.42182 20.9979 7.46827 20.9727 7.50549Z" fill="#151AA5"/>
</svg>
