<svg width="20" height="20" viewBox="0 0 20 20" fill="none" xmlns="http://www.w3.org/2000/svg">
<path d="M18.9 8.92339C19.1369 9.2187 19.268 9.60238 19.268 10.0002C19.268 10.398 19.1369 10.7817 18.9 11.077C17.4 12.8931 13.9857 16.4288 9.99999 16.4288C6.01428 16.4288 2.59999 12.8931 1.09999 11.077C0.863075 10.7817 0.731934 10.398 0.731934 10.0002C0.731934 9.60238 0.863075 9.2187 1.09999 8.92339C2.59999 7.10729 6.01428 3.57153 9.99999 3.57153C13.9857 3.57153 17.4 7.10729 18.9 8.92339Z" stroke="black" stroke-linecap="round" stroke-linejoin="round"/>
<path d="M10.0002 12.8574C11.5782 12.8574 12.8574 11.5782 12.8574 10.0002C12.8574 8.42225 11.5782 7.14307 10.0002 7.14307C8.42225 7.14307 7.14307 8.42225 7.14307 10.0002C7.14307 11.5782 8.42225 12.8574 10.0002 12.8574Z" stroke="black" stroke-linecap="round" stroke-linejoin="round"/>
</svg>
