<svg width="150" height="150" viewBox="0 0 150 150" fill="none" xmlns="http://www.w3.org/2000/svg">
<g clip-path="url(#clip0_701_18226)">
<path d="M75.3614 150.723C116.982 150.723 150.723 116.982 150.723 75.3614C150.723 33.7405 116.982 0 75.3614 0C33.7405 0 0 33.7405 0 75.3614C0 116.982 33.7405 150.723 75.3614 150.723Z" fill="#FF9F00"/>
<path d="M104.334 84.9548C117.473 71.8164 114.997 48.0382 98.8033 31.8449C82.61 15.6517 58.8319 13.1752 45.6934 26.3137C32.5549 39.4522 35.0313 63.2303 51.2246 79.4236C67.4179 95.6169 91.196 98.0933 104.334 84.9548Z" fill="#154A87"/>
<path d="M123.27 19.8587L117.868 14.4571C113.329 9.94301 107.187 7.40918 100.785 7.40918C94.3829 7.40918 88.2411 9.94301 83.7014 14.4571L61.3 36.8432L104.468 72.8279L123.27 54.0256C127.784 49.4859 130.318 43.3442 130.318 36.9422C130.318 30.5402 127.784 24.3984 123.27 19.8587V19.8587Z" fill="#A19289"/>
<path d="M101.743 96.0014C116.663 81.0817 116.663 56.892 101.743 41.9722C86.8231 27.0524 62.6334 27.0524 47.7136 41.9722C32.7938 56.892 32.7938 81.0817 47.7136 96.0014C62.6334 110.921 86.8231 110.921 101.743 96.0014Z" fill="#262424"/>
<path d="M45.8706 94.9371C49.4486 91.3591 49.4487 85.5579 45.8706 81.9799C42.2926 78.4019 36.4914 78.4019 32.9134 81.9799C29.3354 85.5579 29.3354 91.3591 32.9134 94.9371C36.4914 98.5151 42.2926 98.5151 45.8706 94.9371Z" fill="#944732"/>
<path d="M116.081 94.9356C119.659 91.3576 119.659 85.5565 116.081 81.9784C112.503 78.4004 106.702 78.4004 103.124 81.9784C99.5461 85.5565 99.5461 91.3576 103.124 94.9356C106.702 98.5137 112.503 98.5137 116.081 94.9356Z" fill="#944732"/>
<path d="M75.7695 47.9937H73.2209C54.6924 47.9937 39.6721 63.014 39.6721 81.5424V91.2374C39.6721 109.766 54.6924 124.786 73.2209 124.786H75.7695C94.298 124.786 109.318 109.766 109.318 91.2374V81.5424C109.318 63.014 94.298 47.9937 75.7695 47.9937Z" fill="#944732"/>
<path d="M74.4968 59.6894C84.8121 59.6894 93.1743 56.3303 93.1743 52.1867C93.1743 48.0431 84.8121 44.6841 74.4968 44.6841C64.1815 44.6841 55.8193 48.0431 55.8193 52.1867C55.8193 56.3303 64.1815 59.6894 74.4968 59.6894Z" fill="#262424"/>
<path d="M61.5074 86.7616C61.8474 84.6668 60.4249 82.6929 58.3301 82.3529C56.2352 82.0128 54.2614 83.4354 53.9214 85.5302C53.5813 87.625 55.0039 89.5989 57.0987 89.9389C59.1935 90.279 61.1674 88.8564 61.5074 86.7616Z" fill="#262424"/>
<path d="M94.3586 87.0454C94.8569 84.9825 93.5885 82.9062 91.5256 82.4079C89.4627 81.9096 87.3864 83.1779 86.8881 85.2408C86.3898 87.3038 87.6582 89.38 89.7211 89.8783C91.784 90.3767 93.8603 89.1083 94.3586 87.0454Z" fill="#262424"/>
<path d="M53.2158 93.6855C53.2158 93.6855 62.5972 103.907 74.1678 103.907C85.7385 103.907 95.1229 93.6855 95.1229 93.6855H53.2158Z" fill="#FFFEF9"/>
<path d="M84.6057 133.136H64.3844C62.591 133.136 60.8152 133.489 59.1584 134.175C57.5015 134.862 55.996 135.867 54.7279 137.136C53.4598 138.404 52.4539 139.909 51.7676 141.566C51.0813 143.223 50.728 144.999 50.728 146.792V155.461H58.7118V177.783H98.2651V146.792C98.2651 144.999 97.9118 143.222 97.2253 141.565C96.5388 139.908 95.5326 138.403 94.2642 137.135C92.9957 135.866 91.4899 134.861 89.8327 134.174C88.1755 133.488 86.3993 133.135 84.6057 133.136Z" fill="#E3DEDC"/>
<path d="M66.0928 111.961H82.8976V134.442C82.8976 136.67 82.0125 138.807 80.437 140.382C78.8616 141.958 76.7248 142.843 74.4967 142.843V142.843C72.2687 142.843 70.1319 141.958 68.5564 140.382C66.9809 138.807 66.0958 136.67 66.0958 134.442V111.961H66.0928Z" fill="#944732"/>
</g>
<defs>
<clipPath id="clip0_701_18226">
<rect width="150" height="150" rx="27.4042" fill="white"/>
</clipPath>
</defs>
</svg>
