<svg width="150" height="150" viewBox="0 0 150 150" fill="none" xmlns="http://www.w3.org/2000/svg">
<g clip-path="url(#clip0_701_18657)">
<path d="M75.3614 150.723C116.982 150.723 150.723 116.982 150.723 75.3614C150.723 33.7405 116.982 0 75.3614 0C33.7405 0 0 33.7405 0 75.3614C0 116.982 33.7405 150.723 75.3614 150.723Z" fill="#00BBC4"/>
<path d="M32.45 181.476L26.0283 177.122L60.7129 125.968C60.9986 125.546 61.3648 125.184 61.7903 124.904C62.2159 124.623 62.6926 124.429 63.1931 124.333C63.6936 124.237 64.2081 124.241 64.7073 124.343C65.2065 124.446 65.6805 124.646 66.1023 124.932V124.932C66.5244 125.219 66.8861 125.585 67.1665 126.011C67.447 126.437 67.6409 126.914 67.737 127.414C67.8331 127.915 67.8297 128.43 67.7268 128.929C67.624 129.429 67.4238 129.903 67.1376 130.325L32.45 181.476Z" fill="#F9B0A1"/>
<path d="M66.102 124.948C65.6802 124.662 65.2062 124.462 64.707 124.359C64.2078 124.256 63.6932 124.253 63.1927 124.349C62.6922 124.445 62.2156 124.639 61.79 124.919C61.3644 125.2 60.9983 125.561 60.7125 125.983L54.0898 135.891L60.609 140.106L67.1373 130.341C67.4234 129.919 67.6237 129.444 67.7265 128.945C67.8293 128.445 67.8328 127.931 67.7367 127.43C67.6405 126.929 67.4467 126.452 67.1662 126.026C66.8857 125.601 66.5241 125.234 66.102 124.948V124.948Z" fill="#F16625"/>
<path d="M117.704 181.65L124.129 177.293L89.4444 126.138C89.1583 125.716 88.7919 125.355 88.3661 125.074C87.9403 124.794 87.4633 124.6 86.9626 124.504C86.4618 124.408 85.947 124.411 85.4476 124.514C84.9482 124.617 84.4739 124.817 84.0519 125.103V125.103C83.2007 125.681 82.6139 126.574 82.4204 127.584C82.2268 128.595 82.4424 129.641 83.0196 130.493L117.704 181.65Z" fill="#F9B0A1"/>
<path d="M84.0397 125.112C84.4617 124.826 84.936 124.626 85.4354 124.523C85.9348 124.42 86.4496 124.417 86.9504 124.513C87.4511 124.609 87.9281 124.803 88.3539 125.083C88.7797 125.364 89.1461 125.726 89.4322 126.148L96.0549 136.056L89.5327 140.27L83.0074 130.502C82.4302 129.65 82.2146 128.604 82.4082 127.593C82.6017 126.583 83.1885 125.691 84.0397 125.112V125.112Z" fill="#F16625"/>
<path d="M125.228 108.67C138.486 108.67 149.234 97.9219 149.234 84.6638C149.234 71.4056 138.486 60.6577 125.228 60.6577C111.97 60.6577 101.222 71.4056 101.222 84.6638C101.222 97.9219 111.97 108.67 125.228 108.67Z" fill="#AC5B0F"/>
<path d="M24.2255 108.67C37.4837 108.67 48.2316 97.9219 48.2316 84.6638C48.2316 71.4056 37.4837 60.6577 24.2255 60.6577C10.9674 60.6577 0.219482 71.4056 0.219482 84.6638C0.219482 97.9219 10.9674 108.67 24.2255 108.67Z" fill="#AC5B0F"/>
<path d="M74.7285 116.249C50.6433 116.249 31.0493 96.6546 31.0493 72.5694V52.3999C31.0585 28.3177 50.6433 8.7207 74.7285 8.7207C98.8137 8.7207 118.408 28.3177 118.408 52.3999V72.5694C118.408 96.6546 98.8107 116.249 74.7285 116.249Z" fill="#AC5B0F"/>
<path d="M83.711 104.574H66.553V136.107H83.711V104.574Z" fill="#F9B0A1"/>
<path d="M74.7284 12.0186H74.7253C52.4232 12.0186 34.3438 30.098 34.3438 52.4001V72.5726C34.3438 94.8747 52.4232 112.954 74.7253 112.954H74.7284C97.0305 112.954 115.11 94.8747 115.11 72.5726V52.4001C115.11 30.098 97.0305 12.0186 74.7284 12.0186Z" fill="#F9B0A1"/>
<path d="M118.407 61.3549V53.2159C118.407 28.0436 97.5041 7.43872 72.3684 8.78457C49.3763 10.0147 31.0581 29.1063 31.0581 52.3998V61.9151C31.0581 61.9852 64.9845 83.1899 83.735 43.0733C91.4082 55.7705 103.11 61.5284 118.237 61.3762C118.298 61.4584 118.407 61.4706 118.407 61.3549Z" fill="#AC5B0F"/>
<path d="M31.2834 89.3988C37.0229 89.3988 41.6756 84.746 41.6756 79.0065C41.6756 73.267 37.0229 68.6143 31.2834 68.6143C25.5439 68.6143 20.8911 73.267 20.8911 79.0065C20.8911 84.746 25.5439 89.3988 31.2834 89.3988Z" fill="#F9B0A1"/>
<path d="M118.17 89.3988C123.91 89.3988 128.562 84.746 128.562 79.0065C128.562 73.267 123.91 68.6143 118.17 68.6143C112.431 68.6143 107.778 73.267 107.778 79.0065C107.778 84.746 112.431 89.3988 118.17 89.3988Z" fill="#F9B0A1"/>
<path d="M59.1295 81.1743C58.4583 81.8453 57.6032 82.3022 56.6724 82.4873C55.7415 82.6724 54.7767 82.5773 53.8999 82.2141C53.0231 81.8509 52.2737 81.2358 51.7464 80.4467C51.2192 79.6575 50.9377 78.7298 50.9377 77.7807C50.9377 76.8316 51.2192 75.9039 51.7464 75.1147C52.2737 74.3256 53.0231 73.7105 53.8999 73.3473C54.7767 72.9841 55.7415 72.889 56.6724 73.0741C57.6032 73.2592 58.4583 73.7161 59.1295 74.3872C59.5755 74.8326 59.9294 75.3616 60.1708 75.9439C60.4123 76.5262 60.5366 77.1503 60.5366 77.7807C60.5366 78.4111 60.4123 79.0353 60.1708 79.6176C59.9294 80.1999 59.5755 80.7288 59.1295 81.1743V81.1743Z" fill="#7E341F"/>
<path d="M60.3899 86.8501C60.4448 90.6163 61.9794 94.2097 64.6622 96.8536C67.3449 99.4975 70.9602 100.98 74.7268 100.98C78.4934 100.98 82.1088 99.4975 84.7915 96.8536C87.4742 94.2097 89.0089 90.6163 89.0638 86.8501H60.3899Z" fill="white"/>
<path d="M97.1143 81.1743C96.4432 81.8453 95.5881 82.3022 94.6573 82.4873C93.7264 82.6724 92.7616 82.5773 91.8848 82.2141C91.008 81.8509 90.2585 81.2358 89.7313 80.4467C89.204 79.6575 88.9226 78.7298 88.9226 77.7807C88.9226 76.8316 89.204 75.9039 89.7313 75.1147C90.2585 74.3256 91.008 73.7105 91.8848 73.3473C92.7616 72.9841 93.7264 72.889 94.6573 73.0741C95.5881 73.2592 96.4432 73.7161 97.1143 74.3872C97.5604 74.8326 97.9143 75.3616 98.1557 75.9439C98.3971 76.5262 98.5214 77.1503 98.5214 77.7807C98.5214 78.4111 98.3971 79.0353 98.1557 79.6176C97.9143 80.1999 97.5604 80.7288 97.1143 81.1743V81.1743Z" fill="#7E341F"/>
<path d="M68.206 122.174H81.908C83.124 122.174 84.3281 122.413 85.4515 122.879C86.5749 123.344 87.5957 124.026 88.4555 124.886C89.3154 125.746 89.9974 126.766 90.4628 127.89C90.9281 129.013 91.1676 130.217 91.1676 131.433V152.443H58.9373V131.433C58.9373 130.217 59.1771 129.012 59.643 127.888C60.1089 126.764 60.7918 125.743 61.6526 124.883C62.5133 124.023 63.5352 123.341 64.6597 122.876C65.7841 122.411 66.9892 122.173 68.206 122.174V122.174Z" fill="white"/>
<path d="M92.3163 128.69H57.5312V134.232H92.3163V128.69Z" fill="#F16625"/>
<path d="M92.3158 141.506H57.5308V147.048H92.3158V141.506Z" fill="#F16625"/>
</g>
<defs>
<clipPath id="clip0_701_18657">
<rect width="150" height="150" fill="white"/>
</clipPath>
</defs>
</svg>
