<svg width="150" height="150" viewBox="0 0 150 150" fill="none" xmlns="http://www.w3.org/2000/svg">
<g clip-path="url(#clip0_701_18339)">
<path d="M75.3614 150.723C116.982 150.723 150.723 116.982 150.723 75.3614C150.723 33.7405 116.982 0 75.3614 0C33.7405 0 0 33.7405 0 75.3614C0 116.982 33.7405 150.723 75.3614 150.723Z" fill="#7E341F"/>
<path d="M84.9164 115.618H67.7583V147.151H84.9164V115.618Z" fill="#FFDACD"/>
<path d="M66.4188 133.218H86.2533C87.067 133.218 87.8728 133.378 88.6246 133.689C89.3764 134.001 90.0594 134.457 90.6348 135.033C91.2102 135.608 91.6666 136.291 91.978 137.043C92.2894 137.795 92.4497 138.6 92.4497 139.414V163.487H60.2224V139.414C60.2224 137.771 60.8752 136.195 62.0373 135.033C63.1993 133.871 64.7754 133.218 66.4188 133.218Z" fill="#262424"/>
<path d="M84.9196 129.938H67.7707C67.315 129.938 66.9456 130.308 66.9456 130.764V134.07C66.9456 134.526 67.315 134.896 67.7707 134.896H84.9196C85.3754 134.896 85.7448 134.526 85.7448 134.07V130.764C85.7448 130.308 85.3754 129.938 84.9196 129.938Z" fill="#262424"/>
<path d="M122.372 92.2605C123.934 87.1174 124.726 81.7715 124.723 76.3966C124.723 47.9632 103.016 24.8311 76.3361 24.8311C49.6566 24.8311 27.9495 47.9723 27.9495 76.3966C27.9459 81.7718 28.739 87.1179 30.3032 92.2605H122.372Z" fill="#F16625"/>
<path d="M43.1548 91.7182C44.0744 86.0529 40.2272 80.7147 34.5619 79.7951C28.8965 78.8755 23.5584 82.7227 22.6387 88.388C21.7191 94.0533 25.5663 99.3915 31.2316 100.311C36.897 101.231 42.2351 97.3835 43.1548 91.7182Z" fill="#FFDACD"/>
<path d="M130.041 91.7202C130.961 86.0548 127.113 80.7167 121.448 79.797C115.783 78.8774 110.445 82.7246 109.525 88.3899C108.605 94.0553 112.453 99.3934 118.118 100.313C123.783 101.233 129.121 97.3855 130.041 91.7202Z" fill="#FFDACD"/>
<path d="M76.336 123.014C100.328 123.014 119.778 102.141 119.778 76.3935C119.778 50.6457 100.328 29.7729 76.336 29.7729C52.3438 29.7729 32.8943 50.6457 32.8943 76.3935C32.8943 102.141 52.3438 123.014 76.336 123.014Z" fill="#FFDACD"/>
<path d="M46.9799 84.4899C46.9799 84.907 46.3709 85.245 45.6066 85.245C44.8424 85.245 44.2334 84.907 44.2334 84.4899C44.2334 84.0727 44.8424 83.7378 45.6066 83.7378C46.3709 83.7378 46.9799 84.0758 46.9799 84.4899Z" fill="#F9B0A1"/>
<path d="M51.2763 84.4899C51.2763 84.907 50.6673 85.245 49.903 85.245C49.1388 85.245 48.5298 84.907 48.5298 84.4899C48.5298 84.0727 49.1388 83.7378 49.903 83.7378C50.6673 83.7378 51.2763 84.0758 51.2763 84.4899Z" fill="#F9B0A1"/>
<path d="M49.2879 86.4754C49.2879 86.8925 48.6789 87.2305 47.9146 87.2305C47.1504 87.2305 46.5444 86.8925 46.5444 86.4754C46.5444 86.0582 47.1534 85.7202 47.9146 85.7202C48.6759 85.7202 49.2879 86.0552 49.2879 86.4754Z" fill="#F9B0A1"/>
<path d="M53.6268 86.4754C53.6268 86.8925 53.0178 87.2305 52.2535 87.2305C51.4892 87.2305 50.8833 86.8925 50.8833 86.4754C50.8833 86.0582 51.4923 85.7202 52.2535 85.7202C53.0147 85.7202 53.6268 86.0552 53.6268 86.4754Z" fill="#F9B0A1"/>
<path d="M55.5699 84.4899C55.5699 84.907 54.9609 85.245 54.1997 85.245C53.4384 85.245 52.8264 84.907 52.8264 84.4899C52.8264 84.0727 53.4354 83.7378 54.1997 83.7378C54.9639 83.7378 55.5699 84.0758 55.5699 84.4899Z" fill="#F9B0A1"/>
<path d="M99.8458 84.4899C99.8458 84.907 99.2368 85.245 98.4725 85.245C97.7082 85.245 97.1023 84.907 97.1023 84.4899C97.1023 84.0727 97.7113 83.7378 98.4725 83.7378C99.2337 83.7378 99.8458 84.0758 99.8458 84.4899Z" fill="#F9B0A1"/>
<path d="M104.136 84.4899C104.136 84.907 103.527 85.245 102.763 85.245C101.999 85.245 101.393 84.907 101.393 84.4899C101.393 84.0727 102.002 83.7378 102.763 83.7378C103.524 83.7378 104.136 84.0758 104.136 84.4899Z" fill="#F9B0A1"/>
<path d="M102.154 86.4754C102.154 86.8925 101.545 87.2305 100.784 87.2305C100.022 87.2305 99.4104 86.8925 99.4104 86.4754C99.4104 86.0582 100.019 85.7202 100.784 85.7202C101.548 85.7202 102.154 86.0552 102.154 86.4754Z" fill="#F9B0A1"/>
<path d="M106.493 86.4754C106.493 86.8925 105.884 87.2305 105.119 87.2305C104.355 87.2305 103.749 86.8925 103.749 86.4754C103.749 86.0582 104.358 85.7202 105.119 85.7202C105.881 85.7202 106.493 86.0552 106.493 86.4754Z" fill="#F9B0A1"/>
<path d="M108.438 84.4899C108.438 84.907 107.829 85.245 107.065 85.245C106.301 85.245 105.692 84.907 105.692 84.4899C105.692 84.0727 106.301 83.7378 107.065 83.7378C107.829 83.7378 108.438 84.0758 108.438 84.4899Z" fill="#F9B0A1"/>
<path d="M76.607 91.2773C71.1912 91.2773 65.6971 89.6858 60.125 86.5029C59.8822 86.3227 59.7138 86.0597 59.6518 85.7638C59.5898 85.4678 59.6383 85.1594 59.7884 84.8968C59.9384 84.6343 60.1794 84.4358 60.4659 84.339C60.7524 84.2422 61.0644 84.2537 61.3429 84.3714C71.7748 90.3425 81.5672 90.3486 91.2805 84.3928C91.4189 84.3016 91.5742 84.2392 91.7372 84.2093C91.9003 84.1794 92.0676 84.1825 92.2294 84.2186C92.3912 84.2546 92.544 84.3229 92.6789 84.4192C92.8138 84.5155 92.9279 84.638 93.0145 84.7793C93.1011 84.9207 93.1584 85.078 93.183 85.2419C93.2076 85.4058 93.1989 85.573 93.1576 85.7335C93.1163 85.894 93.0431 86.0445 92.9424 86.1762C92.8417 86.3078 92.7156 86.4179 92.5715 86.4998C87.3891 89.6787 82.0361 91.2773 76.607 91.2773Z" fill="#AC5B0F"/>
<path d="M76.336 22.1029C68.2792 21.3752 70.7486 12.3288 73.1997 6.53125C67.942 6.98695 62.9306 8.96299 58.7767 12.2183C54.6229 15.4736 51.5063 19.8675 49.8072 24.8639C48.108 29.8603 47.8997 35.2433 49.2076 40.356C50.5156 45.4688 53.2833 50.0904 57.1731 53.657C61.063 57.2236 65.9067 59.581 71.1135 60.4417C76.3203 61.3023 81.665 60.629 86.4956 58.5039C91.3263 56.3787 95.434 52.8936 98.3176 48.4736C101.201 44.0537 102.736 38.8901 102.735 33.6127C102.738 32.1755 91.1769 23.4457 76.336 22.1029Z" fill="#F16625"/>
<path d="M59.9847 74.6794C59.9841 75.4164 59.7651 76.1368 59.3554 76.7495C58.9457 77.3623 58.3637 77.8399 57.6828 78.1221C57.0019 78.4043 56.2526 78.4784 55.5296 78.3352C54.8066 78.1919 54.1422 77.8376 53.6204 77.317C53.0986 76.7965 52.7426 76.133 52.5976 75.4103C52.4525 74.6877 52.5249 73.9382 52.8054 73.2566C53.0859 72.575 53.5621 71.9918 54.1738 71.5806C54.7856 71.1694 55.5054 70.9487 56.2425 70.9463C56.7335 70.9451 57.2199 71.0408 57.6739 71.2278C58.1278 71.4149 58.5405 71.6897 58.8881 72.0365C59.2357 72.3832 59.5115 72.7952 59.6996 73.2487C59.8878 73.7022 59.9847 74.1884 59.9847 74.6794V74.6794Z" fill="#AC5B0F"/>
<path d="M99.4649 74.6793C99.4643 75.4169 99.245 76.1378 98.8348 76.7508C98.4246 77.3638 97.8418 77.8414 97.1602 78.1233C96.4786 78.4051 95.7287 78.4785 95.0053 78.3343C94.282 78.19 93.6177 77.8345 93.0963 77.3127C92.575 76.791 92.22 76.1263 92.0763 75.4029C91.9327 74.6794 92.0067 73.9296 92.2891 73.2482C92.5715 72.5668 93.0496 71.9844 93.6629 71.5747C94.2763 71.165 94.9973 70.9463 95.7349 70.9463C96.7244 70.9471 97.6732 71.3408 98.3726 72.0408C99.072 72.7407 99.4649 73.6898 99.4649 74.6793Z" fill="#AC5B0F"/>
<path d="M68.3858 145.275H60.2224V179.387H68.3858V145.275Z" fill="#FFDACD"/>
<path d="M84.2861 179.388H92.4495V145.276H84.2861V179.388Z" fill="#FFDACD"/>
</g>
<defs>
<clipPath id="clip0_701_18339">
<rect width="150" height="150" fill="white"/>
</clipPath>
</defs>
</svg>
