<svg width="150" height="150" viewBox="0 0 150 150" fill="none" xmlns="http://www.w3.org/2000/svg">
<g clip-path="url(#clip0_701_18816)">
<path d="M75 150C116.421 150 150 116.421 150 75C150 33.5786 116.421 0 75 0C33.5786 0 0 33.5786 0 75C0 116.421 33.5786 150 75 150Z" fill="#FF7E25"/>
<path d="M41.1331 188.809H30.3513V179.888C30.3513 167.961 33.8331 157.658 40.421 150.088C46.8634 142.685 55.7756 138.609 65.515 138.609V149.394C51.1604 149.394 41.1331 161.934 41.1331 179.888V188.809Z" fill="#A19289"/>
<path d="M108.866 188.809H119.648V179.888C119.648 167.961 116.166 157.658 109.579 150.088C103.136 142.685 94.224 138.609 84.4846 138.609V149.394C98.8392 149.394 108.866 161.934 108.866 179.888V188.809Z" fill="#A19289"/>
<path d="M95.6574 144.642V182.685H54.3423V144.642C54.3423 139.867 61.2847 136 66.0574 136H83.9362C88.715 136 95.6574 139.867 95.6574 144.642Z" fill="#A19289"/>
<path d="M63.8544 139.309H86.1423C88.4702 139.309 90.3574 137.422 90.3574 135.094V135.091C90.3574 132.763 88.4702 130.876 86.1423 130.876H63.8544C61.5264 130.876 59.6392 132.763 59.6392 135.091V135.094C59.6392 137.422 61.5264 139.309 63.8544 139.309Z" fill="#BD0000"/>
<path d="M100.952 87.9062C104.654 88.5451 108.459 87.6926 111.535 85.5349C114.61 83.3773 116.707 80.0899 117.367 76.3911L119.858 62.2214C120.497 58.5189 119.645 54.7136 117.487 51.6376C115.329 48.5616 112.042 46.465 108.342 45.8062V45.8062C104.64 45.1665 100.835 46.0187 97.7587 48.1765C94.6827 50.3343 92.5861 53.6222 91.9273 57.3214L89.4364 71.4911C88.7966 75.1936 89.6488 78.9988 91.8066 82.0748C93.9644 85.1508 97.2523 87.2474 100.952 87.9062Z" fill="#AC5B0F"/>
<path d="M52.6849 88.1003C56.4173 87.6796 59.8317 85.799 62.1823 82.8693C64.5328 79.9396 65.6286 76.1989 65.2303 72.4639L63.6606 58.1639C63.2392 54.4318 61.3584 51.0179 58.4289 48.6675C55.4994 46.3171 51.759 45.221 48.0243 45.6185V45.6185C44.2921 46.04 40.8783 47.9207 38.5279 50.8502C36.1775 53.7797 35.0814 57.5201 35.4788 61.2548L37.0485 75.5549C37.4677 79.288 39.3479 82.7033 42.2779 85.0542C45.208 87.405 48.9497 88.5002 52.6849 88.1003V88.1003Z" fill="#AC5B0F"/>
<path d="M87.4118 96.085H87.4148C103.602 96.085 116.724 82.9628 116.724 66.7759V43.6153C116.724 27.4283 103.602 14.3062 87.4148 14.3062H87.4118C71.2248 14.3062 58.1027 27.4283 58.1027 43.6153V66.7759C58.1027 82.9628 71.2248 96.085 87.4118 96.085Z" fill="#AC5B0F"/>
<path d="M74.9997 127.739C94.9573 127.739 111.285 111.412 111.285 91.4576V74.1849C111.285 54.2273 94.9573 39.2637 74.9997 39.2637C55.0421 39.2637 38.7148 54.2273 38.7148 74.1849V91.4576C38.7148 111.412 55.0421 127.739 74.9997 127.739Z" fill="#FFDACD"/>
<path d="M117.701 98.452C121.76 94.908 122.178 88.744 118.634 84.6843C115.09 80.6246 108.927 80.2065 104.867 83.7505C100.807 87.2945 100.389 93.4585 103.933 97.5182C107.477 101.578 113.641 101.996 117.701 98.452Z" fill="#FFDACD"/>
<path d="M47.5852 95.183C49.8328 90.2851 47.6844 84.4925 42.7865 82.2449C37.8886 79.9973 32.096 82.1458 29.8484 87.0437C27.6008 91.9416 29.7493 97.7341 34.6472 99.9817C39.5451 102.229 45.3376 100.081 47.5852 95.183Z" fill="#FFDACD"/>
<path d="M72.3484 72.4242C57.8362 72.4242 44.7514 66.1515 35.3787 54.6606C33.9514 52.9114 32.8827 50.8983 32.2335 48.7361C31.5843 46.5739 31.3673 44.305 31.5949 42.0589C31.8226 39.8129 32.4904 37.6336 33.5602 35.6457C34.6301 33.6577 36.081 31.8999 37.8302 30.4727C39.5793 29.0455 41.5925 27.9767 43.7547 27.3275C45.9169 26.6783 48.1858 26.4613 50.4318 26.689C52.6779 26.9166 54.8571 27.5844 56.8451 28.6543C58.833 29.7241 60.5908 31.1751 62.0181 32.9242C64.9181 36.4788 68.4332 38.1697 72.7878 38.0333C78.4181 37.8848 82.8574 34.8606 83.7605 33.6242C85.0851 31.782 86.7613 30.2203 88.6924 29.0291C90.6234 27.8378 92.7713 27.0407 95.0119 26.6835C97.2526 26.3264 99.5418 26.4163 101.748 26.9482C103.953 27.4801 106.032 28.4433 107.864 29.7824C109.695 31.1215 111.244 32.81 112.42 34.7504C113.596 36.6909 114.376 38.8449 114.715 41.0883C115.055 43.3318 114.947 45.6202 114.397 47.8217C113.848 50.0231 112.869 52.0941 111.515 53.9151C103.597 64.7515 88.7544 72.0091 73.6968 72.4C73.2484 72.4242 72.7968 72.4242 72.3484 72.4242Z" fill="#AC5B0F"/>
<path d="M96.7914 93.6945C98.737 91.749 98.737 88.5947 96.7914 86.6492C94.8459 84.7037 91.6916 84.7037 89.7461 86.6492C87.8005 88.5947 87.8005 91.749 89.7461 93.6945C91.6916 95.6401 94.8459 95.6401 96.7914 93.6945Z" fill="#7E341F"/>
<path d="M57.8703 95.0211C60.5481 94.3891 62.2065 91.7059 61.5745 89.0281C60.9425 86.3503 58.2593 84.6919 55.5815 85.3239C52.9037 85.9559 51.2453 88.6391 51.8773 91.3169C52.5093 93.9947 55.1925 95.6531 57.8703 95.0211Z" fill="#7E341F"/>
<path d="M87.1998 102.991H62.7998C62.7998 102.991 66.721 113.067 74.9998 113.067C83.2786 113.067 87.1998 102.991 87.1998 102.991Z" fill="#FFFEF9"/>
<path d="M90.9088 81.4211L95.6572 81.7484C96.1752 81.7825 96.6856 81.6106 97.0773 81.27C97.4689 80.9294 97.7101 80.4478 97.7482 79.9302V79.9302C97.7823 79.4123 97.6104 78.9018 97.2698 78.5102C96.9292 78.1185 96.4476 77.8773 95.93 77.8393L91.1845 77.509C90.6668 77.4756 90.1568 77.6478 89.7653 77.9882C89.3738 78.3287 89.1324 78.8098 89.0936 79.3271C89.0586 79.8451 89.2297 80.3559 89.5697 80.7481C89.9098 81.1404 90.3911 81.3823 90.9088 81.4211V81.4211Z" fill="#AC5B0F"/>
<path d="M59.0907 81.4211L54.3423 81.7484C53.8243 81.7825 53.3139 81.6106 52.9222 81.27C52.5306 80.9294 52.2894 80.4478 52.2513 79.9302V79.9302C52.2172 79.4123 52.3891 78.9018 52.7297 78.5102C53.0703 78.1185 53.5519 77.8773 54.0695 77.8393L58.815 77.509C59.3327 77.4756 59.8427 77.6478 60.2342 77.9882C60.6257 78.3287 60.8671 78.8098 60.9059 79.3271V79.3271C60.9409 79.8451 60.7698 80.3559 60.4298 80.7481C60.0897 81.1404 59.6084 81.3823 59.0907 81.4211V81.4211Z" fill="#AC5B0F"/>
<path d="M76.7546 142.679H73.2455C71.6751 142.679 70.169 142.055 69.0585 140.944C67.9481 139.834 67.3243 138.328 67.3243 136.757V122.745H82.6758V136.748C82.677 137.527 82.5247 138.298 82.2277 139.017C81.9306 139.737 81.4947 140.39 80.9447 140.941C80.3948 141.492 79.7416 141.929 79.0226 142.227C78.3036 142.525 77.5329 142.679 76.7546 142.679Z" fill="#FFDACD"/>
<path d="M48.3181 196.782V150.194C48.3181 135.503 67.3242 134.133 67.3242 134.133L67.103 196.788L48.3181 196.782Z" fill="#BD0000"/>
<path d="M101.682 196.782V150.194C101.682 135.503 82.6758 134.133 82.6758 134.133L82.897 196.788L101.682 196.782Z" fill="#BD0000"/>
</g>
<defs>
<clipPath id="clip0_701_18816">
<rect width="150" height="150" fill="white"/>
</clipPath>
</defs>
</svg>
