<svg width="150" height="150" viewBox="0 0 150 150" fill="none" xmlns="http://www.w3.org/2000/svg">
<g clip-path="url(#clip0_701_18258)">
<path d="M74.9998 150.723C116.421 150.723 150 116.982 150 75.3614C150 33.7405 116.421 0 74.9998 0C33.5784 0 -0.000244141 33.7405 -0.000244141 75.3614C-0.000244141 116.982 33.5784 150.723 74.9998 150.723Z" fill="#F16625"/>
<path d="M84.1815 118.142L67.1633 118.118C65.0322 118.495 63.1016 119.615 61.7102 121.281C60.3188 122.946 59.5555 125.051 59.5542 127.225V156.669H91.63V127.225C91.6289 125.078 90.8853 122.998 89.5266 121.341C88.1679 119.685 86.2784 118.554 84.1815 118.142V118.142Z" fill="#262424"/>
<path d="M75.5936 100.363H75.5906C70.8761 100.363 67.0542 104.203 67.0542 108.94V118.276C67.0542 123.013 70.8761 126.853 75.5906 126.853H75.5936C80.3081 126.853 84.13 123.013 84.13 118.276V108.94C84.13 104.203 80.3081 100.363 75.5936 100.363Z" fill="#FFDACD"/>
<path d="M108.381 88.6285C126.489 70.4327 126.489 40.9315 108.381 22.7358C90.2724 4.54001 60.9127 4.54002 42.8042 22.7358C24.6957 40.9316 24.6957 70.4327 42.8042 88.6285C60.9127 106.824 90.2724 106.824 108.381 88.6285Z" fill="#AC5B0F"/>
<path d="M55.6182 110.226C61.0394 104.779 61.0394 95.9469 55.6182 90.4996C50.197 85.0522 41.4075 85.0522 35.9863 90.4996C30.5651 95.9469 30.5651 104.779 35.9863 110.226C41.4075 115.673 50.197 115.673 55.6182 110.226Z" fill="#AC5B0F"/>
<path d="M34.3967 111.331C34.3967 115.03 32.9342 118.578 30.3308 121.194C27.7275 123.81 24.1966 125.28 20.5149 125.28C9.38156 125.28 0.514893 111.331 0.514893 111.331C0.514893 111.331 8.62095 97.3853 20.5149 97.3853C24.1961 97.3853 27.7265 98.8544 30.3298 101.47C32.933 104.085 34.3959 107.632 34.3967 111.331V111.331Z" fill="#AC5B0F"/>
<path d="M117.144 105.619C120.037 98.485 116.627 90.345 109.527 87.438C102.427 84.531 94.3258 87.9577 91.4327 95.0918C88.5396 102.226 91.9499 110.366 99.0498 113.273C106.15 116.18 114.251 112.753 117.144 105.619Z" fill="#AC5B0F"/>
<path d="M115.697 111.331C115.697 115.03 117.159 118.578 119.763 121.194C122.366 123.81 125.897 125.28 129.579 125.28C140.712 125.28 149.579 111.331 149.579 111.331C149.579 111.331 141.473 97.3853 129.579 97.3853C125.897 97.3853 122.367 98.8544 119.764 101.47C117.16 104.085 115.698 107.632 115.697 111.331V111.331Z" fill="#AC5B0F"/>
<path d="M43.601 83.4966C45.3747 79.1074 43.2715 74.1045 38.9034 72.3222C34.5353 70.54 29.5563 72.6533 27.7826 77.0424C26.0089 81.4316 28.1121 86.4345 32.4802 88.2168C36.8483 89.9991 41.8273 87.8857 43.601 83.4966Z" fill="#FFDACD"/>
<path d="M122.554 82.2099C123.624 77.5963 120.77 72.9845 116.178 71.9092C111.587 70.8339 106.997 73.7023 105.927 78.3158C104.857 82.9294 107.711 87.5411 112.303 88.6165C116.894 89.6918 121.484 86.8234 122.554 82.2099Z" fill="#FFDACD"/>
<path d="M33.7844 67.3622C34.0305 78.3398 38.5433 88.7846 46.3569 96.461C54.1706 104.137 64.6642 108.436 75.592 108.436C86.5198 108.436 97.0134 104.137 104.827 96.461C112.641 88.7846 117.153 78.3398 117.4 67.3622C91.345 44.7081 63.4733 44.7081 33.7844 67.3622Z" fill="#FFDACD"/>
<path d="M75.5906 25.3516C64.4998 25.3516 53.8632 29.7786 46.0207 37.6589C38.1783 45.5391 33.7725 56.227 33.7725 67.3713H91.63L95.1513 59.6342L98.4664 67.3622H117.403C117.4 56.2205 112.994 45.5359 105.153 37.6578C97.3126 29.7797 86.6789 25.3532 75.5906 25.3516V25.3516Z" fill="#AC5B0F"/>
<path d="M117.809 67.7731H98.1816L95.1513 60.6481L91.9059 67.7731H33.3726V67.3621C33.3726 43.9711 52.312 24.9404 75.5907 24.9404C98.8695 24.9404 117.809 43.9711 117.809 67.3621V67.7731ZM98.7332 66.951H116.988C116.766 44.2025 98.2817 25.7656 75.5907 25.7656C52.8998 25.7656 34.415 44.2025 34.1968 66.951H91.3665L95.1513 58.6201L98.7332 66.951Z" fill="#AC5B0F"/>
<path d="M56.0361 90.5524C60.5197 90.5524 64.1543 88.9628 64.1543 87.002C64.1543 85.0412 60.5197 83.4517 56.0361 83.4517C51.5526 83.4517 47.918 85.0412 47.918 87.002C47.918 88.9628 51.5526 90.5524 56.0361 90.5524Z" fill="#F9B0A1"/>
<path d="M95.1482 90.5524C99.6318 90.5524 103.266 88.9628 103.266 87.002C103.266 85.0412 99.6318 83.4517 95.1482 83.4517C90.6647 83.4517 87.03 85.0412 87.03 87.002C87.03 88.9628 90.6647 90.5524 95.1482 90.5524Z" fill="#F9B0A1"/>
<path d="M62.4423 78.9392C62.116 78.9392 61.8031 78.8089 61.5723 78.5771C61.3416 78.3452 61.212 78.0308 61.212 77.7029C61.1801 76.4107 60.6468 75.1822 59.726 74.2795C58.8051 73.3769 57.5696 72.8717 56.2832 72.8717C54.9968 72.8717 53.7613 73.3769 52.8404 74.2795C51.9196 75.1822 51.3863 76.4107 51.3544 77.7029C51.3544 78.0308 51.2248 78.3452 50.9941 78.5771C50.7633 78.8089 50.4504 78.9392 50.1241 78.9392C49.7978 78.9392 49.4849 78.8089 49.2541 78.5771C49.0234 78.3452 48.8938 78.0308 48.8938 77.7029C48.933 75.7597 49.7287 73.9094 51.1102 72.549C52.4917 71.1887 54.3489 70.4268 56.2832 70.4268C58.2175 70.4268 60.0747 71.1887 61.4562 72.549C62.8377 73.9094 63.6334 75.7597 63.6726 77.7029C63.6726 78.0308 63.543 78.3452 63.3122 78.5771C63.0815 78.8089 62.7686 78.9392 62.4423 78.9392V78.9392Z" fill="#7E341F"/>
<path d="M101.06 78.9392C100.734 78.9392 100.421 78.8089 100.19 78.5771C99.9598 78.3452 99.8301 78.0308 99.8301 77.7029C99.7983 76.4107 99.265 75.1822 98.3441 74.2795C97.4233 73.3769 96.1878 72.8717 94.9014 72.8717C93.6149 72.8717 92.3794 73.3769 91.4586 74.2795C90.5377 75.1822 90.0045 76.4107 89.9726 77.7029C89.9726 78.0308 89.8429 78.3452 89.6122 78.5771C89.3815 78.8089 89.0686 78.9392 88.7423 78.9392C88.416 78.9392 88.103 78.8089 87.8723 78.5771C87.6416 78.3452 87.512 78.0308 87.512 77.7029C87.5511 75.7597 88.3469 73.9094 89.7284 72.549C91.1099 71.1887 92.9671 70.4268 94.9014 70.4268C96.8356 70.4268 98.6928 71.1887 100.074 72.549C101.456 73.9094 102.252 75.7597 102.291 77.7029C102.291 78.0308 102.161 78.3452 101.93 78.5771C101.7 78.8089 101.387 78.9392 101.06 78.9392Z" fill="#7E341F"/>
<path d="M82.1211 87.3611C82.1211 90.3634 79.1999 92.7993 75.5938 92.7993C71.9878 92.7993 69.0696 90.3634 69.0696 87.3611C69.0696 84.3588 82.1211 84.3588 82.1211 87.3611Z" fill="#FFFEF9"/>
<path d="M91.7483 138.092H84.6514V192.155H91.7483V138.092Z" fill="#FFDACD"/>
<path d="M83.8816 126.686L84.024 138.169L91.7482 138.093L91.6058 126.619C91.5703 125.608 91.1434 124.651 90.416 123.952C89.6885 123.252 88.7181 122.865 87.7113 122.874C86.7044 122.883 85.7407 123.286 85.0254 123.998C84.3101 124.71 83.8997 125.675 83.8816 126.686V126.686Z" fill="#262424"/>
<path d="M59.4482 192.158H66.5452V138.095H59.4482L59.4482 192.158Z" fill="#FFDACD"/>
<path d="M67.3148 126.686L67.1754 138.169L59.4512 138.093L59.5906 126.619C59.6261 125.608 60.053 124.651 60.7804 123.952C61.5078 123.252 62.4783 122.865 63.4851 122.874C64.492 122.883 65.4557 123.286 66.171 123.998C66.8863 124.71 67.2967 125.675 67.3148 126.686V126.686Z" fill="#262424"/>
</g>
<defs>
<clipPath id="clip0_701_18258">
<rect width="150" height="150" fill="white"/>
</clipPath>
</defs>
</svg>
