<svg width="150" height="150" viewBox="0 0 150 150" fill="none" xmlns="http://www.w3.org/2000/svg">
<g clip-path="url(#clip0_701_18891)">
<path d="M75 152.47C116.421 152.47 150 118.891 150 77.4697C150 36.0484 116.421 2.46973 75 2.46973C33.5786 2.46973 0 36.0484 0 77.4697C0 118.891 33.5786 152.47 75 152.47Z" fill="#7E341F"/>
<path d="M76.6271 53.5212C91.4065 53.5212 103.388 41.5401 103.388 26.7606C103.388 11.9811 91.4065 0 76.6271 0C61.8476 0 49.8665 11.9811 49.8665 26.7606C49.8665 41.5401 61.8476 53.5212 76.6271 53.5212Z" fill="#F16625"/>
<path d="M46.4845 80.5818C61.264 80.5818 73.2451 68.6006 73.2451 53.8212C73.2451 39.0417 61.264 27.0605 46.4845 27.0605C31.705 27.0605 19.7239 39.0417 19.7239 53.8212C19.7239 68.6006 31.705 80.5818 46.4845 80.5818Z" fill="#F16625"/>
<path d="M103.3 80.5818C118.079 80.5818 130.061 68.6006 130.061 53.8212C130.061 39.0417 118.079 27.0605 103.3 27.0605C88.5204 27.0605 76.5393 39.0417 76.5393 53.8212C76.5393 68.6006 88.5204 80.5818 103.3 80.5818Z" fill="#F16625"/>
<path d="M76.2937 42.8667H76.2906C57.0159 42.8667 41.3906 58.492 41.3906 77.7667V165.23C41.3906 184.505 57.0159 200.13 76.2906 200.13H76.2937C95.5684 200.13 111.194 184.505 111.194 165.23V77.7667C111.194 58.492 95.5684 42.8667 76.2937 42.8667Z" fill="#F9A08A"/>
<path d="M65.3515 62.715L60.1576 64.6302C59.5506 64.8507 58.8811 64.8226 58.2948 64.5518C57.7086 64.2811 57.253 63.7897 57.0273 63.1847C56.9166 62.8829 56.8664 62.5622 56.8798 62.241C56.8932 61.9198 56.9697 61.6044 57.1051 61.3128C57.2405 61.0212 57.432 60.7591 57.6688 60.5417C57.9055 60.3242 58.1828 60.1555 58.4848 60.0453L63.6788 58.1301C64.2857 57.9096 64.9552 57.9377 65.5415 58.2085C66.1278 58.4792 66.5834 58.9706 66.8091 59.5756V59.5756C66.9198 59.8774 66.9699 60.1981 66.9565 60.5193C66.9432 60.8405 66.8666 61.1559 66.7312 61.4475C66.5958 61.7391 66.4043 62.0011 66.1676 62.2186C65.9308 62.4361 65.6535 62.6048 65.3515 62.715V62.715Z" fill="#870000"/>
<path d="M87.2331 62.7154L92.424 64.6305C93.0305 64.851 93.6996 64.8227 94.2854 64.552C94.8712 64.2812 95.3262 63.7899 95.5512 63.1851C95.7766 62.5779 95.7515 61.906 95.4816 61.3173C95.2117 60.7286 94.719 60.2712 94.1119 60.0457L88.9149 58.1305C88.3084 57.9101 87.6393 57.9383 87.0535 58.209C86.4677 58.4798 86.0127 58.9711 85.7876 59.576C85.6762 59.877 85.6252 60.197 85.6376 60.5178C85.6499 60.8385 85.7254 61.1537 85.8596 61.4453C85.9938 61.7368 86.1842 61.9991 86.4199 62.217C86.6556 62.435 86.9319 62.6043 87.2331 62.7154V62.7154Z" fill="#870000"/>
<path d="M71.0786 77.1457C72.8493 77.1457 74.2847 75.1364 74.2847 72.6578C74.2847 70.1792 72.8493 68.1699 71.0786 68.1699C69.308 68.1699 67.8726 70.1792 67.8726 72.6578C67.8726 75.1364 69.308 77.1457 71.0786 77.1457Z" fill="#870000"/>
<path d="M81.5059 77.1457C83.2765 77.1457 84.7119 75.1364 84.7119 72.6578C84.7119 70.1792 83.2765 68.1699 81.5059 68.1699C79.7352 68.1699 78.2998 70.1792 78.2998 72.6578C78.2998 75.1364 79.7352 77.1457 81.5059 77.1457Z" fill="#870000"/>
<path d="M46.0777 84.6992C47.932 80.3138 45.8801 75.2555 41.4947 73.4012C37.1092 71.5469 32.0509 73.5988 30.1966 77.9842C28.3423 82.3697 30.3942 87.428 34.7797 89.2823C39.1651 91.1366 44.2234 89.0847 46.0777 84.6992Z" fill="#F9A08A"/>
<path d="M119.139 84.7002C120.993 80.3147 118.941 75.2564 114.556 73.4021C110.17 71.5478 105.112 73.5997 103.258 77.9852C101.403 82.3707 103.455 87.429 107.841 89.2833C112.226 91.1376 117.284 89.0857 119.139 84.7002Z" fill="#F9A08A"/>
<path d="M66.3877 82.1456C65.7706 82.1476 65.1631 82.2991 64.6173 82.5873C64.0715 82.8754 63.6037 83.2916 63.254 83.8001C62.9043 84.3086 62.683 84.8943 62.6092 85.5071C62.5354 86.1198 62.6112 86.7413 62.8301 87.3183C63.8872 90.1204 65.773 92.5339 68.2362 94.2374C70.6994 95.9408 73.6232 96.8533 76.618 96.8533C79.6129 96.8533 82.5366 95.9408 84.9998 94.2374C87.4631 92.5339 89.3488 90.1204 90.4059 87.3183C90.6255 86.7411 90.7018 86.1193 90.6282 85.5062C90.5547 84.893 90.3336 84.3069 89.9838 83.7979C89.634 83.289 89.1659 82.8726 88.6198 82.5842C88.0737 82.2959 87.4659 82.1444 86.8483 82.1426L66.3877 82.1456Z" fill="#FFFEF9"/>
<path d="M111.154 114.933H41.3906V166.827H111.154V114.933Z" fill="#396FED"/>
<path d="M111.154 126.227H41.3906V133.66H111.154V126.227Z" fill="#154A87"/>
<path d="M111.154 137.767H41.3906V145.2H111.154V137.767Z" fill="#154A87"/>
<path d="M33.5875 191.988C31.5202 191.982 29.5392 191.159 28.0771 189.697C26.6151 188.236 25.7908 186.255 25.7844 184.188V122.733C25.7908 120.666 26.6151 118.685 28.0771 117.224C29.5392 115.762 31.5202 114.939 33.5875 114.933H41.3905V184.188C41.3841 186.255 40.5598 188.236 39.0978 189.697C37.6357 191.159 35.6547 191.982 33.5875 191.988Z" fill="#F9A08A"/>
<path d="M118.957 191.988C116.888 191.988 114.903 191.166 113.44 189.702C111.977 188.239 111.154 186.254 111.154 184.185L111.154 114.933H118.957C121.027 114.933 123.012 115.755 124.475 117.219C125.938 118.682 126.76 120.667 126.76 122.736L126.76 184.188C126.76 186.257 125.937 188.241 124.474 189.703C123.011 191.166 121.026 191.988 118.957 191.988V191.988Z" fill="#F9A08A"/>
</g>
<defs>
<clipPath id="clip0_701_18891">
<rect width="150" height="150" fill="white"/>
</clipPath>
</defs>
</svg>
