<svg width="150" height="150" viewBox="0 0 150 150" fill="none" xmlns="http://www.w3.org/2000/svg">
<g clip-path="url(#clip0_701_18613)">
<path d="M75.3614 150.723C116.982 150.723 150.723 116.982 150.723 75.3614C150.723 33.7405 116.982 0 75.3614 0C33.7405 0 0 33.7405 0 75.3614C0 116.982 33.7405 150.723 75.3614 150.723Z" fill="#FF9F00"/>
<path d="M64.4635 129.713H86.4538C87.8113 129.713 89.1132 130.252 90.0731 131.212C91.033 132.172 91.5723 133.474 91.5723 134.831V159.982H59.345V134.828C59.3458 133.471 59.8854 132.17 60.8452 131.211C61.805 130.252 63.1065 129.713 64.4635 129.713V129.713Z" fill="#7CE6E6"/>
<path d="M65.6021 129.384H67.9588C68.0848 129.384 68.2056 129.434 68.2947 129.523C68.3838 129.612 68.4339 129.733 68.4339 129.859V159.657H65.1301V129.859C65.1301 129.734 65.1798 129.613 65.2682 129.524C65.3566 129.435 65.4766 129.385 65.6021 129.384Z" fill="#154A87"/>
<path d="M83.0342 129.384H85.391C85.517 129.384 85.6378 129.434 85.7269 129.523C85.8159 129.612 85.866 129.733 85.866 129.859V159.657H82.5623V129.859C82.5623 129.734 82.6119 129.613 82.7003 129.524C82.7887 129.435 82.9088 129.385 83.0342 129.384V129.384Z" fill="#154A87"/>
<path d="M65.1455 140.172H59.3267V161.654H65.1455V140.172Z" fill="#C8803E"/>
<path d="M85.9086 161.651H91.5752V140.17H85.9086V161.651Z" fill="#C8803E"/>
<path d="M68.4341 119.141H82.5777V132.843C82.5785 133.772 82.3964 134.691 82.0418 135.549C81.6872 136.407 81.1671 137.187 80.5112 137.844C79.8552 138.502 79.0762 139.023 78.2187 139.379C77.3612 139.735 76.442 139.919 75.5135 139.92V139.92C73.6383 139.92 71.84 139.175 70.5141 137.849C69.1881 136.523 68.4432 134.724 68.4432 132.849V119.147L68.4341 119.141Z" fill="#C8803E"/>
<path d="M45.8658 102.306C48.2083 99.963 48.2083 96.165 45.8658 93.8224C43.5232 91.4799 39.7252 91.4799 37.3827 93.8224C35.0401 96.165 35.0401 99.963 37.3827 102.306C39.7252 104.648 43.5232 104.648 45.8658 102.306Z" fill="#C8803E"/>
<path d="M110.112 104.029C113.401 103.626 115.74 100.634 115.337 97.3457C114.935 94.0574 111.943 91.7181 108.654 92.1207C105.366 92.5232 103.027 95.5153 103.429 98.8036C103.832 102.092 106.824 104.431 110.112 104.029Z" fill="#C8803E"/>
<path d="M33.5484 44.8425C42.9321 44.8425 50.539 37.2355 50.539 27.8519C50.539 18.4683 42.9321 10.8613 33.5484 10.8613C24.1648 10.8613 16.5579 18.4683 16.5579 27.8519C16.5579 37.2355 24.1648 44.8425 33.5484 44.8425Z" fill="#6A3410"/>
<path d="M44.1111 50.3536L40.6186 46.8641C39.0416 45.2776 38.1565 43.1315 38.1565 40.8946C38.1565 38.6576 39.0416 36.5116 40.6186 34.925C42.2052 33.3471 44.352 32.4614 46.5896 32.4614C48.8273 32.4614 50.974 33.3471 52.5607 34.925L56.0502 38.4145C57.6271 40.001 58.5122 42.1471 58.5122 44.384C58.5122 46.621 57.6271 48.767 56.0502 50.3536C54.4644 51.932 52.3181 52.8181 50.0806 52.8181C47.8432 52.8181 45.6968 51.932 44.1111 50.3536V50.3536Z" fill="#EF4151"/>
<path d="M117.905 44.8425C127.288 44.8425 134.895 37.2355 134.895 27.8519C134.895 18.4683 127.288 10.8613 117.905 10.8613C108.521 10.8613 100.914 18.4683 100.914 27.8519C100.914 37.2355 108.521 44.8425 117.905 44.8425Z" fill="#6A3410"/>
<path d="M107.341 50.3536L110.834 46.8641C112.411 45.2776 113.296 43.1315 113.296 40.8946C113.296 38.6576 112.411 36.5116 110.834 34.925V34.925C109.247 33.3471 107.101 32.4614 104.863 32.4614C102.625 32.4614 100.478 33.3471 98.8918 34.925L95.4023 38.4145C93.8239 40.0002 92.9377 42.1466 92.9377 44.384C92.9377 46.6215 93.8239 48.7678 95.4023 50.3536V50.3536C96.9881 51.932 99.1344 52.8181 101.372 52.8181C103.609 52.8181 105.756 51.932 107.341 50.3536V50.3536Z" fill="#EF4151"/>
<path d="M104.883 96.5987C121.107 80.3745 121.107 54.0698 104.883 37.8456C88.6584 21.6214 62.3537 21.6214 46.1295 37.8456C29.9053 54.0698 29.9053 80.3745 46.1295 96.5987C62.3537 112.823 88.6584 112.823 104.883 96.5987Z" fill="#6A3410"/>
<path d="M108.794 76.1316C108.794 57.7478 93.8908 42.8447 75.5069 42.8447C57.123 42.8447 42.22 57.7478 42.22 76.1316V92.7599C42.22 111.144 57.123 126.047 75.5069 126.047C93.8908 126.047 108.794 111.144 108.794 92.7599V76.1316Z" fill="#C8803E"/>
<path d="M111.51 76.805C111.51 56.054 94.2821 39.0695 73.5615 40.1778C64.3677 40.6864 55.717 44.6936 49.3836 51.3774C43.0503 58.0612 39.5144 66.9151 39.5012 76.1229C55.3987 72.4203 67.9924 65.6515 75.5072 54.1692C82.6628 67.2501 95.0525 74.3508 111.51 76.805Z" fill="#6A3410"/>
<path d="M55.2403 93.8317C55.2403 94.2488 54.6313 94.5868 53.867 94.5868C53.1028 94.5868 52.4968 94.2488 52.4968 93.8317C52.4968 93.4145 53.1058 93.0796 53.867 93.0796C54.6283 93.0796 55.2403 93.4176 55.2403 93.8317Z" fill="#AC5B0F"/>
<path d="M59.5368 93.8317C59.5368 94.2488 58.9278 94.5868 58.1635 94.5868C57.3993 94.5868 56.7903 94.2488 56.7903 93.8317C56.7903 93.4145 57.3993 93.0796 58.1635 93.0796C58.9278 93.0796 59.5368 93.4176 59.5368 93.8317Z" fill="#AC5B0F"/>
<path d="M57.5483 95.8142C57.5483 96.2314 56.9393 96.5694 56.175 96.5694C55.4108 96.5694 54.8079 96.2192 54.8079 95.8142C54.8079 95.4092 55.4168 95.0591 56.1781 95.0591C56.9393 95.0591 57.5483 95.3971 57.5483 95.8142Z" fill="#AC5B0F"/>
<path d="M61.8875 95.8142C61.8875 96.2314 61.2785 96.5694 60.5143 96.5694C59.75 96.5694 59.144 96.2314 59.144 95.8142C59.144 95.3971 59.753 95.0591 60.5143 95.0591C61.2755 95.0591 61.8875 95.3971 61.8875 95.8142Z" fill="#AC5B0F"/>
<path d="M63.8304 93.8317C63.8304 94.2488 63.2214 94.5868 62.4602 94.5868C61.6989 94.5868 61.0869 94.2488 61.0869 93.8317C61.0869 93.4145 61.6959 93.0796 62.4602 93.0796C63.2244 93.0796 63.8304 93.4176 63.8304 93.8317Z" fill="#AC5B0F"/>
<path d="M90.5855 93.8317C90.5855 94.2488 89.9765 94.5868 89.2122 94.5868C88.448 94.5868 87.842 94.2488 87.842 93.8317C87.842 93.4145 88.451 93.0796 89.2122 93.0796C89.9735 93.0796 90.5855 93.4176 90.5855 93.8317Z" fill="#AC5B0F"/>
<path d="M94.8819 93.8317C94.8819 94.2488 94.2729 94.5868 93.5086 94.5868C92.7444 94.5868 92.1384 94.2488 92.1384 93.8317C92.1384 93.4145 92.7474 93.0796 93.5086 93.0796C94.2699 93.0796 94.8819 93.4176 94.8819 93.8317Z" fill="#AC5B0F"/>
<path d="M92.8936 95.8142C92.8936 96.2314 92.2846 96.5694 91.5234 96.5694C90.7622 96.5694 90.1501 96.2314 90.1501 95.8142C90.1501 95.3971 90.7591 95.0591 91.5234 95.0591C92.2877 95.0591 92.8936 95.3971 92.8936 95.8142Z" fill="#AC5B0F"/>
<path d="M97.233 95.8142C97.233 96.2314 96.624 96.5694 95.8597 96.5694C95.0954 96.5694 94.4895 96.2314 94.4895 95.8142C94.4895 95.3971 95.0985 95.0591 95.8597 95.0591C96.6209 95.0591 97.233 95.3971 97.233 95.8142Z" fill="#AC5B0F"/>
<path d="M99.1781 93.8317C99.1781 94.2488 98.5692 94.5868 97.8049 94.5868C97.0406 94.5868 96.4316 94.2488 96.4316 93.8317C96.4316 93.4145 97.0406 93.0796 97.8049 93.0796C98.5692 93.0796 99.1781 93.4176 99.1781 93.8317Z" fill="#AC5B0F"/>
<path d="M81.9745 99.6737C82.5583 96.1005 80.135 92.7305 76.5618 92.1467C72.9885 91.5628 69.6186 93.9862 69.0347 97.5594C68.4508 101.133 70.8742 104.503 74.4474 105.086C78.0206 105.67 81.3906 103.247 81.9745 99.6737Z" fill="#FFFEF9"/>
<path d="M64.1134 87.724C63.7532 87.724 63.4078 87.5809 63.1531 87.3262C62.8984 87.0716 62.7554 86.7261 62.7554 86.366C62.7311 85.6226 62.4188 84.9178 61.8844 84.4006C61.35 83.8833 60.6354 83.5941 59.8916 83.5941C59.1479 83.5941 58.4333 83.8833 57.8989 84.4006C57.3645 84.9178 57.0521 85.6226 57.0279 86.366C57.0279 86.7261 56.8848 87.0716 56.6301 87.3262C56.3754 87.5809 56.03 87.724 55.6699 87.724C55.3097 87.724 54.9643 87.5809 54.7096 87.3262C54.4549 87.0716 54.3118 86.7261 54.3118 86.366C54.2945 85.6223 54.4259 84.8826 54.6985 84.1904C54.9711 83.4982 55.3794 82.8675 55.8992 82.3354C56.4191 81.8033 57.0401 81.3804 57.7257 81.0917C58.4113 80.803 59.1477 80.6543 59.8916 80.6543C60.6355 80.6543 61.3719 80.803 62.0576 81.0917C62.7432 81.3804 63.3642 81.8033 63.884 82.3354C64.4039 82.8675 64.8121 83.4982 65.0847 84.1904C65.3573 84.8826 65.4888 85.6223 65.4714 86.366C65.4714 86.7261 65.3283 87.0716 65.0737 87.3262C64.819 87.5809 64.4736 87.724 64.1134 87.724Z" fill="#262424"/>
<path d="M93.4938 87.724C93.1336 87.724 92.7882 87.5809 92.5335 87.3262C92.2788 87.0716 92.1357 86.7261 92.1357 86.366C92.1115 85.6226 91.7991 84.9178 91.2647 84.4006C90.7303 83.8833 90.0157 83.5941 89.272 83.5941C88.5282 83.5941 87.8137 83.8833 87.2792 84.4006C86.7448 84.9178 86.4325 85.6226 86.4083 86.366C86.4083 86.7261 86.2652 87.0716 86.0105 87.3262C85.7558 87.5809 85.4104 87.724 85.0502 87.724C84.6901 87.724 84.3446 87.5809 84.09 87.3262C83.8353 87.0716 83.6922 86.7261 83.6922 86.366C83.6748 85.6223 83.8063 84.8826 84.0789 84.1904C84.3515 83.4982 84.7597 82.8675 85.2796 82.3354C85.7994 81.8033 86.4204 81.3804 87.106 81.0917C87.7917 80.803 88.5281 80.6543 89.272 80.6543C90.0159 80.6543 90.7523 80.803 91.4379 81.0917C92.1236 81.3804 92.7445 81.8033 93.2644 82.3354C93.7843 82.8675 94.1925 83.4982 94.4651 84.1904C94.7377 84.8826 94.8692 85.6223 94.8518 86.366C94.8522 86.5444 94.8173 86.7212 94.7492 86.8861C94.6811 87.0511 94.5811 87.2009 94.4549 87.3271C94.3287 87.4533 94.1789 87.5533 94.0139 87.6214C93.849 87.6895 93.6722 87.7244 93.4938 87.724Z" fill="#262424"/>
</g>
<defs>
<clipPath id="clip0_701_18613">
<rect width="150" height="150" fill="white"/>
</clipPath>
</defs>
</svg>
