<svg width="151" height="150" viewBox="0 0 151 150" fill="none" xmlns="http://www.w3.org/2000/svg">
<g clip-path="url(#clip0_705_19030)">
<path d="M75.3614 150.723C116.982 150.723 150.723 116.982 150.723 75.3614C150.723 33.7405 116.982 0 75.3614 0C33.7405 0 0 33.7405 0 75.3614C0 116.982 33.7405 150.723 75.3614 150.723Z" fill="#757575" fill-opacity="0.64"/>
<path d="M75.7695 47.9937H73.2209C54.6924 47.9937 39.6721 63.014 39.6721 81.5424V91.2374C39.6721 109.766 54.6924 124.786 73.2209 124.786H75.7695C94.298 124.786 109.318 109.766 109.318 91.2374V81.5424C109.318 63.014 94.298 47.9937 75.7695 47.9937Z" fill="white"/>
<path d="M53.2158 93.6855C53.2158 93.6855 62.5972 103.907 74.1678 103.907C85.7385 103.907 95.1229 93.6855 95.1229 93.6855H53.2158Z" fill="#FFFEF9"/>
<path d="M84.6059 133.135H64.3847C62.5913 133.135 60.8155 133.488 59.1586 134.175C57.5017 134.861 55.9963 135.867 54.7281 137.135C53.46 138.403 52.4541 139.909 51.7678 141.566C51.0815 143.222 50.7283 144.998 50.7283 146.792V155.461H58.712V177.783H98.2654V146.792C98.2654 144.998 97.912 143.222 97.2255 141.565C96.539 139.908 95.5328 138.402 94.2644 137.134C92.996 135.866 91.4901 134.86 89.8329 134.174C88.1757 133.488 86.3995 133.135 84.6059 133.135Z" fill="#E3DEDC"/>
<path d="M66.0928 111.961H82.8976V134.441C82.8976 136.67 82.0125 138.806 80.437 140.382C78.8616 141.957 76.7248 142.842 74.4967 142.842V142.842C72.2687 142.842 70.1319 141.957 68.5564 140.382C66.9809 138.806 66.0958 136.67 66.0958 134.441V111.961H66.0928Z" fill="white"/>
</g>
<defs>
<clipPath id="clip0_705_19030">
<rect width="151" height="150" rx="27.4042" fill="white"/>
</clipPath>
</defs>
</svg>
