<svg width="150" height="150" viewBox="0 0 150 150" fill="none" xmlns="http://www.w3.org/2000/svg">
<g clip-path="url(#clip0_701_18549)">
<path d="M75.3614 150.723C116.982 150.723 150.723 116.982 150.723 75.3614C150.723 33.7405 116.982 0 75.3614 0C33.7405 0 0 33.7405 0 75.3614C0 116.982 33.7405 150.723 75.3614 150.723Z" fill="#FF7E25"/>
<path d="M119.23 52.7073V107.704C119.23 129.46 101.427 147.261 79.6708 147.261H71.4282C49.6724 147.261 31.8718 129.46 31.8718 107.704V52.7073C31.9047 42.2264 36.0829 32.1842 43.494 24.773C50.9051 17.3619 60.9473 13.1838 71.4282 13.1509H79.6708C101.427 13.1509 119.23 30.9514 119.23 52.7073Z" fill="#6A3410"/>
<path d="M104.271 209.623V175.67C104.271 160.552 91.8991 148.18 76.7811 148.18H74.3208C59.1998 148.18 46.8284 160.552 46.8284 175.67V209.623H104.271Z" fill="#396FED"/>
<path d="M95.7782 152.55V133.224C95.7621 127.862 93.6254 122.725 89.8344 118.933C86.0435 115.142 80.9064 113.004 75.5448 112.987V112.987C70.1827 113.003 65.0448 115.141 61.2532 118.932C57.4616 122.724 55.3244 127.862 55.3083 133.224V152.55H95.7782Z" fill="#EBEBEB"/>
<path d="M75.5508 126.059C73.2751 126.059 71.0926 125.155 69.4834 123.546C67.8742 121.937 66.9702 119.754 66.9702 117.479V108.852C66.971 106.577 67.8754 104.396 69.4845 102.787C71.0936 101.179 73.2756 100.275 75.5508 100.275V100.275C76.6772 100.275 77.7926 100.497 78.8332 100.928C79.8739 101.359 80.8195 101.991 81.616 102.787C82.4125 103.584 83.0443 104.529 83.4753 105.57C83.9064 106.611 84.1283 107.726 84.1283 108.852V117.466C84.1303 118.594 83.9099 119.711 83.4797 120.754C83.0496 121.796 82.4181 122.743 81.6214 123.542C80.8247 124.34 79.8784 124.973 78.8367 125.405C77.7951 125.837 76.6785 126.059 75.5508 126.059V126.059Z" fill="#F9B0A1"/>
<path d="M75.5509 19.3989H75.5478C53.2457 19.3989 35.1663 37.4784 35.1663 59.7805V68.2727C35.1663 90.5749 53.2457 108.654 75.5478 108.654H75.5509C97.853 108.654 115.932 90.5749 115.932 68.2727V59.7805C115.932 37.4784 97.853 19.3989 75.5509 19.3989Z" fill="#F9B0A1"/>
<path d="M39.5873 79.8507C42.4281 77.0099 42.4281 72.4041 39.5873 69.5633C36.7465 66.7226 32.1407 66.7226 29.2999 69.5633C26.4592 72.4041 26.4592 77.0099 29.2999 79.8507C32.1407 82.6915 36.7465 82.6915 39.5873 79.8507Z" fill="#F9B0A1"/>
<path d="M123.796 76.068C124.552 72.1223 121.967 68.3107 118.021 67.5544C114.075 66.7982 110.264 69.3837 109.507 73.3294C108.751 77.2751 111.337 81.0867 115.282 81.8429C119.228 82.5992 123.04 80.0136 123.796 76.068Z" fill="#F9B0A1"/>
<path d="M50.1565 82.6967C50.1565 83.2021 49.4135 83.6101 48.4939 83.6101C47.5744 83.6101 46.8284 83.2021 46.8284 82.6967C46.8284 82.1912 47.5744 81.7832 48.4939 81.7832C49.4135 81.7832 50.1565 82.1912 50.1565 82.6967Z" fill="#F9B0A1"/>
<path d="M55.3693 82.6967C55.3693 83.2021 54.6233 83.6101 53.7038 83.6101C52.7842 83.6101 52.0413 83.2021 52.0413 82.6967C52.0413 82.1912 52.7842 81.7832 53.7038 81.7832C54.6233 81.7832 55.3693 82.1912 55.3693 82.6967Z" fill="#F9B0A1"/>
<path d="M52.9577 85.099C52.9577 85.6045 52.2117 86.0125 51.2922 86.0125C50.3726 86.0125 49.6296 85.6045 49.6296 85.099C49.6296 84.5936 50.3756 84.1855 51.2922 84.1855C52.2087 84.1855 52.9577 84.5936 52.9577 85.099Z" fill="#F9B0A1"/>
<path d="M58.2222 85.099C58.2222 85.6045 57.4762 86.0125 56.5567 86.0125C55.6371 86.0125 54.8911 85.6045 54.8911 85.099C54.8911 84.5936 55.6371 84.1855 56.5567 84.1855C57.4762 84.1855 58.2222 84.5936 58.2222 85.099Z" fill="#F9B0A1"/>
<path d="M60.5942 82.6967C60.5942 83.2021 59.8512 83.6101 58.9317 83.6101C58.0121 83.6101 57.2661 83.2021 57.2661 82.6967C57.2661 82.1912 58.0121 81.7832 58.9317 81.7832C59.8512 81.7832 60.5942 82.1912 60.5942 82.6967Z" fill="#F9B0A1"/>
<path d="M93.0379 82.6967C93.0379 83.2021 92.2919 83.6101 91.3724 83.6101C90.4528 83.6101 89.7068 83.2021 89.7068 82.6967C89.7068 82.1912 90.4528 81.7832 91.3724 81.7832C92.2919 81.7832 93.0379 82.1912 93.0379 82.6967Z" fill="#F9B0A1"/>
<path d="M98.2478 82.6967C98.2478 83.2021 97.5018 83.6101 96.5852 83.6101C95.6687 83.6101 94.9197 83.2021 94.9197 82.6967C94.9197 82.1912 95.6657 81.7832 96.5852 81.7832C97.5048 81.7832 98.2478 82.1912 98.2478 82.6967Z" fill="#F9B0A1"/>
<path d="M95.8361 85.099C95.8361 85.6045 95.0932 86.0125 94.1736 86.0125C93.2541 86.0125 92.5081 85.6045 92.5081 85.099C92.5081 84.5936 93.2541 84.1855 94.1736 84.1855C95.0932 84.1855 95.8361 84.5936 95.8361 85.099Z" fill="#F9B0A1"/>
<path d="M101.092 85.099C101.092 85.6045 100.346 86.0125 99.4262 86.0125C98.5066 86.0125 97.7637 85.6045 97.7637 85.099C97.7637 84.5936 98.5066 84.1855 99.4262 84.1855C100.346 84.1855 101.092 84.5936 101.092 85.099Z" fill="#F9B0A1"/>
<path d="M103.461 82.6967C103.461 83.2021 102.715 83.6101 101.795 83.6101C100.876 83.6101 100.13 83.2021 100.13 82.6967C100.13 82.1912 100.876 81.7832 101.795 81.7832C102.715 81.7832 103.461 82.1912 103.461 82.6967Z" fill="#F9B0A1"/>
<path d="M56.5568 76.8382C58.4116 76.8382 59.9153 75.3345 59.9153 73.4796C59.9153 71.6248 58.4116 70.1211 56.5568 70.1211C54.7019 70.1211 53.1982 71.6248 53.1982 73.4796C53.1982 75.3345 54.7019 76.8382 56.5568 76.8382Z" fill="#262424"/>
<path d="M94.5421 76.8382C96.397 76.8382 97.9007 75.3345 97.9007 73.4796C97.9007 71.6248 96.397 70.1211 94.5421 70.1211C92.6873 70.1211 91.1836 71.6248 91.1836 73.4796C91.1836 75.3345 92.6873 76.8382 94.5421 76.8382Z" fill="#262424"/>
<path d="M70.1189 79.0913V87.3887C70.1229 88.8281 70.6965 90.2075 71.7144 91.2253C72.7322 92.2432 74.1116 92.8168 75.551 92.8208C76.9923 92.8192 78.3743 92.2468 79.3946 91.2287C80.4149 90.2107 80.9905 88.83 80.9953 87.3887V79.0913H70.1189Z" fill="#FFFEF9"/>
<path d="M119.23 52.7073V54.8752C110.745 61.4355 100.319 64.9876 89.5941 64.9721C78.4303 64.9711 67.6082 61.1213 58.9517 54.0717C50.2953 47.0221 44.3339 37.2037 42.0723 26.2714C45.7698 22.1457 50.2949 18.8451 55.3528 16.5845C60.4107 14.3239 65.8881 13.1539 71.4282 13.1509H79.6708C101.427 13.1509 119.23 30.9514 119.23 52.7073Z" fill="#6A3410"/>
<path d="M63.5508 137.624H55.3691V173.919H63.5508V137.624Z" fill="#F9B0A1"/>
<path d="M95.7842 137.624H87.6025V173.919H95.7842V137.624Z" fill="#F9B0A1"/>
</g>
<defs>
<clipPath id="clip0_701_18549">
<rect width="150" height="150" fill="white"/>
</clipPath>
</defs>
</svg>
