<svg width="150" height="150" viewBox="0 0 150 150" fill="none" xmlns="http://www.w3.org/2000/svg">
<g clip-path="url(#clip0_701_18448)">
<path d="M75 150C116.421 150 150 116.421 150 75C150 33.5786 116.421 0 75 0C33.5786 0 0 33.5786 0 75C0 116.421 33.5786 150 75 150Z" fill="#FF7E25"/>
<path d="M104.33 88.8196C118.23 74.9193 115.609 49.7615 98.4756 32.6281C81.3423 15.4948 56.1845 12.8739 42.2842 26.7742C28.3839 40.6745 31.0048 65.8322 48.1382 82.9656C65.2716 100.099 90.4293 102.72 104.33 88.8196Z" fill="#0070CF"/>
<path d="M123.667 17.3845L117.691 11.4088C112.668 6.41579 105.873 3.61328 98.7908 3.61328C91.7084 3.61328 84.9138 6.41579 79.8908 11.4088L55.106 36.1906L102.864 75.9876L123.667 55.1876C134.064 44.7906 134.064 27.7785 123.667 17.3845Z" fill="#00BBC4"/>
<path d="M113.497 70.2818V67.4212C113.497 47.5272 97.2212 31.2515 77.3272 31.2515H73.2151C53.3242 31.2515 37.0454 47.5272 37.0454 67.4212V70.2818H113.497Z" fill="#154A87"/>
<path d="M44.9697 72.3574C44.9697 73.646 44.5876 74.9056 43.8717 75.9771C43.1559 77.0485 42.1383 77.8835 40.9478 78.3766C39.7574 78.8698 38.4474 78.9988 37.1836 78.7474C35.9197 78.496 34.7589 77.8755 33.8477 76.9643C32.9365 76.0532 32.316 74.8923 32.0646 73.6285C31.8133 72.3647 31.9423 71.0547 32.4354 69.8642C32.9285 68.6737 33.7636 67.6562 34.835 66.9403C35.9064 66.2244 37.166 65.8423 38.4546 65.8423C40.1825 65.8423 41.8397 66.5287 43.0615 67.7505C44.2833 68.9724 44.9697 70.6295 44.9697 72.3574V72.3574Z" fill="#F9B0A1"/>
<path d="M118.606 72.3574C118.607 73.6469 118.225 74.9075 117.509 75.9799C116.793 77.0522 115.775 77.8882 114.584 78.3819C113.393 78.8756 112.082 79.0049 110.817 78.7535C109.552 78.5021 108.391 77.8813 107.479 76.9695C106.567 76.0577 105.946 74.896 105.695 73.6313C105.444 72.3667 105.573 71.0558 106.067 69.8647C106.56 68.6735 107.396 67.6555 108.469 66.9395C109.541 66.2235 110.802 65.8417 112.091 65.8423C113.819 65.8431 115.475 66.5298 116.697 67.7514C117.919 68.9731 118.605 70.6298 118.606 72.3574Z" fill="#F9B0A1"/>
<path d="M111.442 69.9876C111.442 50.0116 95.2487 33.8179 75.2727 33.8179C55.2968 33.8179 39.103 50.0116 39.103 69.9876V88.0542C39.103 108.03 55.2968 124.224 75.2727 124.224C95.2487 124.224 111.442 108.03 111.442 88.0542V69.9876Z" fill="#F9B0A1"/>
<path d="M75.6365 139.3C74.6272 139.3 73.6277 139.102 72.6952 138.716C71.7626 138.33 70.9153 137.764 70.2016 137.05C69.4879 136.336 68.9219 135.489 68.5358 134.556C68.1498 133.624 67.9513 132.624 67.9517 131.615V116.721H83.3335V131.615C83.3339 132.625 83.135 133.626 82.7481 134.559C82.3613 135.493 81.7942 136.34 81.0792 137.054C80.3643 137.768 79.5155 138.334 78.5816 138.719C77.6476 139.105 76.6468 139.302 75.6365 139.3V139.3Z" fill="#F9B0A1"/>
<path d="M47.4636 178.16C46.4847 178.16 45.5459 177.772 44.8537 177.079C44.1616 176.387 43.7727 175.448 43.7727 174.47V157.973C43.7799 151.591 46.3181 145.473 50.8305 140.961C55.3429 136.448 61.4609 133.91 67.8424 133.903C68.8213 133.903 69.7601 134.292 70.4523 134.984C71.1444 135.676 71.5333 136.615 71.5333 137.594C71.5333 138.573 71.1444 139.511 70.4523 140.204C69.7601 140.896 68.8213 141.285 67.8424 141.285C63.418 141.289 59.1761 143.049 56.0476 146.178C52.9191 149.306 51.1593 153.548 51.1545 157.973V174.47C51.1545 175.448 50.7657 176.387 50.0735 177.079C49.3813 177.772 48.4425 178.16 47.4636 178.16V178.16Z" fill="#F9B0A1"/>
<path d="M51.1545 157.973H43.7727C43.7799 151.591 46.3181 145.473 50.8305 140.961C55.3429 136.448 61.4609 133.91 67.8424 133.903V141.285C63.418 141.289 59.1761 143.049 56.0476 146.178C52.9191 149.306 51.1593 153.548 51.1545 157.973V157.973Z" fill="#EBEBEB"/>
<path d="M104.115 178.16C103.136 178.16 102.197 177.772 101.505 177.079C100.813 176.387 100.424 175.448 100.424 174.47V157.973C100.419 153.548 98.6586 149.307 95.5302 146.179C92.4019 143.05 88.1605 141.29 83.7363 141.285C82.7574 141.285 81.8186 140.896 81.1265 140.204C80.4343 139.511 80.0454 138.573 80.0454 137.594C80.0454 136.615 80.4343 135.676 81.1265 134.984C81.8186 134.292 82.7574 133.903 83.7363 133.903C90.1178 133.91 96.2358 136.448 100.748 140.961C105.261 145.473 107.799 151.591 107.806 157.973V174.47C107.806 175.448 107.417 176.387 106.725 177.079C106.033 177.772 105.094 178.16 104.115 178.16V178.16Z" fill="#F9B0A1"/>
<path d="M107.806 157.973H100.424C100.419 153.548 98.6586 149.307 95.5302 146.179C92.4019 143.05 88.1605 141.29 83.7363 141.285V133.903C90.1178 133.91 96.2358 136.448 100.748 140.961C105.261 145.473 107.799 151.591 107.806 157.973V157.973Z" fill="#EBEBEB"/>
<path d="M85.885 132.96V160.588H65.3123V132.96C65.3139 131.818 65.769 130.723 66.5776 129.916C67.3862 129.109 68.4821 128.656 69.6244 128.657H81.5729C82.7152 128.656 83.8111 129.109 84.6197 129.916C85.4283 130.723 85.8834 131.818 85.885 132.96Z" fill="#EBEBEB"/>
<path d="M55.2119 77.0483C55.2119 87.3726 64.8089 95.7392 76.6452 95.7392C88.4816 95.7392 98.0786 87.3726 98.0786 77.0483H55.2119Z" fill="white"/>
<path d="M69.2485 70.1119C68.5252 70.1119 67.8315 69.8245 67.32 69.3131C66.8086 68.8016 66.5212 68.1079 66.5212 67.3846V65.1755C66.5212 64.4522 66.8086 63.7585 67.32 63.247C67.8315 62.7356 68.5252 62.4482 69.2485 62.4482C69.9718 62.4482 70.6655 62.7356 71.177 63.247C71.6884 63.7585 71.9758 64.4522 71.9758 65.1755V67.3846C71.9758 68.1079 71.6884 68.8016 71.177 69.3131C70.6655 69.8245 69.9718 70.1119 69.2485 70.1119Z" fill="#AC5B0F"/>
<path d="M84.0486 70.1119C83.3252 70.1119 82.6316 69.8245 82.1201 69.3131C81.6086 68.8016 81.3213 68.1079 81.3213 67.3846V65.1755C81.3213 64.4522 81.6086 63.7585 82.1201 63.247C82.6316 62.7356 83.3252 62.4482 84.0486 62.4482C84.7719 62.4482 85.4656 62.7356 85.977 63.247C86.4885 63.7585 86.7758 64.4522 86.7758 65.1755V67.3846C86.7758 68.1079 86.4885 68.8016 85.977 69.3131C85.4656 69.8245 84.7719 70.1119 84.0486 70.1119Z" fill="#AC5B0F"/>
</g>
<defs>
<clipPath id="clip0_701_18448">
<rect width="150" height="150" fill="white"/>
</clipPath>
</defs>
</svg>
