<svg width="150" height="150" viewBox="0 0 150 150" fill="none" xmlns="http://www.w3.org/2000/svg">
<g clip-path="url(#clip0_701_18479)">
<path d="M75 151.449C116.421 151.449 150 117.87 150 76.4487C150 35.0274 116.421 1.44873 75 1.44873C33.5786 1.44873 0 35.0274 0 76.4487C0 117.87 33.5786 151.449 75 151.449Z" fill="#396FED"/>
<path d="M83.306 126.867L67.9908 126.846C66.0722 127.184 64.3341 128.188 63.0817 129.68C61.8293 131.172 61.1426 133.058 61.1423 135.006V153.825H89.9999V135.006C90.0002 133.084 89.3328 131.221 88.1118 129.737C86.8909 128.252 85.1921 127.238 83.306 126.867V126.867Z" fill="#262424"/>
<path d="M67.8848 140.567H61.1423V168.234H67.8848V140.567Z" fill="#F9B0A1"/>
<path d="M83.2669 168.23H90.0093V140.564H83.2669V168.23Z" fill="#F9B0A1"/>
<path d="M105.676 100.436C121.974 84.1378 121.974 57.7137 105.676 41.4159C89.3779 25.118 62.9538 25.118 46.6559 41.4159C30.358 57.7137 30.358 84.1378 46.6559 100.436C62.9538 116.734 89.3779 116.734 105.676 100.436Z" fill="#F16625"/>
<path d="M102.774 107.995C117.469 93.3003 117.469 69.476 102.774 54.7817C88.08 40.0873 64.2557 40.0873 49.5613 54.7817C34.867 69.476 34.867 93.3003 49.5613 107.995C64.2557 122.689 88.08 122.689 102.774 107.995Z" fill="#F9B0A1"/>
<path d="M67.9668 126.879V118.634C67.9664 117.625 68.1648 116.625 68.5507 115.693C68.9365 114.761 69.5023 113.913 70.2157 113.2C70.929 112.486 71.776 111.92 72.7082 111.534C73.6404 111.148 74.6396 110.949 75.6486 110.949V110.949C76.6579 110.948 77.6574 111.147 78.59 111.533C79.5225 111.919 80.3698 112.485 81.0835 113.199C81.7972 113.912 82.3633 114.76 82.7493 115.692C83.1354 116.625 83.3339 117.624 83.3335 118.634V126.879L75.4365 131.564L67.9668 126.879Z" fill="#F9B0A1"/>
<path d="M58.2761 91.2484C60.6509 91.2484 62.5761 89.3233 62.5761 86.9484C62.5761 84.5736 60.6509 82.6484 58.2761 82.6484C55.9013 82.6484 53.9761 84.5736 53.9761 86.9484C53.9761 89.3233 55.9013 91.2484 58.2761 91.2484Z" fill="#AC5B0F"/>
<path d="M92.2973 91.2484C94.6721 91.2484 96.5973 89.3233 96.5973 86.9484C96.5973 84.5736 94.6721 82.6484 92.2973 82.6484C89.9225 82.6484 87.9973 84.5736 87.9973 86.9484C87.9973 89.3233 89.9225 91.2484 92.2973 91.2484Z" fill="#AC5B0F"/>
<path d="M67.5757 92.4033C68.7878 100.909 71.7211 106.925 75.1514 106.925C78.5817 106.925 81.5333 100.909 82.7272 92.4033H67.5757Z" fill="#FFFEF9"/>
<path d="M79.0729 36.0224C88.9566 34.4181 95.6684 25.1052 94.064 15.2214C92.4597 5.33771 83.1467 -1.37404 73.263 0.230313C63.3793 1.83467 56.6675 11.1476 58.2719 21.0313C59.8762 30.915 69.1892 37.6268 79.0729 36.0224Z" fill="#F16625"/>
<path d="M78.5607 76.6031C97.263 76.6031 112.424 68.2674 112.424 57.9849C112.424 47.7023 97.263 39.3667 78.5607 39.3667C59.8583 39.3667 44.697 47.7023 44.697 57.9849C44.697 68.2674 59.8583 76.6031 78.5607 76.6031Z" fill="#F16625"/>
<path d="M114.476 52.6577H81.2969C74.6846 52.6577 69.3242 58.0181 69.3242 64.6304C69.3242 71.2428 74.6846 76.6032 81.2969 76.6032H114.476C121.088 76.6032 126.448 71.2428 126.448 64.6304C126.448 58.0181 121.088 52.6577 114.476 52.6577Z" fill="#F16625"/>
<path d="M57.6244 100.028C61.6594 100.028 64.9305 98.6043 64.9305 96.8487C64.9305 95.0931 61.6594 93.6699 57.6244 93.6699C53.5894 93.6699 50.3184 95.0931 50.3184 96.8487C50.3184 98.6043 53.5894 100.028 57.6244 100.028Z" fill="#F9A08A"/>
<path d="M92.8275 100.028C96.8626 100.028 100.134 98.6043 100.134 96.8487C100.134 95.0931 96.8626 93.6699 92.8275 93.6699C88.7925 93.6699 85.5215 95.0931 85.5215 96.8487C85.5215 98.6043 88.7925 100.028 92.8275 100.028Z" fill="#F9A08A"/>
</g>
<defs>
<clipPath id="clip0_701_18479">
<rect width="150" height="150" fill="white"/>
</clipPath>
</defs>
</svg>
