<svg width="150" height="150" viewBox="0 0 150 150" fill="none" xmlns="http://www.w3.org/2000/svg">
<g clip-path="url(#clip0_701_18776)">
<path d="M75 150C116.421 150 150 116.421 150 75C150 33.5786 116.421 0 75 0C33.5786 0 0 33.5786 0 75C0 116.421 33.5786 150 75 150Z" fill="#396FED"/>
<path d="M117.267 55.5848C117.267 32.1478 98.2674 13.1484 74.8304 13.1484C51.3935 13.1484 32.394 32.1478 32.394 55.5848V102.858C32.394 126.294 51.3935 145.294 74.8304 145.294C98.2674 145.294 117.267 126.294 117.267 102.858V55.5848Z" fill="#AC5B0F"/>
<path d="M112.912 56.6244C112.912 35.5907 95.8618 18.5396 74.8289 18.5396C53.7961 18.5396 36.7456 35.5907 36.7456 56.6244V74.7577C36.7456 95.7914 53.7961 112.843 74.8289 112.843C95.8618 112.843 112.912 95.7914 112.912 74.7577V56.6244Z" fill="#F9B0A1"/>
<path d="M117.273 60.2394C117.273 55.6666 116.54 46.603 115.188 42.4757C109.63 25.506 93.6062 13.1484 74.8365 13.1484C54.785 13.1484 37.8668 27.2454 33.4971 46.0151C32.7789 49.0939 32.4001 60.2333 32.4001 63.5212C56.7911 66.6454 84.3577 60.9303 99.1365 43.203C100.94 52.9818 110.873 59.3727 117.273 60.2394Z" fill="#AC5B0F"/>
<path d="M47.6425 75.5726C47.409 77.5842 46.5843 79.4815 45.2726 81.0244C43.9608 82.5674 42.221 83.6867 40.2732 84.2408C38.3253 84.795 36.2569 84.7591 34.3294 84.1377C32.402 83.5162 30.702 82.3372 29.4447 80.7497C28.1873 79.1622 27.4289 77.2375 27.2654 75.2189C27.1019 73.2004 27.5406 71.1787 28.5261 69.4095C29.5116 67.6403 30.9996 66.2031 32.8019 65.2795C34.6042 64.356 36.6399 63.9877 38.6516 64.2211C39.9874 64.3757 41.2797 64.792 42.4546 65.4462C43.6296 66.1005 44.664 66.9798 45.499 68.034C46.3339 69.0881 46.953 70.2965 47.3208 71.59C47.6886 72.8835 47.7979 74.2368 47.6425 75.5726V75.5726Z" fill="#F9B0A1"/>
<path d="M122.268 76.1648C123.248 70.5953 119.528 65.2859 113.958 64.3058C108.389 63.3258 103.079 67.0463 102.099 72.6157C101.119 78.1852 104.84 83.4947 110.409 84.4747C115.979 85.4548 121.288 81.7343 122.268 76.1648Z" fill="#F9B0A1"/>
<path d="M117.273 82.9759C116.674 82.9759 116.1 82.738 115.676 82.3146C115.253 81.8912 115.015 81.317 115.015 80.7183V55.5849C115.015 33.4304 96.991 15.4062 74.8364 15.4062C52.6819 15.4062 34.6546 33.4304 34.6546 55.5849V80.7183C34.6546 81.0143 34.5963 81.3075 34.483 81.5811C34.3697 81.8546 34.2036 82.1031 33.9943 82.3125C33.7849 82.5218 33.5364 82.6879 33.2628 82.8012C32.9893 82.9145 32.6961 82.9728 32.4001 82.9728C32.104 82.9728 31.8108 82.9145 31.5373 82.8012C31.2637 82.6879 31.0152 82.5218 30.8058 82.3125C30.5965 82.1031 30.4304 81.8546 30.3171 81.5811C30.2038 81.3075 30.1455 81.0143 30.1455 80.7183V55.5849C30.1394 30.9425 50.1879 10.9092 74.8304 10.9092C99.4728 10.9092 119.521 30.9577 119.521 55.6001V80.7334C119.518 81.3282 119.28 81.8977 118.859 82.3177C118.438 82.7377 117.868 82.9743 117.273 82.9759Z" fill="#EF4151"/>
<path d="M29.797 80.897C31.6547 80.897 33.1606 77.9272 33.1606 74.2637C33.1606 70.6002 31.6547 67.6304 29.797 67.6304C27.9393 67.6304 26.4333 70.6002 26.4333 74.2637C26.4333 77.9272 27.9393 80.897 29.797 80.897Z" fill="#EF4151"/>
<path d="M33.6028 64.167H33.5998C32.2727 64.167 31.1968 65.2429 31.1968 66.57V81.9579C31.1968 83.2851 32.2727 84.3609 33.5998 84.3609H33.6028C34.93 84.3609 36.0059 83.2851 36.0059 81.9579V66.57C36.0059 65.2429 34.93 64.167 33.6028 64.167Z" fill="#262424"/>
<path d="M119 80.897C120.858 80.897 122.363 77.9272 122.363 74.2637C122.363 70.6002 120.858 67.6304 119 67.6304C117.142 67.6304 115.636 70.6002 115.636 74.2637C115.636 77.9272 117.142 80.897 119 80.897Z" fill="#EF4151"/>
<path d="M115.197 84.3579C115.833 84.3524 116.441 84.0974 116.89 83.648C117.34 83.1985 117.595 82.5905 117.6 81.9549V66.57C117.595 65.9344 117.34 65.3264 116.89 64.8769C116.441 64.4275 115.833 64.1725 115.197 64.167C114.561 64.1717 113.952 64.4263 113.502 64.8759C113.052 65.3254 112.797 65.9339 112.791 66.57V81.9549C112.797 82.591 113.052 83.1995 113.502 83.649C113.952 84.0986 114.561 84.3532 115.197 84.3579V84.3579Z" fill="#262424"/>
<path d="M55.9933 78.5655C58.8446 78.1027 60.7809 75.4161 60.318 72.5648C59.8552 69.7135 57.1686 67.7773 54.3173 68.2401C51.466 68.7029 49.5297 71.3896 49.9926 74.2409C50.4554 77.0921 53.142 79.0284 55.9933 78.5655Z" fill="#7E341F"/>
<path d="M94.7055 78.4999C97.5169 77.8364 99.258 75.0194 98.5945 72.208C97.9309 69.3967 95.114 67.6555 92.3026 68.3191C89.4912 68.9826 87.7501 71.7996 88.4136 74.6109C89.0772 77.4223 91.8941 79.1635 94.7055 78.4999Z" fill="#7E341F"/>
<path d="M59.7546 86.8638H88.9031C88.9031 86.8638 84.2183 93.6365 74.3274 93.6365C64.4365 93.6365 59.7546 86.8638 59.7546 86.8638Z" fill="#FFFEF9"/>
<path d="M50.4547 90.8364C53.3852 90.8364 55.7608 88.4893 55.7608 85.594C55.7608 82.6987 53.3852 80.3516 50.4547 80.3516C47.5243 80.3516 45.1487 82.6987 45.1487 85.594C45.1487 88.4893 47.5243 90.8364 50.4547 90.8364Z" fill="#F9A08A"/>
<path d="M98.5758 90.8364C101.506 90.8364 103.882 88.4893 103.882 85.594C103.882 82.6987 101.506 80.3516 98.5758 80.3516C95.6454 80.3516 93.2698 82.6987 93.2698 85.594C93.2698 88.4893 95.6454 90.8364 98.5758 90.8364Z" fill="#F9A08A"/>
<path d="M45.1513 176.97C44.4345 176.97 43.728 176.799 43.0904 176.472C42.4528 176.144 41.9024 175.669 41.485 175.087C41.0676 174.504 40.7951 173.83 40.6902 173.121C40.5852 172.412 40.6509 171.688 40.8816 171.009L55.4271 128.128C55.8248 127.012 56.6453 126.097 57.7115 125.581C58.7777 125.065 60.0041 124.989 61.1259 125.369C62.2477 125.75 63.175 126.556 63.7076 127.614C64.2402 128.672 64.3353 129.897 63.9725 131.024L49.4271 173.906C49.1242 174.8 48.5488 175.576 47.7818 176.126C47.0148 176.675 46.0948 176.97 45.1513 176.97V176.97Z" fill="#F9B0A1"/>
<path d="M108.027 176.97C107.085 176.969 106.166 176.673 105.399 176.124C104.633 175.574 104.058 174.799 103.755 173.906L89.2091 131.025C89.0189 130.464 88.941 129.871 88.98 129.28C89.0189 128.689 89.1738 128.111 89.4359 127.58C89.698 127.049 90.0622 126.575 90.5076 126.184C90.953 125.794 91.471 125.495 92.0319 125.305C92.5928 125.115 93.1856 125.037 93.7766 125.076C94.3676 125.115 94.9452 125.27 95.4763 125.532C96.0074 125.794 96.4817 126.158 96.8721 126.603C97.2625 127.049 97.5613 127.567 97.7516 128.128L112.297 171.009C112.527 171.688 112.592 172.412 112.487 173.121C112.382 173.829 112.109 174.503 111.692 175.085C111.275 175.668 110.725 176.143 110.087 176.47C109.45 176.798 108.744 176.969 108.027 176.97Z" fill="#F9B0A1"/>
<path d="M97.5395 139.279C97.4676 133.723 95.2005 128.42 91.2332 124.53C87.2658 120.639 81.9204 118.476 76.3638 118.512V118.512C70.8038 118.581 65.4971 120.848 61.6035 124.818C57.7099 128.787 55.5461 134.137 55.585 139.697L55.8335 164.433L97.785 164.015L97.5395 139.279Z" fill="#262424"/>
<path d="M68.3727 107.576H84.4818V122.285C84.4818 123.933 83.8269 125.514 82.6614 126.68C81.4958 127.845 79.915 128.5 78.2666 128.5H74.5848C72.9364 128.5 71.3556 127.845 70.19 126.68C69.0244 125.514 68.3696 123.933 68.3696 122.285V107.576H68.3727Z" fill="#F9B0A1"/>
</g>
<defs>
<clipPath id="clip0_701_18776">
<rect width="150" height="150" fill="white"/>
</clipPath>
</defs>
</svg>
