<svg width="150" height="150" viewBox="0 0 150 150" fill="none" xmlns="http://www.w3.org/2000/svg">
<g clip-path="url(#clip0_701_18511)">
<path d="M75 150C116.421 150 150 116.421 150 75C150 33.5786 116.421 0 75 0C33.5786 0 0 33.5786 0 75C0 116.421 33.5786 150 75 150Z" fill="#00BBC4"/>
<path d="M50.994 27.3755H50.991C43.7578 27.3755 37.894 33.2392 37.894 40.4725V91.23C37.894 98.4633 43.7578 104.327 50.991 104.327H50.994C58.2273 104.327 64.091 98.4633 64.091 91.23V40.4725C64.091 33.2392 58.2273 27.3755 50.994 27.3755Z" fill="#870000"/>
<path d="M112.039 32.9118C112.039 17.4847 99.5331 4.97852 84.1059 4.97852C68.6788 4.97852 56.1726 17.4847 56.1726 32.9118V84.3785C56.1726 99.8057 68.6788 112.312 84.1059 112.312C99.5331 112.312 112.039 99.8057 112.039 84.3785V32.9118Z" fill="#870000"/>
<path d="M35.9758 102.424C41.1171 102.424 45.2849 98.256 45.2849 93.1148C45.2849 87.9735 41.1171 83.8057 35.9758 83.8057C30.8346 83.8057 26.6667 87.9735 26.6667 93.1148C26.6667 98.256 30.8346 102.424 35.9758 102.424Z" fill="#FFDACD"/>
<path d="M113.794 102.424C118.935 102.424 123.103 98.256 123.103 93.1148C123.103 87.9735 118.935 83.8057 113.794 83.8057C108.653 83.8057 104.485 87.9735 104.485 93.1148C104.485 98.256 108.653 102.424 113.794 102.424Z" fill="#FFDACD"/>
<path d="M82.9304 116.018H67.5637V144.261H82.9304V116.018Z" fill="#FFDACD"/>
<path d="M69.0334 131.778H81.3122C83.5119 131.778 85.6215 132.652 87.1769 134.208C88.7323 135.763 89.6062 137.873 89.6062 140.072V158.89H60.7395V140.072C60.7395 137.873 61.6133 135.763 63.1687 134.208C64.7242 132.652 66.8338 131.778 69.0334 131.778V131.778Z" fill="#F0F0F0"/>
<path d="M74.8849 122.642C95.4148 122.642 112.058 103.947 112.058 80.8845C112.058 57.8225 95.4148 39.127 74.8849 39.127C54.355 39.127 37.7122 57.8225 37.7122 80.8845C37.7122 103.947 54.355 122.642 74.8849 122.642Z" fill="#FFDACD"/>
<path d="M74.5273 98.7877C71.0712 98.7884 67.676 97.8769 64.6849 96.1452C64.1077 95.8174 63.6013 95.3781 63.1952 94.8529C62.7892 94.3278 62.4915 93.7271 62.3194 93.086C62.1474 92.4448 62.1044 91.7758 62.1931 91.1179C62.2817 90.46 62.5001 89.8263 62.8357 89.2535C63.1713 88.6807 63.6173 88.1803 64.1478 87.7812C64.6784 87.3822 65.2829 87.0926 65.9263 86.9292C66.5698 86.7657 67.2392 86.7317 67.8959 86.8292C68.5526 86.9266 69.1833 87.1535 69.7516 87.4967C72.9607 89.3755 76.6243 88.9119 78.0364 87.8543C78.5631 87.4595 79.1624 87.1724 79.8 87.0092C80.4377 86.8461 81.1012 86.8101 81.7528 86.9034C82.4044 86.9967 83.0312 87.2174 83.5974 87.5529C84.1637 87.8884 84.6583 88.3322 85.0531 88.8588C85.4478 89.3855 85.735 89.9848 85.8982 90.6225C86.0613 91.2601 86.0973 91.9237 86.004 92.5752C85.9107 93.2268 85.69 93.8536 85.3545 94.4199C85.019 94.9861 84.5752 95.4808 84.0485 95.8755C81.4637 97.8089 78.0607 98.7877 74.5273 98.7877Z" fill="#FFFEF9"/>
<path d="M68.0546 142.767H60.7424V183.597H68.0546V142.767Z" fill="#FFDACD"/>
<path d="M82.297 183.594H89.6091V142.763H82.297V183.594Z" fill="#FFDACD"/>
<path d="M63.2303 60.9088L58.0333 62.8209C57.4272 63.0423 56.7581 63.0149 56.1722 62.7447C55.5862 62.4744 55.1311 61.9832 54.906 61.3785V61.3785C54.6844 60.7701 54.7135 60.0986 54.9868 59.5116C55.2601 58.9246 55.7554 58.4702 56.3636 58.2482L61.5576 56.333C62.164 56.1117 62.8334 56.1396 63.4195 56.4104C64.0055 56.6813 64.4604 57.1731 64.6848 57.7785V57.7785C64.9066 58.3865 64.878 59.0577 64.6052 59.6446C64.3325 60.2315 63.838 60.6862 63.2303 60.9088Z" fill="#7E341F"/>
<path d="M87.2092 60.9087L92.4032 62.8208C93.0097 63.0423 93.6792 63.015 94.2656 62.7448C94.8521 62.4745 95.3078 61.9834 95.5335 61.3784V61.3784C95.7539 60.7718 95.7257 60.1028 95.4549 59.517C95.1842 58.9312 94.6928 58.4762 94.088 58.2511L88.8941 56.3359C88.2868 56.1125 87.6158 56.1389 87.0279 56.4092C86.4401 56.6796 85.9833 57.1719 85.7577 57.7784V57.7784C85.5366 58.386 85.5652 59.0565 85.8373 59.6432C86.1093 60.2298 86.6026 60.6848 87.2092 60.9087V60.9087Z" fill="#7E341F"/>
<path d="M69.1668 78.942C69.0215 78.9424 68.8774 78.9141 68.7431 78.8586C68.6087 78.8032 68.4866 78.7217 68.3838 78.6189C68.281 78.5162 68.1996 78.3941 68.1441 78.2597C68.0887 78.1253 68.0604 77.9813 68.0608 77.836C68.0608 75.6427 67.1895 73.5393 65.6386 71.9884C64.0877 70.4375 61.9843 69.5663 59.7911 69.5663C57.5978 69.5663 55.4944 70.4375 53.9435 71.9884C52.3926 73.5393 51.5214 75.6427 51.5214 77.836C51.5065 78.1197 51.3833 78.3869 51.1773 78.5825C50.9712 78.7781 50.6979 78.8871 50.4138 78.8871C50.1297 78.8871 49.8564 78.7781 49.6503 78.5825C49.4442 78.3869 49.321 78.1197 49.3062 77.836C49.2825 76.4443 49.5362 75.0618 50.0524 73.7692C50.5686 72.4765 51.3371 71.2996 52.3129 70.3071C53.2887 69.3145 54.4524 68.5262 55.736 67.9881C57.0197 67.45 58.3976 67.1729 59.7895 67.1729C61.1814 67.1729 62.5594 67.45 63.8431 67.9881C65.1267 68.5262 66.2904 69.3145 67.2662 70.3071C68.242 71.2996 69.0104 72.4765 69.5267 73.7692C70.0429 75.0618 70.2965 76.4443 70.2729 77.836C70.2733 77.9813 70.2449 78.1253 70.1895 78.2597C70.1341 78.3941 70.0526 78.5162 69.9498 78.6189C69.847 78.7217 69.7249 78.8032 69.5906 78.8586C69.4562 78.9141 69.3122 78.9424 69.1668 78.942V78.942Z" fill="#7E341F"/>
<path d="M98.1819 78.942C98.0366 78.9424 97.8926 78.9141 97.7582 78.8586C97.6238 78.8032 97.5017 78.7217 97.3989 78.6189C97.2962 78.5162 97.2147 78.3941 97.1593 78.2597C97.1038 78.1253 97.0755 77.9813 97.0759 77.836C97.0759 76.75 96.862 75.6746 96.4464 74.6713C96.0308 73.6679 95.4217 72.7563 94.6537 71.9884C93.8858 71.2205 92.9742 70.6113 91.9709 70.1957C90.9675 69.7801 89.8922 69.5662 88.8062 69.5662C87.7202 69.5662 86.6448 69.7801 85.6415 70.1957C84.6382 70.6113 83.7265 71.2205 82.9586 71.9884C82.1907 72.7563 81.5816 73.6679 81.166 74.6713C80.7504 75.6746 80.5365 76.75 80.5365 77.836C80.5216 78.1197 80.3985 78.3869 80.1924 78.5825C79.9863 78.7781 79.713 78.8871 79.4289 78.8871C79.1448 78.8871 78.8715 78.7781 78.6654 78.5825C78.4594 78.3869 78.3362 78.1197 78.3213 77.836C78.2977 76.4443 78.5514 75.0618 79.0676 73.7692C79.5838 72.4765 80.3522 71.2996 81.328 70.3071C82.3038 69.3145 83.4675 68.5262 84.7512 67.9881C86.0348 67.45 87.4128 67.1729 88.8047 67.1729C90.1966 67.1729 91.5745 67.45 92.8582 67.9881C94.1418 68.5262 95.3055 69.3145 96.2813 70.3071C97.2571 71.2996 98.0256 72.4765 98.5418 73.7692C99.058 75.0618 99.3117 76.4443 99.288 77.836C99.2884 77.9813 99.2601 78.1253 99.2046 78.2597C99.1492 78.3941 99.0677 78.5162 98.9649 78.6189C98.8622 78.7217 98.7401 78.8032 98.6057 78.8586C98.4713 78.9141 98.3273 78.9424 98.1819 78.942V78.942Z" fill="#7E341F"/>
</g>
<defs>
<clipPath id="clip0_701_18511">
<rect width="150" height="150" fill="white"/>
</clipPath>
</defs>
</svg>
