<svg width="150" height="150" viewBox="0 0 150 150" fill="none" xmlns="http://www.w3.org/2000/svg">
<g clip-path="url(#clip0_701_18692)">
<path d="M75.3614 150.723C116.982 150.723 150.723 116.982 150.723 75.3614C150.723 33.7405 116.982 0 75.3614 0C33.7405 0 0 33.7405 0 75.3614C0 116.982 33.7405 150.723 75.3614 150.723Z" fill="#7E341F"/>
<path d="M82.106 21.2594C82.106 11.8859 74.5072 4.28711 65.1337 4.28711C55.7601 4.28711 48.1614 11.8859 48.1614 21.2594V45.2929C48.1614 54.6664 55.7601 62.2652 65.1337 62.2652C74.5072 62.2652 82.106 54.6664 82.106 45.2929V21.2594Z" fill="#AC5B0F"/>
<path d="M46.4105 33.2744C43.6913 33.2816 41.0854 34.3651 39.1626 36.2879C37.2398 38.2107 36.1564 40.8165 36.1492 43.5357V83.3022C36.1572 86.0212 37.2409 88.6266 39.1635 90.5492C41.0862 92.4719 43.6915 93.5555 46.4105 93.5636V93.5636C49.1293 93.5547 51.7341 92.4708 53.6566 90.5483C55.5791 88.6259 56.663 86.021 56.6718 83.3022V43.5418C56.6654 40.8218 55.5824 38.2149 53.6596 36.2909C51.7368 34.367 49.1306 33.2825 46.4105 33.2744V33.2744Z" fill="#AC5B0F"/>
<path d="M114.342 34.9128C114.342 22.3962 104.196 12.2495 91.6791 12.2495C79.1625 12.2495 69.0159 22.3962 69.0159 34.9128V80.2545C69.0159 92.771 79.1625 102.918 91.6791 102.918C104.196 102.918 114.342 92.771 114.342 80.2545V34.9128Z" fill="#AC5B0F"/>
<path d="M36.1491 102.918C41.3152 102.918 45.5031 98.73 45.5031 93.5639C45.5031 88.3979 41.3152 84.21 36.1491 84.21C30.9831 84.21 26.7952 88.3979 26.7952 93.5639C26.7952 98.73 30.9831 102.918 36.1491 102.918Z" fill="#F9A08A"/>
<path d="M114.342 102.918C119.508 102.918 123.696 98.73 123.696 93.5639C123.696 88.3979 119.508 84.21 114.342 84.21C109.176 84.21 104.988 88.3979 104.988 93.5639C104.988 98.73 109.176 102.918 114.342 102.918Z" fill="#F9A08A"/>
<path d="M83.3299 116.577H67.8892V144.956H83.3299V116.577Z" fill="#F9A08A"/>
<path d="M69.3659 132.414H81.7039C83.9141 132.414 86.0339 133.292 87.5968 134.855C89.1597 136.417 90.0378 138.537 90.0378 140.747V159.656H61.032V140.747C61.032 138.537 61.91 136.417 63.4729 134.855C65.0358 133.292 67.1556 132.414 69.3659 132.414V132.414Z" fill="#7CE6E6"/>
<path d="M75.2458 123.234C96.8382 123.234 114.342 104.448 114.342 81.2747C114.342 58.1015 96.8382 39.3159 75.2458 39.3159C53.6533 39.3159 36.1492 58.1015 36.1492 81.2747C36.1492 104.448 53.6533 123.234 75.2458 123.234Z" fill="#F9A08A"/>
<path d="M57.4515 83.8201C63.6821 83.8201 68.7329 78.7692 68.7329 72.5387C68.7329 66.3082 63.6821 61.2573 57.4515 61.2573C51.221 61.2573 46.1702 66.3082 46.1702 72.5387C46.1702 78.7692 51.221 83.8201 57.4515 83.8201Z" fill="#FFFEF9"/>
<path d="M57.4514 84.9315C55.0003 84.9315 52.6043 84.2047 50.5663 82.843C48.5283 81.4812 46.9399 79.5458 46.0019 77.2813C45.064 75.0168 44.8185 72.525 45.2967 70.1211C45.7749 67.7171 46.9552 65.5089 48.6884 63.7758C50.4215 62.0426 52.6297 60.8623 55.0337 60.3841C57.4376 59.9059 59.9294 60.1514 62.1939 61.0893C64.4584 62.0273 66.3938 63.6157 67.7556 65.6537C69.1173 67.6917 69.8441 70.0877 69.8441 72.5388C69.8401 75.8243 68.5332 78.9741 66.2099 81.2973C63.8867 83.6206 60.7369 84.9275 57.4514 84.9315V84.9315ZM57.4514 62.3718C55.4405 62.3718 53.4749 62.9681 51.8029 64.0853C50.131 65.2024 48.8279 66.7903 48.0583 68.648C47.2888 70.5058 47.0875 72.55 47.4798 74.5222C47.8721 76.4944 48.8404 78.306 50.2623 79.7279C51.6841 81.1498 53.4957 82.1181 55.4679 82.5104C57.4401 82.9027 59.4843 82.7013 61.3421 81.9318C63.1999 81.1623 64.7877 79.8592 65.9049 78.1872C67.022 76.5153 67.6183 74.5496 67.6183 72.5388C67.6151 69.8433 66.5429 67.2592 64.6369 65.3532C62.731 63.4472 60.1468 62.3751 57.4514 62.3718V62.3718Z" fill="#7E341F"/>
<path d="M92.6259 83.8201C98.8564 83.8201 103.907 78.7692 103.907 72.5387C103.907 66.3082 98.8564 61.2573 92.6259 61.2573C86.3953 61.2573 81.3445 66.3082 81.3445 72.5387C81.3445 78.7692 86.3953 83.8201 92.6259 83.8201Z" fill="#FFFEF9"/>
<path d="M92.6259 84.9315C90.1749 84.9315 87.7789 84.2047 85.7409 82.843C83.7029 81.4812 82.1145 79.5458 81.1765 77.2813C80.2385 75.0168 79.9931 72.525 80.4713 70.1211C80.9495 67.7171 82.1298 65.5089 83.8629 63.7758C85.5961 62.0426 87.8043 60.8623 90.2082 60.3841C92.6122 59.9059 95.104 60.1514 97.3684 61.0893C99.6329 62.0273 101.568 63.6157 102.93 65.6537C104.292 67.6917 105.019 70.0877 105.019 72.5388C105.015 75.8243 103.708 78.9741 101.384 81.2973C99.0613 83.6206 95.9115 84.9275 92.6259 84.9315V84.9315ZM92.6259 62.3718C90.6151 62.3718 88.6494 62.9681 86.9775 64.0853C85.3055 65.2024 84.0024 66.7903 83.2329 68.648C82.4634 70.5058 82.262 72.55 82.6543 74.5222C83.0466 76.4944 84.0149 78.306 85.4368 79.7279C86.8587 81.1498 88.6703 82.1181 90.6425 82.5104C92.6147 82.9027 94.6589 82.7013 96.5167 81.9318C98.3744 81.1623 99.9623 79.8592 101.079 78.1872C102.197 76.5153 102.793 74.5496 102.793 72.5388C102.79 69.8433 101.717 67.2592 99.8115 65.3532C97.9055 63.4472 95.3214 62.3751 92.6259 62.3718V62.3718Z" fill="#7E341F"/>
<path d="M68.7325 73.6531C68.4709 73.6517 68.2182 73.5583 68.0186 73.3893C67.8189 73.2204 67.685 72.9866 67.6404 72.7289C67.5957 72.4712 67.6432 72.2059 67.7743 71.9797C67.9055 71.7534 68.1121 71.5805 68.358 71.4912C72.6939 69.9413 77.1882 69.9383 81.7068 71.4912C81.9756 71.5949 82.1938 71.7988 82.3156 72.06C82.4373 72.3211 82.4532 72.6193 82.3598 72.8919C82.2665 73.1645 82.0711 73.3904 81.8148 73.5221C81.5585 73.6538 81.2612 73.6811 80.9852 73.5983C76.8989 72.1976 73.0106 72.1976 69.11 73.5983C68.9884 73.6388 68.8606 73.6573 68.7325 73.6531V73.6531Z" fill="#7E341F"/>
<path d="M57.9993 75.0841C57.5515 75.0825 57.1226 74.9039 56.8061 74.5873C56.4895 74.2708 56.3109 73.8419 56.3093 73.3942V70.7999C56.3101 70.3517 56.4883 69.922 56.805 69.6048C57.1217 69.2875 57.551 69.1085 57.9993 69.1069V69.1069C58.4475 69.1085 58.8768 69.2875 59.1935 69.6048C59.5102 69.922 59.6884 70.3517 59.6892 70.7999V73.382C59.69 73.6047 59.6469 73.8254 59.5624 74.0315C59.4779 74.2376 59.3537 74.425 59.1967 74.583C59.0398 74.7411 58.8533 74.8667 58.6478 74.9527C58.4424 75.0386 58.222 75.0833 57.9993 75.0841V75.0841Z" fill="#7E341F"/>
<path d="M92.6257 75.0841C92.178 75.0825 91.7491 74.9039 91.4325 74.5874C91.116 74.2708 90.9374 73.8419 90.9358 73.3942V70.7999C90.9398 70.3538 91.1194 69.9272 91.4357 69.6126C91.752 69.298 92.1796 69.1207 92.6257 69.1191V69.1191C93.0739 69.1207 93.5033 69.2997 93.82 69.617C94.1366 69.9342 94.3148 70.3639 94.3156 70.8121V73.382C94.3168 73.6048 94.274 73.8257 94.1897 74.032C94.1053 74.2382 93.9811 74.4258 93.8241 74.584C93.6671 74.7421 93.4804 74.8677 93.2748 74.9535C93.0691 75.0393 92.8486 75.0837 92.6257 75.0841Z" fill="#7E341F"/>
<path d="M75.4891 94.6692C70.6173 94.6692 65.6571 93.235 60.6543 90.3728C60.5276 90.3002 60.4163 90.2034 60.327 90.0879C60.2377 89.9723 60.172 89.8403 60.1337 89.6993C60.0954 89.5584 60.0852 89.4113 60.1037 89.2664C60.1223 89.1215 60.1692 88.9817 60.2417 88.8549C60.3143 88.7282 60.4111 88.6169 60.5267 88.5276C60.6423 88.4383 60.7743 88.3726 60.9152 88.3343C61.0562 88.296 61.2033 88.2858 61.3482 88.3043C61.4931 88.3229 61.6329 88.3698 61.7596 88.4423C71.1471 93.8136 79.959 93.8197 88.704 88.4576C88.9556 88.3033 89.2581 88.2553 89.545 88.3241C89.6871 88.3582 89.8211 88.4199 89.9393 88.5058C90.0575 88.5916 90.1577 88.6999 90.2341 88.8245C90.3104 88.949 90.3615 89.0874 90.3844 89.2317C90.4073 89.376 90.4016 89.5234 90.3675 89.6655C90.3334 89.8076 90.2717 89.9416 90.1859 90.0598C90.1 90.178 89.9917 90.2782 89.8672 90.3545C85.178 93.2289 80.3853 94.6692 75.4891 94.6692Z" fill="#7E341F"/>
<path d="M68.3797 143.455H61.0354V184.482H68.3797V143.455Z" fill="#F9A08A"/>
<path d="M82.6967 184.479H90.041V143.451H82.6967V184.479Z" fill="#F9A08A"/>
</g>
<defs>
<clipPath id="clip0_701_18692">
<rect width="150" height="150" fill="white"/>
</clipPath>
</defs>
</svg>
