<svg width="150" height="150" viewBox="0 0 150 150" fill="none" xmlns="http://www.w3.org/2000/svg">
<g clip-path="url(#clip0_701_18921)">
<path d="M75 150C116.421 150 150 116.421 150 75C150 33.5786 116.421 0 75 0C33.5786 0 0 33.5786 0 75C0 116.421 33.5786 150 75 150Z" fill="#396FED"/>
<path d="M118.658 52.4546L125.036 84.497C125.036 106.149 25.3394 106.149 25.3394 84.497L30.7939 52.5364C33.0424 39.4727 35.5727 33.1424 41.8787 26.1455C45.5586 22.0396 50.0619 18.7548 55.0956 16.505C60.1293 14.2553 65.5803 13.0909 71.0939 13.0879H79.2969C100.939 13.0879 114.591 28.9243 118.658 52.4546Z" fill="#262424"/>
<path d="M103.77 208.618V174.827C103.77 159.782 91.4576 147.47 76.4121 147.47H73.9636C58.9151 147.47 46.603 159.782 46.603 174.827V208.618H103.77Z" fill="#396FED"/>
<path d="M95.3182 151.818V132.585C95.3023 127.249 93.1757 122.136 89.403 118.363C85.6302 114.589 80.5177 112.462 75.1819 112.445V112.445C69.8455 112.461 64.7322 114.588 60.9588 118.362C57.1854 122.135 55.0585 127.248 55.0425 132.585V151.818H95.3182Z" fill="#BD0000"/>
<path d="M75.1881 125.455C72.9233 125.455 70.7513 124.555 69.1498 122.953C67.5484 121.352 66.6487 119.18 66.6487 116.915V108.33C66.6495 106.066 67.5495 103.895 69.1509 102.294C70.7522 100.693 72.9238 99.7939 75.1881 99.7939V99.7939C76.3091 99.7939 77.4191 100.015 78.4548 100.444C79.4905 100.873 80.4315 101.502 81.2242 102.294C82.0169 103.087 82.6456 104.028 83.0746 105.064C83.5036 106.099 83.7244 107.209 83.7244 108.33V116.903C83.7264 118.025 83.5071 119.137 83.079 120.174C82.6509 121.212 82.0224 122.155 81.2295 122.949C80.4367 123.743 79.495 124.373 78.4583 124.803C77.4216 125.233 76.3104 125.455 75.1881 125.455V125.455Z" fill="#F9B0A1"/>
<path d="M75.1877 19.3062H75.1847C52.9896 19.3062 34.9968 37.2989 34.9968 59.494V67.9455C34.9968 90.1407 52.9896 108.133 75.1847 108.133H75.1877C97.3829 108.133 115.376 90.1407 115.376 67.9455V59.494C115.376 37.2989 97.3829 19.3062 75.1877 19.3062Z" fill="#F9B0A1"/>
<path d="M39.3969 79.4677C42.224 76.6405 42.224 72.0568 39.3969 69.2296C36.5697 66.4025 31.986 66.4025 29.1588 69.2296C26.3317 72.0568 26.3317 76.6405 29.1588 79.4677C31.986 82.2948 36.5697 82.2948 39.3969 79.4677Z" fill="#F9B0A1"/>
<path d="M123.206 75.7136C123.962 71.7875 121.392 67.9919 117.466 67.2358C113.54 66.4798 109.744 69.0496 108.988 72.9757C108.232 76.9018 110.802 80.6974 114.728 81.4534C118.654 82.2095 122.45 79.6396 123.206 75.7136Z" fill="#F9B0A1"/>
<path d="M49.9152 82.3002C49.9152 82.8032 49.1758 83.2093 48.2606 83.2093C47.3455 83.2093 46.603 82.8032 46.603 82.3002C46.603 81.7972 47.3455 81.3911 48.2606 81.3911C49.1758 81.3911 49.9152 81.7972 49.9152 82.3002Z" fill="#F9B0A1"/>
<path d="M55.1031 82.3002C55.1031 82.8032 54.3607 83.2093 53.4456 83.2093C52.5304 83.2093 51.791 82.8032 51.791 82.3002C51.791 81.7972 52.5304 81.3911 53.4456 81.3911C54.3607 81.3911 55.1031 81.7972 55.1031 82.3002Z" fill="#F9B0A1"/>
<path d="M52.703 84.6908C52.703 85.1939 51.9606 85.5999 51.0454 85.5999C50.1303 85.5999 49.3909 85.1939 49.3909 84.6908C49.3909 84.1878 50.1333 83.7817 51.0454 83.7817C51.9575 83.7817 52.703 84.1878 52.703 84.6908Z" fill="#F9B0A1"/>
<path d="M57.9426 84.6908C57.9426 85.1939 57.2002 85.5999 56.285 85.5999C55.3699 85.5999 54.6274 85.1939 54.6274 84.6908C54.6274 84.1878 55.3699 83.7817 56.285 83.7817C57.2002 83.7817 57.9426 84.1878 57.9426 84.6908Z" fill="#F9B0A1"/>
<path d="M60.3033 82.3002C60.3033 82.8032 59.5639 83.2093 58.6488 83.2093C57.7336 83.2093 56.9912 82.8032 56.9912 82.3002C56.9912 81.7972 57.7336 81.3911 58.6488 81.3911C59.5639 81.3911 60.3033 81.7972 60.3033 82.3002Z" fill="#F9B0A1"/>
<path d="M92.591 82.3002C92.591 82.8032 91.8486 83.2093 90.9335 83.2093C90.0183 83.2093 89.2759 82.8032 89.2759 82.3002C89.2759 81.7972 90.0183 81.3911 90.9335 81.3911C91.8486 81.3911 92.591 81.7972 92.591 82.3002Z" fill="#F9B0A1"/>
<path d="M97.776 82.3002C97.776 82.8032 97.0336 83.2093 96.1214 83.2093C95.2093 83.2093 94.4639 82.8032 94.4639 82.3002C94.4639 81.7972 95.2063 81.3911 96.1214 81.3911C97.0366 81.3911 97.776 81.7972 97.776 82.3002Z" fill="#F9B0A1"/>
<path d="M95.3758 84.6908C95.3758 85.1939 94.6365 85.5999 93.7213 85.5999C92.8061 85.5999 92.0637 85.1939 92.0637 84.6908C92.0637 84.1878 92.8061 83.7817 93.7213 83.7817C94.6365 83.7817 95.3758 84.1878 95.3758 84.6908Z" fill="#F9B0A1"/>
<path d="M100.606 84.6908C100.606 85.1939 99.8639 85.5999 98.9487 85.5999C98.0336 85.5999 97.2942 85.1939 97.2942 84.6908C97.2942 84.1878 98.0336 83.7817 98.9487 83.7817C99.8639 83.7817 100.606 84.1878 100.606 84.6908Z" fill="#F9B0A1"/>
<path d="M102.964 82.3002C102.964 82.8032 102.221 83.2093 101.306 83.2093C100.391 83.2093 99.6487 82.8032 99.6487 82.3002C99.6487 81.7972 100.391 81.3911 101.306 81.3911C102.221 81.3911 102.964 81.7972 102.964 82.3002Z" fill="#F9B0A1"/>
<path d="M65.748 75.3695C70.1326 70.985 70.1326 63.8763 65.748 59.4918C61.3635 55.1073 54.2548 55.1073 49.8703 59.4918C45.4858 63.8763 45.4858 70.985 49.8703 75.3695C54.2548 79.7541 61.3635 79.7541 65.748 75.3695Z" fill="#FFFEF9"/>
<path d="M57.8094 79.7638C55.3701 79.7638 52.9856 79.0405 50.9574 77.6853C48.9292 76.3301 47.3484 74.4039 46.4149 72.1503C45.4814 69.8967 45.2372 67.4168 45.7131 65.0244C46.1889 62.632 47.3636 60.4344 49.0884 58.7095C50.8133 56.9847 53.0109 55.81 55.4033 55.3342C57.7957 54.8583 60.2756 55.1025 62.5292 56.036C64.7828 56.9695 66.709 58.5503 68.0642 60.5785C69.4194 62.6067 70.1427 64.9912 70.1427 67.4305C70.1395 70.7005 68.8391 73.8357 66.5269 76.148C64.2146 78.4602 61.0794 79.7606 57.8094 79.7638V79.7638ZM57.8094 57.3123C55.8084 57.3129 53.8524 57.9069 52.1889 59.019C50.5253 60.1312 49.2289 61.7116 48.4636 63.5605C47.6982 65.4095 47.4983 67.4438 47.8891 69.4063C48.2798 71.3689 49.2437 73.1715 50.6589 74.5862C52.0741 76.001 53.8769 76.9643 55.8396 77.3545C57.8023 77.7447 59.8365 77.5441 61.6852 76.7782C63.5339 76.0123 65.1139 74.7154 66.2256 73.0516C67.3373 71.3877 67.9306 69.4316 67.9306 67.4305C67.9274 64.7475 66.86 62.1753 64.9625 60.2783C63.065 58.3814 60.4925 57.3147 57.8094 57.3123V57.3123Z" fill="#262424"/>
<path d="M100.756 75.371C105.14 70.9865 105.14 63.8778 100.756 59.4932C96.3713 55.1087 89.2626 55.1087 84.8781 59.4932C80.4936 63.8778 80.4936 70.9865 84.8781 75.371C89.2626 79.7555 96.3713 79.7555 100.756 75.371Z" fill="#FFFEF9"/>
<path d="M92.8153 79.7638C90.376 79.7638 87.9914 79.0405 85.9632 77.6853C83.935 76.3301 82.3542 74.4039 81.4208 72.1503C80.4873 69.8967 80.243 67.4168 80.7189 65.0244C81.1948 62.632 82.3694 60.4344 84.0943 58.7095C85.8191 56.9847 88.0167 55.81 90.4091 55.3342C92.8016 54.8583 95.2814 55.1025 97.535 56.036C99.7886 56.9695 101.715 58.5503 103.07 60.5785C104.425 62.6067 105.149 64.9912 105.149 67.4305C105.145 70.7003 103.844 73.835 101.532 76.1471C99.2197 78.4592 96.085 79.7598 92.8153 79.7638V79.7638ZM92.8153 57.3123C90.8141 57.3123 88.8578 57.9057 87.1939 59.0175C85.53 60.1293 84.2331 61.7096 83.4673 63.5584C82.7015 65.4073 82.5011 67.4417 82.8915 69.4045C83.2819 71.3672 84.2456 73.1701 85.6606 74.5851C87.0757 76.0002 88.8786 76.9639 90.8413 77.3543C92.804 77.7447 94.8385 77.5443 96.6873 76.7785C98.5362 76.0127 100.116 74.7158 101.228 73.0519C102.34 71.3879 102.933 69.4317 102.933 67.4305C102.93 64.748 101.863 62.1763 99.9664 60.2794C98.0695 58.3826 95.4978 57.3155 92.8153 57.3123V57.3123Z" fill="#262424"/>
<path d="M81.5909 68.5396C81.4683 68.5384 81.3466 68.5179 81.2303 68.479C77.1637 67.085 73.297 67.082 69.4122 68.479C69.2753 68.5279 69.1301 68.5494 68.9849 68.5423C68.8397 68.5351 68.6973 68.4994 68.5659 68.4372C68.4345 68.375 68.3166 68.2876 68.219 68.1798C68.1214 68.0721 68.046 67.9462 67.997 67.8093C67.9481 67.6724 67.9266 67.5272 67.9337 67.382C67.9409 67.2368 67.9766 67.0944 68.0388 66.963C68.101 66.8316 68.1884 66.7137 68.2962 66.6161C68.4039 66.5185 68.5298 66.4431 68.6667 66.3941C72.9849 64.8517 77.4546 64.8517 81.9515 66.3941C82.1993 66.4795 82.4087 66.6499 82.5428 66.875C82.6769 67.1001 82.727 67.3655 82.6841 67.6239C82.6413 67.8824 82.5083 68.1174 82.3088 68.2872C82.1092 68.4571 81.856 68.5507 81.594 68.5517L81.5909 68.5396Z" fill="#262424"/>
<path d="M58.3547 69.9635C57.9091 69.9619 57.4823 69.7842 57.1672 69.4692C56.8522 69.1541 56.6744 68.7273 56.6729 68.2817V65.6999C56.6737 65.2541 56.8511 64.8268 57.1663 64.5115C57.4816 64.1963 57.9089 64.0189 58.3547 64.0181V64.0181C58.8007 64.0189 59.2284 64.1962 59.5441 64.5114C59.8598 64.8265 60.0379 65.2538 60.0395 65.6999V68.2817C60.0379 68.7278 59.8598 69.1551 59.5441 69.4702C59.2284 69.7854 58.8007 69.9627 58.3547 69.9635V69.9635Z" fill="#262424"/>
<path d="M92.8181 64.0181H92.8151C91.8863 64.0181 91.1333 64.771 91.1333 65.6999V68.2847C91.1333 69.2136 91.8863 69.9666 92.8151 69.9666H92.8181C93.747 69.9666 94.5 69.2136 94.5 68.2847V65.6999C94.5 64.771 93.747 64.0181 92.8181 64.0181Z" fill="#262424"/>
<path d="M118.658 52.4546V63.6364C84.6032 61.1535 59.0072 48.6566 41.8699 26.1455C45.5497 22.0396 50.053 18.7548 55.0867 16.505C60.1204 14.2553 65.5715 13.0909 71.085 13.0879H79.288C100.94 13.0879 118.658 30.803 118.658 52.4546Z" fill="#3C3A3A"/>
<path d="M30.7852 52.5364C33.0336 39.4727 35.5639 33.1424 41.87 26.1455C45.5498 22.0396 50.0532 18.7548 55.0869 16.505C60.1205 14.2553 65.5716 13.0909 71.0852 13.0879H79.2882C100.94 13.0879 30.7852 52.5364 30.7852 52.5364Z" fill="#3C3A3A"/>
<path d="M76.4545 16.9698C76.4545 16.9698 69.2485 9.39402 79.1091 5.71826L76.4545 16.9698Z" fill="#3C3A3A"/>
<path d="M77.1484 15.7942C77.1484 15.7942 66.9393 18.0881 68.8514 7.74268L77.1484 15.7942Z" fill="#3C3A3A"/>
<path d="M61.0969 82.6367C61.1081 86.3704 62.5963 89.948 65.2364 92.5881C67.8766 95.2283 71.4541 96.7164 75.1878 96.7276V96.7276C78.9212 96.7164 82.4985 95.2282 85.1382 92.5879C87.7778 89.9477 89.2653 86.3701 89.2757 82.6367H61.0969Z" fill="#FFFEF9"/>
<path d="M63.2457 136.964H55.1033V173.085H63.2457V136.964Z" fill="#F9B0A1"/>
<path d="M95.3243 136.964H87.1819V173.085H95.3243V136.964Z" fill="#F9B0A1"/>
</g>
<defs>
<clipPath id="clip0_701_18921">
<rect width="150" height="150" fill="white"/>
</clipPath>
</defs>
</svg>
