<svg width="150" height="150" viewBox="0 0 150 150" fill="none" xmlns="http://www.w3.org/2000/svg">
<g clip-path="url(#clip0_701_18855)">
<path d="M75 158.863C116.421 158.863 150 125.285 150 83.8633C150 42.4419 116.421 8.86328 75 8.86328C33.5786 8.86328 0 42.4419 0 83.8633C0 125.285 33.5786 158.863 75 158.863Z" fill="#7CE6E6"/>
<path d="M78.5151 36.7665L71.8757 36.8392C67.0058 36.8757 62.319 34.9845 58.8384 31.5782C55.3577 28.1718 53.3656 23.5271 53.297 18.6574V18.6574C53.2589 13.7856 55.1504 9.09678 58.5582 5.61511C61.9661 2.13343 66.6133 0.141914 71.4848 0.0756092L78.1242 0.00591234C82.9944 -0.0313787 87.6816 1.85963 91.1625 5.26611C94.6433 8.67259 96.6351 13.3178 96.703 18.1877V18.1877C96.7419 23.0595 94.8505 27.7485 91.4424 31.2298C88.0343 34.7112 83.3866 36.7018 78.5151 36.7665Z" fill="#870000"/>
<path d="M75 107.745C97.0144 107.745 114.861 90.4636 114.861 69.1454C114.861 47.8272 97.0144 30.5454 75 30.5454C52.9856 30.5454 35.1394 47.8272 35.1394 69.1454C35.1394 90.4636 52.9856 107.745 75 107.745Z" fill="#870000"/>
<path d="M40.3789 89.0272C40.3789 108.148 55.8794 123.648 75.0001 123.648C94.1209 123.648 109.621 108.148 109.621 89.0272V72.5393C109.621 53.4186 94.1209 37.9181 75.0001 37.9181C55.8794 37.9181 40.3789 53.4186 40.3789 72.5393V89.0272Z" fill="#F9B0A1"/>
<path d="M50.403 90.4777C51.3866 85.4314 48.0932 80.5432 43.0469 79.5595C38.0006 78.5759 33.1123 81.8693 32.1287 86.9156C31.1451 91.9619 34.4385 96.8501 39.4848 97.8338C44.5311 98.8174 49.4193 95.524 50.403 90.4777Z" fill="#F9B0A1"/>
<path d="M116.302 94.1056C119.294 89.9247 118.33 84.1098 114.15 81.1177C109.969 78.1256 104.154 79.0893 101.162 83.2702C98.1695 87.451 99.1332 93.2659 103.314 96.2581C107.495 99.2502 113.31 98.2865 116.302 94.1056Z" fill="#F9B0A1"/>
<path d="M62.7139 91.9746C64.5433 90.1974 64.4997 87.1851 62.6164 85.2464C60.733 83.3077 57.7233 83.1768 55.8938 84.954C54.0644 86.7312 54.108 89.7435 55.9913 91.6822C57.8747 93.6209 60.8844 93.7518 62.7139 91.9746Z" fill="#7E341F"/>
<path d="M66.3638 100.158C66.3638 100.158 69.3941 106.282 74.8486 106.197C80.3032 106.112 83.6365 100.118 83.6365 100.118L66.3638 100.158Z" fill="#EF4151"/>
<path d="M51.3967 100.018C51.3976 100.644 51.5241 101.263 51.7687 101.839C52.0133 102.415 52.3709 102.936 52.8205 103.371C53.2701 103.806 53.8024 104.146 54.386 104.372C54.9696 104.598 55.5925 104.704 56.2179 104.684C57.4942 104.661 58.7113 104.142 59.6117 103.237C60.5121 102.332 61.0251 101.112 61.0422 99.836C61.0413 99.2101 60.9147 98.5907 60.67 98.0145C60.4252 97.4384 60.0673 96.9173 59.6173 96.4821C59.1674 96.0468 58.6347 95.7064 58.0508 95.4809C57.4669 95.2554 56.8436 95.1495 56.2179 95.1694C54.9419 95.1929 53.7252 95.7121 52.8253 96.6171C51.9254 97.522 51.413 98.7417 51.3967 100.018V100.018Z" fill="#F9A08A"/>
<path d="M55.1878 81.5695L61.0757 81.2453C61.2711 81.2352 61.4624 81.1848 61.6374 81.0974C61.8125 81.0099 61.9677 80.8872 62.0931 80.737C62.2186 80.5868 62.3117 80.4123 62.3665 80.2245C62.4214 80.0366 62.4369 79.8394 62.412 79.6453V79.6453C62.3629 79.2402 62.1634 78.8683 61.853 78.6034C61.5426 78.3385 61.144 78.1999 60.7363 78.215L54.8484 78.5362C54.6529 78.5463 54.4617 78.5967 54.2866 78.6841C54.1115 78.7716 53.9564 78.8943 53.8309 79.0445C53.7055 79.1947 53.6124 79.3692 53.5575 79.557C53.5026 79.7449 53.4871 79.9421 53.512 80.1362V80.1362C53.5611 80.5416 53.7605 80.9138 54.0708 81.1792C54.3811 81.4446 54.7797 81.5839 55.1878 81.5695V81.5695Z" fill="#AC5B0F"/>
<path d="M94.0104 91.6818C95.8937 89.7432 95.9374 86.7308 94.1079 84.9536C92.2785 83.1764 89.2687 83.3074 87.3854 85.2461C85.5021 87.1847 85.4584 90.197 87.2878 91.9742C89.1173 93.7514 92.1271 93.6205 94.0104 91.6818Z" fill="#7E341F"/>
<path d="M97.9639 102.371C99.2884 100.115 98.489 97.1865 96.1785 95.8298C93.8679 94.4731 90.9211 95.2019 89.5967 97.4577C88.2722 99.7134 89.0716 102.642 91.3821 103.998C93.6927 105.355 96.6395 104.626 97.9639 102.371Z" fill="#F9A08A"/>
<path d="M94.8122 81.5695L88.9243 81.2453C88.7289 81.2352 88.5376 81.1848 88.3625 81.0974C88.1874 81.0099 88.0323 80.8872 87.9068 80.737C87.7814 80.5868 87.6883 80.4123 87.6334 80.2245C87.5785 80.0366 87.5631 79.8394 87.5879 79.6453V79.6453C87.6371 79.2402 87.8366 78.8683 88.147 78.6034C88.4573 78.3385 88.8559 78.1999 89.2637 78.215L95.1516 78.5362C95.347 78.5463 95.5383 78.5967 95.7134 78.6841C95.8885 78.7716 96.0436 78.8943 96.1691 79.0445C96.2945 79.1947 96.3876 79.3692 96.4425 79.557C96.4974 79.7449 96.5128 79.9421 96.4879 80.1362V80.1362C96.4389 80.5416 96.2395 80.9138 95.9292 81.1792C95.6189 81.4446 95.2203 81.5839 94.8122 81.5695V81.5695Z" fill="#AC5B0F"/>
<path d="M74.5089 35.4028C40.4635 35.4028 38.7029 64.7513 38.7029 64.7513H111.297C111.297 64.7513 108.554 35.4028 74.5089 35.4028Z" fill="#931919"/>
<path d="M59.5817 39.5999L90.3453 39.8636C91.4926 39.8693 92.5956 39.421 93.4136 38.6166C94.2316 37.8122 94.6984 36.7169 94.712 35.5696V35.5696C94.7176 34.4226 94.2693 33.32 93.4648 32.5024C92.6603 31.6849 91.565 31.2188 90.418 31.206L59.6544 30.9454C58.5087 30.9381 57.4066 31.3842 56.5886 32.1863C55.7705 32.9885 55.3029 34.0816 55.2877 35.2272V35.2272C55.2788 36.376 55.7259 37.4815 56.5308 38.3012C57.3357 39.1209 58.4329 39.5879 59.5817 39.5999V39.5999Z" fill="#EF4151"/>
<path d="M31.6304 175.942C30.7609 175.942 29.9101 175.69 29.1804 175.217C28.4507 174.744 27.8731 174.071 27.5171 173.278C27.1611 172.484 27.0419 171.605 27.1738 170.746C27.3057 169.886 27.6832 169.083 28.2607 168.433L58.6031 134.3C59.3975 133.406 60.5146 132.864 61.7086 132.793C62.9026 132.723 64.0757 133.13 64.9698 133.924C65.8639 134.719 66.4057 135.836 66.4762 137.03C66.5467 138.224 66.14 139.397 65.3455 140.291L35.0061 174.427C34.5827 174.904 34.0629 175.286 33.4809 175.547C32.899 175.808 32.2682 175.943 31.6304 175.942V175.942Z" fill="#154A87"/>
<path d="M118.37 175.942C119.239 175.942 120.09 175.69 120.82 175.217C121.549 174.744 122.127 174.071 122.483 173.278C122.839 172.484 122.958 171.605 122.826 170.746C122.694 169.886 122.317 169.083 121.739 168.433L91.3968 134.3C91.0035 133.857 90.5267 133.496 89.9939 133.238C89.4611 132.979 88.8825 132.828 88.2913 132.793C87.7001 132.759 87.1078 132.84 86.5483 133.034C85.9887 133.228 85.4729 133.531 85.0302 133.924C84.5874 134.318 84.2265 134.794 83.9681 135.327C83.7096 135.86 83.5586 136.438 83.5237 137.03C83.4888 137.621 83.5707 138.213 83.7647 138.773C83.9587 139.332 84.261 139.848 84.6544 140.291L114.994 174.427C115.417 174.904 115.937 175.286 116.519 175.547C117.101 175.808 117.732 175.943 118.37 175.942V175.942Z" fill="#154A87"/>
<path d="M95.4544 147.955C95.3392 136.418 89.4695 127.045 74.9998 127.045C60.5301 127.045 54.4301 136.418 54.5453 147.955V173.409H95.4544V147.955Z" fill="#154A87"/>
<path d="M66.9454 116.455H83.0545V131.164C83.0545 132.812 82.3997 134.393 81.2341 135.558C80.0686 136.724 78.4877 137.379 76.8394 137.379H73.1575C71.5092 137.379 69.9283 136.724 68.7628 135.558C67.5972 134.393 66.9424 132.812 66.9424 131.164V116.455H66.9454Z" fill="#F9B0A1"/>
</g>
<defs>
<clipPath id="clip0_701_18855">
<rect width="150" height="150" fill="white"/>
</clipPath>
</defs>
</svg>
