<svg xmlns="http://www.w3.org/2000/svg" xmlns:xlink="http://www.w3.org/1999/xlink" width="1440" zoomAndPan="magnify" viewBox="0 0 1080 599.999999" height="800" preserveAspectRatio="xMidYMid meet" version="1.0"><defs><clipPath id="ad3ed1d7b6"><path d="M 403 155.238281 L 533 155.238281 L 533 395.238281 L 403 395.238281 Z M 403 155.238281 " clip-rule="nonzero"/></clipPath><clipPath id="90734a8a86"><path d="M 547 155.238281 L 677 155.238281 L 677 395.238281 L 547 395.238281 Z M 547 155.238281 " clip-rule="nonzero"/></clipPath></defs><g clip-path="url(#ad3ed1d7b6)"><path fill="#151aa5" d="M 415.917969 182.910156 C 407.414062 203.097656 398.027344 209.648438 407.59375 245.238281 C 417.15625 280.828125 456.816406 284.90625 456.816406 284.90625 L 466.691406 285.542969 C 480.617188 286.441406 493.707031 292.832031 502.675781 303.523438 C 507.222656 308.945312 510.96875 315.738281 512.246094 324.039062 L 512.246094 372.382812 L 457.171875 372.382812 C 457.171875 372.382812 422.285156 363.707031 424.945312 323.507812 C 424.945312 323.507812 433.621094 295.527344 444.773438 292.523438 C 444.773438 292.523438 427.773438 287.738281 423.523438 281.011719 C 423.523438 281.011719 400.421875 297.125 403.5625 336.964844 C 406.699219 376.8125 446.542969 393.097656 454.160156 392.917969 L 532.917969 395.222656 L 532.917969 318.015625 C 532.917969 318.015625 526.945312 291.914062 507.171875 276.390625 C 499.394531 270.285156 489.953125 266.6875 480.109375 265.820312 L 455.582031 263.652344 C 455.582031 263.652344 413.085938 251.609375 429.199219 200.617188 C 429.199219 200.617188 440.773438 175.824219 468.097656 176.707031 C 495.425781 177.59375 511.1875 176.886719 511.1875 176.886719 L 511.1875 218.472656 C 511.1875 229.617188 507.589844 240.507812 500.710938 249.273438 C 497.757812 253.039062 494.28125 256.320312 490.421875 257.898438 C 490.421875 257.898438 507.152344 263.074219 510.34375 268.789062 C 510.34375 268.789062 528.113281 262.417969 532.453125 231.429688 C 532.773438 229.164062 532.917969 226.871094 532.917969 224.582031 L 532.917969 155.238281 L 457.171875 155.238281 C 457.171875 155.238281 424.417969 162.71875 415.917969 182.910156 Z M 415.917969 182.910156 " fill-opacity="1" fill-rule="nonzero"/></g><g clip-path="url(#90734a8a86)"><path fill="#151aa5" d="M 656.542969 281.011719 C 652.292969 287.738281 635.292969 292.523438 635.292969 292.523438 C 646.445312 295.535156 655.121094 323.507812 655.121094 323.507812 C 657.78125 363.703125 622.894531 372.382812 622.894531 372.382812 L 567.820312 372.382812 L 567.820312 324.039062 C 570.050781 309.511719 579.847656 299.59375 588.269531 293.59375 C 594.820312 288.917969 602.582031 286.238281 610.609375 285.722656 L 623.242188 284.910156 C 623.242188 284.910156 662.910156 280.839844 672.46875 245.242188 C 682.03125 209.652344 672.644531 203.097656 664.148438 182.910156 C 655.65625 162.71875 622.894531 155.238281 622.894531 155.238281 L 547.148438 155.238281 L 547.148438 224.582031 C 547.148438 226.871094 547.296875 229.164062 547.613281 231.429688 C 551.957031 262.417969 569.722656 268.789062 569.722656 268.789062 C 572.914062 263.082031 589.644531 257.898438 589.644531 257.898438 C 585.785156 256.324219 582.308594 253.042969 579.355469 249.273438 C 572.476562 240.507812 568.878906 229.617188 568.878906 218.472656 L 568.878906 176.886719 C 568.878906 176.886719 584.640625 177.59375 611.96875 176.707031 C 639.292969 175.820312 650.867188 200.617188 650.867188 200.617188 C 666.980469 251.617188 624.484375 263.652344 624.484375 263.652344 L 607.15625 265.183594 C 583.3125 267.285156 562.296875 281.910156 552.308594 303.664062 C 548.5625 311.820312 547.144531 318.023438 547.144531 318.023438 L 547.144531 395.226562 L 625.898438 392.925781 C 633.515625 393.101562 673.355469 376.8125 676.5 336.972656 C 679.644531 297.125 656.542969 281.011719 656.542969 281.011719 Z M 656.542969 281.011719 " fill-opacity="1" fill-rule="nonzero"/></g></svg>